<?xml version="1.0"?>
<VTKFile type="PolyData" version="0.1" byte_order="LittleEndian">
<PolyData>
<Piece NumberOfPoints="876" NumberOfVerts="0" NumberOfLines="0" NumberOfStrips="0" NumberOfPolys="0">
<Points>
<DataArray type="Float32" NumberOfComponents="3" format="ascii">
23.609 245.127 -17.725 181.059 271.577 -22.122 15.739 199.307 -18.731 163.241 223.080 -18.408 101.222 212.608 -16.859 426.008 280.547 -22.110 382.329 290.007 -21.359 348.538 276.292 -20.570 174.059 282.450 -20.389 87.642 206.090 -17.120 351.156 302.083 -22.635 172.639 249.904 -21.121 440.739 300.237 -20.776 52.128 215.888 -17.886 178.754 251.224 -21.676 406.532 294.450 -19.635 34.702 243.420 -17.738 143.410 227.739 -16.357 59.227 181.582 -19.092 142.569 250.779 -18.953 60.214 204.106 -19.563 394.667 297.669 -21.200 167.494 208.997 -20.208 133.829 210.954 -16.536 49.537 204.101 -18.535 417.133 322.031 -19.864 155.901 217.968 -17.533 116.045 201.406 -16.638 67.925 243.870 -18.399 415.795 233.387 -20.945 62.085 203.689 -18.718 140.664 243.061 -17.625 71.276 271.812 -18.731 420.104 235.041 -21.541 57.649 213.641 -19.259 35.209 196.579 -20.111 460.854 284.983 -21.057 168.216 262.586 -19.935 152.664 238.129 -17.769 149.985 248.037 -18.510 165.619 211.871 -19.998 426.473 341.373 -20.140 114.858 194.398 -16.431 100.538 217.780 -16.906 72.975 179.407 -19.162 404.968 277.836 -20.916 383.826 284.949 -20.436 397.745 278.908 -20.451 10.611 214.809 -18.467 154.313 235.409 -17.580 127.110 240.544 -15.560 170.004 220.779 -19.744 125.287 185.374 -16.216 143.475 191.521 -18.154 198.633 253.492 -21.976 367.388 267.315 -20.568 146.882 164.942 -16.521 61.285 218.591 -19.302 57.339 215.309 -18.377 73.768 195.504 -16.958 23.456 205.490 -18.549 410.269 299.154 -21.458 384.864 325.061 -19.257 198.686 177.940 -20.277 388.061 251.727 -21.215 438.903 277.270 -22.326 30.797 171.483 -20.115 432.743 307.211 -20.758 427.975 344.914 -20.600 163.165 242.938 -18.564 25.846 218.665 -17.313 85.577 185.877 -18.303 55.698 215.195 -17.423 163.064 223.886 -19.333 414.270 262.128 -22.335 59.730 175.045 -19.753 53.656 200.655 -19.706 92.449 176.050 -18.465 356.799 306.098 -22.100 420.954 254.525 -22.549 164.117 222.132 -19.953 168.897 217.188 -19.841 463.114 278.896 -19.549 118.263 223.680 -16.592 210.126 229.147 -21.319 37.226 221.853 -16.967 60.932 207.467 -18.431 73.406 195.648 -17.865 386.988 247.705 -21.824 77.189 205.973 -17.916 135.576 217.426 -17.694 165.669 222.729 -20.037 161.248 224.995 -17.112 178.104 194.896 -19.462 384.161 304.829 -19.368 10.517 255.659 -18.717 390.274 281.458 -20.537 367.898 312.340 -20.910 153.705 252.966 -18.437 496.838 212.235 -19.615 386.042 305.257 -20.136 361.133 332.382 -21.105 397.320 276.982 -21.077 173.833 212.765 -19.743 51.767 267.439 -18.811 392.796 316.426 -19.379 31.314 213.860 -18.031 409.119 341.902 -19.932 130.094 233.044 -16.131 415.624 255.717 -21.534 86.573 230.643 -17.532 158.035 218.981 -18.644 450.993 267.383 -21.048 135.281 207.148 -17.283 86.446 221.547 -17.519 402.538 284.595 -20.489 17.487 174.394 -20.336 51.936 166.939 -18.885 170.230 252.242 -20.563 162.853 222.877 -18.191 195.118 207.484 -21.754 167.620 205.806 -19.233 57.253 223.236 -16.611 118.998 219.598 -16.441 403.657 290.820 -20.438 412.754 314.076 -19.463 151.453 244.536 -18.443 421.362 301.230 -20.594 176.169 261.800 -21.316 43.261 187.646 -19.366 157.910 226.307 -18.370 183.415 233.538 -20.482 53.419 208.431 -19.958 16.731 190.305 -20.060 139.496 213.811 -17.549 419.628 287.995 -21.125 23.277 201.309 -19.023 407.226 290.313 -19.902 164.483 227.848 -18.587 51.703 205.143 -19.075 402.071 301.242 -21.711 387.295 302.074 -20.792 53.357 208.165 -19.024 429.061 248.095 -21.634 157.338 217.447 -19.043 38.352 172.239 -20.492 388.611 250.826 -22.036 413.721 319.819 -18.771 51.701 269.110 -19.079 79.290 220.926 -17.449 191.843 229.069 -20.593 44.073 210.245 -19.084 60.307 207.690 -18.389 38.062 187.040 -20.826 387.774 267.441 -19.998 168.627 188.888 -18.389 55.855 218.056 -17.718 61.221 263.459 -19.359 157.521 218.704 -18.537 425.001 272.115 -21.879 31.678 234.769 -17.349 19.461 207.874 -18.533 135.463 214.648 -16.699 217.942 221.962 -22.730 168.587 223.174 -20.287 178.454 228.635 -20.105 428.570 326.282 -20.219 197.803 223.025 -22.210 82.809 258.532 -17.871 37.712 214.419 -19.078 187.873 267.787 -23.183 373.938 284.429 -21.734 101.247 217.082 -15.872 498.330 197.477 -18.379 187.076 207.172 -21.035 421.071 290.626 -19.604 128.543 193.515 -16.255 179.397 230.927 -20.356 407.150 241.250 -22.009 379.427 271.454 -19.874 222.044 215.340 -24.049 396.649 305.635 -19.600 172.464 235.511 -20.520 442.586 299.828 -21.515 366.198 332.596 -21.600 49.796 209.691 -19.768 422.223 289.824 -20.068 116.233 193.296 -15.798 407.241 291.728 -20.940 86.821 235.264 -17.756 418.908 313.072 -19.595 172.621 168.844 -17.795 138.413 255.577 -17.681 101.980 177.288 -16.883 423.679 285.134 -21.511 382.910 238.242 -21.394 214.428 214.790 -21.359 161.947 239.238 -17.964 163.158 223.341 -18.135 47.523 212.112 -17.766 55.959 242.213 -17.876 407.900 281.566 -21.000 66.941 209.445 -18.560 174.044 186.354 -18.717 180.865 211.628 -22.011 434.447 320.437 -20.258 158.276 227.316 -18.483 369.135 337.017 -19.444 361.060 263.465 -19.811 51.379 237.619 -17.273 163.242 221.724 -18.227 108.767 207.984 -16.631 139.619 228.308 -17.026 42.054 201.170 -19.943 370.506 328.110 -20.754 1.908 217.164 -19.554 28.644 168.051 -20.234 58.432 213.122 -18.569 58.912 225.671 -17.438 409.427 292.390 -20.147 383.431 266.079 -19.701 71.800 233.071 -18.109 423.309 306.045 -20.614 381.763 251.804 -21.297 71.981 272.950 -19.309 46.613 205.496 -18.894 97.168 227.913 -17.740 129.612 224.829 -16.656 409.789 291.554 -20.201 136.114 223.227 -16.572 168.436 210.565 -19.272 33.494 186.252 -20.252 391.027 302.752 -20.423 57.540 213.066 -17.839 163.178 224.223 -18.372 177.606 233.091 -20.125 73.177 191.652 -19.067 36.002 242.207 -17.677 446.548 264.660 -22.151 48.425 210.631 -18.333 210.829 185.154 -22.023 52.523 242.085 -16.054 47.121 249.301 -17.785 117.988 244.192 -16.385 183.380 278.960 -21.171 99.572 202.070 -16.033 152.339 227.843 -18.585 407.302 278.709 -22.228 369.836 325.257 -22.008 431.403 298.020 -20.796 31.793 214.962 -18.966 379.774 273.816 -20.406 124.678 188.747 -17.190 75.137 231.944 -17.806 60.740 238.705 -16.623 39.362 207.053 -18.894 405.168 298.801 -19.914 47.311 208.501 -19.730 182.560 211.861 -21.743 66.661 255.264 -19.567 118.652 219.455 -15.998 174.961 256.911 -21.951 140.814 231.765 -15.933 32.918 202.671 -20.027 412.231 298.040 -20.940 162.426 228.412 -19.442 194.240 202.891 -20.610 59.386 189.312 -19.794 133.680 233.733 -17.039 165.555 216.932 -19.300 495.266 213.818 -19.413 220.843 234.217 -21.730 18.582 190.601 -20.039 46.763 221.564 -17.343 68.338 203.303 -18.740 433.704 306.153 -21.034 45.183 217.059 -18.841 369.569 326.029 -21.772 69.218 250.802 -18.515 180.070 185.111 -19.944 144.698 191.422 -17.178 101.607 184.648 -16.340 13.685 245.511 -17.890 166.793 230.054 -19.553 42.621 225.033 -17.613 85.763 209.980 -17.306 143.983 206.683 -16.809 58.599 218.427 -17.713 371.340 293.936 -21.029 53.854 202.862 -19.657 421.625 281.269 -21.273 416.727 281.411 -21.402 171.416 176.722 -17.808 51.212 199.273 -19.671 410.602 323.214 -19.165 158.005 225.585 -18.730 169.754 261.636 -20.124 414.143 343.480 -19.267 165.758 280.927 -19.949 169.409 195.213 -18.412 162.298 222.521 -18.792 435.950 291.566 -21.304 419.424 292.895 -20.828 75.461 193.798 -19.105 415.411 309.444 -20.262 158.415 225.911 -18.701 388.580 310.658 -20.274 381.512 280.919 -20.815 28.025 192.425 -20.357 446.045 280.014 -21.052 401.133 304.733 -20.855 54.163 233.942 -17.120 398.733 296.557 -19.746 366.687 335.413 -20.675 157.744 228.626 -17.802 174.798 166.195 -18.292 211.670 224.908 -23.149 414.908 315.356 -20.139 159.112 223.207 -18.329 168.707 230.498 -19.152 134.692 255.413 -17.129 421.918 311.439 -20.711 69.898 272.758 -18.803 9.313 202.554 -19.266 142.807 247.924 -17.708 152.667 204.113 -17.786 186.854 226.797 -20.866 47.833 262.885 -18.527 393.553 342.877 -19.495 162.929 217.256 -18.832 66.731 224.891 -17.919 403.137 299.743 -19.607 403.804 265.862 -21.500 442.748 287.861 -21.961 40.017 198.409 -19.253 420.028 272.684 -22.663 161.884 223.980 -18.818 45.563 231.555 -17.484 399.410 309.121 -20.312 127.569 197.961 -17.205 424.266 301.385 -20.985 148.476 184.880 -16.812 153.276 167.982 -15.773 220.190 242.189 -22.089 62.328 222.808 -18.379 39.837 194.480 -21.442 429.331 290.769 -20.972 107.610 208.275 -16.756 159.284 217.794 -19.155 203.810 187.674 -20.600 166.087 211.781 -20.256 170.613 230.840 -19.315 157.140 181.271 -17.677 353.098 285.086 -19.953 64.016 264.296 -19.292 103.595 189.647 -16.065 189.257 178.254 -20.051 60.102 216.106 -18.259 437.022 262.506 -22.592 114.357 232.595 -16.352 406.890 291.042 -21.084 69.695 235.620 -17.490 46.106 219.159 -18.279 445.570 246.374 -21.888 63.417 155.345 -17.342 162.032 192.001 -17.826 60.594 221.703 -17.990 379.604 281.000 -19.265 174.115 270.690 -20.443 386.129 272.384 -21.440 48.873 194.456 -20.764 399.993 332.757 -19.970 163.544 223.944 -19.231 436.974 275.485 -21.891 64.728 213.523 -18.469 406.849 234.049 -20.500 152.809 282.343 -19.157 124.543 211.346 -16.897 371.788 290.290 -20.968 387.619 260.778 -20.970 152.658 202.492 -17.972 50.110 217.517 -17.519 146.902 178.376 -16.493 13.090 213.422 -18.564 118.275 258.805 -16.789 182.419 253.194 -21.884 12.902 174.810 -20.017 111.765 214.659 -15.563 127.700 208.108 -17.113 30.426 197.818 -20.501 122.826 234.923 -14.833 52.048 215.027 -19.242 54.876 196.052 -19.631 144.120 279.862 -18.107 393.695 299.200 -19.630 393.861 316.777 -19.787 183.435 217.495 -21.371 436.067 333.673 -19.835 405.750 288.355 -19.435 116.191 253.752 -18.358 391.043 262.991 -21.277 105.208 186.318 -17.417 17.267 226.087 -17.967 52.487 211.112 -18.321 408.177 294.032 -20.665 57.057 215.587 -18.655 31.329 256.706 -20.056 369.713 252.816 -20.350 55.537 202.986 -19.524 442.263 332.307 -20.863 102.901 196.166 -16.601 80.100 177.159 -17.572 393.787 237.267 -21.329 181.655 268.873 -20.651 408.624 294.262 -20.488 202.829 184.297 -20.476 66.608 263.483 -19.103 422.306 333.293 -19.774 12.219 231.888 -17.866 57.993 222.785 -17.308 422.017 267.367 -22.896 388.494 300.588 -20.108 153.507 177.665 -16.325 53.930 213.227 -18.614 53.208 215.185 -18.709 35.374 227.786 -17.964 157.351 200.634 -18.704 370.478 262.848 -22.292 499.030 202.416 -18.561 401.265 279.305 -20.821 367.302 334.159 -21.323 108.328 229.461 -16.852 154.780 244.307 -18.152 212.560 217.051 -21.828 372.788 335.108 -20.678 419.758 241.711 -22.656 385.954 257.552 -21.641 168.634 226.781 -19.694 36.628 241.710 -17.439 40.785 210.511 -19.535 169.669 213.265 -19.518 390.566 250.717 -22.207 202.189 223.568 -22.449 57.360 217.122 -18.365 182.427 191.617 -19.172 68.065 241.471 -17.466 429.802 244.230 -22.034 368.079 258.088 -21.362 164.302 227.792 -19.426 449.326 308.043 -19.181 161.474 248.079 -19.575 427.592 323.363 -19.652 137.607 209.139 -17.690 31.931 254.996 -17.907 129.861 264.459 -17.806 411.499 323.832 -19.019 37.342 215.776 -18.067 48.326 189.279 -20.962 158.793 215.262 -18.993 408.627 303.795 -20.667 62.757 207.831 -18.584 114.730 251.540 -17.898 387.890 324.945 -19.822 100.075 218.164 -16.857 423.994 330.290 -18.929 60.640 163.146 -17.152 378.779 275.072 -19.782 397.343 316.154 -19.554 111.661 256.082 -16.979 44.694 239.908 -17.339 420.010 271.065 -22.722 352.072 321.042 -22.020 103.786 220.244 -18.339 181.101 190.744 -18.754 50.734 155.015 -18.204 75.050 273.719 -18.717 111.891 229.806 -16.392 406.832 291.305 -21.305 361.689 299.361 -20.062 418.172 329.180 -20.411 54.657 204.077 -18.808 380.958 280.616 -19.469 94.313 256.621 -15.918 149.372 182.648 -16.983 64.411 251.662 -17.668 208.699 191.544 -21.385 220.913 239.242 -21.207 216.266 250.947 -20.556 119.842 235.847 -15.169 83.479 213.790 -18.339 137.938 268.679 -18.697 183.167 209.951 -20.658 156.521 204.068 -19.247 72.675 212.181 -16.812 48.658 201.026 -19.713 39.241 265.807 -18.101 63.427 208.394 -18.233 162.456 223.286 -19.503 113.652 215.757 -15.566 55.446 212.427 -18.775 111.765 201.308 -16.658 148.423 216.815 -17.573 406.643 231.645 -21.258 406.832 291.058 -19.942 415.334 314.273 -19.397 384.807 317.292 -20.122 399.036 271.037 -20.785 56.543 243.738 -17.491 164.008 205.157 -18.144 407.977 301.650 -21.078 212.930 188.298 -22.347 179.136 241.747 -19.631 416.338 338.823 -19.717 407.011 266.055 -22.565 178.023 260.284 -21.644 405.315 291.169 -19.470 449.802 254.797 -21.557 30.350 269.905 -19.628 375.751 285.902 -20.595 157.550 185.146 -17.222 172.465 229.098 -20.250 52.370 209.886 -17.860 182.789 179.553 -19.863 151.893 224.581 -17.499 85.017 223.104 -17.881 64.637 178.090 -18.299 416.759 299.719 -20.728 200.879 247.273 -22.308 176.103 209.462 -20.631 151.009 215.021 -18.271 157.052 254.763 -19.246 393.670 280.735 -20.168 174.254 191.920 -18.889 391.527 301.748 -20.119 159.237 243.044 -18.390 62.861 236.517 -17.341 371.938 277.439 -19.657 156.597 273.573 -18.749 170.371 213.450 -20.379 59.924 181.806 -19.435 10.337 247.839 -18.444 62.464 229.506 -17.481 199.556 175.430 -21.466 423.918 293.599 -20.923 42.970 245.931 -17.674 6.324 222.780 -18.564 140.158 235.225 -16.337 430.298 251.412 -22.654 50.479 227.722 -15.928 86.908 237.371 -17.036 172.564 240.989 -21.059 64.656 268.150 -18.517 173.885 225.483 -22.128 84.990 216.309 -17.819 386.914 295.332 -21.318 163.308 223.412 -19.369 56.466 215.418 -17.230 152.747 222.206 -17.799 83.818 243.929 -17.585 8.030 207.023 -19.568 385.251 327.791 -18.923 38.858 255.022 -17.839 408.243 271.292 -21.342 186.247 271.393 -22.437 395.398 336.590 -20.285 376.889 268.878 -20.483 114.531 235.309 -16.348 55.642 255.043 -19.905 408.831 298.076 -21.134 101.673 179.468 -17.405 63.899 206.569 -17.754 29.180 194.213 -20.465 178.458 277.582 -21.338 179.248 228.181 -19.728 159.045 261.055 -18.984 380.393 341.767 -19.318 413.762 317.180 -19.657 204.659 209.604 -21.656 58.368 182.690 -19.171 381.931 284.991 -20.589 2.533 227.023 -17.952 33.943 190.699 -20.071 185.479 245.126 -20.273 176.320 281.840 -20.341 52.357 212.010 -17.792 60.354 213.866 -17.899 383.833 280.510 -20.320 89.717 191.251 -16.145 427.148 307.351 -19.619 83.256 266.972 -17.139 198.725 237.358 -21.579 55.963 215.523 -17.323 406.234 291.295 -20.464 150.370 248.736 -18.022 375.645 269.572 -20.093 402.087 270.886 -20.290 44.057 187.789 -20.641 136.749 232.184 -17.178 397.327 234.508 -20.887 406.937 291.035 -20.459 159.444 219.292 -17.971 421.527 267.854 -22.556 192.926 214.624 -21.985 80.624 192.356 -18.114 154.697 168.707 -17.359 170.156 261.863 -20.411 161.449 223.719 -18.278 404.017 286.848 -20.748 55.415 265.131 -19.644 55.962 215.574 -16.757 405.061 288.721 -20.243 31.112 235.885 -17.713 62.663 231.559 -16.859 387.942 242.931 -20.130 48.368 210.745 -18.712 123.558 229.580 -16.354 163.911 167.963 -17.581 108.064 198.900 -16.740 24.414 197.210 -19.805 118.924 216.488 -16.089 384.948 320.065 -20.566 405.352 278.055 -20.359 44.615 211.965 -17.935 398.423 315.589 -19.848 61.841 216.851 -18.487 374.793 277.776 -19.232 393.104 289.196 -20.587 143.141 199.781 -17.102 497.830 221.335 -19.637 109.339 238.268 -17.502 207.169 255.117 -22.074 418.050 295.942 -20.717 176.101 219.899 -20.253 39.997 183.277 -20.470 159.006 282.321 -19.468 169.887 216.032 -20.697 406.891 290.999 -20.253 377.867 340.563 -19.489 145.752 205.582 -17.595 192.290 211.358 -21.792 56.315 216.252 -18.084 420.884 347.171 -18.903 6.539 186.310 -18.030 184.619 259.639 -22.024 422.547 273.148 -23.216 59.901 225.170 -17.366 222.668 217.261 -23.478 155.793 234.007 -17.982 410.908 276.432 -20.542 54.047 205.227 -19.171 499.465 233.372 -18.698 71.793 240.419 -17.843 160.686 222.169 -18.116 36.281 169.481 -19.303 424.892 262.145 -23.976 186.957 200.541 -19.683 156.826 170.670 -15.739 32.432 225.750 -17.908 192.881 255.730 -20.933 202.075 199.074 -22.160 18.053 197.512 -20.006 420.776 301.858 -21.285 127.106 216.735 -16.038 164.681 194.565 -18.078 57.289 214.721 -18.376 115.499 244.553 -17.112 67.333 209.227 -18.781 396.459 296.856 -19.417 117.924 205.066 -16.341 20.186 237.192 -18.630 95.887 217.973 -16.742 407.174 290.925 -20.127 419.175 349.730 -19.963 70.653 162.201 -18.437 38.769 260.420 -18.165 39.086 182.561 -20.323 49.517 170.691 -18.887 70.957 169.940 -17.221 406.014 293.370 -19.464 146.223 232.043 -16.707 71.483 199.590 -18.087 43.464 168.998 -20.035 78.537 267.298 -18.231 191.938 205.794 -20.977 72.882 189.604 -17.954 403.536 284.921 -19.177 86.329 256.189 -16.718 80.701 268.114 -17.556 408.502 294.851 -20.632 407.963 298.854 -21.216 46.508 214.642 -18.769 375.417 282.412 -20.396 417.932 293.254 -20.211 55.448 216.377 -18.173 425.670 268.509 -22.629 105.189 184.776 -16.280 143.928 224.629 -17.308 407.342 293.425 -20.649 431.412 268.928 -23.019 459.564 311.860 -20.472 38.962 196.970 -19.675 149.502 174.696 -17.062 44.546 198.870 -20.286 363.378 270.671 -19.803 36.742 250.686 -18.213 152.402 209.010 -17.362 423.742 332.078 -20.913 49.155 229.377 -16.249 155.758 226.578 -18.511 402.566 270.007 -21.329 84.941 203.905 -18.255 55.970 213.921 -17.393 437.392 278.296 -22.431 215.129 223.285 -22.966 164.215 222.913 -19.197 60.308 232.214 -17.623 0.049 200.198 -18.535 179.816 184.467 -19.766 42.113 254.972 -18.837 396.424 310.690 -19.424 81.569 239.136 -19.032 197.566 241.108 -20.685 423.624 272.687 -22.911 403.844 321.062 -18.712 193.400 213.367 -21.144 32.142 188.411 -20.139 30.479 215.202 -17.336 411.483 315.046 -18.596 162.665 223.561 -17.986 395.676 260.296 -21.636 157.099 225.949 -18.020 390.405 273.868 -20.039 167.221 233.142 -19.280 401.835 278.314 -19.977 400.345 313.963 -19.457 364.739 332.052 -21.859 141.086 246.728 -17.468 26.568 174.206 -19.660 401.480 304.878 -20.699 71.340 242.720 -18.857 371.817 304.784 -21.506 149.129 198.962 -17.436 51.825 232.425 -17.137 190.979 265.675 -21.784 48.293 230.909 -16.225 44.901 189.959 -20.675 408.462 323.165 -18.004 12.428 242.528 -19.075 56.461 204.903 -18.592 98.572 215.728 -16.313 412.132 300.976 -21.204 41.460 221.801 -17.362 27.393 190.111 -19.623 9.779 220.746 -18.223 208.866 222.193 -22.276 467.032 292.445 -20.051 161.289 225.215 -18.051 153.731 236.902 -17.629 160.871 249.650 -18.195 455.338 316.985 -20.118 450.126 276.409 -21.061 32.569 174.315 -20.044 357.618 314.318 -22.209 390.737 274.828 -19.936 169.504 214.023 -20.285 38.648 205.545 -19.217 62.446 206.158 -18.464 23.149 226.980 -17.880 44.518 214.783 -19.159 56.705 182.326 -18.608 410.745 292.442 -20.368 151.990 207.995 -17.365 173.611 184.278 -19.282 40.749 240.525 -17.330 65.094 248.689 -18.786 384.552 282.257 -21.109 436.207 328.076 -19.825 400.429 270.427 -20.439 401.481 288.653 -20.242 392.947 270.471 -21.479 186.675 204.578 -21.828 199.287 214.200 -21.325 56.534 217.902 -18.559 18.307 247.370 -18.819 443.111 250.570 -23.163 63.172 169.837 -18.768 159.762 194.804 -17.714 430.565 293.662 -21.268 164.535 229.795 -20.446 415.070 250.940 -22.505 429.617 325.313 -20.861 72.809 226.661 -17.568 54.488 224.137 -17.775 138.608 239.150 -17.120 57.622 213.499 -17.311 176.293 251.737 -20.925 441.944 301.559 -20.111 74.533 219.668 -17.774 386.454 326.608 -19.681 108.810 241.216 -16.975 416.468 293.415 -20.251 20.033 253.779 -18.957 13.077 201.837 -18.691 59.155 242.222 -18.246 40.171 196.622 -20.517 119.769 252.948 -16.578 162.762 219.063 -18.350 438.247 275.473 -22.302 496.811 202.974 -18.643 161.948 224.319 -19.142 157.149 262.472 -19.465 452.950 315.088 -19.167 169.948 213.473 -19.300 153.799 194.310 -18.001 79.471 228.264 -17.611 377.574 271.356 -20.406 115.914 210.881 -16.492 57.998 239.459 -17.309 14.314 219.123 -18.354 497.558 222.847 -18.807 411.815 310.166 -20.791 114.831 232.002 -17.428 148.980 238.795 -17.628 461.448 296.371 -19.348 402.690 310.321 -19.450 69.700 271.889 -19.089 51.802 227.390 -16.826 40.043 184.425 -20.165 68.128 226.017 -16.800 355.919 310.379 -23.088 172.401 216.688 -21.699 136.612 200.208 -17.347 152.477 215.826 -18.468 390.901 238.910 -21.060 168.924 254.961 -20.944 169.732 186.870 -17.656 159.721 224.063 -18.035 438.391 318.296 -20.402 115.849 213.529 -15.827 416.573 283.500 -22.284 150.971 275.566 -19.238 34.418 208.912 -18.170 114.762 227.925 -16.429 65.691 191.288 -18.234 27.554 197.680 -20.083 150.932 238.621 -17.444 76.475 252.092 -18.427 375.247 262.330 -20.631 137.420 229.956 -16.850 156.319 189.722 -18.750 420.464 276.129 -21.968 160.258 218.880 -19.341 360.209 310.743 -21.973 116.325 230.539 -16.836 163.734 222.654 -19.642 163.807 225.930 -18.428 204.899 221.969 -21.717 157.640 225.232 -18.836 382.101 237.394 -20.665 0.542 240.586 -19.126 104.432 240.246 -18.229 201.967 238.466 -21.697 142.531 170.300 -16.039 33.468 254.442 -17.503 398.800 298.292 -21.101 47.786 215.752 -18.426 56.834 215.312 -18.447 193.897 219.166 -21.459 156.891 221.008 -19.093 405.603 283.008 -19.659 91.631 186.458 -17.256 496.323 223.457 -19.501 146.203 213.306 -17.289 56.969 216.822 -17.870 175.994 229.914 -19.272 48.561 194.014 -20.398
</DataArray>
</Points>
<PointData>
<DataArray type="Int32" Name="region" format="ascii">
0 0 0 0 0 0 0 0 0 0 0 0 0 0 0 0 0 0 0 0 0 0 0 0 0 0 0 0 0 0 0 0 0 0 0 0 0 0 0 0 0 0 0 0 0 0 0 0 0 0 0 0 0 0 0 0 0 0 0 0 0 0 0 0 0 0 0 0 0 0 0 0 0 0 0 0 0 0 0 0 0 0 0 0 0 0 0 0 0 0 0 0 0 0 0 0 0 0 0 0 0 0 0 0 0 0 0 0 0 0 0 0 0 0 0 0 0 0 0 0 0 0 0 0 0 0 0 0 0 0 0 0 0 0 0 0 0 0 0 0 0 0 0 0 0 0 0 0 0 0 0 0 0 0 0 0 0 0 0 0 0 0 0 0 0 0 0 0 0 0 0 0 0 0 0 0 0 0 0 0 0 0 0 0 0 0 0 0 0 0 0 0 0 0 0 0 0 0 0 0 0 0 0 0 0 0 0 0 0 0 0 0 0 0 0 0 0 0 0 0 0 0 0 0 0 0 0 0 0 0 0 0 0 0 0 0 0 0 0 0 0 0 0 0 0 0 0 0 0 0 0 0 0 0 0 0 0 0 0 0 0 0 0 0 0 0 0 0 0 0 0 0 0 0 0 0 0 0 0 0 0 0 0 0 0 0 0 0 0 0 0 0 0 0 0 0 0 0 0 0 0 0 0 0 0 0 0 0 0 0 0 0 0 0 0 0 0 0 0 0 0 0 0 0 0 0 0 0 0 0 0 0 0 0 0 0 0 0 0 0 0 0 0 0 0 0 0 0 0 0 0 0 0 0 0 0 0 0 0 0 0 0 0 0 0 0 0 0 0 0 0 0 0 0 0 0 0 0 0 0 0 0 0 0 0 0 0 0 0 0 0 0 0 0 0 0 0 0 0 0 0 0 0 0 0 0 0 0 0 0 0 0 0 0 0 0 0 0 0 0 0 0 0 0 0 0 0 0 0 0 0 0 0 0 0 0 0 0 0 0 0 0 0 0 0 0 0 0 0 0 0 0 0 0 0 0 0 0 0 0 0 0 0 0 0 0 0 0 0 0 0 0 0 0 0 0 0 0 0 0 0 0 0 0 0 0 0 0 0 0 0 0 0 0 0 0 0 0 0 0 0 0 0 0 0 0 0 0 0 0 0 0 0 0 0 0 0 0 0 0 0 0 0 0 0 0 0 0 0 0 0 0 0 0 0 0 0 0 0 0 0 0 0 0 0 0 0 0 0 0 0 0 0 0 0 0 0 0 0 0 0 0 0 0 0 0 0 0 0 0 0 0 0 0 0 0 0 0 0 0 0 0 0 0 0 0 0 0 0 0 0 0 0 0 0 0 0 0 0 0 0 0 0 0 0 0 0 0 0 0 0 0 0 0 0 0 0 0 0 0 0 0 0 0 0 0 0 0 0 0 0 0 0 0 0 0 0 0 0 0 0 0 0 0 0 0 0 0 0 0 0 0 0 0 0 0 0 0 0 0 0 0 0 0 0 0 0 0 0 0 0 0 0 0 0 0 0 0 0 0 0 0 0 0 0 0 0 0 0 0 0 0 0 0 0 0 0 0 0 0 0 0 0 0 0 0 0 0 0 0 0 0 0 0 0 0 0 0 0 0 0 0 0 0 0 0 0 0 0 0 0 0 0 0 0 0 0 0 0 0 0 0 0 0 0 0 0 0 0 0 0 0 0 0 0 0 0 0 0 0 0 0 0 0 0 0 0 0 0 0 0 0 0 0 0 0 0 0 0 0 0 0 0 0 0 0 0 0 0 0 0 0 0 0 0 0 0 0 0 0 0 0 0 0 0 0 0 0 0 0 0 0 0 0 0 0 0 0 0 0 0 0 0 0 0 0 0 0 0 0 0 0 0 0 0 0 0 0 0 0 0 0 0 0 0 0 0 0 0 0 0 0 0 0 0 0 0 0 0 0 0 0 0 0 0 0 0 0 0 0 0 0 0 0 0 0
</DataArray>
<DataArray type="Float32" Name="order_param" format="ascii">
0.7597 0.8039 0.6655 0.7708 0.6148 0.6974 0.8333 0.5802 0.6165 0.8094 0.8256 0.7930 0.7304 0.6370 0.6844 0.6062 0.8407 0.7413 0.7392 0.6732 0.7930 0.6678 0.7505 0.8033 0.7999 0.7376 0.7904 0.7147 0.7309 0.6958 0.6494 0.8144 0.6846 0.7086 0.7542 0.7746 0.8501 0.8099 0.6682 0.6503 0.7590 0.6092 0.7231 0.7780 0.7887 0.7615 0.8219 0.7759 0.7782 0.7076 0.7843 0.6757 0.7286 0.8146 0.8464 0.5712 0.8133 0.8229 0.6757 0.8052 0.7424 0.7861 0.7246 0.8197 0.5876 0.8228 0.7849 0.8343 0.8326 0.8143 0.8248 0.8320 0.6288 0.8326 0.8167 0.8082 0.7402 0.6929 0.6089 0.6129 0.8527 0.4692 0.6724 0.6965 0.7880 0.8047 0.7330 0.8656 0.7936 0.8371 0.8025 0.6195 0.7140 0.8005 0.7830 0.8575 0.8373 0.7907 0.8104 0.6269 0.7954 0.8644 0.7820 0.7918 0.6569 0.7745 0.7990 0.7636 0.6791 0.6306 0.8467 0.6381 0.7709 0.7823 0.6050 0.7924 0.7533 0.6980 0.6429 0.8035 0.6502 0.7142 0.8116 0.8249 0.7905 0.8565 0.6362 0.7748 0.7082 0.8538 0.6930 0.7960 0.8673 0.7827 0.6309 0.6138 0.5931 0.8315 0.5410 0.7661 0.6754 0.6994 0.7720 0.7779 0.7767 0.6977 0.6463 0.6658 0.6197 0.7126 0.7308 0.8761 0.6454 0.7983 0.8060 0.7469 0.8072 0.8216 0.7670 0.8069 0.8345 0.7981 0.7847 0.7375 0.8476 0.8235 0.8385 0.6429 0.7189 0.8186 0.7475 0.8230 0.7049 0.6922 0.8247 0.7509 0.7742 0.7164 0.5797 0.7866 0.6678 0.7839 0.6201 0.8477 0.5360 0.8195 0.5753 0.8055 0.8475 0.6188 0.7939 0.8330 0.6791 0.8087 0.6610 0.7440 0.8467 0.8050 0.7719 0.6807 0.8089 0.7535 0.8163 0.7386 0.8283 0.7268 0.5728 0.8120 0.7917 0.7740 0.6224 0.8207 0.7203 0.8202 0.6858 0.5357 0.7713 0.7747 0.8477 0.8653 0.7353 0.7079 0.8148 0.7423 0.7468 0.7571 0.8313 0.8236 0.7124 0.7175 0.6742 0.8331 0.7818 0.8357 0.6498 0.7226 0.8304 0.7994 0.8442 0.6615 0.7791 0.6412 0.7013 0.5607 0.7135 0.8528 0.8552 0.5909 0.7133 0.5941 0.7153 0.7927 0.7664 0.8405 0.6068 0.7183 0.5991 0.8506 0.8042 0.7613 0.8386 0.5836 0.8209 0.5876 0.7741 0.7555 0.5668 0.7173 0.7121 0.5317 0.7378 0.8384 0.6547 0.7477 0.8302 0.6118 0.7836 0.7605 0.8407 0.8317 0.8210 0.7985 0.8606 0.5601 0.8221 0.8217 0.8818 0.6127 0.7807 0.5757 0.6954 0.5813 0.8445 0.7774 0.5886 0.7117 0.7764 0.8098 0.6824 0.7067 0.8137 0.6675 0.6014 0.6981 0.8143 0.6275 0.7976 0.7566 0.7921 0.6027 0.5744 0.6188 0.5944 0.8544 0.6375 0.7243 0.7490 0.6167 0.7491 0.5555 0.7965 0.8069 0.7651 0.7780 0.8238 0.7157 0.8321 0.6110 0.8304 0.7256 0.8326 0.7987 0.7677 0.7491 0.7374 0.8755 0.6540 0.6189 0.6646 0.5859 0.6370 0.5771 0.7568 0.8373 0.7192 0.8124 0.7157 0.6467 0.7910 0.6564 0.7948 0.7342 0.8165 0.8050 0.6687 0.6502 0.6812 0.8462 0.8387 0.6710 0.7286 0.6782 0.5875 0.7525 0.8338 0.7147 0.5330 0.8231 0.7977 0.7180 0.8708 0.7662 0.7449 0.6578 0.6602 0.6237 0.8271 0.8300 0.7844 0.7769 0.6918 0.6677 0.7822 0.7923 0.6641 0.8461 0.8678 0.5867 0.6445 0.6628 0.8227 0.7909 0.7949 0.6679 0.7564 0.5100 0.7850 0.7789 0.7942 0.7026 0.7369 0.7537 0.8112 0.7824 0.8244 0.8023 0.6426 0.8165 0.6405 0.6263 0.8030 0.8278 0.7138 0.7357 0.6562 0.8356 0.8409 0.6617 0.8531 0.7308 0.8345 0.7689 0.8728 0.8040 0.8329 0.6740 0.5390 0.6135 0.6610 0.7653 0.6845 0.8257 0.8212 0.7364 0.7039 0.6477 0.7003 0.8543 0.7828 0.7257 0.5512 0.6045 0.7893 0.7917 0.6796 0.5417 0.8026 0.8509 0.8613 0.7490 0.6960 0.7165 0.8034 0.8140 0.6102 0.8380 0.7813 0.8267 0.7362 0.7738 0.8573 0.7173 0.8338 0.8154 0.7790 0.7240 0.6322 0.6502 0.6353 0.7442 0.8113 0.6917 0.8055 0.8881 0.8685 0.7218 0.8765 0.6342 0.8122 0.6372 0.7412 0.6361 0.5950 0.7317 0.8441 0.8439 0.7130 0.8441 0.6840 0.6625 0.7802 0.6317 0.6360 0.7948 0.7136 0.7456 0.6643 0.6605 0.6674 0.7896 0.7670 0.6034 0.8511 0.6153 0.7293 0.7820 0.8019 0.4813 0.6770 0.7649 0.7226 0.6400 0.6966 0.7857 0.7876 0.7605 0.7234 0.7152 0.7733 0.7798 0.7994 0.6636 0.7569 0.8264 0.7614 0.8039 0.8175 0.7222 0.6617 0.8794 0.8499 0.8084 0.7815 0.5806 0.6564 0.8355 0.7697 0.8380 0.8509 0.8367 0.7203 0.8144 0.7824 0.7053 0.6799 0.8519 0.6241 0.6213 0.7687 0.6655 0.8282 0.6928 0.7913 0.7938 0.8215 0.7640 0.7098 0.6125 0.6710 0.7003 0.7949 0.8294 0.7416 0.8595 0.7402 0.7704 0.8137 0.8291 0.8023 0.8473 0.7174 0.6984 0.7684 0.6768 0.7766 0.8656 0.6081 0.8283 0.6766 0.7748 0.5523 0.8003 0.8023 0.6985 0.7957 0.8149 0.7273 0.7302 0.8510 0.7582 0.6849 0.6102 0.7822 0.8564 0.8426 0.6382 0.8117 0.8254 0.8049 0.7477 0.8106 0.7030 0.7635 0.8350 0.7493 0.7776 0.7409 0.7815 0.8068 0.7640 0.8240 0.7291 0.7073 0.7137 0.5693 0.5836 0.7389 0.6677 0.8755 0.8393 0.6720 0.8434 0.6656 0.7203 0.8070 0.8172 0.6749 0.7871 0.8174 0.7566 0.7747 0.5842 0.8175 0.6910 0.8174 0.7618 0.7578 0.8855 0.8346 0.7820 0.7785 0.6799 0.5924 0.8330 0.8355 0.7490 0.7858 0.7191 0.6007 0.7255 0.7163 0.8095 0.7067 0.7175 0.7168 0.6013 0.6495 0.6926 0.5850 0.6761 0.7738 0.7626 0.7312 0.7294 0.7709 0.8063 0.7921 0.8238 0.6942 0.6607 0.7653 0.6327 0.7684 0.8195 0.8242 0.8097 0.7983 0.8367 0.7616 0.7803 0.7945 0.8248 0.8173 0.7081 0.7965 0.7140 0.6971 0.6203 0.8312 0.6701 0.8717 0.6197 0.8321 0.7851 0.8251 0.7504 0.8610 0.7134 0.7952 0.8751 0.7148 0.7166 0.8417 0.7091 0.7257 0.7760 0.6681 0.6364 0.5830 0.7700 0.7923 0.6453 0.6592 0.8519 0.7339 0.7989 0.7871 0.8304 0.6293 0.7717 0.5651 0.8142 0.5773 0.7295 0.8071 0.8491 0.7259 0.7302 0.6132 0.7230 0.8460 0.7119 0.6892 0.8049 0.5600 0.6324 0.8118 0.7497 0.8370 0.6824 0.6100 0.8516 0.6841 0.6277 0.7920 0.8120 0.7588 0.8094 0.7495 0.6701 0.6168 0.6708 0.8096 0.5906 0.7818 0.6975 0.7261 0.8343 0.7856 0.7101 0.7484 0.7665 0.7520 0.8111 0.6068 0.7889 0.8151 0.8162 0.6402 0.8615 0.6812 0.8446 0.7118 0.8054 0.6166 0.7645 0.8520 0.8793 0.6410 0.5575 0.7638 0.7394 0.6272 0.8410 0.7829 0.7747 0.6503 0.7617 0.7977 0.7062 0.8037 0.8063 0.7740 0.8250 0.8181 0.8658 0.7556 0.6876 0.7264 0.7037 0.8382 0.6550 0.8348 0.8480 0.8004 0.5286 0.6038 0.7032 0.5868 0.7413 0.6797 0.5366 0.7464 0.7319 0.6871 0.7672 0.8233 0.7024 0.6415 0.8173 0.7984 0.7868 0.5384 0.6037 0.6161 0.7025 0.6510 0.8677 0.8293 0.7810 0.8035 0.7829 0.7162 0.7822 0.8224 0.8799 0.6923 0.8514 0.6588 0.7109 0.7846 0.8283 0.7616 0.7314 0.5701 0.8628 0.6085 0.7882 0.8201 0.8192 0.6645 0.8030 0.8738 0.6432 0.6797 0.8118 0.7478 0.6730 0.7860 0.8715 0.8343 0.7568 0.7255 0.7301 0.7458 0.8377 0.7377 0.6929 0.7759 0.6556 0.6512 0.7651 0.7566 0.6037 0.6523 0.7247
</DataArray>
<DataArray type="Int32" Name="in_raft" format="ascii">
0 0 0 0 0 0 0 0 0 0 0 0 0 0 0 0 0 0 0 0 0 0 0 0 0 0 0 0 0 0 0 0 0 0 0 0 0 0 0 0 0 0 0 0 0 0 0 0 0 0 0 0 0 0 0 0 0 0 0 0 0 0 0 0 0 0 0 0 0 0 0 0 0 0 0 0 0 0 0 0 0 0 0 0 0 0 0 0 0 0 0 0 0 0 0 0 0 0 0 0 0 0 0 0 0 0 0 0 0 0 0 0 0 0 0 0 0 0 0 0 0 0 0 0 0 0 0 0 0 0 0 0 0 0 0 0 0 0 0 0 0 0 0 0 0 0 0 0 0 0 0 0 0 0 0 0 0 0 0 0 0 0 0 0 0 0 0 0 0 0 0 0 0 0 0 0 0 0 0 0 0 0 0 0 0 0 0 0 0 0 0 0 0 0 0 0 0 0 0 0 0 0 0 0 0 0 0 0 0 0 0 0 0 0 0 0 0 0 0 0 0 0 0 0 0 0 0 0 0 0 0 0 0 0 0 0 0 0 0 0 0 0 0 0 0 0 0 0 0 0 0 0 0 0 0 0 0 0 0 0 0 0 0 0 0 0 0 0 0 0 0 0 0 0 0 0 0 0 0 0 0 0 0 0 0 0 0 0 0 0 0 0 0 0 0 0 0 0 0 0 0 0 0 0 0 0 0 0 0 0 0 0 0 0 0 0 0 0 0 0 0 0 0 0 0 0 0 0 0 0 0 0 0 0 0 0 0 0 0 0 0 0 0 0 0 0 0 0 0 0 0 0 0 0 0 0 0 0 0 0 0 0 0 0 0 0 0 0 0 0 0 0 0 0 0 0 0 0 0 0 0 0 0 0 0 0 0 0 0 0 0 0 0 0 0 0 0 0 0 0 0 0 0 0 0 0 0 0 0 0 0 0 0 0 0 0 0 0 0 0 0 0 0 0 0 0 0 0 0 0 0 0 0 0 0 0 0 0 0 0 0 0 0 0 0 0 0 0 0 0 0 0 0 0 0 0 0 0 0 0 0 0 0 0 0 0 0 0 0 0 0 0 0 0 0 0 0 0 0 0 0 0 0 0 0 0 0 0 0 0 0 0 0 0 0 0 0 0 0 0 0 0 0 0 0 0 0 0 0 0 0 0 0 0 0 0 0 0 0 0 0 0 0 0 0 0 0 0 0 0 0 0 0 0 0 0 0 0 0 0 0 0 0 0 0 0 0 0 0 0 0 0 0 0 0 0 0 0 0 0 0 0 0 0 0 0 0 0 0 0 0 0 0 0 0 0 0 0 0 0 0 0 0 0 0 0 0 0 0 0 0 0 0 0 0 0 0 0 0 0 0 0 0 0 0 0 0 0 0 0 0 0 0 0 0 0 0 0 0 0 0 0 0 0 0 0 0 0 0 0 0 0 0 0 0 0 0 0 0 0 0 0 0 0 0 0 0 0 0 0 0 0 0 0 0 0 0 0 0 0 0 0 0 0 0 0 0 0 0 0 0 0 0 0 0 0 0 0 0 0 0 0 0 0 0 0 0 0 0 0 0 0 0 0 0 0 0 0 0 0 0 0 0 0 0 0 0 0 0 0 0 0 0 0 0 0 0 0 0 0 0 0 0 0 0 0 0 0 0 0 0 0 0 0 0 0 0 0 0 0 0 0 0 0 0 0 0 0 0 0 0 0 0 0 0 0 0 0 0 0 0 0 0 0 0 0 0 0 0 0 0 0 0 0 0 0 0 0 0 0 0 0 0 0 0 0 0 0 0 0 0 0 0 0 0 0 0 0 0 0 0 0 0 0 0 0 0 0 0 0 0 0 0 0 0 0 0 0 0 0 0 0 0 0 0 0 0 0 0 0 0 0 0 0 0 0 0 0 0 0 0 0 0 0 0 0 0 0 0 0 0 0 0 0 0 0 0 0 0 0 0 0 0 0 0 0 0 0 0 0 0 0 0 0 0 0
</DataArray>
<DataArray type="Int32" Name="is_pip" format="ascii">
1 1 1 1 1 1 1 1 1 1 1 1 1 1 1 1 1 1 1 1 1 1 1 1 1 1 1 1 1 1 1 1 1 1 1 1 1 1 1 1 1 1 1 1 1 1 1 1 1 1 1 1 1 1 1 1 1 1 1 1 1 1 1 1 1 1 1 1 1 1 1 1 1 1 1 1 1 1 1 1 1 1 1 1 1 1 1 1 1 1 1 1 1 1 1 1 1 1 1 1 1 1 1 1 1 1 1 1 1 1 1 1 1 1 1 1 1 1 1 1 1 1 1 1 1 1 1 1 1 1 1 1 1 1 1 1 1 1 1 1 1 1 1 1 1 1 1 1 1 1 1 1 1 1 1 1 1 1 1 1 1 1 1 1 1 1 1 1 1 1 1 1 1 1 1 1 1 1 1 1 1 1 1 1 1 1 1 1 1 1 1 1 1 1 1 1 1 1 1 1 1 1 1 1 1 1 1 1 1 1 1 1 1 1 1 1 1 1 1 1 1 1 1 1 1 1 1 1 1 1 1 1 1 1 1 1 1 1 1 1 1 1 1 1 1 1 1 1 1 1 1 1 1 1 1 1 1 1 1 1 1 1 1 1 1 1 1 1 1 1 1 1 1 1 1 1 1 1 1 1 1 1 1 1 1 1 1 1 1 1 1 1 1 1 1 1 1 1 1 1 1 1 1 1 1 1 1 1 1 1 1 1 1 1 1 1 1 1 1 1 1 1 1 1 1 1 1 1 1 1 1 1 1 1 1 1 1 1 1 1 1 1 1 1 1 1 1 1 1 1 1 1 1 1 1 1 1 1 1 1 1 1 1 1 1 1 1 1 1 1 1 1 1 1 1 1 1 1 1 1 1 1 1 1 1 1 1 1 1 1 1 1 1 1 1 1 1 1 1 1 1 1 1 1 1 1 1 1 1 1 1 1 1 1 1 1 1 1 1 1 1 1 1 1 1 1 1 1 1 1 1 1 1 1 1 1 1 1 1 1 1 1 1 1 1 1 1 1 1 1 1 1 1 1 1 1 1 1 1 1 1 1 1 1 1 1 1 1 1 1 1 1 1 1 1 1 1 1 1 1 1 1 1 1 1 1 1 1 1 1 1 1 1 1 1 1 1 1 1 1 1 1 1 1 1 1 1 1 1 1 1 1 1 1 1 1 1 1 1 1 1 1 1 1 1 1 1 1 1 1 1 1 1 1 1 1 1 1 1 1 1 1 1 1 1 1 1 1 1 1 1 1 1 1 1 1 1 1 1 1 1 1 1 1 1 1 1 1 1 1 1 1 1 1 1 1 1 1 1 1 1 1 1 1 1 1 1 1 1 1 1 1 1 1 1 1 1 1 1 1 1 1 1 1 1 1 1 1 1 1 1 1 1 1 1 1 1 1 1 1 1 1 1 1 1 1 1 1 1 1 1 1 1 1 1 1 1 1 1 1 1 1 1 1 1 1 1 1 1 1 1 1 1 1 1 1 1 1 1 1 1 1 1 1 1 1 1 1 1 1 1 1 1 1 1 1 1 1 1 1 1 1 1 1 1 1 1 1 1 1 1 1 1 1 1 1 1 1 1 1 1 1 1 1 1 1 1 1 1 1 1 1 1 1 1 1 1 1 1 1 1 1 1 1 1 1 1 1 1 1 1 1 1 1 1 1 1 1 1 1 1 1 1 1 1 1 1 1 1 1 1 1 1 1 1 1 1 1 1 1 1 1 1 1 1 1 1 1 1 1 1 1 1 1 1 1 1 1 1 1 1 1 1 1 1 1 1 1 1 1 1 1 1 1 1 1 1 1 1 1 1 1 1 1 1 1 1 1 1 1 1 1 1 1 1 1 1 1 1 1 1 1 1 1 1 1 1 1 1 1 1 1 1 1 1 1 1 1 1 1 1 1 1 1 1 1 1 1 1 1 1 1 1 1 1 1 1 1 1 1 1 1 1 1 1 1 1 1 1 1 1 1 1 1 1 1
</DataArray>
<DataArray type="Int32" Name="pip_head" format="ascii">
1 1 1 1 1 1 1 1 1 1 1 1 1 1 1 1 1 1 1 1 1 1 1 1 1 1 1 1 1 1 1 1 1 1 1 1 1 1 1 1 1 1 1 1 1 1 1 1 1 1 1 1 1 1 1 1 1 1 1 1 1 1 1 1 1 1 1 1 1 1 1 1 1 1 1 1 1 1 1 1 1 1 1 1 1 1 1 1 1 1 1 1 1 1 1 1 1 1 1 1 1 1 1 1 1 1 1 1 1 1 1 1 1 1 1 1 1 1 1 1 1 1 1 1 1 1 1 1 1 1 1 1 1 1 1 1 1 1 1 1 1 1 1 1 1 1 1 1 1 1 1 1 1 1 1 1 1 1 1 1 1 1 1 1 1 1 1 1 1 1 1 1 1 1 1 1 1 1 1 1 1 1 1 1 1 1 1 1 1 1 1 1 1 1 1 1 1 1 1 1 1 1 1 1 1 1 1 1 1 1 1 1 1 1 1 1 1 1 1 1 1 1 1 1 1 1 1 1 1 1 1 1 1 1 1 1 1 1 1 1 1 1 1 1 1 1 1 1 1 1 1 1 1 1 1 1 1 1 1 1 1 1 1 1 1 1 1 1 1 1 1 1 1 1 1 1 1 1 1 1 1 1 1 1 1 1 1 1 1 1 1 1 1 1 1 1 1 1 1 1 1 1 1 1 1 1 1 1 1 1 1 1 1 1 1 1 1 1 1 1 1 1 1 1 1 1 1 1 1 1 1 1 1 1 1 1 1 1 1 1 1 1 1 1 1 1 1 1 1 1 1 1 1 1 1 1 1 1 1 1 1 1 1 1 1 1 1 1 1 1 1 1 1 1 1 1 1 1 1 1 1 1 1 1 1 1 1 1 1 1 1 1 1 1 1 1 1 1 1 1 1 1 1 1 1 1 1 1 1 1 1 1 1 1 1 1 1 1 1 1 1 1 1 1 1 1 1 1 1 1 1 1 1 1 1 1 1 1 1 1 1 1 1 1 1 1 1 1 1 1 1 1 1 1 1 1 1 1 1 1 1 1 1 1 1 1 1 1 1 1 1 1 1 1 1 1 1 1 1 1 1 1 1 1 1 1 1 1 1 1 1 1 1 1 1 1 1 1 1 1 1 1 1 1 1 1 1 1 1 1 1 1 1 1 1 1 1 1 1 1 1 1 1 1 1 1 1 1 1 1 1 1 1 1 1 1 1 1 1 1 1 1 1 1 1 1 1 1 1 1 1 1 1 1 1 1 1 1 1 1 1 1 1 1 1 1 1 1 1 1 1 1 1 1 1 1 1 1 1 1 1 1 1 1 1 1 1 1 1 1 1 1 1 1 1 1 1 1 1 1 1 1 1 1 1 1 1 1 1 1 1 1 1 1 1 1 1 1 1 1 1 1 1 1 1 1 1 1 1 1 1 1 1 1 1 1 1 1 1 1 1 1 1 1 1 1 1 1 1 1 1 1 1 1 1 1 1 1 1 1 1 1 1 1 1 1 1 1 1 1 1 1 1 1 1 1 1 1 1 1 1 1 1 1 1 1 1 1 1 1 1 1 1 1 1 1 1 1 1 1 1 1 1 1 1 1 1 1 1 1 1 1 1 1 1 1 1 1 1 1 1 1 1 1 1 1 1 1 1 1 1 1 1 1 1 1 1 1 1 1 1 1 1 1 1 1 1 1 1 1 1 1 1 1 1 1 1 1 1 1 1 1 1 1 1 1 1 1 1 1 1 1 1 1 1 1 1 1 1 1 1 1 1 1 1 1 1 1 1 1 1 1 1 1 1 1 1 1 1 1 1 1 1 1 1 1 1 1 1 1 1 1 1 1 1 1 1 1 1 1 1 1 1 1 1 1 1 1 1 1 1 1 1 1 1 1 1 1 1 1 1 1 1 1 1 1 1 1 1 1 1 1 1 1 1 1 1 1 1 1 1 1 1 1 1 1 1 1 1 1 1 1 1 1 1 1
</DataArray>
<DataArray type="Float32" Name="electron_density" format="ascii">
0.4760 0.4760 0.4760 0.4760 0.4760 0.4760 0.4760 0.4760 0.4760 0.4760 0.4760 0.4760 0.4760 0.4760 0.4760 0.4760 0.4760 0.4760 0.4760 0.4760 0.4760 0.4760 0.4760 0.4760 0.4760 0.4760 0.4760 0.4760 0.4760 0.4760 0.4760 0.4760 0.4760 0.4760 0.4760 0.4760 0.4760 0.4760 0.4760 0.4760 0.4760 0.4760 0.4760 0.4760 0.4760 0.4760 0.4760 0.4760 0.4760 0.4760 0.4760 0.4760 0.4760 0.4760 0.4760 0.4760 0.4760 0.4760 0.4760 0.4760 0.4760 0.4760 0.4760 0.4760 0.4760 0.4760 0.4760 0.4760 0.4760 0.4760 0.4760 0.4760 0.4760 0.4760 0.4760 0.4760 0.4760 0.4760 0.4760 0.4760 0.4760 0.4760 0.4760 0.4760 0.4760 0.4760 0.4760 0.4760 0.4760 0.4760 0.4760 0.4760 0.4760 0.4760 0.4760 0.4760 0.4760 0.4760 0.4760 0.4760 0.4760 0.4760 0.4760 0.4760 0.4760 0.4760 0.4760 0.4760 0.4760 0.4760 0.4760 0.4760 0.4760 0.4760 0.4760 0.4760 0.4760 0.4760 0.4760 0.4760 0.4760 0.4760 0.4760 0.4760 0.4760 0.4760 0.4760 0.4760 0.4760 0.4760 0.4760 0.4760 0.4760 0.4760 0.4760 0.4760 0.4760 0.4760 0.4760 0.4760 0.4760 0.4760 0.4760 0.4760 0.4760 0.4760 0.4760 0.4760 0.4760 0.4760 0.4760 0.4760 0.4760 0.4760 0.4760 0.4760 0.4760 0.4760 0.4760 0.4760 0.4760 0.4760 0.4760 0.4760 0.4760 0.4760 0.4760 0.4760 0.4760 0.4760 0.4760 0.4760 0.4760 0.4760 0.4760 0.4760 0.4760 0.4760 0.4760 0.4760 0.4760 0.4760 0.4760 0.4760 0.4760 0.4760 0.4760 0.4760 0.4760 0.4760 0.4760 0.4760 0.4760 0.4760 0.4760 0.4760 0.4760 0.4760 0.4760 0.4760 0.4760 0.4760 0.4760 0.4760 0.4760 0.4760 0.4760 0.4760 0.4760 0.4760 0.4760 0.4760 0.4760 0.4760 0.4760 0.4760 0.4760 0.4760 0.4760 0.4760 0.4760 0.4760 0.4760 0.4760 0.4760 0.4760 0.4760 0.4760 0.4760 0.4760 0.4760 0.4760 0.4760 0.4760 0.4760 0.4760 0.4760 0.4760 0.4760 0.4760 0.4760 0.4760 0.4760 0.4760 0.4760 0.4760 0.4760 0.4760 0.4760 0.4760 0.4760 0.4760 0.4760 0.4760 0.4760 0.4760 0.4760 0.4760 0.4760 0.4760 0.4760 0.4760 0.4760 0.4760 0.4760 0.4760 0.4760 0.4760 0.4760 0.4760 0.4760 0.4760 0.4760 0.4760 0.4760 0.4760 0.4760 0.4760 0.4760 0.4760 0.4760 0.4760 0.4760 0.4760 0.4760 0.4760 0.4760 0.4760 0.4760 0.4760 0.4760 0.4760 0.4760 0.4760 0.4760 0.4760 0.4760 0.4760 0.4760 0.4760 0.4760 0.4760 0.4760 0.4760 0.4760 0.4760 0.4760 0.4760 0.4760 0.4760 0.4760 0.4760 0.4750 0.4750 0.4750 0.4750 0.4750 0.4750 0.4750 0.4750 0.4750 0.4750 0.4750 0.4750 0.4750 0.4750 0.4750 0.4750 0.4750 0.4750 0.4750 0.4750 0.4750 0.4750 0.4750 0.4750 0.4750 0.4750 0.4750 0.4750 0.4750 0.4750 0.4750 0.4750 0.4750 0.4750 0.4750 0.4750 0.4750 0.4750 0.4750 0.4750 0.4750 0.4750 0.4750 0.4750 0.4750 0.4750 0.4750 0.4750 0.4750 0.4750 0.4750 0.4750 0.4750 0.4750 0.4750 0.4750 0.4750 0.4750 0.4750 0.4750 0.4750 0.4750 0.4750 0.4750 0.4750 0.4750 0.4750 0.4750 0.4750 0.4750 0.4750 0.4750 0.4750 0.4750 0.4750 0.4750 0.4750 0.4750 0.4750 0.4750 0.4750 0.4750 0.4750 0.4750 0.4750 0.4750 0.4750 0.4750 0.4750 0.4750 0.4750 0.4750 0.4750 0.4750 0.4750 0.4750 0.4750 0.4750 0.4750 0.4750 0.4750 0.4750 0.4750 0.4750 0.4750 0.4750 0.4750 0.4750 0.4750 0.4750 0.4750 0.4750 0.4750 0.4750 0.4750 0.4750 0.4750 0.4750 0.4750 0.4750 0.4750 0.4750 0.4750 0.4750 0.4750 0.4750 0.4750 0.4750 0.4750 0.4750 0.4750 0.4750 0.4750 0.4750 0.4750 0.4750 0.4750 0.4750 0.4750 0.4750 0.4750 0.4750 0.4750 0.4750 0.4750 0.4750 0.4750 0.4750 0.4750 0.4750 0.4750 0.4750 0.4750 0.4750 0.4750 0.4750 0.4750 0.4750 0.4750 0.4750 0.4750 0.4750 0.4750 0.4750 0.4750 0.4750 0.4750 0.4750 0.4750 0.4750 0.4750 0.4750 0.4750 0.4750 0.4750 0.4750 0.4750 0.4750 0.4750 0.4750 0.4750 0.4750 0.4750 0.4750 0.4750 0.4750 0.4750 0.4750 0.4750 0.4750 0.4750 0.4750 0.4750 0.4750 0.4750 0.4750 0.4750 0.4750 0.4750 0.4750 0.4750 0.4750 0.4750 0.4750 0.4750 0.4750 0.4750 0.4750 0.4750 0.4750 0.4750 0.4750 0.4750 0.4750 0.4750 0.4750 0.4750 0.4750 0.4750 0.4750 0.4750 0.4750 0.4750 0.4750 0.4750 0.4750 0.4750 0.4750 0.4750 0.4750 0.4750 0.4750 0.4750 0.4750 0.4750 0.4750 0.4750 0.4750 0.4750 0.4750 0.4750 0.4750 0.4750 0.4750 0.4750 0.4750 0.4750 0.4750 0.4750 0.4750 0.4750 0.4750 0.4750 0.4750 0.4750 0.4750 0.4900 0.4900 0.4900 0.4900 0.4900 0.4900 0.4900 0.4900 0.4900 0.4900 0.4900 0.4900 0.4900 0.4900 0.4900 0.4900 0.4900 0.4900 0.4900 0.4900 0.4900 0.4900 0.4900 0.4900 0.4900 0.4900 0.4900 0.4900 0.4900 0.4900 0.4900 0.4900 0.4900 0.4900 0.4900 0.4900 0.4900 0.4900 0.4900 0.4900 0.4900 0.4900 0.4900 0.4900 0.4900 0.4900 0.4900 0.4900 0.4900 0.4900 0.4900 0.4900 0.4900 0.4900 0.4900 0.4900 0.4900 0.4900 0.4900 0.4900 0.4900 0.4900 0.4900 0.4900 0.4900 0.4900 0.4900 0.4900 0.4900 0.4900 0.4900 0.4900 0.4900 0.4900 0.4900 0.4900 0.4900 0.4900 0.4900 0.4900 0.4900 0.4900 0.4900 0.4900 0.4900 0.4900 0.4900 0.4900 0.4900 0.4900 0.4900 0.4900 0.4900 0.4900 0.4900 0.4900 0.4900 0.4900 0.4900 0.4900 0.4900 0.4900 0.4900 0.4900 0.4900 0.4900 0.4900 0.4900 0.4900 0.4900 0.4900 0.4900 0.4900 0.4900 0.4900 0.4900 0.4900 0.4900 0.4900 0.4900 0.4900 0.4900 0.4900 0.4900 0.4900 0.4900 0.4900 0.4900 0.4900 0.4900 0.4900 0.4900 0.4900 0.4900 0.4900 0.4900 0.4900 0.4900 0.4900 0.4900 0.4900 0.4900 0.4900 0.4900 0.4900 0.4900 0.4900 0.4900 0.4900 0.4900 0.4900 0.4900 0.4900 0.4900 0.4900 0.4900 0.4900 0.4900 0.4900 0.4900 0.4900 0.4900 0.4900 0.4900 0.4900 0.4900 0.4900 0.4900 0.4900 0.4900 0.4900 0.4900 0.4900 0.4900 0.4900 0.4900 0.4900 0.4900 0.4900 0.4900 0.4900 0.4900 0.4900 0.4900 0.4900 0.4900 0.4900 0.4900 0.4900 0.4900 0.4900 0.4900 0.4900 0.4900 0.4900 0.4900 0.4900 0.4900 0.4980 0.4980 0.4980 0.4980 0.4980 0.4980 0.4980 0.4980 0.4980 0.4980 0.4980 0.4980 0.4980 0.4980 0.4980 0.4980 0.4980 0.4980 0.4980 0.4980 0.4980 0.4980 0.4980 0.4980 0.4980 0.4980 0.4980 0.4980 0.4980 0.4980 0.4980 0.4980 0.4980 0.4980 0.4980 0.4980 0.4980 0.4980 0.4980 0.4980 0.4980 0.4980 0.4980 0.4980 0.4980 0.4980 0.4980 0.4980 0.4980 0.4980 0.4980 0.4980 0.4980 0.4980 0.4980 0.4980 0.4980 0.4980 0.4980 0.4980 0.4980 0.4980 0.4980 0.4980 0.4980 0.4980 0.4980 0.4980 0.4980 0.4980 0.4980 0.4980 0.4980 0.4980 0.4980 0.4980 0.4980 0.4980 0.4980 0.4980 0.4980 0.4980 0.4980 0.4980 0.4980 0.4980 0.4980 0.4980 0.4980 0.4980 0.4980 0.4980 0.4980 0.4980 0.4980 0.4980 0.4980 0.4980 0.4980 0.4980 0.4980 0.4980 0.4980 0.4980 0.4980 0.4980 0.4980 0.4980 0.4980 0.4980
</DataArray>
<DataArray type="Float32" Name="ed_tail_norm" format="ascii">
0.0000 0.0000 0.0000 0.0000 0.0000 0.0000 0.0000 0.0000 0.0000 0.0000 0.0000 0.0000 0.0000 0.0000 0.0000 0.0000 0.0000 0.0000 0.0000 0.0000 0.0000 0.0000 0.0000 0.0000 0.0000 0.0000 0.0000 0.0000 0.0000 0.0000 0.0000 0.0000 0.0000 0.0000 0.0000 0.0000 0.0000 0.0000 0.0000 0.0000 0.0000 0.0000 0.0000 0.0000 0.0000 0.0000 0.0000 0.0000 0.0000 0.0000 0.0000 0.0000 0.0000 0.0000 0.0000 0.0000 0.0000 0.0000 0.0000 0.0000 0.0000 0.0000 0.0000 0.0000 0.0000 0.0000 0.0000 0.0000 0.0000 0.0000 0.0000 0.0000 0.0000 0.0000 0.0000 0.0000 0.0000 0.0000 0.0000 0.0000 0.0000 0.0000 0.0000 0.0000 0.0000 0.0000 0.0000 0.0000 0.0000 0.0000 0.0000 0.0000 0.0000 0.0000 0.0000 0.0000 0.0000 0.0000 0.0000 0.0000 0.0000 0.0000 0.0000 0.0000 0.0000 0.0000 0.0000 0.0000 0.0000 0.0000 0.0000 0.0000 0.0000 0.0000 0.0000 0.0000 0.0000 0.0000 0.0000 0.0000 0.0000 0.0000 0.0000 0.0000 0.0000 0.0000 0.0000 0.0000 0.0000 0.0000 0.0000 0.0000 0.0000 0.0000 0.0000 0.0000 0.0000 0.0000 0.0000 0.0000 0.0000 0.0000 0.0000 0.0000 0.0000 0.0000 0.0000 0.0000 0.0000 0.0000 0.0000 0.0000 0.0000 0.0000 0.0000 0.0000 0.0000 0.0000 0.0000 0.0000 0.0000 0.0000 0.0000 0.0000 0.0000 0.0000 0.0000 0.0000 0.0000 0.0000 0.0000 0.0000 0.0000 0.0000 0.0000 0.0000 0.0000 0.0000 0.0000 0.0000 0.0000 0.0000 0.0000 0.0000 0.0000 0.0000 0.0000 0.0000 0.0000 0.0000 0.0000 0.0000 0.0000 0.0000 0.0000 0.0000 0.0000 0.0000 0.0000 0.0000 0.0000 0.0000 0.0000 0.0000 0.0000 0.0000 0.0000 0.0000 0.0000 0.0000 0.0000 0.0000 0.0000 0.0000 0.0000 0.0000 0.0000 0.0000 0.0000 0.0000 0.0000 0.0000 0.0000 0.0000 0.0000 0.0000 0.0000 0.0000 0.0000 0.0000 0.0000 0.0000 0.0000 0.0000 0.0000 0.0000 0.0000 0.0000 0.0000 0.0000 0.0000 0.0000 0.0000 0.0000 0.0000 0.0000 0.0000 0.0000 0.0000 0.0000 0.0000 0.0000 0.0000 0.0000 0.0000 0.0000 0.0000 0.0000 0.0000 0.0000 0.0000 0.0000 0.0000 0.0000 0.0000 0.0000 0.0000 0.0000 0.0000 0.0000 0.0000 0.0000 0.0000 0.0000 0.0000 0.0000 0.0000 0.0000 0.0000 0.0000 0.0000 0.0000 0.0000 0.0000 0.0000 0.0000 0.0000 0.0000 0.0000 0.0000 0.0000 0.0000 0.0000 0.0000 0.0000 0.0000 0.0000 0.0000 0.0000 0.0000 0.0000 0.0000 0.0000 0.0000 0.0000 0.0000 0.0000 0.0000 0.0000 0.0000 0.0000 0.0000 0.0000 0.0000 0.0000 0.0000 0.0000 0.0000 0.0000 0.0000 0.0000 0.0000 0.0000 0.0000 0.0000 0.0000 0.0000 0.0000 0.0000 0.0000 0.0000 0.0000 0.0000 0.0000 0.0000 0.0000 0.0000 0.0000 0.0000 0.0000 0.0000 0.0000 0.0000 0.0000 0.0000 0.0000 0.0000 0.0000 0.0000 0.0000 0.0000 0.0000 0.0000 0.0000 0.0000 0.0000 0.0000 0.0000 0.0000 0.0000 0.0000 0.0000 0.0000 0.0000 0.0000 0.0000 0.0000 0.0000 0.0000 0.0000 0.0000 0.0000 0.0000 0.0000 0.0000 0.0000 0.0000 0.0000 0.0000 0.0000 0.0000 0.0000 0.0000 0.0000 0.0000 0.0000 0.0000 0.0000 0.0000 0.0000 0.0000 0.0000 0.0000 0.0000 0.0000 0.0000 0.0000 0.0000 0.0000 0.0000 0.0000 0.0000 0.0000 0.0000 0.0000 0.0000 0.0000 0.0000 0.0000 0.0000 0.0000 0.0000 0.0000 0.0000 0.0000 0.0000 0.0000 0.0000 0.0000 0.0000 0.0000 0.0000 0.0000 0.0000 0.0000 0.0000 0.0000 0.0000 0.0000 0.0000 0.0000 0.0000 0.0000 0.0000 0.0000 0.0000 0.0000 0.0000 0.0000 0.0000 0.0000 0.0000 0.0000 0.0000 0.0000 0.0000 0.0000 0.0000 0.0000 0.0000 0.0000 0.0000 0.0000 0.0000 0.0000 0.0000 0.0000 0.0000 0.0000 0.0000 0.0000 0.0000 0.0000 0.0000 0.0000 0.0000 0.0000 0.0000 0.0000 0.0000 0.0000 0.0000 0.0000 0.0000 0.0000 0.0000 0.0000 0.0000 0.0000 0.0000 0.0000 0.0000 0.0000 0.0000 0.0000 0.0000 0.0000 0.0000 0.0000 0.0000 0.0000 0.0000 0.0000 0.0000 0.0000 0.0000 0.0000 0.0000 0.0000 0.0000 0.0000 0.0000 0.0000 0.0000 0.0000 0.0000 0.0000 0.0000 0.0000 0.0000 0.0000 0.0000 0.0000 0.0000 0.0000 0.0000 0.0000 0.0000 0.0000 0.0000 0.0000 0.0000 0.0000 0.0000 0.0000 0.0000 0.0000 0.0000 0.0000 0.0000 0.0000 0.0000 0.0000 0.0000 0.0000 0.0000 0.0000 0.0000 0.0000 0.0000 0.0000 0.0000 0.0000 0.0000 0.0000 0.0000 0.0000 0.0000 0.0000 0.0000 0.0000 0.0000 0.0000 0.0000 0.0000 0.0000 0.0000 0.0000 0.0000 0.0000 0.0000 0.0000 0.0000 0.0000 0.0000 0.0000 0.0000 0.0000 0.0000 0.0000 0.0000 0.0000 0.0000 0.0000 0.0000 0.0000 0.0000 0.0000 0.0000 0.0000 0.0000 0.0000 0.0000 0.0000 0.0000 0.0000 0.0000 0.0000 0.0000 0.0000 0.0000 0.0000 0.0000 0.0000 0.0000 0.0000 0.0000 0.0000 0.0000 0.0000 0.0000 0.0000 0.0000 0.0000 0.0000 0.0000 0.0000 0.0000 0.0000 0.0000 0.0000 0.0000 0.0000 0.0000 0.0000 0.0000 0.0000 0.0000 0.0000 0.0000 0.0000 0.0000 0.0000 0.0000 0.0000 0.0000 0.0000 0.0000 0.0000 0.0000 0.0000 0.0000 0.0000 0.0000 0.0000 0.0000 0.0000 0.0000 0.0000 0.0000 0.0000 0.0000 0.0000 0.0000 0.0000 0.0000 0.0000 0.0000 0.0000 0.0000 0.0000 0.0000 0.0000 0.0000 0.0000 0.0000 0.0000 0.0000 0.0000 0.0000 0.0000 0.0000 0.0000 0.0000 0.0000 0.0000 0.0000 0.0000 0.0000 0.0000 0.0000 0.0000 0.0000 0.0000 0.0000 0.0000 0.0000 0.0000 0.0000 0.0000 0.0000 0.0000 0.0000 0.0000 0.0000 0.0000 0.0000 0.0000 0.0000 0.0000 0.0000 0.0000 0.0000 0.0000 0.0000 0.0000 0.0000 0.0000 0.0000 0.0000 0.0000 0.0000 0.0000 0.0000 0.0000 0.0000 0.0000 0.0000 0.0000 0.0000 0.0000 0.0000 0.0000 0.0000 0.0000 0.0000 0.0000 0.0000 0.0000 0.0000 0.0000 0.0000 0.0000 0.0000 0.0000 0.0000 0.0000 0.0000 0.0000 0.0000 0.0000 0.0000 0.0000 0.0000 0.0000 0.0000 0.0000 0.0000 0.0000 0.0000 0.0000 0.0000 0.0000 0.0000 0.0000 0.0000 0.0000 0.0000 0.0000 0.0000 0.0000 0.0000 0.0000 0.0000 0.0000 0.0000 0.0000 0.0000 0.0000 0.0000 0.0000 0.0000 0.0000 0.0000 0.0000 0.0000 0.0000 0.0000 0.0000 0.0000 0.0000 0.0000 0.0000 0.0000 0.0000 0.0000 0.0000 0.0000 0.0000 0.0000 0.0000 0.0000 0.0000 0.0000 0.0000 0.0000 0.0000 0.0000 0.0000 0.0000 0.0000 0.0000 0.0000 0.0000 0.0000 0.0000 0.0000 0.0000 0.0000 0.0000 0.0000 0.0000 0.0000 0.0000 0.0000 0.0000 0.0000 0.0000 0.0000 0.0000 0.0000 0.0000 0.0000 0.0000 0.0000 0.0000 0.0000 0.0000 0.0000 0.0000 0.0000 0.0000 0.0000 0.0000 0.0000 0.0000 0.0000 0.0000 0.0000 0.0000 0.0000 0.0000 0.0000 0.0000 0.0000 0.0000 0.0000 0.0000 0.0000 0.0000 0.0000 0.0000 0.0000 0.0000 0.0000 0.0000 0.0000 0.0000 0.0000 0.0000 0.0000 0.0000 0.0000 0.0000 0.0000 0.0000 0.0000 0.0000 0.0000 0.0000 0.0000 0.0000 0.0000 0.0000 0.0000 0.0000 0.0000 0.0000 0.0000 0.0000 0.0000 0.0000 0.0000 0.0000 0.0000 0.0000
</DataArray>
<DataArray type="Float32" Name="ed_raft_score" format="ascii">
0.0000 0.0000 0.0000 0.0000 0.0000 0.0000 0.0000 0.0000 0.0000 0.0000 0.0000 0.0000 0.0000 0.0000 0.0000 0.0000 0.0000 0.0000 0.0000 0.0000 0.0000 0.0000 0.0000 0.0000 0.0000 0.0000 0.0000 0.0000 0.0000 0.0000 0.0000 0.0000 0.0000 0.0000 0.0000 0.0000 0.0000 0.0000 0.0000 0.0000 0.0000 0.0000 0.0000 0.0000 0.0000 0.0000 0.0000 0.0000 0.0000 0.0000 0.0000 0.0000 0.0000 0.0000 0.0000 0.0000 0.0000 0.0000 0.0000 0.0000 0.0000 0.0000 0.0000 0.0000 0.0000 0.0000 0.0000 0.0000 0.0000 0.0000 0.0000 0.0000 0.0000 0.0000 0.0000 0.0000 0.0000 0.0000 0.0000 0.0000 0.0000 0.0000 0.0000 0.0000 0.0000 0.0000 0.0000 0.0000 0.0000 0.0000 0.0000 0.0000 0.0000 0.0000 0.0000 0.0000 0.0000 0.0000 0.0000 0.0000 0.0000 0.0000 0.0000 0.0000 0.0000 0.0000 0.0000 0.0000 0.0000 0.0000 0.0000 0.0000 0.0000 0.0000 0.0000 0.0000 0.0000 0.0000 0.0000 0.0000 0.0000 0.0000 0.0000 0.0000 0.0000 0.0000 0.0000 0.0000 0.0000 0.0000 0.0000 0.0000 0.0000 0.0000 0.0000 0.0000 0.0000 0.0000 0.0000 0.0000 0.0000 0.0000 0.0000 0.0000 0.0000 0.0000 0.0000 0.0000 0.0000 0.0000 0.0000 0.0000 0.0000 0.0000 0.0000 0.0000 0.0000 0.0000 0.0000 0.0000 0.0000 0.0000 0.0000 0.0000 0.0000 0.0000 0.0000 0.0000 0.0000 0.0000 0.0000 0.0000 0.0000 0.0000 0.0000 0.0000 0.0000 0.0000 0.0000 0.0000 0.0000 0.0000 0.0000 0.0000 0.0000 0.0000 0.0000 0.0000 0.0000 0.0000 0.0000 0.0000 0.0000 0.0000 0.0000 0.0000 0.0000 0.0000 0.0000 0.0000 0.0000 0.0000 0.0000 0.0000 0.0000 0.0000 0.0000 0.0000 0.0000 0.0000 0.0000 0.0000 0.0000 0.0000 0.0000 0.0000 0.0000 0.0000 0.0000 0.0000 0.0000 0.0000 0.0000 0.0000 0.0000 0.0000 0.0000 0.0000 0.0000 0.0000 0.0000 0.0000 0.0000 0.0000 0.0000 0.0000 0.0000 0.0000 0.0000 0.0000 0.0000 0.0000 0.0000 0.0000 0.0000 0.0000 0.0000 0.0000 0.0000 0.0000 0.0000 0.0000 0.0000 0.0000 0.0000 0.0000 0.0000 0.0000 0.0000 0.0000 0.0000 0.0000 0.0000 0.0000 0.0000 0.0000 0.0000 0.0000 0.0000 0.0000 0.0000 0.0000 0.0000 0.0000 0.0000 0.0000 0.0000 0.0000 0.0000 0.0000 0.0000 0.0000 0.0000 0.0000 0.0000 0.0000 0.0000 0.0000 0.0000 0.0000 0.0000 0.0000 0.0000 0.0000 0.0000 0.0000 0.0000 0.0000 0.0000 0.0000 0.0000 0.0000 0.0000 0.0000 0.0000 0.0000 0.0000 0.0000 0.0000 0.0000 0.0000 0.0000 0.0000 0.0000 0.0000 0.0000 0.0000 0.0000 0.0000 0.0000 0.0000 0.0000 0.0000 0.0000 0.0000 0.0000 0.0000 0.0000 0.0000 0.0000 0.0000 0.0000 0.0000 0.0000 0.0000 0.0000 0.0000 0.0000 0.0000 0.0000 0.0000 0.0000 0.0000 0.0000 0.0000 0.0000 0.0000 0.0000 0.0000 0.0000 0.0000 0.0000 0.0000 0.0000 0.0000 0.0000 0.0000 0.0000 0.0000 0.0000 0.0000 0.0000 0.0000 0.0000 0.0000 0.0000 0.0000 0.0000 0.0000 0.0000 0.0000 0.0000 0.0000 0.0000 0.0000 0.0000 0.0000 0.0000 0.0000 0.0000 0.0000 0.0000 0.0000 0.0000 0.0000 0.0000 0.0000 0.0000 0.0000 0.0000 0.0000 0.0000 0.0000 0.0000 0.0000 0.0000 0.0000 0.0000 0.0000 0.0000 0.0000 0.0000 0.0000 0.0000 0.0000 0.0000 0.0000 0.0000 0.0000 0.0000 0.0000 0.0000 0.0000 0.0000 0.0000 0.0000 0.0000 0.0000 0.0000 0.0000 0.0000 0.0000 0.0000 0.0000 0.0000 0.0000 0.0000 0.0000 0.0000 0.0000 0.0000 0.0000 0.0000 0.0000 0.0000 0.0000 0.0000 0.0000 0.0000 0.0000 0.0000 0.0000 0.0000 0.0000 0.0000 0.0000 0.0000 0.0000 0.0000 0.0000 0.0000 0.0000 0.0000 0.0000 0.0000 0.0000 0.0000 0.0000 0.0000 0.0000 0.0000 0.0000 0.0000 0.0000 0.0000 0.0000 0.0000 0.0000 0.0000 0.0000 0.0000 0.0000 0.0000 0.0000 0.0000 0.0000 0.0000 0.0000 0.0000 0.0000 0.0000 0.0000 0.0000 0.0000 0.0000 0.0000 0.0000 0.0000 0.0000 0.0000 0.0000 0.0000 0.0000 0.0000 0.0000 0.0000 0.0000 0.0000 0.0000 0.0000 0.0000 0.0000 0.0000 0.0000 0.0000 0.0000 0.0000 0.0000 0.0000 0.0000 0.0000 0.0000 0.0000 0.0000 0.0000 0.0000 0.0000 0.0000 0.0000 0.0000 0.0000 0.0000 0.0000 0.0000 0.0000 0.0000 0.0000 0.0000 0.0000 0.0000 0.0000 0.0000 0.0000 0.0000 0.0000 0.0000 0.0000 0.0000 0.0000 0.0000 0.0000 0.0000 0.0000 0.0000 0.0000 0.0000 0.0000 0.0000 0.0000 0.0000 0.0000 0.0000 0.0000 0.0000 0.0000 0.0000 0.0000 0.0000 0.0000 0.0000 0.0000 0.0000 0.0000 0.0000 0.0000 0.0000 0.0000 0.0000 0.0000 0.0000 0.0000 0.0000 0.0000 0.0000 0.0000 0.0000 0.0000 0.0000 0.0000 0.0000 0.0000 0.0000 0.0000 0.0000 0.0000 0.0000 0.0000 0.0000 0.0000 0.0000 0.0000 0.0000 0.0000 0.0000 0.0000 0.0000 0.0000 0.0000 0.0000 0.0000 0.0000 0.0000 0.0000 0.0000 0.0000 0.0000 0.0000 0.0000 0.0000 0.0000 0.0000 0.0000 0.0000 0.0000 0.0000 0.0000 0.0000 0.0000 0.0000 0.0000 0.0000 0.0000 0.0000 0.0000 0.0000 0.0000 0.0000 0.0000 0.0000 0.0000 0.0000 0.0000 0.0000 0.0000 0.0000 0.0000 0.0000 0.0000 0.0000 0.0000 0.0000 0.0000 0.0000 0.0000 0.0000 0.0000 0.0000 0.0000 0.0000 0.0000 0.0000 0.0000 0.0000 0.0000 0.0000 0.0000 0.0000 0.0000 0.0000 0.0000 0.0000 0.0000 0.0000 0.0000 0.0000 0.0000 0.0000 0.0000 0.0000 0.0000 0.0000 0.0000 0.0000 0.0000 0.0000 0.0000 0.0000 0.0000 0.0000 0.0000 0.0000 0.0000 0.0000 0.0000 0.0000 0.0000 0.0000 0.0000 0.0000 0.0000 0.0000 0.0000 0.0000 0.0000 0.0000 0.0000 0.0000 0.0000 0.0000 0.0000 0.0000 0.0000 0.0000 0.0000 0.0000 0.0000 0.0000 0.0000 0.0000 0.0000 0.0000 0.0000 0.0000 0.0000 0.0000 0.0000 0.0000 0.0000 0.0000 0.0000 0.0000 0.0000 0.0000 0.0000 0.0000 0.0000 0.0000 0.0000 0.0000 0.0000 0.0000 0.0000 0.0000 0.0000 0.0000 0.0000 0.0000 0.0000 0.0000 0.0000 0.0000 0.0000 0.0000 0.0000 0.0000 0.0000 0.0000 0.0000 0.0000 0.0000 0.0000 0.0000 0.0000 0.0000 0.0000 0.0000 0.0000 0.0000 0.0000 0.0000 0.0000 0.0000 0.0000 0.0000 0.0000 0.0000 0.0000 0.0000 0.0000 0.0000 0.0000 0.0000 0.0000 0.0000 0.0000 0.0000 0.0000 0.0000 0.0000 0.0000 0.0000 0.0000 0.0000 0.0000 0.0000 0.0000 0.0000 0.0000 0.0000 0.0000 0.0000 0.0000 0.0000 0.0000 0.0000 0.0000 0.0000 0.0000 0.0000 0.0000 0.0000 0.0000 0.0000 0.0000 0.0000 0.0000 0.0000 0.0000 0.0000 0.0000 0.0000 0.0000 0.0000 0.0000 0.0000 0.0000 0.0000 0.0000 0.0000 0.0000 0.0000 0.0000 0.0000 0.0000 0.0000 0.0000 0.0000 0.0000 0.0000 0.0000 0.0000 0.0000 0.0000 0.0000 0.0000 0.0000 0.0000 0.0000 0.0000 0.0000 0.0000 0.0000 0.0000 0.0000 0.0000 0.0000 0.0000 0.0000 0.0000 0.0000 0.0000 0.0000 0.0000 0.0000 0.0000 0.0000 0.0000 0.0000 0.0000 0.0000 0.0000 0.0000 0.0000 0.0000 0.0000 0.0000 0.0000 0.0000 0.0000 0.0000 0.0000 0.0000 0.0000 0.0000 0.0000 0.0000
</DataArray>
<DataArray type="Int32" Name="lipid_id" format="ascii">
5 5 5 5 5 5 5 5 5 5 5 5 5 5 5 5 5 5 5 5 5 5 5 5 5 5 5 5 5 5 5 5 5 5 5 5 5 5 5 5 5 5 5 5 5 5 5 5 5 5 5 5 5 5 5 5 5 5 5 5 5 5 5 5 5 5 5 5 5 5 5 5 5 5 5 5 5 5 5 5 5 5 5 5 5 5 5 5 5 5 5 5 5 5 5 5 5 5 5 5 5 5 5 5 5 5 5 5 5 5 5 5 5 5 5 5 5 5 5 5 5 5 5 5 5 5 5 5 5 5 5 5 5 5 5 5 5 5 5 5 5 5 5 5 5 5 5 5 5 5 5 5 5 5 5 5 5 5 5 5 5 5 5 5 5 5 5 5 5 5 5 5 5 5 5 5 5 5 5 5 5 5 5 5 5 5 5 5 5 5 5 5 5 5 5 5 5 5 5 5 5 5 5 5 5 5 5 5 5 5 5 5 5 5 5 5 5 5 5 5 5 5 5 5 5 5 5 5 5 5 5 5 5 5 5 5 5 5 5 5 5 5 5 5 5 5 5 5 5 5 5 5 5 5 5 5 5 5 5 5 5 5 5 5 5 5 5 5 5 5 5 5 5 5 5 5 5 5 5 5 5 5 5 5 5 5 5 5 5 5 5 5 5 5 5 5 5 5 5 5 5 5 5 5 5 5 5 5 5 5 5 5 4 4 4 4 4 4 4 4 4 4 4 4 4 4 4 4 4 4 4 4 4 4 4 4 4 4 4 4 4 4 4 4 4 4 4 4 4 4 4 4 4 4 4 4 4 4 4 4 4 4 4 4 4 4 4 4 4 4 4 4 4 4 4 4 4 4 4 4 4 4 4 4 4 4 4 4 4 4 4 4 4 4 4 4 4 4 4 4 4 4 4 4 4 4 4 4 4 4 4 4 4 4 4 4 4 4 4 4 4 4 4 4 4 4 4 4 4 4 4 4 4 4 4 4 4 4 4 4 4 4 4 4 4 4 4 4 4 4 4 4 4 4 4 4 4 4 4 4 4 4 4 4 4 4 4 4 4 4 4 4 4 4 4 4 4 4 4 4 4 4 4 4 4 4 4 4 4 4 4 4 4 4 4 4 4 4 4 4 4 4 4 4 4 4 4 4 4 4 4 4 4 4 4 4 4 4 4 4 4 4 4 4 4 4 4 4 4 4 4 4 4 4 4 4 4 4 4 4 4 4 4 4 4 4 4 4 4 4 4 4 4 4 4 4 4 4 4 4 4 4 4 4 4 4 4 4 8 8 8 8 8 8 8 8 8 8 8 8 8 8 8 8 8 8 8 8 8 8 8 8 8 8 8 8 8 8 8 8 8 8 8 8 8 8 8 8 8 8 8 8 8 8 8 8 8 8 8 8 8 8 8 8 8 8 8 8 8 8 8 8 8 8 8 8 8 8 8 8 8 8 8 8 8 8 8 8 8 8 8 8 8 8 8 8 8 8 8 8 8 8 8 8 8 8 8 8 8 8 8 8 8 8 8 8 8 8 8 8 8 8 8 8 8 8 8 8 8 8 8 8 8 8 8 8 8 8 8 8 8 8 8 8 8 8 8 8 8 8 8 8 8 8 8 8 8 8 8 8 8 8 8 8 8 8 8 8 8 8 8 8 8 8 8 8 8 8 8 8 8 8 8 8 8 8 8 8 8 8 8 8 8 8 8 8 8 8 8 8 8 8 8 8 8 8 9 9 9 9 9 9 9 9 9 9 9 9 9 9 9 9 9 9 9 9 9 9 9 9 9 9 9 9 9 9 9 9 9 9 9 9 9 9 9 9 9 9 9 9 9 9 9 9 9 9 9 9 9 9 9 9 9 9 9 9 9 9 9 9 9 9 9 9 9 9 9 9 9 9 9 9 9 9 9 9 9 9 9 9 9 9 9 9 9 9 9 9 9 9 9 9 9 9 9 9 9 9 9 9 9 9 9 9 9 9
</DataArray>
<DataArray type="Int32" Name="leaflet" format="ascii">
1 1 1 1 1 1 1 1 1 1 1 1 1 1 1 1 1 1 1 1 1 1 1 1 1 1 1 1 1 1 1 1 1 1 1 1 1 1 1 1 1 1 1 1 1 1 1 1 1 1 1 1 1 1 1 1 1 1 1 1 1 1 1 1 1 1 1 1 1 1 1 1 1 1 1 1 1 1 1 1 1 1 1 1 1 1 1 1 1 1 1 1 1 1 1 1 1 1 1 1 1 1 1 1 1 1 1 1 1 1 1 1 1 1 1 1 1 1 1 1 1 1 1 1 1 1 1 1 1 1 1 1 1 1 1 1 1 1 1 1 1 1 1 1 1 1 1 1 1 1 1 1 1 1 1 1 1 1 1 1 1 1 1 1 1 1 1 1 1 1 1 1 1 1 1 1 1 1 1 1 1 1 1 1 1 1 1 1 1 1 1 1 1 1 1 1 1 1 1 1 1 1 1 1 1 1 1 1 1 1 1 1 1 1 1 1 1 1 1 1 1 1 1 1 1 1 1 1 1 1 1 1 1 1 1 1 1 1 1 1 1 1 1 1 1 1 1 1 1 1 1 1 1 1 1 1 1 1 1 1 1 1 1 1 1 1 1 1 1 1 1 1 1 1 1 1 1 1 1 1 1 1 1 1 1 1 1 1 1 1 1 1 1 1 1 1 1 1 1 1 1 1 1 1 1 1 1 1 1 1 1 1 1 1 1 1 1 1 1 1 1 1 1 1 1 1 1 1 1 1 1 1 1 1 1 1 1 1 1 1 1 1 1 1 1 1 1 1 1 1 1 1 1 1 1 1 1 1 1 1 1 1 1 1 1 1 1 1 1 1 1 1 1 1 1 1 1 1 1 1 1 1 1 1 1 1 1 1 1 1 1 1 1 1 1 1 1 1 1 1 1 1 1 1 1 1 1 1 1 1 1 1 1 1 1 1 1 1 1 1 1 1 1 1 1 1 1 1 1 1 1 1 1 1 1 1 1 1 1 1 1 1 1 1 1 1 1 1 1 1 1 1 1 1 1 1 1 1 1 1 1 1 1 1 1 1 1 1 1 1 1 1 1 1 1 1 1 1 1 1 1 1 1 1 1 1 1 1 1 1 1 1 1 1 1 1 1 1 1 1 1 1 1 1 1 1 1 1 1 1 1 1 1 1 1 1 1 1 1 1 1 1 1 1 1 1 1 1 1 1 1 1 1 1 1 1 1 1 1 1 1 1 1 1 1 1 1 1 1 1 1 1 1 1 1 1 1 1 1 1 1 1 1 1 1 1 1 1 1 1 1 1 1 1 1 1 1 1 1 1 1 1 1 1 1 1 1 1 1 1 1 1 1 1 1 1 1 1 1 1 1 1 1 1 1 1 1 1 1 1 1 1 1 1 1 1 1 1 1 1 1 1 1 1 1 1 1 1 1 1 1 1 1 1 1 1 1 1 1 1 1 1 1 1 1 1 1 1 1 1 1 1 1 1 1 1 1 1 1 1 1 1 1 1 1 1 1 1 1 1 1 1 1 1 1 1 1 1 1 1 1 1 1 1 1 1 1 1 1 1 1 1 1 1 1 1 1 1 1 1 1 1 1 1 1 1 1 1 1 1 1 1 1 1 1 1 1 1 1 1 1 1 1 1 1 1 1 1 1 1 1 1 1 1 1 1 1 1 1 1 1 1 1 1 1 1 1 1 1 1 1 1 1 1 1 1 1 1 1 1 1 1 1 1 1 1 1 1 1 1 1 1 1 1 1 1 1 1 1 1 1 1 1 1 1 1 1 1 1 1 1 1 1 1 1 1 1 1 1 1 1 1 1 1 1 1 1 1 1 1 1 1 1 1 1 1 1 1 1 1 1 1 1 1 1 1 1 1 1 1 1 1 1 1 1 1 1 1 1 1 1 1 1 1 1 1 1 1 1 1 1 1 1 1 1 1 1 1 1 1 1 1 1 1 1 1 1 1 1 1 1 1 1 1 1 1
</DataArray>
<DataArray type="Int32" Name="phase" format="ascii">
1 1 1 1 1 1 1 1 1 1 1 1 1 1 1 1 1 1 1 1 1 1 1 1 1 1 1 1 1 1 1 1 1 1 1 1 1 1 1 1 1 1 1 1 1 1 1 1 1 1 1 1 1 1 1 1 1 1 1 1 1 1 1 1 1 1 1 1 1 1 1 1 1 1 1 1 1 1 1 1 1 1 1 1 1 1 1 1 1 1 1 1 1 1 1 1 1 1 1 1 1 1 1 1 1 1 1 1 1 1 1 1 1 1 1 1 1 1 1 1 1 1 1 1 1 1 1 1 1 1 1 1 1 1 1 1 1 1 1 1 1 1 1 1 1 1 1 1 1 1 1 1 1 1 1 1 1 1 1 1 1 1 1 1 1 1 1 1 1 1 1 1 1 1 1 1 1 1 1 1 1 1 1 1 1 1 1 1 1 1 1 1 1 1 1 1 1 1 1 1 1 1 1 1 1 1 1 1 1 1 1 1 1 1 1 1 1 1 1 1 1 1 1 1 1 1 1 1 1 1 1 1 1 1 1 1 1 1 1 1 1 1 1 1 1 1 1 1 1 1 1 1 1 1 1 1 1 1 1 1 1 1 1 1 1 1 1 1 1 1 1 1 1 1 1 1 1 1 1 1 1 1 1 1 1 1 1 1 1 1 1 1 1 1 1 1 1 1 1 1 1 1 1 1 1 1 1 1 1 1 1 1 1 1 1 1 1 1 1 1 1 1 1 1 1 1 1 1 1 1 1 1 1 1 1 1 1 1 1 1 1 1 1 1 1 1 1 1 1 1 1 1 1 1 1 1 1 1 1 1 1 1 1 1 1 1 1 1 1 1 1 1 1 1 1 1 1 1 1 1 1 1 1 1 1 1 1 1 1 1 1 1 1 1 1 1 1 1 1 1 1 1 1 1 1 1 1 1 1 1 1 1 1 1 1 1 1 1 1 1 1 1 1 1 1 1 1 1 1 1 1 1 1 1 1 1 1 1 1 1 1 1 1 1 1 1 1 1 1 1 1 1 1 1 1 1 1 1 1 1 1 1 1 1 1 1 1 1 1 1 1 1 1 1 1 1 1 1 1 1 1 1 1 1 1 1 1 1 1 1 1 1 1 1 1 1 1 1 1 1 1 1 1 1 1 1 1 1 1 1 1 1 1 1 1 1 1 1 1 1 1 1 1 1 1 1 1 1 1 1 1 1 1 1 1 1 1 1 1 1 1 1 1 1 1 1 1 1 1 1 1 1 1 1 1 1 1 1 1 1 1 1 1 1 1 1 1 1 1 1 1 1 1 1 1 1 1 1 1 1 1 1 1 1 1 1 1 1 1 1 1 1 1 1 1 1 1 1 1 1 1 1 1 1 1 1 1 1 1 1 1 1 1 1 1 1 1 1 1 1 1 1 1 1 1 1 1 1 1 1 1 1 1 1 1 1 1 1 1 1 1 1 1 1 1 1 1 1 1 1 1 1 1 1 1 1 1 1 1 1 1 1 1 1 1 1 1 1 1 1 1 1 1 1 1 1 1 1 1 1 1 1 1 1 1 1 1 1 1 1 1 1 1 1 1 1 1 1 1 1 1 1 1 1 1 1 1 1 1 1 1 1 1 1 1 1 1 1 1 1 1 1 1 1 1 1 1 1 1 1 1 1 1 1 1 1 1 1 1 1 1 1 1 1 1 1 1 1 1 1 1 1 1 1 1 1 1 1 1 1 1 1 1 1 1 1 1 1 1 1 1 1 1 1 1 1 1 1 1 1 1 1 1 1 1 1 1 1 1 1 1 1 1 1 1 1 1 1 1 1 1 1 1 1 1 1 1 1 1 1 1 1 1 1 1 1 1 1 1 1 1 1 1 1 1 1 1 1 1 1 1 1 1 1 1 1 1 1 1 1 1 1 1 1 1 1 1 1 1 1 1 1 1 1 1 1 1 1 1 1 1 1 1 1 1 1 1 1 1 1 1 1 1 1 1 1
</DataArray>
<DataArray type="Int32" Name="n_doublebonds" format="ascii">
4 4 4 4 4 4 4 4 4 4 4 4 4 4 4 4 4 4 4 4 4 4 4 4 4 4 4 4 4 4 4 4 4 4 4 4 4 4 4 4 4 4 4 4 4 4 4 4 4 4 4 4 4 4 4 4 4 4 4 4 4 4 4 4 4 4 4 4 4 4 4 4 4 4 4 4 4 4 4 4 4 4 4 4 4 4 4 4 4 4 4 4 4 4 4 4 4 4 4 4 4 4 4 4 4 4 4 4 4 4 4 4 4 4 4 4 4 4 4 4 4 4 4 4 4 4 4 4 4 4 4 4 4 4 4 4 4 4 4 4 4 4 4 4 4 4 4 4 4 4 4 4 4 4 4 4 4 4 4 4 4 4 4 4 4 4 4 4 4 4 4 4 4 4 4 4 4 4 4 4 4 4 4 4 4 4 4 4 4 4 4 4 4 4 4 4 4 4 4 4 4 4 4 4 4 4 4 4 4 4 4 4 4 4 4 4 4 4 4 4 4 4 4 4 4 4 4 4 4 4 4 4 4 4 4 4 4 4 4 4 4 4 4 4 4 4 4 4 4 4 4 4 4 4 4 4 4 4 4 4 4 4 4 4 4 4 4 4 4 4 4 4 4 4 4 4 4 4 4 4 4 4 4 4 4 4 4 4 4 4 4 4 4 4 4 4 4 4 4 4 4 4 4 4 4 4 4 4 4 4 4 4 4 4 4 4 4 4 4 4 4 4 4 4 4 4 4 4 4 4 4 4 4 4 4 4 4 4 4 4 4 4 4 4 4 4 4 4 4 4 4 4 4 4 4 4 4 4 4 4 4 4 4 4 4 4 4 4 4 4 4 4 4 4 4 4 4 4 4 4 4 4 4 4 4 4 4 4 4 4 4 4 4 4 4 4 4 4 4 4 4 4 4 4 4 4 4 4 4 4 4 4 4 4 4 4 4 4 4 4 4 4 4 4 4 4 4 4 4 4 4 4 4 4 4 4 4 4 4 4 4 4 4 4 4 4 4 4 4 4 4 4 4 4 4 4 4 4 4 4 4 4 4 4 4 4 4 4 4 4 4 4 4 4 4 4 4 4 4 4 4 4 4 4 4 4 4 4 4 4 4 4 4 4 4 4 4 4 4 4 4 4 4 4 4 4 4 4 4 4 4 4 4 4 4 4 4 4 4 4 4 4 4 4 4 4 4 4 4 4 4 4 4 4 4 4 4 4 4 4 4 4 4 4 4 4 4 4 4 4 4 4 4 4 4 4 4 4 4 4 4 4 4 4 4 4 4 4 4 4 4 4 4 4 4 4 4 4 4 4 4 4 4 4 4 4 4 4 4 4 4 4 4 4 4 4 4 4 4 4 4 4 4 4 4 4 4 4 4 4 4 4 4 4 4 4 4 4 4 4 4 4 4 4 4 4 4 4 4 4 4 4 4 4 4 4 4 4 4 4 4 4 4 4 4 4 4 4 4 4 4 4 4 4 4 4 4 4 4 4 4 4 4 4 4 4 4 4 4 4 4 4 4 4 4 4 4 4 4 4 4 4 4 4 4 4 4 4 4 4 4 4 4 4 4 4 4 4 4 4 4 4 4 4 4 4 4 4 4 4 4 4 4 4 4 4 4 4 4 4 4 4 4 4 4 4 4 4 4 4 4 4 4 4 4 4 4 4 4 4 4 4 4 4 4 4 4 4 4 4 4 4 4 4 4 4 4 4 4 4 4 4 4 4 4 4 4 4 4 4 4 4 4 4 4 4 4 4 4 4 4 4 4 4 4 4 4 4 4 4 4 4 4 4 4 4 4 4 4 4 4 4 4 4 4 4 4 4 4 4 4 4 4 4 4 4 4 4 4 4 4 4 4 4 4 4 4 4 4 4 4 4 4 4 4 4 4 4 4 4 4 4 4 4 4 4 4 4 4 4 4 4 4 4 4 4 4 4 4 4 4 4 4 4 4 4 4 4 4 4 4 4 4 4 4 4
</DataArray>
</PointData>
</Piece>
</PolyData>
</VTKFile>
