<?xml version="1.0"?>
<VTKFile type="PolyData" version="0.1" byte_order="LittleEndian">
<PolyData>
<Piece NumberOfPoints="1047" NumberOfVerts="0" NumberOfLines="0" NumberOfStrips="0" NumberOfPolys="0">
<Points>
<DataArray type="Float32" NumberOfComponents="3" format="ascii">
160.136 191.402 -18.191 113.639 191.763 -15.107 407.649 290.759 -20.159 180.007 201.433 -19.717 391.192 286.844 -19.612 78.730 160.936 -16.246 366.647 272.476 -20.641 150.885 195.656 -17.297 368.807 256.594 -20.961 69.983 265.779 -19.480 106.670 246.620 -17.521 128.099 207.575 -16.542 187.125 212.965 -21.506 183.027 197.901 -20.020 150.263 230.323 -18.057 424.217 313.736 -19.486 105.483 217.859 -16.497 429.810 271.074 -23.165 398.046 296.252 -20.195 134.357 216.462 -17.099 176.347 258.467 -21.822 146.228 217.523 -18.395 398.071 309.295 -20.044 53.098 195.281 -21.182 43.278 203.431 -18.265 63.402 193.267 -18.475 433.419 271.573 -23.426 381.913 283.860 -20.535 25.781 188.752 -21.149 55.848 157.161 -18.732 172.941 239.828 -20.259 437.585 340.286 -20.421 55.823 216.960 -17.628 373.755 317.213 -21.626 399.897 283.773 -20.906 170.438 194.558 -18.075 179.511 201.530 -19.859 405.481 305.440 -20.357 39.919 266.278 -18.138 174.935 171.300 -18.627 153.526 219.656 -17.650 422.346 300.446 -20.585 350.878 303.123 -21.145 438.114 283.681 -21.732 394.275 288.651 -18.716 138.219 214.737 -16.690 32.955 222.319 -18.246 156.540 221.660 -18.989 435.446 295.388 -21.163 53.745 213.883 -17.967 130.387 264.031 -18.230 214.223 194.539 -21.757 440.557 294.531 -21.590 433.790 295.000 -20.061 55.426 212.629 -17.587 181.026 237.022 -20.203 86.116 228.431 -17.159 113.091 226.804 -17.419 161.284 214.108 -19.089 360.736 298.681 -21.114 114.151 191.472 -16.498 193.964 221.185 -20.478 213.702 251.670 -21.968 80.596 161.487 -16.560 387.985 262.721 -20.799 168.528 219.564 -20.170 375.282 327.692 -19.723 441.064 310.075 -20.445 147.915 282.370 -19.078 168.234 167.654 -17.960 40.822 214.753 -19.227 170.835 213.398 -20.230 66.972 241.370 -17.816 101.736 207.503 -16.442 146.248 214.928 -17.787 385.320 279.518 -19.915 205.600 202.071 -21.865 105.765 214.705 -16.769 405.101 294.152 -20.384 162.435 206.826 -19.034 149.621 175.414 -16.073 405.800 292.260 -20.793 110.335 218.165 -16.786 145.645 224.902 -16.603 423.644 288.496 -21.767 421.370 246.228 -22.289 406.710 288.421 -20.946 382.292 341.003 -19.369 420.615 239.544 -21.452 9.951 196.689 -19.330 56.722 215.859 -18.741 373.587 281.209 -20.123 160.902 206.405 -18.342 425.535 286.238 -20.711 89.099 164.740 -16.445 400.268 347.098 -19.394 456.705 290.323 -21.006 184.526 205.268 -20.907 406.497 248.759 -21.869 169.463 268.180 -19.635 398.176 296.938 -20.955 444.119 308.643 -20.107 366.352 246.479 -21.038 126.600 194.729 -16.224 24.068 249.934 -16.837 428.522 335.007 -20.474 392.031 265.772 -20.308 47.840 218.244 -18.564 146.935 212.120 -17.941 201.157 248.628 -21.642 351.401 308.650 -22.461 409.896 274.539 -21.633 31.971 175.554 -20.053 54.843 200.317 -19.479 31.789 228.977 -17.835 95.225 234.481 -16.540 175.182 240.560 -20.410 210.447 237.816 -21.392 425.733 277.559 -21.349 394.047 285.696 -19.711 59.045 275.658 -19.333 156.071 194.945 -18.830 145.810 216.848 -17.676 43.001 271.567 -18.834 210.487 214.633 -22.891 65.994 182.219 -19.768 400.505 300.821 -20.556 146.100 279.301 -18.592 168.989 284.108 -20.278 161.237 198.423 -18.465 352.558 291.551 -20.596 446.085 309.168 -21.509 171.127 211.592 -20.101 351.128 287.040 -20.714 443.281 270.275 -22.518 51.031 263.851 -19.420 383.991 272.813 -20.476 447.463 264.303 -22.799 149.292 241.149 -16.910 165.360 264.020 -20.116 39.501 201.992 -20.471 397.003 326.374 -19.898 87.927 213.138 -18.809 430.881 311.896 -20.006 135.173 223.535 -17.265 153.409 225.041 -18.308 90.629 176.781 -16.739 401.484 302.217 -19.545 424.556 303.419 -20.003 400.310 287.745 -20.755 453.693 254.282 -21.245 27.670 169.219 -19.612 162.377 223.380 -18.678 407.375 294.425 -20.494 56.928 213.199 -18.680 170.386 261.397 -20.204 379.691 246.831 -21.255 124.575 219.429 -16.698 60.245 207.071 -18.311 407.494 322.750 -20.168 450.099 327.991 -19.555 170.468 258.012 -19.616 412.115 260.319 -21.873 408.093 291.329 -20.554 40.808 231.480 -16.774 153.132 227.913 -17.994 392.714 291.517 -18.960 426.739 324.434 -19.454 46.638 266.340 -19.141 442.294 243.764 -23.437 124.300 244.870 -16.219 440.757 280.001 -21.439 458.793 313.977 -20.390 43.248 209.925 -19.551 189.608 233.398 -20.644 78.901 195.642 -17.683 424.265 308.917 -20.154 130.164 272.831 -18.561 74.335 175.990 -18.196 430.939 312.570 -19.626 406.795 291.030 -19.871 140.277 216.640 -17.193 461.899 268.498 -19.532 431.788 302.019 -19.972 51.461 167.975 -19.573 369.587 331.128 -20.254 407.602 290.279 -21.148 87.702 208.037 -17.278 91.391 229.481 -18.913 135.470 247.106 -17.146 209.846 232.317 -21.128 400.367 300.352 -20.357 151.399 226.978 -17.653 157.015 238.260 -17.811 368.446 258.483 -21.698 108.295 218.336 -17.235 209.544 213.502 -21.427 22.145 222.801 -17.192 33.489 272.617 -19.472 49.685 208.285 -18.603 403.453 288.993 -20.459 152.976 234.745 -18.091 34.753 182.809 -20.424 55.455 202.337 -19.263 176.669 242.259 -20.487 148.754 239.436 -17.317 417.456 335.207 -19.298 198.900 203.448 -21.945 445.220 311.941 -20.080 61.886 211.409 -17.676 438.896 268.262 -23.157 163.178 212.447 -19.332 105.464 220.116 -17.156 171.102 196.760 -18.762 48.187 211.772 -18.120 141.374 219.817 -16.454 405.066 290.217 -20.484 17.725 259.936 -20.399 405.149 260.238 -21.997 364.287 277.211 -20.136 65.167 210.579 -17.740 74.843 211.093 -17.147 378.375 291.486 -21.418 141.553 196.858 -18.130 69.378 203.522 -18.555 402.196 347.371 -19.241 388.070 323.727 -21.766 164.516 254.714 -20.535 408.519 299.851 -19.924 448.023 328.897 -20.039 407.376 290.008 -20.261 180.858 180.748 -18.829 56.769 234.992 -17.427 67.476 205.493 -18.167 194.686 213.319 -22.012 190.983 233.294 -20.364 409.992 288.690 -20.069 111.349 234.469 -16.697 399.576 288.356 -20.190 175.737 196.047 -20.165 117.580 239.689 -15.281 142.898 199.503 -17.230 434.313 298.791 -20.668 159.204 228.700 -20.238 53.322 214.432 -17.602 385.418 266.094 -20.229 71.251 217.566 -17.000 65.103 248.036 -17.437 414.862 340.749 -18.744 392.273 314.491 -19.709 61.515 183.893 -19.593 124.637 177.812 -17.250 406.184 270.638 -20.492 161.505 223.449 -19.281 428.538 312.368 -21.518 389.445 306.015 -19.753 399.756 251.950 -21.068 187.698 240.807 -20.466 399.436 348.493 -19.168 386.918 287.460 -20.339 458.656 287.718 -20.282 412.248 241.780 -21.424 202.363 248.775 -21.369 413.048 347.107 -19.475 59.651 205.336 -19.292 193.689 265.264 -21.490 192.395 215.694 -22.016 114.088 188.922 -16.493 460.903 297.263 -20.751 112.227 213.470 -15.835 175.882 236.288 -20.399 408.337 260.845 -22.542 13.688 245.043 -17.959 3.396 217.959 -18.965 174.095 223.757 -20.573 44.179 225.419 -17.908 76.407 209.056 -17.255 140.900 238.906 -16.858 199.699 187.844 -21.170 42.413 221.880 -17.637 49.019 271.148 -19.384 131.617 221.241 -16.761 36.301 213.145 -17.618 179.862 190.827 -19.110 390.640 309.599 -20.700 179.837 243.337 -19.101 109.411 201.906 -16.682 154.014 221.675 -18.156 39.021 250.184 -18.136 419.480 276.615 -21.117 67.112 169.647 -18.732 381.338 236.216 -20.196 149.494 209.208 -18.209 25.163 186.057 -20.673 179.669 228.123 -19.459 62.315 201.806 -19.116 405.673 288.036 -20.514 391.716 275.235 -19.789 6.561 231.044 -18.509 54.035 245.246 -18.104 101.388 231.152 -18.303 430.283 341.705 -20.377 172.662 239.917 -20.124 160.995 222.631 -17.962 100.077 255.900 -17.304 421.752 291.018 -21.769 173.776 235.676 -21.284 163.509 215.269 -20.028 28.162 189.686 -19.917 453.286 293.947 -20.131 4.056 229.558 -18.630 43.769 159.641 -18.894 50.593 275.191 -19.097 60.939 211.050 -17.937 400.619 300.784 -19.731 51.171 208.122 -18.799 180.427 272.700 -22.186 103.401 242.872 -17.392 101.127 212.377 -17.423 56.228 265.323 -19.202 394.814 294.802 -20.150 136.615 232.610 -16.217 45.195 205.522 -19.155 117.850 245.431 -15.763 63.354 212.485 -17.397 133.127 249.600 -16.792 389.476 321.949 -19.938 431.199 289.964 -21.328 57.236 223.004 -18.020 138.334 239.496 -15.682 147.450 169.707 -15.880 5.874 181.094 -19.174 403.007 306.819 -20.078 125.232 224.064 -16.037 151.287 271.591 -18.714 163.811 227.789 -19.216 404.081 340.947 -19.947 420.874 268.528 -22.322 403.010 280.986 -20.545 363.163 265.209 -19.746 53.711 216.193 -18.005 398.991 300.117 -20.246 205.714 255.547 -21.996 360.577 287.635 -20.101 40.450 240.338 -16.790 43.750 253.819 -18.113 389.924 246.793 -20.599 141.464 227.150 -16.310 386.757 296.675 -20.878 378.928 340.833 -18.888 423.752 336.361 -20.125 65.019 208.123 -17.615 379.259 260.718 -20.458 159.402 217.865 -18.990 59.508 239.342 -16.749 42.255 188.650 -20.880 436.569 256.238 -23.311 57.150 196.394 -19.062 194.598 266.121 -22.155 10.295 181.843 -19.205 436.848 318.965 -20.544 77.442 191.669 -18.016 189.056 206.927 -21.221 153.615 193.644 -17.572 4.460 205.693 -19.622 373.404 335.292 -21.007 78.866 165.045 -17.203 52.108 251.813 -18.039 166.133 223.816 -19.868 142.953 270.427 -18.774 75.945 252.426 -17.531 215.317 216.492 -22.427 123.694 177.616 -17.457 144.752 218.991 -17.271 65.108 238.039 -17.975 139.292 219.255 -15.848 105.482 190.095 -16.543 50.534 245.509 -17.141 168.359 232.022 -18.789 396.253 292.017 -20.448 190.044 259.379 -21.237 119.145 192.028 -16.344 402.385 281.973 -20.202 405.316 275.560 -20.728 191.699 214.418 -21.848 178.208 205.102 -21.827 190.106 216.680 -21.144 70.307 273.249 -19.274 113.953 209.436 -17.477 74.411 223.856 -18.101 52.294 207.966 -19.400 18.151 220.133 -17.438 448.671 252.619 -22.337 68.256 261.826 -19.186 450.495 266.752 -21.307 401.629 280.740 -20.616 172.537 238.068 -20.221 34.031 244.001 -17.337 393.205 300.815 -20.532 172.166 217.496 -20.976 168.782 260.555 -19.386 107.212 235.958 -17.455 11.004 250.033 -18.534 456.988 296.752 -20.261 161.807 242.891 -19.028 106.255 214.755 -16.375 62.182 201.561 -19.386 51.294 228.514 -17.290 76.549 239.693 -17.572 72.226 201.401 -18.646 38.615 210.094 -18.611 81.866 214.158 -17.281 168.468 224.554 -19.959 69.390 234.636 -17.711 60.683 262.177 -19.190 442.945 336.544 -20.917 68.722 200.617 -18.202 414.974 275.348 -22.085 52.871 226.439 -17.324 79.248 223.617 -17.335 399.722 249.566 -21.845 395.516 269.918 -20.172 400.978 232.185 -21.227 415.772 296.020 -21.421 410.165 298.344 -20.303 410.668 296.309 -20.105 66.676 257.526 -17.915 39.658 192.368 -19.781 56.281 215.524 -17.081 60.715 240.341 -18.027 49.152 201.544 -20.029 66.440 214.386 -16.957 407.077 289.341 -20.610 463.479 276.466 -19.580 410.398 255.113 -22.253 401.655 283.381 -19.524 466.976 297.748 -20.382 376.342 333.193 -20.121 28.009 248.599 -19.201 53.649 221.049 -18.177 115.030 217.568 -16.201 138.926 181.507 -16.124 165.999 212.111 -20.211 105.816 183.116 -16.231 186.206 179.491 -19.600 388.172 298.404 -20.541 194.614 240.440 -21.078 424.458 246.988 -22.049 81.765 234.968 -17.390 165.756 212.907 -20.607 191.925 237.417 -20.313 47.147 219.805 -17.312 141.633 216.366 -17.241 414.806 290.816 -20.699 164.368 221.486 -19.789 49.834 211.533 -18.247 80.139 209.872 -17.024 53.970 159.415 -18.184 76.611 173.803 -18.299 436.947 284.128 -21.054 218.851 207.687 -23.345 440.524 297.415 -21.657 406.958 292.770 -21.166 165.865 221.655 -19.786 49.986 219.021 -17.487 151.953 241.477 -17.433 46.464 220.507 -18.431 134.303 175.640 -16.929 64.278 216.882 -17.499 442.387 250.309 -22.884 180.510 205.369 -20.713 108.293 227.072 -17.817 461.086 286.902 -20.316 35.703 158.696 -19.992 166.289 224.430 -19.656 182.633 223.983 -21.092 413.910 272.114 -21.943 69.463 224.562 -17.559 59.747 237.874 -16.375 455.332 321.441 -20.052 77.005 268.242 -17.794 84.229 181.547 -17.759 197.884 226.759 -21.459 75.976 208.235 -18.190 43.896 164.338 -19.787 206.614 227.696 -22.663 397.602 320.898 -19.481 204.970 217.563 -22.482 7.502 188.103 -20.023 129.026 253.565 -16.116 197.584 192.283 -20.761 412.129 310.143 -20.810 57.446 200.984 -20.121 178.653 224.406 -20.268 397.095 290.526 -20.412 419.977 321.030 -19.530 498.140 215.578 -19.306 38.016 238.023 -17.321 55.410 199.018 -19.597 38.093 273.292 -19.390 83.287 244.199 -17.018 421.118 252.745 -22.705 71.633 169.107 -16.925 414.613 302.755 -20.618 362.685 285.976 -20.272 60.214 219.901 -18.564 60.055 272.349 -19.582 374.126 298.955 -21.645 351.685 293.958 -21.183 421.392 272.097 -22.518 451.275 322.189 -21.550 371.282 295.645 -20.172 411.203 277.569 -21.763 458.319 290.331 -20.351 141.816 244.628 -17.995 446.634 334.613 -19.623 453.654 262.558 -21.471 9.868 219.383 -18.607 166.020 267.275 -19.358 80.292 235.591 -17.625 382.248 252.989 -22.319 127.441 225.196 -17.023 25.471 266.700 -18.653 15.439 212.369 -18.625 406.463 296.658 -21.350 118.843 186.459 -17.501 424.306 275.070 -22.171 88.601 199.431 -17.260 66.788 253.206 -17.660 139.003 272.637 -18.890 422.120 269.473 -23.565 88.283 181.180 -16.900 70.708 208.650 -16.669 218.106 215.198 -22.673 107.159 245.473 -16.776 375.500 284.535 -20.352 431.212 262.451 -23.788 135.745 254.936 -17.440 11.960 254.358 -19.257 417.142 256.411 -22.168 162.965 174.812 -16.026 115.342 215.949 -16.095 394.106 309.772 -19.822 372.133 311.507 -22.128 63.717 207.974 -18.849 418.750 320.698 -19.782 112.487 199.051 -15.762 94.535 184.686 -16.202 433.353 266.148 -22.455 413.132 311.545 -20.506 401.387 338.463 -19.786 181.304 224.638 -21.282 206.656 217.834 -22.005 422.828 305.514 -20.517 408.076 286.883 -19.922 7.457 200.151 -18.762 1.050 230.067 -18.350 79.721 194.535 -17.712 427.258 281.947 -22.250 150.354 198.648 -18.786 157.622 178.288 -16.969 426.790 255.601 -22.998 402.456 326.629 -19.805 431.075 263.805 -24.048 17.739 250.499 -19.463 46.471 229.261 -16.662 428.706 343.045 -20.325 46.464 224.775 -17.685 395.300 278.526 -19.811 46.961 218.290 -17.886 185.815 215.695 -20.905 73.866 168.141 -17.604 43.799 168.950 -19.880 385.889 327.567 -19.973 64.369 215.029 -17.500 121.057 194.840 -17.178 460.110 288.102 -20.388 450.565 331.476 -21.261 51.120 245.464 -18.594 69.660 225.834 -18.236 395.066 235.284 -21.389 157.604 218.138 -18.556 83.207 192.725 -17.129 145.696 219.842 -17.328 438.635 269.372 -21.541 411.470 302.562 -21.206 126.065 185.766 -16.975 191.143 200.749 -20.294 11.355 190.915 -20.176 159.188 250.190 -19.773 184.620 226.314 -20.483 390.173 300.708 -19.649 80.973 226.754 -17.824 53.455 242.349 -17.294 103.878 244.647 -16.740 174.496 207.545 -21.394 152.976 236.387 -18.720 411.433 294.461 -20.304 97.154 222.182 -16.887 385.842 341.090 -20.531 409.727 256.856 -22.154 130.646 247.718 -15.842 161.947 273.490 -19.167 380.913 315.962 -20.658 160.493 228.954 -17.723 69.135 273.578 -19.805 141.765 200.942 -16.969 166.810 218.080 -19.833 53.276 228.541 -17.695 437.210 316.381 -20.434 436.516 317.130 -20.093 421.392 319.788 -20.321 429.624 308.924 -21.012 455.292 301.188 -21.324 172.357 230.999 -20.656 36.765 227.857 -17.607 110.811 252.651 -17.954 413.318 305.870 -19.240 46.012 206.434 -19.013 215.392 247.756 -22.310 55.409 224.444 -17.881 102.058 229.615 -17.263 430.944 299.305 -20.436 412.652 300.566 -20.581 144.859 195.327 -17.842 70.511 222.053 -18.498 387.218 294.127 -21.051 45.513 205.852 -19.983 178.792 167.388 -18.691 27.085 200.651 -18.965 423.645 249.950 -22.557 391.810 242.129 -21.247 407.882 291.701 -20.952 58.311 215.330 -17.820 55.594 215.912 -17.867 400.590 284.087 -20.054 49.150 197.575 -20.245 442.605 258.903 -23.103 166.487 216.137 -21.129 455.518 273.999 -20.714 373.171 337.717 -19.882 54.436 234.804 -17.184 167.139 208.599 -19.821 181.584 206.700 -20.116 218.150 203.703 -22.462 147.219 211.790 -18.228 54.849 270.918 -19.679 23.273 237.478 -18.456 55.862 215.876 -19.193 206.033 181.744 -22.116 409.775 288.070 -21.160 84.136 177.854 -16.402 64.959 171.497 -17.799 411.750 300.126 -20.619 121.534 241.831 -15.329 402.577 258.866 -21.434 393.598 298.541 -19.657 103.259 253.221 -16.055 452.972 296.350 -20.328 414.749 332.190 -19.753 163.127 179.353 -16.696 440.243 311.375 -20.689 391.293 255.298 -22.527 133.733 276.807 -18.566 148.435 195.998 -17.982 453.861 289.711 -19.748 114.703 188.793 -15.571 16.448 172.370 -20.028 408.952 305.402 -20.090 140.477 217.764 -17.722 168.916 219.320 -19.605 396.956 286.152 -19.807 399.834 297.484 -20.578 168.402 236.976 -20.059 39.785 202.474 -19.584 458.351 317.786 -19.445 160.012 223.783 -18.412 49.410 180.100 -19.564 159.159 202.280 -17.899 166.772 164.614 -17.791 143.986 209.979 -17.857 177.868 233.677 -20.193 61.958 226.868 -16.718 9.565 210.646 -18.590 384.417 274.857 -19.897 151.772 239.880 -17.551 204.985 223.547 -22.337 414.458 321.652 -18.530 61.121 172.795 -19.261 404.454 304.288 -21.005 393.705 270.201 -20.443 138.866 241.150 -17.441 372.967 295.561 -21.281 416.599 322.848 -18.851 32.604 215.960 -18.088 24.541 169.431 -20.109 68.973 160.883 -18.249 181.008 198.293 -19.563 169.712 252.396 -20.959 20.756 212.741 -17.956 378.740 326.844 -20.533 59.073 254.664 -18.049 406.797 321.048 -18.895 178.727 272.937 -19.935 21.870 247.237 -18.031 50.795 214.870 -18.177 64.959 231.101 -17.454 82.005 257.488 -17.305 208.670 240.058 -22.274 61.879 217.309 -17.381 193.797 242.507 -20.787 53.349 212.847 -18.030 59.254 210.424 -18.416 442.317 324.964 -20.501 460.775 288.554 -21.290 24.511 165.375 -20.115 63.196 194.666 -19.222 364.360 252.168 -20.290 36.671 164.833 -20.776 170.430 214.952 -20.576 386.186 299.458 -20.611 97.770 214.003 -17.359 57.830 255.094 -18.643 429.865 309.334 -20.327 101.606 260.070 -16.434 450.268 319.922 -20.437 187.327 181.388 -19.703 392.475 298.868 -20.089 68.474 156.746 -18.761 36.978 200.239 -20.456 390.601 240.259 -20.697 64.204 210.315 -17.713 81.322 204.581 -17.027 176.565 190.552 -18.306 43.338 196.728 -19.547 445.253 282.704 -21.373 71.674 202.734 -17.327 420.396 246.892 -21.129 197.471 213.392 -22.230 72.376 157.531 -17.901 420.812 271.799 -22.286 43.740 211.871 -18.516 35.662 223.212 -16.997 434.257 265.881 -22.379 426.625 332.913 -20.346 386.482 313.371 -20.312 145.892 192.193 -18.443 460.161 315.211 -20.082 166.689 282.916 -19.822 64.801 174.951 -18.126 395.572 239.913 -20.692 352.727 281.806 -20.187 424.769 243.503 -21.422 213.730 217.303 -22.138 162.111 236.632 -17.793 394.719 302.381 -20.639 175.439 235.513 -20.604 28.130 194.084 -19.715 442.014 278.134 -21.847 406.039 301.034 -20.868 182.051 233.169 -21.313 392.357 277.074 -19.714 174.943 212.224 -21.675 159.427 222.859 -19.111 163.681 224.171 -18.381 205.667 180.347 -22.530 154.217 381.406 -20.891 155.448 297.901 -19.392 131.214 9.167 -19.601 196.539 240.467 -20.424 12.027 304.679 -20.246 314.306 278.986 -23.024 450.005 201.002 -21.231 26.847 82.585 -20.033 207.697 178.822 -21.561 390.446 158.832 -22.816 124.901 85.083 -18.724 150.363 411.689 -18.382 104.586 71.301 -18.675 109.807 199.194 -16.489 170.986 499.858 -19.930 122.842 38.941 -20.016 28.807 235.841 -18.083 138.406 360.020 -17.795 187.021 203.582 -21.183 46.627 399.305 -18.451 231.834 456.415 -24.406 162.904 348.358 -21.707 18.897 428.776 -19.333 253.828 349.329 -24.571 419.106 359.812 -18.575 81.256 151.823 -15.931 123.755 355.030 -17.166 12.484 418.670 -18.106 304.432 140.410 -27.283 54.713 172.384 -20.045 406.547 144.568 -22.669 266.419 126.176 -28.448 275.983 155.183 -26.122 53.357 108.275 -19.108 197.106 150.707 -23.285 464.642 488.561 -17.514 155.789 33.229 -21.122 21.352 358.819 -17.932 114.991 100.418 -17.295 315.916 442.780 -21.315 19.508 390.805 -18.724 438.500 7.404 -17.796 317.504 400.730 -19.990 247.855 30.669 -27.549 45.840 127.643 -17.545 205.681 316.948 -24.793 167.541 328.948 -22.659 46.091 251.454 -18.446 230.441 120.575 -27.298 175.774 499.277 -20.160 257.186 119.472 -29.807 74.547 344.915 -17.224 82.202 463.078 -17.786 97.770 326.903 -17.390 79.716 287.007 -18.944 454.767 244.376 -20.324 146.244 109.774 -17.384 240.626 222.523 -22.810 260.881 203.377 -21.977 417.556 481.025 -18.352 217.694 25.812 -25.702 370.791 243.681 -20.386 66.755 88.765 -16.722 249.638 26.409 -28.616 297.427 309.165 -23.978 96.900 114.660 -15.047 452.790 218.581 -20.288 145.235 44.030 -20.471 398.192 219.993 -21.812 76.154 423.663 -17.153 274.915 481.592 -26.173 460.327 43.427 -18.779 457.653 220.871 -20.148 203.191 5.892 -24.615 434.751 19.728 -18.481 336.344 477.120 -22.961 464.889 268.339 -21.455 1.853 92.917 -20.744 468.534 138.096 -22.617 116.742 1.187 -20.350 364.249 238.281 -20.560 143.741 121.660 -17.060 329.213 257.919 -22.189 185.096 228.386 -19.049 325.578 99.627 -27.516 136.881 422.565 -18.438 485.686 478.837 -18.232 429.470 265.832 -22.749 229.083 374.331 -26.203 380.446 259.762 -20.729 435.510 294.300 -20.747 448.271 206.095 -20.464 331.899 126.374 -27.460 98.597 475.363 -18.140 28.751 372.787 -18.486 196.314 412.679 -23.979 124.082 194.666 -16.802 289.606 317.079 -22.957 316.413 341.430 -22.942 109.894 203.613 -15.861 184.626 316.486 -21.491 5.172 258.487 -18.165 381.354 398.183 -18.638 214.599 422.109 -22.921 371.314 301.690 -21.484 16.874 488.511 -18.201 326.460 36.879 -26.482 262.184 493.760 -27.487 154.636 91.327 -18.713 484.531 397.782 -17.618 226.537 221.717 -22.490 108.317 453.880 -18.835 32.295 482.119 -16.659 296.594 477.401 -25.121 24.490 121.247 -18.361 203.919 455.562 -23.096 370.525 183.484 -21.631 364.542 481.936 -21.915 270.542 67.986 -29.162 470.563 159.334 -20.636 438.056 95.421 -23.029 148.470 304.215 -20.371 20.047 366.053 -17.972 41.874 233.766 -17.692 107.110 107.461 -17.336 378.927 279.908 -20.473 1.364 345.291 -19.192 44.625 1.196 -16.672 5.928 454.093 -16.896 301.708 405.363 -21.538 104.057 44.032 -19.690 386.959 172.433 -22.089 417.143 494.276 -19.793 125.501 481.844 -19.964 425.298 353.470 -19.138 343.483 265.685 -20.452 451.995 94.471 -23.194 84.598 89.910 -15.806 218.748 417.293 -23.381 277.163 134.336 -28.753 132.135 321.620 -17.802 169.907 102.015 -20.615 118.176 186.091 -16.698 191.983 213.242 -21.359 392.614 54.551 -22.622 250.215 188.662 -23.360 393.259 133.166 -23.335 312.279 335.308 -22.829 482.185 173.688 -19.966 124.056 239.064 -16.232 78.928 237.803 -17.569 349.231 385.574 -20.713 259.456 144.285 -26.727 97.154 13.205 -19.434 196.910 380.255 -23.567 157.262 459.344 -20.687 293.826 430.549 -21.697 36.439 297.972 -19.607 430.027 139.289 -22.782 65.937 469.472 -16.477 9.584 171.050 -20.082 179.531 280.390 -19.395 225.405 481.028 -25.777 77.707 406.544 -16.621 131.257 120.187 -16.043 486.419 367.445 -19.174 33.507 201.807 -19.630 246.351 437.701 -24.489 67.922 400.389 -16.929 271.681 434.983 -22.468 60.036 144.438 -18.557 87.858 208.084 -16.805 403.038 280.222 -19.977 16.283 184.431 -19.983 92.079 231.854 -17.959 43.201 239.290 -17.873 162.699 234.393 -18.074 200.468 209.001 -21.130 30.177 196.422 -19.725 401.466 254.461 -21.453 136.050 178.844 -17.076 166.009 221.265 -19.645 61.608 248.357 -17.150 69.073 269.122 -19.005 78.468 214.515 -16.849 425.164 315.097 -21.256 397.227 267.330 -20.759 408.243 258.689 -22.144 403.166 313.500 -19.271 113.887 197.188 -15.887 62.998 231.185 -17.729 406.991 313.178 -19.414 428.271 313.901 -19.734 164.346 218.289 -20.001 78.067 214.740 -17.444 76.795 200.133 -18.377 428.720 303.659 -20.390 65.195 240.268 -18.057 399.704 299.052 -18.989 414.336 232.539 -20.974 132.802 257.145 -16.581 56.654 215.351 -17.767 40.942 242.004 -17.032 50.183 220.197 -17.935 11.390 251.759 -18.547 405.581 293.308 -20.425 190.127 222.459 -21.528 158.984 283.541 -19.092 40.022 190.585 -21.159 375.371 286.408 -19.824 401.518 287.779 -20.619 399.810 293.724 -20.091 147.787 252.168 -18.044 393.890 246.404 -20.973 424.141 276.638 -22.722 92.483 177.092 -18.138 387.877 308.404 -20.622 418.972 301.735 -21.020 55.127 215.465 -17.564 8.599 189.336 -19.653 181.088 219.585 -21.294 193.738 240.813 -20.601 34.433 227.279 -17.180 170.985 243.728 -20.603 47.220 163.307 -19.659 6.925 240.550 -18.280 87.926 239.653 -16.607 94.860 263.315 -16.968 35.358 265.254 -18.413 394.276 286.761 -20.120 446.243 288.205 -20.856 50.439 260.477 -18.382 43.881 198.773 -20.524 37.974 266.624 -19.055 1.070 233.130 -19.504 198.061 203.143 -20.917 24.058 205.844 -18.021 182.823 266.562 -21.520 109.797 244.210 -17.029 76.979 212.431 -16.667 175.757 261.777 -20.946 169.806 260.288 -19.617 193.231 223.945 -21.458 365.022 333.943 -21.244 65.892 206.180 -18.212 395.994 289.955 -20.300 405.886 309.894 -20.480 58.158 215.773 -18.027 434.280 308.425 -20.810 410.153 242.367 -21.618 41.979 157.404 -18.724 161.407 219.400 -19.113 390.279 280.198 -20.219 176.881 219.050 -21.081 361.382 286.542 -21.167 431.267 307.670 -20.065 176.982 233.171 -19.132 424.083 273.622 -23.111 166.229 207.209 -19.448 148.071 229.031 -17.229 188.897 212.037 -22.263 45.882 188.229 -20.729 358.375 283.052 -20.506 150.715 226.071 -17.948 409.140 310.733 -20.326 146.960 182.227 -17.804 10.458 208.008 -19.715 430.442 334.100 -19.040 1.697 188.377 -18.851 175.448 235.092 -20.171 54.287 226.566 -16.761 201.984 208.843 -21.597 167.268 212.049 -19.861 16.453 248.421 -18.512 400.125 270.374 -21.384 395.682 265.802 -21.088 407.808 287.203 -21.077 149.597 225.345 -17.609 68.552 231.493 -17.239 48.352 276.437 -19.124 462.654 272.301 -20.905
</DataArray>
</Points>
<PointData>
<DataArray type="Int32" Name="region" format="ascii">
0 0 0 0 0 0 0 0 0 0 0 0 0 0 0 0 0 0 0 0 0 0 0 0 0 0 0 0 0 0 0 0 0 0 0 0 0 0 0 0 0 0 0 0 0 0 0 0 0 0 0 0 0 0 0 0 0 0 0 0 0 0 0 0 0 0 0 0 0 0 0 0 0 0 0 0 0 0 0 0 0 0 0 0 0 0 0 0 0 0 0 0 0 0 0 0 0 0 0 0 0 0 0 0 0 0 0 0 0 0 0 0 0 0 0 0 0 0 0 0 0 0 0 0 0 0 0 0 0 0 0 0 0 0 0 0 0 0 0 0 0 0 0 0 0 0 0 0 0 0 0 0 0 0 0 0 0 0 0 0 0 0 0 0 0 0 0 0 0 0 0 0 0 0 0 0 0 0 0 0 0 0 0 0 0 0 0 0 0 0 0 0 0 0 0 0 0 0 0 0 0 0 0 0 0 0 0 0 0 0 0 0 0 0 0 0 0 0 0 0 0 0 0 0 0 0 0 0 0 0 0 0 0 0 0 0 0 0 0 0 0 0 0 0 0 0 0 0 0 0 0 0 0 0 0 0 0 0 0 0 0 0 0 0 0 0 0 0 0 0 0 0 0 0 0 0 0 0 0 0 0 0 0 0 0 0 0 0 0 0 0 0 0 0 0 0 0 0 0 0 0 0 0 0 0 0 0 0 0 0 0 0 0 0 0 0 0 0 0 0 0 0 0 0 0 0 0 0 0 0 0 0 0 0 0 0 0 0 0 0 0 0 0 0 0 0 0 0 0 0 0 0 0 0 0 0 0 0 0 0 0 0 0 0 0 0 0 0 0 0 0 0 0 0 0 0 0 0 0 0 0 0 0 0 0 0 0 0 0 0 0 0 0 0 0 0 0 0 0 0 0 0 0 0 0 0 0 0 0 0 0 0 0 0 0 0 0 0 0 0 0 0 0 0 0 0 0 0 0 0 0 0 0 0 0 0 0 0 0 0 0 0 0 0 0 0 0 0 0 0 0 0 0 0 0 0 0 0 0 0 0 0 0 0 0 0 0 0 0 0 0 0 0 0 0 0 0 0 0 0 0 0 0 0 0 0 0 0 0 0 0 0 0 0 0 0 0 0 0 0 0 0 0 0 0 0 0 0 0 0 0 0 0 0 0 0 0 0 0 0 0 0 0 0 0 0 0 0 0 0 0 0 0 0 0 0 0 0 0 0 0 0 0 0 0 0 0 0 0 0 0 0 0 0 0 0 0 0 0 0 0 0 0 0 0 0 0 0 0 0 0 0 0 0 0 0 0 0 0 0 0 0 0 0 0 0 0 0 0 0 0 0 0 0 0 0 0 0 0 0 0 0 0 0 0 0 0 0 0 0 0 0 0 0 0 0 0 0 0 0 0 0 0 0 0 0 0 0 0 0 0 0 0 0 0 0 0 0 0 0 0 0 0 0 0 0 0 0 0 0 0 0 0 0 0 0 0 0 0 0 0 0 0 0 0 0 0 0 0 0 0 0 0 0 0 0 0 0 0 0 0 0 0 0 0 0 0 0 0 0 0 0 0 0 0 0 0 0 0 0 0 0 0 0 0 0 0 0 0 0 0 0 0 0 0 0 0 0 0 0 0 0 0 0 0 0 0 0 0 0 0 0 0 0 0 0 0 0 0 0 0 0 0 0 0 0 0 0 0 0 0 0 0 0 0 0 0 0 0 0 0 0 0 0 0 0 0 0 0 0 0 0 0 0 0 0 0 0 0 0 0 0 0 0 0 0 0 0 0 0 0 0 0 0 0 0 0 0 0 0 0 0 0 0 0 0 0 0 0 0 0 0 0 0 0 0 0 0 0 0 0 0 0 0 0 0 0 0 0 0 0 0 0 0 0 0 0 0 0 0 0 0 0 0 0 0 0 0 0 0 0 0 0 0 0 0 0 0 0 0 0 0 0 0 0 0 0 0 0 0 0 0 0 0 0 0 0 0 0 0 0 0 0 0 0 0 0 0 0 0 0 0 0 0 0 0 0 0 0 0 0 0 0 0 0 0 0 0 0 0 0 0 0 0 0 0 0 0 0 0 0 0 0 0 0 0 0 0 0 0 0 0 0 0 0 0 0 0 0 0 0 0 0 0 0 0 0 0 0 0 0 0 0 0 0 0 0 0 0 0 0 0 0 0 0 0 0 0 0 0 0 0 0 0 0 0 0 0 0 0 0 0 0 0 0 0 0 0 0 0 0 0 0 0 0 0 0 0 0 0 0 0 0 0 0 0 0 0 0 0 0 0 0 0 0 0 0 0 0 0 0 0 0 0 0 0 0 0 0 0 0 0 0 0 0 0 0 0 0 0 0 0 0 0 0 0 0
</DataArray>
<DataArray type="Float32" Name="order_param" format="ascii">
0.8153 0.7709 0.7700 0.6327 0.7703 0.7977 0.8128 0.7226 0.8392 0.7909 0.6939 0.7502 0.6738 0.7420 0.6888 0.8598 0.8313 0.7478 0.6166 0.8333 0.6552 0.7835 0.7431 0.8756 0.7997 0.7941 0.8417 0.7932 0.7548 0.8142 0.7944 0.7988 0.6750 0.7532 0.8378 0.8551 0.7999 0.7517 0.6030 0.7475 0.7227 0.6694 0.7029 0.7763 0.7968 0.8439 0.7083 0.8367 0.6758 0.7771 0.7061 0.7219 0.7787 0.7884 0.8782 0.8372 0.7994 0.8005 0.6952 0.8302 0.6977 0.7019 0.7333 0.8483 0.8015 0.6905 0.7063 0.6823 0.7959 0.8576 0.6230 0.6166 0.8721 0.6807 0.6466 0.7113 0.7899 0.7679 0.7157 0.8662 0.7106 0.7763 0.7563 0.5964 0.7560 0.8057 0.6755 0.7761 0.6193 0.7510 0.7370 0.7387 0.8027 0.7581 0.8317 0.8145 0.5441 0.7081 0.6463 0.6907 0.7391 0.6843 0.7520 0.7924 0.8409 0.7846 0.8496 0.7780 0.7020 0.5628 0.6893 0.7259 0.8675 0.8265 0.8689 0.7535 0.7833 0.8523 0.8058 0.6633 0.7061 0.6735 0.8152 0.7290 0.5982 0.7331 0.7469 0.7664 0.8228 0.6386 0.6352 0.8769 0.7337 0.7042 0.7760 0.8761 0.6050 0.8188 0.7953 0.7903 0.7820 0.7993 0.7455 0.8541 0.8642 0.6965 0.7880 0.7244 0.8504 0.8820 0.7685 0.5793 0.7695 0.6170 0.8404 0.6552 0.8418 0.6217 0.7687 0.7798 0.7588 0.8123 0.7684 0.8261 0.7638 0.7280 0.6001 0.6743 0.6851 0.8213 0.7079 0.8905 0.8205 0.5903 0.8383 0.6966 0.6348 0.8233 0.8392 0.5562 0.8242 0.8105 0.8116 0.7604 0.8218 0.8547 0.6725 0.8262 0.8067 0.7697 0.5684 0.8362 0.6878 0.8767 0.7849 0.6352 0.6733 0.6678 0.8049 0.6869 0.6994 0.6723 0.8645 0.6430 0.6250 0.6429 0.7951 0.7110 0.7848 0.8638 0.7024 0.7609 0.8132 0.6485 0.8440 0.6618 0.7827 0.7610 0.8535 0.6993 0.8301 0.8127 0.7467 0.6293 0.7611 0.6436 0.7037 0.7889 0.7547 0.7763 0.7324 0.8580 0.7315 0.7264 0.7667 0.8101 0.7866 0.6992 0.8027 0.7662 0.8034 0.6789 0.7980 0.6318 0.8105 0.8325 0.7634 0.7291 0.8324 0.7943 0.8131 0.7606 0.8670 0.7603 0.7959 0.6809 0.8306 0.7630 0.6431 0.6516 0.7934 0.7997 0.8177 0.7959 0.8484 0.8095 0.6280 0.6953 0.7574 0.8179 0.7121 0.6920 0.6872 0.7908 0.8230 0.7539 0.6388 0.7474 0.6691 0.7700 0.6410 0.7945 0.8140 0.7602 0.7022 0.7175 0.8358 0.6802 0.6470 0.8013 0.8002 0.7262 0.6310 0.7209 0.8048 0.7420 0.7093 0.7183 0.6682 0.7167 0.6080 0.7336 0.8190 0.7725 0.7635 0.7139 0.7434 0.6954 0.8691 0.7422 0.7791 0.8244 0.6939 0.8543 0.7268 0.8371 0.5395 0.7078 0.6258 0.7477 0.6495 0.7321 0.8644 0.7274 0.7405 0.7692 0.6915 0.8847 0.7946 0.7915 0.8297 0.8255 0.7889 0.8540 0.7953 0.7840 0.6304 0.8221 0.6108 0.7440 0.8577 0.6954 0.6815 0.7540 0.5995 0.6182 0.6617 0.7868 0.7143 0.6234 0.7169 0.6513 0.6251 0.7812 0.8230 0.6764 0.8361 0.7086 0.7533 0.7538 0.7567 0.7762 0.8232 0.8591 0.8234 0.7043 0.7873 0.8461 0.6476 0.7030 0.7282 0.7957 0.8359 0.6802 0.7260 0.6824 0.8704 0.7419 0.8685 0.8166 0.7503 0.7654 0.7659 0.7161 0.7463 0.8541 0.6570 0.7837 0.8344 0.7519 0.8288 0.8347 0.6535 0.7240 0.6555 0.8024 0.8107 0.6564 0.7528 0.8254 0.7808 0.8714 0.8046 0.8347 0.7193 0.7237 0.6638 0.8534 0.8616 0.8129 0.6898 0.8368 0.8075 0.6397 0.7055 0.7532 0.8361 0.8191 0.7861 0.8128 0.6703 0.8473 0.8198 0.7082 0.6239 0.6417 0.7192 0.8577 0.8324 0.8852 0.8085 0.8255 0.8678 0.7468 0.8373 0.7071 0.8255 0.7792 0.6474 0.7740 0.8413 0.7953 0.7293 0.7042 0.7529 0.6756 0.6734 0.7800 0.7768 0.5631 0.8956 0.7773 0.8165 0.6626 0.8527 0.8007 0.8210 0.7498 0.7593 0.7720 0.7842 0.6982 0.7552 0.6704 0.6595 0.7573 0.8559 0.6479 0.7787 0.7351 0.6546 0.8486 0.7148 0.6267 0.8536 0.7928 0.5805 0.7316 0.8312 0.7697 0.7244 0.6607 0.6002 0.7829 0.6605 0.5770 0.6289 0.5398 0.6645 0.7000 0.7159 0.8105 0.6206 0.8327 0.8189 0.7828 0.6720 0.7782 0.6989 0.8985 0.8008 0.7111 0.8274 0.6117 0.6811 0.8302 0.7741 0.6276 0.6886 0.7399 0.8209 0.6462 0.7579 0.8091 0.5506 0.7528 0.8576 0.6870 0.7422 0.7264 0.6634 0.6352 0.7054 0.8073 0.6182 0.7804 0.6193 0.5989 0.7269 0.8589 0.8309 0.7826 0.8359 0.8455 0.6635 0.7808 0.8154 0.7767 0.6665 0.7407 0.7073 0.7465 0.8571 0.8484 0.6579 0.6667 0.7833 0.7824 0.6770 0.5640 0.7263 0.6506 0.7674 0.7135 0.7258 0.6428 0.6956 0.5346 0.6412 0.7978 0.7812 0.7880 0.7813 0.8076 0.8055 0.6240 0.6647 0.6787 0.8353 0.6280 0.6367 0.7487 0.8210 0.6197 0.6237 0.5971 0.8230 0.8292 0.6893 0.7664 0.7650 0.6381 0.8458 0.7942 0.6717 0.6107 0.8471 0.8014 0.8389 0.7807 0.7906 0.7158 0.7123 0.5724 0.7788 0.7386 0.5465 0.7808 0.8635 0.6347 0.7477 0.8022 0.8765 0.7444 0.8568 0.8091 0.7464 0.8555 0.7197 0.8437 0.8112 0.7101 0.6729 0.7018 0.6857 0.8403 0.6293 0.8270 0.7732 0.6955 0.6212 0.6171 0.6474 0.8194 0.7145 0.7915 0.6437 0.6717 0.8037 0.8142 0.7835 0.8053 0.7725 0.7467 0.8519 0.5451 0.8213 0.5770 0.7363 0.6696 0.5969 0.5800 0.7290 0.8364 0.6123 0.7577 0.6373 0.8096 0.6432 0.6878 0.7753 0.7631 0.8330 0.6465 0.7425 0.6211 0.7859 0.8002 0.8296 0.6759 0.8137 0.8067 0.6674 0.8551 0.8019 0.6924 0.7194 0.8596 0.6284 0.7809 0.8689 0.7842 0.7991 0.8132 0.6799 0.6674 0.7153 0.8219 0.8161 0.7037 0.8142 0.6693 0.7805 0.7475 0.6255 0.7294 0.7000 0.8066 0.8253 0.7274 0.8658 0.6761 0.7097 0.7667 0.6756 0.7201 0.7399 0.7170 0.7299 0.6362 0.7204 0.6332 0.7468 0.8283 0.8057 0.6304 0.7952 0.7486 0.6700 0.7616 0.7326 0.8778 0.7989 0.7977 0.7902 0.7805 0.6710 0.7735 0.7839 0.6301 0.6671 0.7016 0.7306 0.6347 0.6636 0.7644 0.7685 0.7574 0.7136 0.6905 0.6095 0.6300 0.7684 0.8169 0.8002 0.6985 0.6021 0.6954 0.6068 0.8122 0.6119 0.7166 0.8607 0.8039 0.7989 0.6866 0.7145 0.8437 0.7945 0.8166 0.7773 0.5982 0.7317 0.6688 0.8151 0.7427 0.6140 0.7737 0.6941 0.7891 0.5909 0.8049 0.7424 0.6974 0.8724 0.8295 0.6497 0.6379 0.6156 0.6451 0.8084 0.8044 0.8381 0.5996 0.8061 0.7430 0.7773 0.8213 0.7826 0.7962 0.7475 0.7648 0.6816 0.7086 0.7986 0.8030 0.6527 0.8146 0.6569 0.8166 0.6669 0.6089 0.7721 0.8288 0.7048 0.7827 0.8357 0.6724 0.7661 0.8348 0.8733 0.8216 0.8690 0.5361 0.7800 0.8450 0.8482 0.7556 0.7560 0.8061 0.5901 0.7724 0.8089 0.6427 0.8844 0.6378 0.6282 0.7704 0.7964 0.6474 0.7948 0.6730 0.6770 0.7284 0.8637 0.6456 0.7552 0.6168 0.7139 0.6221 0.8558 0.8485 0.6463 0.8200 0.7830 0.7766 0.8122 0.8517 0.8218 0.7783 0.8021 0.8155 0.6200 0.7324 0.8260 0.7978 0.6076 0.8298 0.7952 0.6185 0.6856 0.6342 0.6574 0.7760 0.8406 0.6766 0.6822 0.8584 0.7925 0.7204 0.6861 0.6189 0.8208 0.7625 0.7716 0.7069 0.6558 0.7129 0.8361 0.7363 0.5884 0.8187 0.8057 0.7596 0.7531 0.7658 0.7072 0.7905 0.8637 0.7615 0.6563 0.6739 0.6856 0.7417 0.7418 0.8026 0.8836 0.8392 0.7889 0.7831 0.7513 0.8522 0.7440 0.8612 0.6492 0.6249 0.8483 0.6699 0.7352 0.6196 0.8345 0.7877 0.5954 0.7353 0.8546 0.7003 0.7101 0.8266 0.8317 0.7612 0.7801 0.7601 0.8031 0.7502 0.7479 0.7892 0.8507 0.7219 0.6814 0.6906 0.7018 0.8401 0.8073 0.6365 0.8253 0.8533 0.5800 0.8133 0.7465 0.8342 0.8078 0.6287 0.7226 0.7107 0.7972 0.7258 0.7834 0.5876 0.6537 0.8052 0.6658 0.8506 0.8103 0.5296 0.7848 0.8022 0.7714 0.5793 0.7488 0.7586 0.8743 0.8122 0.6879 0.8009 0.7489 0.6911 0.7214 0.7072 0.8391 0.7580 0.6193 0.8604 0.7493 0.7383 0.7062 0.8270 0.6812 0.8009 0.8327 0.7748 0.7744 0.7310 0.8064 0.8028 0.8477 0.7876 0.7724 0.8226 0.7406 0.6759 0.7485 0.8296 0.6358 0.5905 0.7910 0.8381 0.7353 0.6527 0.8160 0.6609 0.8540 0.7814 0.5480 0.8008 0.7218 0.8071 0.5802 0.7712 0.8438 0.5978 0.5210 0.5751 0.7382 0.7857 0.5990 0.6483 0.5693 0.8550 0.7411 0.7558 0.7508 0.8477 0.8290 0.7330 0.5408 0.8000 0.6136 0.5819 0.8137 0.8142 0.8270 0.7518 0.8293 0.8005 0.5855 0.8407 0.7147 0.5907 0.8303 0.7446 0.7747 0.5889 0.7275 0.7609 0.8265 0.7717 0.7778 0.6071 0.8176 0.6693 0.8451 0.5718 0.7152 0.6902 0.7252 0.7868 0.6935
</DataArray>
<DataArray type="Int32" Name="in_raft" format="ascii">
0 0 0 0 0 0 0 0 0 0 0 0 0 0 0 0 0 0 0 0 0 0 0 0 0 0 0 0 0 0 0 0 0 0 0 0 0 0 0 0 0 0 0 0 0 0 0 0 0 0 0 0 0 0 0 0 0 0 0 0 0 0 0 0 0 0 0 0 0 0 0 0 0 0 0 0 0 0 0 0 0 0 0 0 0 0 0 0 0 0 0 0 0 0 0 0 0 0 0 0 0 0 0 0 0 0 0 0 0 0 0 0 0 0 0 0 0 0 0 0 0 0 0 0 0 0 0 0 0 0 0 0 0 0 0 0 0 0 0 0 0 0 0 0 0 0 0 0 0 0 0 0 0 0 0 0 0 0 0 0 0 0 0 0 0 0 0 0 0 0 0 0 0 0 0 0 0 0 0 0 0 0 0 0 0 0 0 0 0 0 0 0 0 0 0 0 0 0 0 0 0 0 0 0 0 0 0 0 0 0 0 0 0 0 0 0 0 0 0 0 0 0 0 0 0 0 0 0 0 0 0 0 0 0 0 0 0 0 0 0 0 0 0 0 0 0 0 0 0 0 0 0 0 0 0 0 0 0 0 0 0 0 0 0 0 0 0 0 0 0 0 0 0 0 0 0 0 0 0 0 0 0 0 0 0 0 0 0 0 0 0 0 0 0 0 0 0 0 0 0 0 0 0 0 0 0 0 0 0 0 0 0 0 0 0 0 0 0 0 0 0 0 0 0 0 0 0 0 0 0 0 0 0 0 0 0 0 0 0 0 0 0 0 0 0 0 0 0 0 0 0 0 0 0 0 0 0 0 0 0 0 0 0 0 0 0 0 0 0 0 0 0 0 0 0 0 0 0 0 0 0 0 0 0 0 0 0 0 0 0 0 0 0 0 0 0 0 0 0 0 0 0 0 0 0 0 0 0 0 0 0 0 0 0 0 0 0 0 0 0 0 0 0 0 0 0 0 0 0 0 0 0 0 0 0 0 0 0 0 0 0 0 0 0 0 0 0 0 0 0 0 0 0 0 0 0 0 0 0 0 0 0 0 0 0 0 0 0 0 0 0 0 0 0 0 0 0 0 0 0 0 0 0 0 0 0 0 0 0 0 0 0 0 0 0 0 0 0 0 0 0 0 0 0 0 0 0 0 0 0 0 0 0 0 0 0 0 0 0 0 0 0 0 0 0 0 0 0 0 0 0 0 0 0 0 0 0 0 0 0 0 0 0 0 0 0 0 0 0 0 0 0 0 0 0 0 0 0 0 0 0 0 0 0 0 0 0 0 0 0 0 0 0 0 0 0 0 0 0 0 0 0 0 0 0 0 0 0 0 0 0 0 0 0 0 0 0 0 0 0 0 0 0 0 0 0 0 0 0 0 0 0 0 0 0 0 0 0 0 0 0 0 0 0 0 0 0 0 0 0 0 0 0 0 0 0 0 0 0 0 0 0 0 0 0 0 0 0 0 0 0 0 0 0 0 0 0 0 0 0 0 0 0 0 0 0 0 0 0 0 0 0 0 0 0 0 0 0 0 0 0 0 0 0 0 0 0 0 0 0 0 0 0 0 0 0 0 0 0 0 0 0 0 0 0 0 0 0 0 0 0 0 0 0 0 0 0 0 0 0 0 0 0 0 0 0 0 0 0 0 0 0 0 0 0 0 0 0 0 0 0 0 0 0 0 0 0 0 0 0 0 0 0 0 0 0 0 0 0 0 0 0 0 0 0 0 0 0 0 0 0 0 0 0 0 0 0 0 0 0 0 0 0 0 0 0 0 0 0 0 0 0 0 0 0 0 0 0 0 0 0 0 0 0 0 0 0 0 0 0 0 0 0 0 0 0 0 0 0 0 0 0 0 0 0 0 0 0 0 0 0 0 0 0 0 0 0 0 0 0 0 0 0 0 0 0 0 0 0 0 0 0 0 0 0 0 0 0 0 0 0 0 0 0 0 0 0 0 0 0 0 0 0 0 0 0 0 0 0 0 0 0 0 0 0 0 0 0 0 0 0 0 0 0 0 0 0 0 0 0 0 0 0 0 0 0 0 0 0 0 0 0 0 0 0 0 0 0 0 0 0 0 0 0 0 0 0 0 0 0 0 0 0 0 0 0 0 0 0 0 0 0 0 0 0 0 0 0 0 0 0 0 0 0 0 0 0 0 0 0 0 0 0 0 0 0 0 0 0 0 0 0 0 0 0 0 0 0 0 0 0 0 0 0 0 0 0 0 0 0 0 0 0 0 0 0 0 0 0 0 0 0 0 0 0 0 0 0 0 0 0 0 0 0 0 0 0 0 0 0 0 0 0 0 0 0 0 0 0 0 0 0 0 0 0 0 0 0 0 0 0 0 0 0 0 0 0
</DataArray>
<DataArray type="Int32" Name="is_pip" format="ascii">
1 1 1 1 1 1 1 1 1 1 1 1 1 1 1 1 1 1 1 1 1 1 1 1 1 1 1 1 1 1 1 1 1 1 1 1 1 1 1 1 1 1 1 1 1 1 1 1 1 1 1 1 1 1 1 1 1 1 1 1 1 1 1 1 1 1 1 1 1 1 1 1 1 1 1 1 1 1 1 1 1 1 1 1 1 1 1 1 1 1 1 1 1 1 1 1 1 1 1 1 1 1 1 1 1 1 1 1 1 1 1 1 1 1 1 1 1 1 1 1 1 1 1 1 1 1 1 1 1 1 1 1 1 1 1 1 1 1 1 1 1 1 1 1 1 1 1 1 1 1 1 1 1 1 1 1 1 1 1 1 1 1 1 1 1 1 1 1 1 1 1 1 1 1 1 1 1 1 1 1 1 1 1 1 1 1 1 1 1 1 1 1 1 1 1 1 1 1 1 1 1 1 1 1 1 1 1 1 1 1 1 1 1 1 1 1 1 1 1 1 1 1 1 1 1 1 1 1 1 1 1 1 1 1 1 1 1 1 1 1 1 1 1 1 1 1 1 1 1 1 1 1 1 1 1 1 1 1 1 1 1 1 1 1 1 1 1 1 1 1 1 1 1 1 1 1 1 1 1 1 1 1 1 1 1 1 1 1 1 1 1 1 1 1 1 1 1 1 1 1 1 1 1 1 1 1 1 1 1 1 1 1 1 1 1 1 1 1 1 1 1 1 1 1 1 1 1 1 1 1 1 1 1 1 1 1 1 1 1 1 1 1 1 1 1 1 1 1 1 1 1 1 1 1 1 1 1 1 1 1 1 1 1 1 1 1 1 1 1 1 1 1 1 1 1 1 1 1 1 1 1 1 1 1 1 1 1 1 1 1 1 1 1 1 1 1 1 1 1 1 1 1 1 1 1 1 1 1 1 1 1 1 1 1 1 1 1 1 1 1 1 1 1 1 1 1 1 1 1 1 1 1 1 1 1 1 1 1 1 1 1 1 1 1 1 1 1 1 1 1 1 1 1 1 1 1 1 1 1 1 1 1 1 1 1 1 1 1 1 1 1 1 1 1 1 1 1 1 1 1 1 1 1 1 1 1 1 1 1 1 1 1 1 1 1 1 1 1 1 1 1 1 1 1 1 1 1 1 1 1 1 1 1 1 1 1 1 1 1 1 1 1 1 1 1 1 1 1 1 1 1 1 1 1 1 1 1 1 1 1 1 1 1 1 1 1 1 1 1 1 1 1 1 1 1 1 1 1 1 1 1 1 1 1 1 1 1 1 1 1 1 1 1 1 1 1 1 1 1 1 1 1 1 1 1 1 1 1 1 1 1 1 1 1 1 1 1 1 1 1 1 1 1 1 1 1 1 1 1 1 1 1 1 1 1 1 1 1 1 1 1 1 1 1 1 1 1 1 1 1 1 1 1 1 1 1 1 1 1 1 1 1 1 1 1 1 1 1 1 1 1 1 1 1 1 1 1 1 1 1 1 1 1 1 1 1 1 1 1 1 1 1 1 1 1 1 1 1 1 1 1 1 1 1 1 1 1 1 1 1 1 1 1 1 1 1 1 1 1 1 1 1 1 1 1 1 1 1 1 1 1 1 1 1 1 1 1 1 1 1 1 1 1 1 1 1 1 1 1 1 1 1 1 1 1 1 1 1 1 1 1 1 1 1 1 1 1 1 1 1 1 1 1 1 1 1 1 1 1 1 1 1 1 1 1 1 1 1 1 1 1 1 1 1 1 1 1 1 1 1 1 1 1 1 1 1 1 1 1 1 1 1 1 1 1 1 1 1 1 1 1 1 1 1 1 1 1 1 1 1 1 1 1 1 1 1 1 1 1 1 1 1 1 1 1 1 1 1 1 1 1 1 1 1 1 1 1 1 1 1 1 1 1 1 1 1 1 1 1 1 1 1 1 1 1 1 1 1 1 1 1 1 1 1 1 1 1 1 1 1 1 1 1 1 1 1 1 1 1 1 1 1 1 1 1 1 1 1 1 1 1 1 1 1 1 1 1 1 1 1 1 1 1 1 1 1 1 1 1 1 1 1 1 1 1 1 1 1 1 1 1 1 1 1 1 1 1 1 1 1 1 1 1 1 1 1 1 1 1 1 1 1 1 1 1 1 1 1 1 1 1 1 1 1 1 1 1 1 1 1 1 1 1 1 1 1 1 1 1 1 1 1 1 1 1 1 1 1 1 1 1 1 1 1 1 1 1 1 1 1 1 1 1 1 1 1 1 1 1 1 1 1 1 1 1 1 1 1 1 1 1 1 1 1 1 1 1 1 1 1 1 1 1 1 1 1 1 1 1 1 1 1 1 1 1 1 1 1 1 1 1 1 1 1 1 1 1
</DataArray>
<DataArray type="Int32" Name="pip_head" format="ascii">
1 1 1 1 1 1 1 1 1 1 1 1 1 1 1 1 1 1 1 1 1 1 1 1 1 1 1 1 1 1 1 1 1 1 1 1 1 1 1 1 1 1 1 1 1 1 1 1 1 1 1 1 1 1 1 1 1 1 1 1 1 1 1 1 1 1 1 1 1 1 1 1 1 1 1 1 1 1 1 1 1 1 1 1 1 1 1 1 1 1 1 1 1 1 1 1 1 1 1 1 1 1 1 1 1 1 1 1 1 1 1 1 1 1 1 1 1 1 1 1 1 1 1 1 1 1 1 1 1 1 1 1 1 1 1 1 1 1 1 1 1 1 1 1 1 1 1 1 1 1 1 1 1 1 1 1 1 1 1 1 1 1 1 1 1 1 1 1 1 1 1 1 1 1 1 1 1 1 1 1 1 1 1 1 1 1 1 1 1 1 1 1 1 1 1 1 1 1 1 1 1 1 1 1 1 1 1 1 1 1 1 1 1 1 1 1 1 1 1 1 1 1 1 1 1 1 1 1 1 1 1 1 1 1 1 1 1 1 1 1 1 1 1 1 1 1 1 1 1 1 1 1 1 1 1 1 1 1 1 1 1 1 1 1 1 1 1 1 1 1 1 1 1 1 1 1 1 1 1 1 1 1 1 1 1 1 1 1 1 1 1 1 1 1 1 1 1 1 1 1 1 1 1 1 1 1 1 1 1 1 1 1 1 1 1 1 1 1 1 1 1 1 1 1 1 1 1 1 1 1 1 1 1 1 1 1 1 1 1 1 1 1 1 1 1 1 1 1 1 1 1 1 1 1 1 1 1 1 1 1 1 1 1 1 1 1 1 1 1 1 1 1 1 1 1 1 1 1 1 1 1 1 1 1 1 1 1 1 1 1 1 1 1 1 1 1 1 1 1 1 1 1 1 1 1 1 1 1 1 1 1 1 1 1 1 1 1 1 1 1 1 1 1 1 1 1 1 1 1 1 1 1 1 1 1 1 1 1 1 1 1 1 1 1 1 1 1 1 1 1 1 1 1 1 1 1 1 1 1 1 1 1 1 1 1 1 1 1 1 1 1 1 1 1 1 1 1 1 1 1 1 1 1 1 1 1 1 1 1 1 1 1 1 1 1 1 1 1 1 1 1 1 1 1 1 1 1 1 1 1 1 1 1 1 1 1 1 1 1 1 1 1 1 1 1 1 1 1 1 1 1 1 1 1 1 1 1 1 1 1 1 1 1 1 1 1 1 1 1 1 1 1 1 1 1 1 1 1 1 1 1 1 1 1 1 1 1 1 1 1 1 1 1 1 1 1 1 1 1 1 1 1 1 1 1 1 1 1 1 1 1 1 1 1 1 1 1 1 1 1 1 1 1 1 1 1 1 1 1 1 1 1 1 1 1 1 1 1 1 1 1 1 1 1 1 1 1 1 1 1 1 1 1 1 1 1 1 1 1 1 1 1 1 1 1 1 1 1 1 1 1 1 1 1 1 1 1 1 1 1 1 1 1 1 1 1 1 1 1 1 1 1 1 1 1 1 1 1 1 1 1 1 1 1 1 1 1 1 1 1 1 1 1 1 1 1 1 1 1 1 1 1 1 1 1 1 1 1 1 1 1 1 1 1 1 1 1 1 1 1 1 1 1 1 1 1 1 1 1 1 1 1 1 1 1 1 1 1 1 1 1 1 1 1 1 1 1 1 1 1 1 1 1 1 1 1 1 1 1 1 1 1 1 1 1 1 1 1 1 1 1 1 1 1 1 1 1 1 1 1 1 1 1 1 1 1 1 1 1 1 1 1 1 1 1 1 1 1 1 1 1 1 1 1 1 1 1 1 1 1 1 1 1 1 1 1 1 1 1 1 1 1 1 1 1 1 1 1 1 1 1 1 1 1 1 1 1 1 1 1 1 1 1 1 1 1 1 1 1 1 1 1 1 1 1 1 1 1 1 1 1 1 1 1 1 1 1 1 1 1 1 1 1 1 1 1 1 1 1 1 1 1 1 1 1 1 1 1 1 1 1 1 1 1 1 1 1 1 1 1 1 1 1 1 1 1 1 1 1 1 1 1 1 1 1 1 1 1 1 1 1 1 1 1 1 1 1 1 1 1 1 1 1 1 1 1 1 1 1 1 1 1 1 1 1 1 1 1 1 1 1 1 1 1 1 1 1 1 1 1 1 1 1 1 1 1 1 1 1 1 1 1 1 1 1 1 1 1 1 1 1 1 1 1 1 1 1 1 1 1 1 1 1 1 1 1 1 1 1 1 1 1 1 1 1 1 1 1 1 1 1 1 1 1 1 1 1 1 1 1 1 1 1 1 1 1 1 1 1 1 1 1 1 1 1 1 1 1 1 1 1 1 1 1 1 1 1
</DataArray>
<DataArray type="Float32" Name="electron_density" format="ascii">
0.4760 0.4760 0.4760 0.4760 0.4760 0.4760 0.4760 0.4760 0.4760 0.4760 0.4760 0.4760 0.4760 0.4760 0.4760 0.4760 0.4760 0.4760 0.4760 0.4760 0.4760 0.4760 0.4760 0.4760 0.4760 0.4760 0.4760 0.4760 0.4760 0.4760 0.4760 0.4760 0.4760 0.4760 0.4760 0.4760 0.4760 0.4760 0.4760 0.4760 0.4760 0.4760 0.4760 0.4760 0.4760 0.4760 0.4760 0.4760 0.4760 0.4760 0.4760 0.4760 0.4760 0.4760 0.4760 0.4760 0.4760 0.4760 0.4760 0.4760 0.4760 0.4760 0.4760 0.4760 0.4760 0.4760 0.4760 0.4760 0.4760 0.4760 0.4760 0.4760 0.4760 0.4760 0.4760 0.4760 0.4760 0.4760 0.4760 0.4760 0.4760 0.4760 0.4760 0.4760 0.4760 0.4760 0.4760 0.4760 0.4760 0.4760 0.4760 0.4760 0.4760 0.4760 0.4760 0.4760 0.4760 0.4760 0.4760 0.4760 0.4760 0.4760 0.4760 0.4760 0.4760 0.4760 0.4760 0.4760 0.4760 0.4760 0.4760 0.4760 0.4760 0.4760 0.4760 0.4760 0.4760 0.4760 0.4760 0.4760 0.4760 0.4760 0.4760 0.4760 0.4760 0.4760 0.4760 0.4760 0.4760 0.4760 0.4760 0.4760 0.4760 0.4760 0.4760 0.4760 0.4760 0.4760 0.4760 0.4760 0.4760 0.4760 0.4760 0.4760 0.4760 0.4760 0.4760 0.4760 0.4760 0.4760 0.4760 0.4760 0.4760 0.4760 0.4760 0.4760 0.4760 0.4760 0.4760 0.4760 0.4760 0.4760 0.4760 0.4760 0.4760 0.4760 0.4760 0.4760 0.4760 0.4760 0.4760 0.4760 0.4760 0.4760 0.4760 0.4760 0.4760 0.4760 0.4760 0.4760 0.4760 0.4760 0.4760 0.4760 0.4760 0.4760 0.4760 0.4760 0.4760 0.4760 0.4760 0.4760 0.4760 0.4760 0.4760 0.4760 0.4760 0.4760 0.4760 0.4760 0.4760 0.4760 0.4760 0.4760 0.4760 0.4760 0.4760 0.4760 0.4760 0.4760 0.4760 0.4760 0.4760 0.4760 0.4760 0.4760 0.4760 0.4760 0.4760 0.4760 0.4760 0.4760 0.4760 0.4760 0.4760 0.4760 0.4760 0.4760 0.4760 0.4760 0.4760 0.4760 0.4760 0.4760 0.4760 0.4760 0.4760 0.4760 0.4760 0.4760 0.4760 0.4760 0.4760 0.4760 0.4760 0.4760 0.4760 0.4760 0.4760 0.4760 0.4760 0.4760 0.4760 0.4760 0.4760 0.4760 0.4760 0.4760 0.4760 0.4760 0.4760 0.4760 0.4760 0.4760 0.4760 0.4760 0.4760 0.4760 0.4760 0.4760 0.4760 0.4760 0.4760 0.4760 0.4760 0.4760 0.4760 0.4760 0.4760 0.4760 0.4760 0.4760 0.4760 0.4760 0.4760 0.4760 0.4760 0.4760 0.4760 0.4760 0.4760 0.4760 0.4760 0.4760 0.4760 0.4760 0.4760 0.4760 0.4760 0.4760 0.4760 0.4760 0.4760 0.4760 0.4760 0.4760 0.4760 0.4760 0.4760 0.4760 0.4760 0.4760 0.4750 0.4750 0.4750 0.4750 0.4750 0.4750 0.4750 0.4750 0.4750 0.4750 0.4750 0.4750 0.4750 0.4750 0.4750 0.4750 0.4750 0.4750 0.4750 0.4750 0.4750 0.4750 0.4750 0.4750 0.4750 0.4750 0.4750 0.4750 0.4750 0.4750 0.4750 0.4750 0.4750 0.4750 0.4750 0.4750 0.4750 0.4750 0.4750 0.4750 0.4750 0.4750 0.4750 0.4750 0.4750 0.4750 0.4750 0.4750 0.4750 0.4750 0.4750 0.4750 0.4750 0.4750 0.4750 0.4750 0.4750 0.4750 0.4750 0.4750 0.4750 0.4750 0.4750 0.4750 0.4750 0.4750 0.4750 0.4750 0.4750 0.4750 0.4750 0.4750 0.4750 0.4750 0.4750 0.4750 0.4750 0.4750 0.4750 0.4750 0.4750 0.4750 0.4750 0.4750 0.4750 0.4750 0.4750 0.4750 0.4750 0.4750 0.4750 0.4750 0.4750 0.4750 0.4750 0.4750 0.4750 0.4750 0.4750 0.4750 0.4750 0.4750 0.4750 0.4750 0.4750 0.4750 0.4750 0.4750 0.4750 0.4750 0.4750 0.4750 0.4750 0.4750 0.4750 0.4750 0.4750 0.4750 0.4750 0.4750 0.4750 0.4750 0.4750 0.4750 0.4750 0.4750 0.4750 0.4750 0.4750 0.4750 0.4750 0.4750 0.4750 0.4750 0.4750 0.4750 0.4750 0.4750 0.4750 0.4750 0.4750 0.4750 0.4750 0.4750 0.4750 0.4750 0.4750 0.4750 0.4750 0.4750 0.4750 0.4750 0.4750 0.4750 0.4750 0.4750 0.4750 0.4750 0.4750 0.4750 0.4750 0.4750 0.4750 0.4750 0.4750 0.4750 0.4750 0.4750 0.4750 0.4750 0.4750 0.4750 0.4750 0.4750 0.4750 0.4750 0.4750 0.4750 0.4750 0.4750 0.4750 0.4750 0.4750 0.4750 0.4750 0.4750 0.4750 0.4750 0.4750 0.4750 0.4750 0.4750 0.4750 0.4750 0.4750 0.4750 0.4750 0.4750 0.4750 0.4750 0.4750 0.4750 0.4750 0.4750 0.4750 0.4750 0.4750 0.4750 0.4750 0.4750 0.4750 0.4750 0.4750 0.4750 0.4750 0.4750 0.4750 0.4750 0.4750 0.4750 0.4750 0.4750 0.4750 0.4750 0.4750 0.4750 0.4750 0.4750 0.4750 0.4750 0.4750 0.4750 0.4750 0.4750 0.4750 0.4750 0.4750 0.4750 0.4750 0.4750 0.4750 0.4750 0.4750 0.4750 0.4750 0.4750 0.4750 0.4750 0.4750 0.4750 0.4750 0.4750 0.4750 0.4750 0.4750 0.4750 0.4900 0.4900 0.4900 0.4900 0.4900 0.4900 0.4900 0.4900 0.4900 0.4900 0.4900 0.4900 0.4900 0.4900 0.4900 0.4900 0.4900 0.4900 0.4900 0.4900 0.4900 0.4900 0.4900 0.4900 0.4900 0.4900 0.4900 0.4900 0.4900 0.4900 0.4900 0.4900 0.4900 0.4900 0.4900 0.4900 0.4900 0.4900 0.4900 0.4900 0.4900 0.4900 0.4900 0.4900 0.4900 0.4900 0.4900 0.4900 0.4900 0.4900 0.4900 0.4900 0.4900 0.4900 0.4900 0.4900 0.4900 0.4900 0.4900 0.4900 0.4900 0.4900 0.4900 0.4900 0.4900 0.4900 0.4900 0.4900 0.4900 0.4900 0.4900 0.4900 0.4900 0.4900 0.4900 0.4900 0.4900 0.4900 0.4900 0.4900 0.4900 0.4900 0.4900 0.4900 0.4900 0.4900 0.4900 0.4900 0.4900 0.4900 0.4900 0.4900 0.4900 0.4900 0.4900 0.4900 0.4900 0.4900 0.4900 0.4900 0.4900 0.4900 0.4900 0.4900 0.4900 0.4900 0.4900 0.4900 0.4900 0.4900 0.4900 0.4900 0.4900 0.4900 0.4900 0.4900 0.4900 0.4900 0.4900 0.4900 0.4900 0.4900 0.4900 0.4900 0.4900 0.4900 0.4900 0.4900 0.4900 0.4900 0.4900 0.4900 0.4900 0.4900 0.4900 0.4900 0.4900 0.4900 0.4900 0.4900 0.4900 0.4900 0.4900 0.4900 0.4900 0.4900 0.4900 0.4900 0.4900 0.4900 0.4900 0.4900 0.4900 0.4900 0.4900 0.4900 0.4900 0.4900 0.4900 0.4900 0.4900 0.4900 0.4900 0.4900 0.4900 0.4900 0.4900 0.4900 0.4900 0.4900 0.4900 0.4900 0.4900 0.4900 0.4900 0.4900 0.4900 0.4900 0.4900 0.4900 0.4900 0.4900 0.4900 0.4900 0.4900 0.4900 0.4900 0.4900 0.4900 0.4900 0.4900 0.4900 0.4900 0.4900 0.4900 0.4900 0.4900 0.4900 0.4680 0.4680 0.4680 0.4680 0.4680 0.4680 0.4680 0.4680 0.4680 0.4680 0.4680 0.4680 0.4680 0.4680 0.4680 0.4680 0.4680 0.4680 0.4680 0.4680 0.4680 0.4680 0.4680 0.4680 0.4680 0.4680 0.4680 0.4680 0.4680 0.4680 0.4680 0.4680 0.4680 0.4680 0.4680 0.4680 0.4680 0.4680 0.4680 0.4680 0.4680 0.4680 0.4680 0.4680 0.4680 0.4680 0.4680 0.4680 0.4680 0.4680 0.4680 0.4680 0.4680 0.4680 0.4680 0.4680 0.4680 0.4680 0.4680 0.4680 0.4680 0.4680 0.4680 0.4680 0.4680 0.4680 0.4680 0.4680 0.4680 0.4680 0.4680 0.4680 0.4680 0.4680 0.4680 0.4680 0.4680 0.4680 0.4680 0.4680 0.4680 0.4680 0.4680 0.4680 0.4680 0.4680 0.4680 0.4680 0.4680 0.4680 0.4680 0.4680 0.4680 0.4680 0.4680 0.4680 0.4680 0.4680 0.4680 0.4680 0.4680 0.4680 0.4680 0.4680 0.4680 0.4680 0.4680 0.4680 0.4680 0.4680 0.4680 0.4680 0.4680 0.4680 0.4680 0.4680 0.4680 0.4680 0.4680 0.4680 0.4680 0.4680 0.4680 0.4680 0.4680 0.4680 0.4680 0.4680 0.4680 0.4680 0.4680 0.4680 0.4680 0.4680 0.4680 0.4680 0.4680 0.4680 0.4680 0.4680 0.4680 0.4680 0.4680 0.4680 0.4680 0.4680 0.4680 0.4680 0.4680 0.4680 0.4680 0.4680 0.4680 0.4680 0.4680 0.4680 0.4680 0.4680 0.4680 0.4680 0.4680 0.4680 0.4680 0.4680 0.4680 0.4680 0.4680 0.4680 0.4680 0.4680 0.4680 0.4980 0.4980 0.4980 0.4980 0.4980 0.4980 0.4980 0.4980 0.4980 0.4980 0.4980 0.4980 0.4980 0.4980 0.4980 0.4980 0.4980 0.4980 0.4980 0.4980 0.4980 0.4980 0.4980 0.4980 0.4980 0.4980 0.4980 0.4980 0.4980 0.4980 0.4980 0.4980 0.4980 0.4980 0.4980 0.4980 0.4980 0.4980 0.4980 0.4980 0.4980 0.4980 0.4980 0.4980 0.4980 0.4980 0.4980 0.4980 0.4980 0.4980 0.4980 0.4980 0.4980 0.4980 0.4980 0.4980 0.4980 0.4980 0.4980 0.4980 0.4980 0.4980 0.4980 0.4980 0.4980 0.4980 0.4980 0.4980 0.4980 0.4980 0.4980 0.4980 0.4980 0.4980 0.4980 0.4980 0.4980 0.4980 0.4980 0.4980 0.4980 0.4980 0.4980 0.4980 0.4980 0.4980 0.4980 0.4980 0.4980 0.4980 0.4980 0.4980 0.4980 0.4980 0.4980 0.4980 0.4980 0.4980 0.4980 0.4980 0.4980 0.4980 0.4980 0.4980 0.4980 0.4980 0.4980 0.4980 0.4980 0.4980
</DataArray>
<DataArray type="Int32" Name="lipid_id" format="ascii">
5 5 5 5 5 5 5 5 5 5 5 5 5 5 5 5 5 5 5 5 5 5 5 5 5 5 5 5 5 5 5 5 5 5 5 5 5 5 5 5 5 5 5 5 5 5 5 5 5 5 5 5 5 5 5 5 5 5 5 5 5 5 5 5 5 5 5 5 5 5 5 5 5 5 5 5 5 5 5 5 5 5 5 5 5 5 5 5 5 5 5 5 5 5 5 5 5 5 5 5 5 5 5 5 5 5 5 5 5 5 5 5 5 5 5 5 5 5 5 5 5 5 5 5 5 5 5 5 5 5 5 5 5 5 5 5 5 5 5 5 5 5 5 5 5 5 5 5 5 5 5 5 5 5 5 5 5 5 5 5 5 5 5 5 5 5 5 5 5 5 5 5 5 5 5 5 5 5 5 5 5 5 5 5 5 5 5 5 5 5 5 5 5 5 5 5 5 5 5 5 5 5 5 5 5 5 5 5 5 5 5 5 5 5 5 5 5 5 5 5 5 5 5 5 5 5 5 5 5 5 5 5 5 5 5 5 5 5 5 5 5 5 5 5 5 5 5 5 5 5 5 5 5 5 5 5 5 5 5 5 5 5 5 5 5 5 5 5 5 5 5 5 5 5 5 5 5 5 5 5 5 5 5 5 5 5 5 5 5 5 5 5 5 5 5 5 5 5 5 5 5 5 5 5 5 5 5 5 5 5 5 5 4 4 4 4 4 4 4 4 4 4 4 4 4 4 4 4 4 4 4 4 4 4 4 4 4 4 4 4 4 4 4 4 4 4 4 4 4 4 4 4 4 4 4 4 4 4 4 4 4 4 4 4 4 4 4 4 4 4 4 4 4 4 4 4 4 4 4 4 4 4 4 4 4 4 4 4 4 4 4 4 4 4 4 4 4 4 4 4 4 4 4 4 4 4 4 4 4 4 4 4 4 4 4 4 4 4 4 4 4 4 4 4 4 4 4 4 4 4 4 4 4 4 4 4 4 4 4 4 4 4 4 4 4 4 4 4 4 4 4 4 4 4 4 4 4 4 4 4 4 4 4 4 4 4 4 4 4 4 4 4 4 4 4 4 4 4 4 4 4 4 4 4 4 4 4 4 4 4 4 4 4 4 4 4 4 4 4 4 4 4 4 4 4 4 4 4 4 4 4 4 4 4 4 4 4 4 4 4 4 4 4 4 4 4 4 4 4 4 4 4 4 4 4 4 4 4 4 4 4 4 4 4 4 4 4 4 4 4 4 4 4 4 4 4 4 4 4 4 4 4 4 4 4 4 4 4 8 8 8 8 8 8 8 8 8 8 8 8 8 8 8 8 8 8 8 8 8 8 8 8 8 8 8 8 8 8 8 8 8 8 8 8 8 8 8 8 8 8 8 8 8 8 8 8 8 8 8 8 8 8 8 8 8 8 8 8 8 8 8 8 8 8 8 8 8 8 8 8 8 8 8 8 8 8 8 8 8 8 8 8 8 8 8 8 8 8 8 8 8 8 8 8 8 8 8 8 8 8 8 8 8 8 8 8 8 8 8 8 8 8 8 8 8 8 8 8 8 8 8 8 8 8 8 8 8 8 8 8 8 8 8 8 8 8 8 8 8 8 8 8 8 8 8 8 8 8 8 8 8 8 8 8 8 8 8 8 8 8 8 8 8 8 8 8 8 8 8 8 8 8 8 8 8 8 8 8 8 8 8 8 8 8 8 8 8 8 8 8 8 8 8 8 8 8 3 3 3 3 3 3 3 3 3 3 3 3 3 3 3 3 3 3 3 3 3 3 3 3 3 3 3 3 3 3 3 3 3 3 3 3 3 3 3 3 3 3 3 3 3 3 3 3 3 3 3 3 3 3 3 3 3 3 3 3 3 3 3 3 3 3 3 3 3 3 3 3 3 3 3 3 3 3 3 3 3 3 3 3 3 3 3 3 3 3 3 3 3 3 3 3 3 3 3 3 3 3 3 3 3 3 3 3 3 3 3 3 3 3 3 3 3 3 3 3 3 3 3 3 3 3 3 3 3 3 3 3 3 3 3 3 3 3 3 3 3 3 3 3 3 3 3 3 3 3 3 3 3 3 3 3 3 3 3 3 3 3 3 3 3 3 3 3 3 3 3 9 9 9 9 9 9 9 9 9 9 9 9 9 9 9 9 9 9 9 9 9 9 9 9 9 9 9 9 9 9 9 9 9 9 9 9 9 9 9 9 9 9 9 9 9 9 9 9 9 9 9 9 9 9 9 9 9 9 9 9 9 9 9 9 9 9 9 9 9 9 9 9 9 9 9 9 9 9 9 9 9 9 9 9 9 9 9 9 9 9 9 9 9 9 9 9 9 9 9 9 9 9 9 9 9 9 9 9 9 9
</DataArray>
<DataArray type="Int32" Name="leaflet" format="ascii">
1 1 1 1 1 1 1 1 1 1 1 1 1 1 1 1 1 1 1 1 1 1 1 1 1 1 1 1 1 1 1 1 1 1 1 1 1 1 1 1 1 1 1 1 1 1 1 1 1 1 1 1 1 1 1 1 1 1 1 1 1 1 1 1 1 1 1 1 1 1 1 1 1 1 1 1 1 1 1 1 1 1 1 1 1 1 1 1 1 1 1 1 1 1 1 1 1 1 1 1 1 1 1 1 1 1 1 1 1 1 1 1 1 1 1 1 1 1 1 1 1 1 1 1 1 1 1 1 1 1 1 1 1 1 1 1 1 1 1 1 1 1 1 1 1 1 1 1 1 1 1 1 1 1 1 1 1 1 1 1 1 1 1 1 1 1 1 1 1 1 1 1 1 1 1 1 1 1 1 1 1 1 1 1 1 1 1 1 1 1 1 1 1 1 1 1 1 1 1 1 1 1 1 1 1 1 1 1 1 1 1 1 1 1 1 1 1 1 1 1 1 1 1 1 1 1 1 1 1 1 1 1 1 1 1 1 1 1 1 1 1 1 1 1 1 1 1 1 1 1 1 1 1 1 1 1 1 1 1 1 1 1 1 1 1 1 1 1 1 1 1 1 1 1 1 1 1 1 1 1 1 1 1 1 1 1 1 1 1 1 1 1 1 1 1 1 1 1 1 1 1 1 1 1 1 1 1 1 1 1 1 1 1 1 1 1 1 1 1 1 1 1 1 1 1 1 1 1 1 1 1 1 1 1 1 1 1 1 1 1 1 1 1 1 1 1 1 1 1 1 1 1 1 1 1 1 1 1 1 1 1 1 1 1 1 1 1 1 1 1 1 1 1 1 1 1 1 1 1 1 1 1 1 1 1 1 1 1 1 1 1 1 1 1 1 1 1 1 1 1 1 1 1 1 1 1 1 1 1 1 1 1 1 1 1 1 1 1 1 1 1 1 1 1 1 1 1 1 1 1 1 1 1 1 1 1 1 1 1 1 1 1 1 1 1 1 1 1 1 1 1 1 1 1 1 1 1 1 1 1 1 1 1 1 1 1 1 1 1 1 1 1 1 1 1 1 1 1 1 1 1 1 1 1 1 1 1 1 1 1 1 1 1 1 1 1 1 1 1 1 1 1 1 1 1 1 1 1 1 1 1 1 1 1 1 1 1 1 1 1 1 1 1 1 1 1 1 1 1 1 1 1 1 1 1 1 1 1 1 1 1 1 1 1 1 1 1 1 1 1 1 1 1 1 1 1 1 1 1 1 1 1 1 1 1 1 1 1 1 1 1 1 1 1 1 1 1 1 1 1 1 1 1 1 1 1 1 1 1 1 1 1 1 1 1 1 1 1 1 1 1 1 1 1 1 1 1 1 1 1 1 1 1 1 1 1 1 1 1 1 1 1 1 1 1 1 1 1 1 1 1 1 1 1 1 1 1 1 1 1 1 1 1 1 1 1 1 1 1 1 1 1 1 1 1 1 1 1 1 1 1 1 1 1 1 1 1 1 1 1 1 1 1 1 1 1 1 1 1 1 1 1 1 1 1 1 1 1 1 1 1 1 1 1 1 1 1 1 1 1 1 1 1 1 1 1 1 1 1 1 1 1 1 1 1 1 1 1 1 1 1 1 1 1 1 1 1 1 1 1 1 1 1 1 1 1 1 1 1 1 1 1 1 1 1 1 1 1 1 1 1 1 1 1 1 1 1 1 1 1 1 1 1 1 1 1 1 1 1 1 1 1 1 1 1 1 1 1 1 1 1 1 1 1 1 1 1 1 1 1 1 1 1 1 1 1 1 1 1 1 1 1 1 1 1 1 1 1 1 1 1 1 1 1 1 1 1 1 1 1 1 1 1 1 1 1 1 1 1 1 1 1 1 1 1 1 1 1 1 1 1 1 1 1 1 1 1 1 1 1 1 1 1 1 1 1 1 1 1 1 1 1 1 1 1 1 1 1 1 1 1 1 1 1 1 1 1 1 1 1 1 1 1 1 1 1 1 1 1 1 1 1 1 1 1 1 1 1 1 1 1 1 1 1 1 1 1 1 1 1 1 1 1 1 1 1 1 1 1 1 1 1 1 1 1 1 1 1 1 1 1 1 1 1 1 1 1 1 1 1 1 1 1 1 1 1 1 1 1 1 1 1 1 1 1 1 1 1 1 1 1 1 1 1 1 1 1 1 1 1 1 1 1 1 1 1 1 1 1 1 1 1 1 1 1 1 1 1 1 1 1 1 1 1 1 1 1 1 1 1 1 1 1 1 1 1 1 1 1 1 1 1 1 1 1 1 1 1 1 1 1 1 1 1 1 1 1 1 1 1 1 1 1 1 1 1 1 1 1 1 1 1 1 1 1 1 1
</DataArray>
<DataArray type="Int32" Name="phase" format="ascii">
1 1 1 1 1 1 1 1 1 1 1 1 1 1 1 1 1 1 1 1 1 1 1 1 1 1 1 1 1 1 1 1 1 1 1 1 1 1 1 1 1 1 1 1 1 1 1 1 1 1 1 1 1 1 1 1 1 1 1 1 1 1 1 1 1 1 1 1 1 1 1 1 1 1 1 1 1 1 1 1 1 1 1 1 1 1 1 1 1 1 1 1 1 1 1 1 1 1 1 1 1 1 1 1 1 1 1 1 1 1 1 1 1 1 1 1 1 1 1 1 1 1 1 1 1 1 1 1 1 1 1 1 1 1 1 1 1 1 1 1 1 1 1 1 1 1 1 1 1 1 1 1 1 1 1 1 1 1 1 1 1 1 1 1 1 1 1 1 1 1 1 1 1 1 1 1 1 1 1 1 1 1 1 1 1 1 1 1 1 1 1 1 1 1 1 1 1 1 1 1 1 1 1 1 1 1 1 1 1 1 1 1 1 1 1 1 1 1 1 1 1 1 1 1 1 1 1 1 1 1 1 1 1 1 1 1 1 1 1 1 1 1 1 1 1 1 1 1 1 1 1 1 1 1 1 1 1 1 1 1 1 1 1 1 1 1 1 1 1 1 1 1 1 1 1 1 1 1 1 1 1 1 1 1 1 1 1 1 1 1 1 1 1 1 1 1 1 1 1 1 1 1 1 1 1 1 1 1 1 1 1 1 1 1 1 1 1 1 1 1 1 1 1 1 1 1 1 1 1 1 1 1 1 1 1 1 1 1 1 1 1 1 1 1 1 1 1 1 1 1 1 1 1 1 1 1 1 1 1 1 1 1 1 1 1 1 1 1 1 1 1 1 1 1 1 1 1 1 1 1 1 1 1 1 1 1 1 1 1 1 1 1 1 1 1 1 1 1 1 1 1 1 1 1 1 1 1 1 1 1 1 1 1 1 1 1 1 1 1 1 1 1 1 1 1 1 1 1 1 1 1 1 1 1 1 1 1 1 1 1 1 1 1 1 1 1 1 1 1 1 1 1 1 1 1 1 1 1 1 1 1 1 1 1 1 1 1 1 1 1 1 1 1 1 1 1 1 1 1 1 1 1 1 1 1 1 1 1 1 1 1 1 1 1 1 1 1 1 1 1 1 1 1 1 1 1 1 1 1 1 1 1 1 1 1 1 1 1 1 1 1 1 1 1 1 1 1 1 1 1 1 1 1 1 1 1 1 1 1 1 1 1 1 1 1 1 1 1 1 1 1 1 1 1 1 1 1 1 1 1 1 1 1 1 1 1 1 1 1 1 1 1 1 1 1 1 1 1 1 1 1 1 1 1 1 1 1 1 1 1 1 1 1 1 1 1 1 1 1 1 1 1 1 1 1 1 1 1 1 1 1 1 1 1 1 1 1 1 1 1 1 1 1 1 1 1 1 1 1 1 1 1 1 1 1 1 1 1 1 1 1 1 1 1 1 1 1 1 1 1 1 1 1 1 1 1 1 1 1 1 1 1 1 1 1 1 1 1 1 1 1 1 1 1 1 1 1 1 1 1 1 1 1 1 1 1 1 1 1 1 1 1 1 1 1 1 1 1 1 1 1 1 1 1 1 1 1 1 1 1 1 1 1 1 1 1 1 1 1 1 1 1 1 1 1 1 1 1 1 1 1 1 1 1 1 1 1 1 1 1 1 1 1 1 1 1 1 1 1 1 1 1 1 1 1 1 1 1 1 1 1 1 1 1 1 1 1 1 1 1 1 1 1 1 1 1 1 1 1 1 1 1 1 1 1 1 1 1 1 1 1 1 1 1 1 1 1 1 1 1 1 1 1 1 1 1 1 1 1 1 1 1 1 1 1 1 1 1 1 1 1 1 1 1 1 1 1 1 1 1 1 1 1 1 1 1 1 1 1 1 1 1 1 1 1 1 1 1 1 1 1 1 1 1 1 1 1 1 1 1 1 1 1 1 1 1 1 1 1 1 1 1 1 1 1 1 1 1 1 1 1 1 1 1 1 1 1 1 1 1 1 1 1 1 1 1 1 1 1 1 1 1 1 1 1 1 1 1 1 1 1 1 1 1 1 1 1 1 1 1 1 1 1 1 1 1 1 1 1 1 1 1 1 1 1 1 1 1 1 1 1 1 1 1 1 1 1 1 1 1 1 1 1 1 1 1 1 1 1 1 1 1 1 1 1 1 1 1 1 1 1 1 1 1 1 1 1 1 1 1 1 1 1 1 1 1 1 1 1 1 1 1 1 1 1 1 1 1 1 1 1 1 1 1 1 1 1 1 1 1 1 1 1 1 1 1 1 1 1 1 1 1 1 1 1 1 1 1 1 1 1 1 1 1 1 1 1 1 1 1 1 1 1 1 1 1 1
</DataArray>
<DataArray type="Int32" Name="n_doublebonds" format="ascii">
4 4 4 4 4 4 4 4 4 4 4 4 4 4 4 4 4 4 4 4 4 4 4 4 4 4 4 4 4 4 4 4 4 4 4 4 4 4 4 4 4 4 4 4 4 4 4 4 4 4 4 4 4 4 4 4 4 4 4 4 4 4 4 4 4 4 4 4 4 4 4 4 4 4 4 4 4 4 4 4 4 4 4 4 4 4 4 4 4 4 4 4 4 4 4 4 4 4 4 4 4 4 4 4 4 4 4 4 4 4 4 4 4 4 4 4 4 4 4 4 4 4 4 4 4 4 4 4 4 4 4 4 4 4 4 4 4 4 4 4 4 4 4 4 4 4 4 4 4 4 4 4 4 4 4 4 4 4 4 4 4 4 4 4 4 4 4 4 4 4 4 4 4 4 4 4 4 4 4 4 4 4 4 4 4 4 4 4 4 4 4 4 4 4 4 4 4 4 4 4 4 4 4 4 4 4 4 4 4 4 4 4 4 4 4 4 4 4 4 4 4 4 4 4 4 4 4 4 4 4 4 4 4 4 4 4 4 4 4 4 4 4 4 4 4 4 4 4 4 4 4 4 4 4 4 4 4 4 4 4 4 4 4 4 4 4 4 4 4 4 4 4 4 4 4 4 4 4 4 4 4 4 4 4 4 4 4 4 4 4 4 4 4 4 4 4 4 4 4 4 4 4 4 4 4 4 4 4 4 4 4 4 4 4 4 4 4 4 4 4 4 4 4 4 4 4 4 4 4 4 4 4 4 4 4 4 4 4 4 4 4 4 4 4 4 4 4 4 4 4 4 4 4 4 4 4 4 4 4 4 4 4 4 4 4 4 4 4 4 4 4 4 4 4 4 4 4 4 4 4 4 4 4 4 4 4 4 4 4 4 4 4 4 4 4 4 4 4 4 4 4 4 4 4 4 4 4 4 4 4 4 4 4 4 4 4 4 4 4 4 4 4 4 4 4 4 4 4 4 4 4 4 4 4 4 4 4 4 4 4 4 4 4 4 4 4 4 4 4 4 4 4 4 4 4 4 4 4 4 4 4 4 4 4 4 4 4 4 4 4 4 4 4 4 4 4 4 4 4 4 4 4 4 4 4 4 4 4 4 4 4 4 4 4 4 4 4 4 4 4 4 4 4 4 4 4 4 4 4 4 4 4 4 4 4 4 4 4 4 4 4 4 4 4 4 4 4 4 4 4 4 4 4 4 4 4 4 4 4 4 4 4 4 4 4 4 4 4 4 4 4 4 4 4 4 4 4 4 4 4 4 4 4 4 4 4 4 4 4 4 4 4 4 4 4 4 4 4 4 4 4 4 4 4 4 4 4 4 4 4 4 4 4 4 4 4 4 4 4 4 4 4 4 4 4 4 4 4 4 4 4 4 4 4 4 4 4 4 4 4 4 4 4 4 4 4 4 4 4 4 4 4 4 4 4 4 4 4 4 4 4 4 4 4 4 4 4 4 4 4 4 4 4 4 4 4 4 4 4 4 4 4 4 4 4 4 4 4 4 4 4 4 4 4 4 4 4 4 4 4 4 4 4 4 4 4 4 4 4 4 4 4 4 4 4 4 4 4 4 4 4 4 4 4 4 4 4 4 4 4 4 4 4 4 4 4 4 4 4 4 4 4 4 4 4 4 4 4 4 4 4 4 4 4 4 4 4 4 4 4 4 4 4 4 4 4 4 4 4 4 4 4 4 4 4 4 4 4 4 4 4 4 4 4 4 4 4 4 4 4 4 4 4 4 4 4 4 4 4 4 4 4 4 4 4 4 4 4 4 4 4 4 4 4 4 4 4 4 4 4 4 4 4 4 4 4 4 4 4 4 4 4 4 4 4 4 4 4 4 4 4 4 4 4 4 4 4 4 4 4 4 4 4 4 4 4 4 4 4 4 4 4 4 4 4 4 4 4 4 4 4 4 4 4 4 4 4 4 4 4 4 4 4 4 4 4 4 4 4 4 4 4 4 4 4 4 4 4 4 4 4 4 4 4 4 4 4 4 4 4 4 4 4 4 4 4 4 4 4 4 4 4 4 4 4 4 4 4 4 4 4 4 4 4 4 4 4 4 4 4 4 4 4 4 4 4 4 4 4 4 4 4 4 4 4 4 4 4 4 4 4 4 4 4 4 4 4 4 4 4 4 4 4 4 4 4 4 4 4 4 4 4 4 4 4 4 4 4 4 4 4 4 4 4 4 4 4 4 4 4 4 4 4 4 4 4 4 4 4 4 4 4 4 4 4 4 4 4 4 4 4 4 4 4 4 4 4 4 4 4 4 4 4 4 4 4 4 4 4 4 4 4 4 4 4 4 4 4 4 4 4 4 4 4 4 4 4 4 4 4 4 4 4 4 4 4 4
</DataArray>
</PointData>
</Piece>
</PolyData>
</VTKFile>
