<?xml version="1.0"?>
<VTKFile type="PolyData" version="0.1" byte_order="LittleEndian">
<PolyData>
<Piece NumberOfPoints="749" NumberOfVerts="0" NumberOfLines="0" NumberOfStrips="0" NumberOfPolys="0">
<Points>
<DataArray type="Float32" NumberOfComponents="3" format="ascii">
238.739 357.410 -19.571 252.004 367.463 -17.718 200.363 324.080 -19.616 166.139 101.233 -22.818 187.101 123.926 -22.141 215.954 364.796 -21.460 189.702 148.948 -20.797 220.366 314.415 -20.776 195.311 188.295 -20.224 169.993 106.830 -22.207 240.732 363.135 -19.385 134.003 151.186 -22.070 168.042 101.578 -23.178 182.845 376.644 -21.251 204.392 171.552 -21.311 191.411 143.004 -21.654 212.765 347.548 -21.307 222.532 352.223 -20.795 143.686 74.787 -23.466 119.572 111.876 -21.420 150.700 152.423 -21.888 199.046 176.383 -20.566 215.442 376.282 -21.111 159.999 106.551 -21.062 141.215 147.984 -22.443 225.811 343.371 -19.994 197.567 111.849 -22.757 200.369 309.605 -20.028 165.138 157.206 -21.995 163.312 149.154 -22.403 234.706 327.113 -21.452 132.458 122.736 -21.734 174.714 148.080 -22.107 221.273 360.904 -19.988 147.105 93.267 -22.823 150.595 127.178 -21.610 186.842 148.749 -21.361 201.046 154.633 -21.764 188.473 157.483 -21.175 185.603 153.689 -21.119 192.486 131.739 -23.020 207.718 341.220 -20.566 204.193 355.036 -22.293 161.352 103.011 -21.756 233.164 379.220 -20.632 215.144 340.938 -20.179 192.775 168.828 -21.232 219.273 337.672 -20.083 185.820 164.409 -21.101 151.585 104.592 -21.221 177.463 123.371 -21.585 243.468 385.769 -21.240 181.568 127.248 -22.065 230.346 375.398 -20.954 215.923 142.656 -22.056 217.583 173.685 -19.802 181.984 333.425 -20.105 187.230 80.009 -25.892 200.980 162.833 -21.687 219.365 309.022 -21.162 135.003 97.669 -21.795 156.057 132.031 -21.584 159.187 107.765 -21.917 165.899 105.113 -22.605 159.995 85.617 -24.272 195.172 143.995 -23.291 212.286 184.274 -19.413 125.782 130.709 -20.227 258.323 331.709 -19.877 213.988 353.853 -22.288 186.162 167.228 -21.803 159.638 95.989 -23.062 179.728 145.000 -22.019 203.242 313.151 -20.802 165.114 125.027 -21.706 120.926 102.258 -21.511 173.999 101.031 -22.171 187.375 156.789 -21.925 122.224 130.508 -21.429 212.224 342.665 -21.328 208.432 396.100 -21.613 223.018 356.292 -21.026 172.400 126.563 -21.936 133.787 97.841 -22.140 212.176 340.180 -20.603 175.411 126.699 -21.113 179.107 100.387 -23.723 228.977 360.512 -20.390 197.823 139.560 -23.097 142.000 152.723 -22.118 207.927 179.165 -20.336 219.086 354.496 -20.570 166.923 153.154 -21.483 185.325 153.380 -22.215 188.335 117.277 -22.271 211.592 346.849 -20.826 185.669 151.093 -22.398 212.778 332.185 -19.987 205.426 121.836 -22.081 248.691 390.617 -20.238 194.670 82.057 -26.005 188.674 387.739 -22.565 187.730 195.672 -19.842 162.967 144.229 -21.958 169.659 110.608 -22.747 189.531 185.452 -20.734 204.259 123.766 -21.926 168.463 197.716 -20.745 183.927 125.805 -22.972 191.610 107.119 -23.975 177.641 101.054 -23.741 192.962 113.900 -22.577 156.964 72.706 -24.713 209.871 366.562 -22.480 197.834 166.143 -21.567 123.929 90.427 -22.096 178.744 368.253 -20.508 220.512 372.353 -19.842 154.675 152.827 -22.720 174.890 140.447 -21.968 153.994 153.300 -22.686 153.811 154.403 -22.379 206.920 380.984 -22.097 140.019 111.862 -21.467 215.827 368.200 -21.740 196.641 375.662 -22.569 172.090 101.890 -22.543 233.819 335.386 -21.175 260.168 348.782 -19.829 203.512 164.352 -20.529 195.863 160.709 -21.330 179.738 140.743 -22.071 187.913 153.271 -20.890 172.374 139.486 -20.827 173.632 196.120 -20.142 211.558 343.393 -20.531 163.210 104.981 -20.963 183.396 191.984 -20.408 182.100 366.009 -21.329 184.141 87.432 -24.234 188.966 154.670 -21.168 198.633 133.411 -22.865 220.211 132.317 -23.303 177.312 150.956 -21.815 178.473 132.286 -22.189 136.460 151.646 -22.280 218.025 353.493 -21.333 184.387 119.604 -22.370 220.621 363.710 -20.697 197.794 181.660 -20.848 189.144 166.757 -21.579 140.050 116.832 -21.028 247.296 340.136 -19.348 168.157 140.537 -22.554 241.931 351.865 -19.485 181.993 154.455 -22.616 182.963 110.780 -22.344 208.092 125.297 -22.665 230.550 168.500 -20.923 193.475 143.856 -22.269 154.265 130.795 -22.406 138.836 142.834 -21.631 153.870 131.706 -21.596 206.655 113.041 -22.672 239.378 358.132 -19.402 180.689 147.568 -22.141 195.648 138.751 -23.393 192.327 94.034 -23.373 201.229 132.308 -23.231 162.974 105.430 -22.849 182.051 147.285 -21.664 240.742 347.252 -20.159 199.530 78.266 -26.380 234.488 316.330 -20.793 181.831 360.322 -21.496 145.758 166.135 -23.753 240.850 348.157 -20.562 228.257 389.159 -21.064 198.273 94.494 -24.598 175.599 114.101 -22.757 212.352 147.600 -23.102 206.526 170.672 -21.208 173.432 144.815 -21.844 220.769 307.097 -20.602 177.734 113.510 -22.035 220.532 352.710 -20.103 180.013 160.121 -21.808 176.822 199.692 -20.247 234.836 383.745 -21.354 227.324 360.681 -19.902 218.227 370.549 -20.307 201.131 175.732 -19.764 208.610 351.897 -21.018 222.522 354.712 -20.579 172.153 161.407 -21.545 159.735 100.067 -21.770 147.613 158.476 -22.354 222.425 339.771 -19.824 146.565 125.168 -21.775 164.766 155.126 -21.756 215.328 351.474 -20.370 209.635 154.703 -21.983 190.846 166.415 -21.063 184.656 152.401 -21.547 186.088 354.052 -22.483 258.913 357.685 -18.231 159.972 81.557 -24.628 215.800 352.269 -21.904 161.666 143.356 -21.686 242.521 349.380 -19.198 163.172 107.782 -21.919 193.371 322.835 -20.548 186.941 186.442 -19.619 168.470 144.322 -22.656 154.480 121.731 -22.668 221.492 366.317 -20.679 195.802 155.209 -22.046 176.092 100.295 -23.931 189.327 136.934 -23.176 126.612 121.662 -21.602 175.813 370.988 -22.594 146.003 148.679 -22.687 156.051 140.933 -23.058 135.983 131.300 -21.562 198.812 133.624 -22.407 230.726 369.740 -19.661 220.593 379.393 -20.431 253.351 335.326 -20.698 237.212 373.694 -19.303 189.779 196.566 -19.993 194.290 100.278 -24.383 185.287 185.394 -21.209 175.288 135.300 -22.171 154.470 134.278 -22.183 159.179 103.472 -21.341 185.652 150.597 -21.256 201.697 388.006 -21.917 238.478 351.554 -19.539 140.563 113.065 -21.954 190.673 191.385 -20.031 161.213 97.683 -22.929 255.123 379.069 -19.161 235.306 375.394 -20.407 218.820 144.255 -22.910 157.892 104.445 -21.653 205.781 127.946 -22.713 209.836 154.799 -22.655 230.367 353.853 -20.988 187.159 149.429 -21.571 160.076 147.822 -21.313 188.534 135.338 -22.625 175.140 98.366 -23.614 180.723 152.434 -22.169 203.147 162.752 -22.260 148.791 131.237 -22.047 222.681 349.355 -20.150 178.964 108.778 -21.965 178.510 343.733 -20.782 218.429 344.741 -21.691 185.690 326.401 -19.152 260.543 365.969 -18.599 144.424 86.914 -22.850 179.477 64.944 -26.891 254.972 368.692 -19.478 187.097 154.728 -21.646 122.728 117.611 -21.971 192.101 372.818 -21.601 227.778 352.738 -20.740 177.737 103.057 -22.576 140.810 86.961 -23.320 182.967 133.360 -21.438 170.744 190.048 -21.588 154.750 106.459 -21.628 244.137 336.154 -20.033 172.328 111.848 -22.155 172.966 108.658 -22.761 246.385 327.337 -20.854 191.351 163.566 -22.463 117.415 96.410 -21.152 183.739 102.072 -22.963 186.193 154.050 -21.857 185.238 324.632 -20.311 245.094 325.445 -21.324 183.642 151.371 -21.340 161.559 137.440 -21.511 237.004 344.588 -20.631 222.345 359.833 -21.107 206.122 132.258 -22.978 213.022 359.735 -20.817 173.297 134.685 -20.689 143.050 127.972 -21.321 218.054 356.473 -21.020 181.761 349.522 -21.617 147.169 123.518 -22.059 164.570 152.895 -20.617 166.645 131.068 -22.165 165.961 79.092 -24.467 216.244 354.695 -20.499 180.956 199.269 -20.176 171.756 139.874 -21.518 185.801 153.784 -21.744 263.725 340.226 -20.240 161.921 162.354 -22.669 218.558 376.699 -20.878 191.226 138.824 -22.346 224.046 152.893 -21.654 209.023 189.977 -19.125 216.637 177.061 -19.816 212.613 340.937 -19.911 54.607 264.721 -23.027 168.585 310.575 -19.829 112.348 282.910 -22.978 76.323 281.544 -23.198 158.325 482.444 -26.110 185.236 363.823 -22.422 0.745 421.911 -19.341 388.056 403.358 -17.155 78.377 426.253 -19.649 162.379 97.564 -23.177 117.432 144.354 -21.881 98.759 332.685 -22.984 351.447 278.204 -19.046 160.027 266.267 -17.512 65.521 192.842 -21.439 166.938 166.027 -21.648 134.109 463.952 -22.524 413.614 283.604 -20.912 198.870 160.022 -21.991 423.704 202.873 -19.128 84.800 240.221 -21.726 46.725 450.809 -17.833 55.456 493.890 -20.537 434.719 166.310 -19.141 195.741 143.645 -22.944 108.208 8.722 -22.844 301.212 474.339 -21.017 336.506 86.446 -18.814 193.842 315.093 -19.232 166.908 488.147 -26.758 109.389 7.645 -24.034 381.887 496.029 -21.120 180.780 74.431 -25.614 106.401 39.035 -23.549 94.941 382.072 -22.513 314.550 444.797 -19.705 489.258 285.615 -23.991 422.897 488.524 -22.031 142.627 196.060 -22.059 369.483 431.625 -18.035 24.862 320.952 -23.627 423.807 17.582 -21.468 275.807 134.997 -20.144 453.632 42.834 -19.012 499.560 136.525 -21.869 235.948 345.789 -20.334 128.923 184.166 -22.377 134.148 447.765 -20.890 113.042 173.625 -22.728 372.454 153.898 -18.474 125.366 97.772 -22.178 114.516 115.727 -21.706 282.498 438.238 -20.847 462.758 3.189 -20.899 188.418 333.181 -19.863 220.482 265.584 -22.325 376.216 401.078 -16.060 70.821 114.385 -21.141 417.031 376.927 -18.724 9.483 141.021 -23.340 11.122 92.780 -19.991 135.544 316.448 -21.390 146.472 391.404 -20.020 322.568 264.859 -19.146 235.383 450.744 -24.007 41.762 255.180 -23.173 151.402 443.502 -23.270 133.589 19.346 -25.216 92.209 73.558 -22.883 92.045 30.472 -23.575 395.660 336.656 -20.627 221.239 104.729 -24.501 416.492 261.030 -21.955 36.568 209.495 -22.459 398.889 161.683 -18.625 408.267 303.685 -21.653 154.464 357.657 -20.507 280.801 129.773 -20.313 188.383 74.792 -25.414 2.138 288.100 -24.571 395.591 19.627 -20.534 197.506 366.506 -22.343 367.773 252.734 -20.735 393.872 321.858 -20.375 295.361 147.452 -18.351 87.058 370.844 -22.504 24.393 333.408 -24.100 322.357 461.467 -20.648 52.430 473.702 -18.231 329.300 193.333 -18.054 277.284 294.794 -21.323 309.274 67.007 -22.390 220.672 419.096 -20.660 346.299 481.584 -20.373 361.798 162.495 -18.644 134.355 216.512 -20.388 345.647 220.971 -18.950 7.295 446.293 -20.099 467.945 343.817 -20.993 87.525 258.662 -21.902 83.574 58.418 -23.309 6.080 123.154 -20.363 299.172 484.321 -21.840 262.061 431.530 -21.164 207.253 82.212 -27.022 484.017 44.495 -18.389 401.624 25.882 -20.860 266.529 241.035 -22.985 40.476 123.282 -21.712 303.023 238.701 -20.294 287.526 93.571 -25.097 346.380 240.544 -20.454 485.369 178.224 -23.546 11.663 172.825 -23.283 477.198 369.846 -19.765 120.396 307.775 -22.045 144.301 259.967 -18.739 204.706 59.160 -27.612 414.110 439.653 -19.813 290.144 6.351 -23.944 195.826 31.041 -26.765 124.961 236.239 -20.854 24.725 346.178 -21.510 449.344 233.698 -21.180 390.606 309.103 -20.100 498.321 399.662 -19.198 425.897 85.723 -19.208 221.582 462.138 -23.381 24.514 285.583 -23.595 487.207 12.303 -19.147 354.321 363.454 -18.053 465.332 168.266 -21.275 409.039 476.332 -21.604 294.611 468.394 -20.655 46.679 141.791 -22.076 23.877 407.880 -18.525 85.827 490.764 -21.851 19.214 455.242 -19.360 143.905 437.620 -22.958 88.268 315.120 -24.014 467.225 365.091 -20.074 200.033 12.084 -27.307 448.560 33.009 -20.778 141.111 225.904 -19.882 376.048 393.694 -16.051 377.773 5.791 -20.944 216.596 82.812 -26.349 376.523 300.394 -20.964 394.904 127.782 -18.139 225.126 59.753 -27.945 286.473 135.012 -19.367 278.850 6.997 -24.412 181.459 12.174 -26.284 218.622 307.613 -20.708 373.927 196.782 -19.500 368.517 259.562 -20.833 172.639 242.244 -18.167 274.851 13.296 -24.242 203.587 45.633 -27.270 469.045 270.454 -24.300 356.441 8.025 -19.310 396.885 402.760 -15.628 448.782 308.050 -22.179 299.164 222.790 -20.497 88.254 383.807 -22.341 413.603 402.063 -17.791 164.766 93.191 -23.573 179.400 152.700 -21.600 172.161 136.359 -20.784 190.162 88.537 -25.433 208.861 168.644 -20.900 240.091 335.202 -20.877 181.424 339.396 -20.634 180.182 132.339 -22.276 260.300 338.528 -19.936 221.406 145.019 -22.434 163.403 88.849 -24.454 243.222 358.667 -19.410 193.774 110.890 -22.284 181.189 84.283 -26.761 190.202 153.365 -21.206 180.464 162.803 -22.016 150.352 63.695 -24.528 164.450 197.070 -20.286 223.928 141.440 -23.510 185.685 153.561 -21.220 147.663 117.966 -21.889 256.341 370.581 -18.866 184.398 114.522 -21.608 216.751 127.681 -22.356 194.247 165.222 -21.303 156.632 74.866 -24.900 164.038 104.550 -21.843 191.472 139.469 -23.395 140.112 116.458 -21.270 164.780 138.318 -21.674 217.039 355.059 -21.279 224.335 359.942 -20.808 179.435 347.594 -20.245 221.984 377.801 -21.211 169.244 97.022 -22.807 208.451 116.689 -23.328 152.868 165.013 -21.094 216.332 345.995 -20.990 182.949 345.014 -20.961 205.837 178.969 -20.771 212.292 354.776 -21.505 172.535 77.575 -25.667 181.609 155.787 -22.242 197.367 320.512 -20.294 138.806 98.107 -22.807 181.374 353.273 -21.851 190.415 360.344 -22.806 173.081 103.307 -23.250 170.497 109.410 -21.316 212.236 160.465 -21.234 172.849 116.344 -22.484 167.025 122.988 -22.481 202.156 358.873 -21.021 246.629 345.878 -19.880 206.154 167.891 -21.248 171.202 107.465 -21.147 181.555 180.657 -19.937 262.756 342.279 -20.227 167.951 140.703 -21.460 217.442 353.502 -21.368 172.109 105.954 -23.084 185.660 169.549 -21.150 175.669 72.595 -25.982 163.199 74.156 -24.811 231.003 320.845 -20.418 191.322 110.778 -22.005 186.984 161.247 -21.153 220.331 376.038 -21.038 142.721 85.867 -23.386 182.312 149.173 -21.322 169.932 106.175 -22.886 219.249 352.962 -20.774 199.623 112.286 -23.554 181.464 190.381 -19.623 261.154 339.400 -19.374 137.101 85.503 -22.815 155.005 91.913 -24.247 131.091 124.312 -21.576 187.195 357.067 -22.168 189.653 120.378 -22.165 178.581 150.089 -21.406 228.188 383.876 -21.251 193.368 144.212 -22.684 141.634 118.673 -22.715 187.581 141.824 -22.704 159.816 178.426 -21.474 216.555 325.389 -19.642 191.096 136.322 -23.303 188.851 156.810 -21.196 189.468 319.528 -19.085 195.322 155.801 -21.063 141.338 125.242 -21.816 204.535 349.603 -21.942 152.627 125.030 -22.510 145.635 128.108 -21.309 190.138 145.356 -22.316 206.656 143.304 -23.076 239.650 359.457 -19.968 209.634 113.318 -23.054 120.699 126.632 -21.589 149.082 149.832 -23.344 245.170 375.876 -19.127 151.776 144.166 -23.433 154.894 102.039 -22.176 238.642 366.334 -19.360 152.625 104.907 -21.651 183.935 153.376 -21.921 157.457 106.674 -20.808 197.206 351.390 -22.236 183.145 67.760 -27.990 225.019 307.903 -21.835 128.790 92.785 -22.620 235.054 337.425 -20.510 171.654 111.266 -21.106 135.115 115.244 -21.562 148.034 152.911 -22.864 197.676 363.143 -21.951 241.101 388.264 -21.509 189.926 352.397 -21.452 237.907 348.189 -19.594 160.255 138.380 -20.967 155.983 130.920 -22.792 181.614 157.384 -21.361 207.531 350.778 -21.293 234.719 339.505 -20.917 207.551 377.594 -21.275 153.788 82.965 -24.423 155.730 80.838 -23.745 217.402 346.546 -20.868 193.499 142.004 -23.130 183.312 157.175 -22.519 207.126 113.616 -23.445 209.488 308.147 -20.924 199.199 383.162 -22.253 188.180 170.895 -21.208 183.187 125.715 -22.321 218.881 354.165 -21.003 130.329 129.720 -20.403 209.113 369.293 -21.823 179.338 118.614 -20.331 176.866 355.760 -21.680 178.379 115.583 -22.386 199.276 327.648 -19.678 204.980 108.295 -23.551 185.280 154.758 -23.130 169.931 140.539 -22.049 189.484 374.557 -21.491 194.587 98.609 -23.567 213.171 349.751 -21.642 177.366 109.100 -22.949 180.570 373.792 -21.899 155.041 97.389 -22.353 221.615 352.151 -20.510 164.996 102.360 -22.950 198.128 181.500 -20.030 215.083 311.704 -21.659 264.328 346.122 -19.129 196.760 150.737 -21.388 125.456 124.389 -21.637 152.776 179.760 -22.140 175.324 174.500 -21.561 175.858 99.240 -23.887 153.981 106.451 -21.856 222.582 319.244 -20.935 183.358 76.997 -26.482 140.100 95.659 -22.873 185.424 152.719 -22.224 134.641 121.065 -22.039 148.398 129.843 -22.066 156.643 129.414 -21.756 140.799 127.208 -22.916 138.798 103.826 -22.615 188.449 129.835 -23.381 209.103 342.035 -20.552 127.177 126.407 -21.005 206.720 109.472 -22.391 178.998 159.621 -21.770 205.390 129.717 -22.625 199.373 319.436 -19.831 257.354 369.230 -18.643 244.771 376.966 -20.059 162.848 145.791 -22.259 207.342 138.546 -23.590 162.276 62.400 -26.325 173.394 188.406 -20.272 250.146 384.623 -19.334 191.006 165.526 -20.870 165.430 154.365 -21.865 211.572 187.659 -19.046 178.807 162.118 -22.465 157.559 145.426 -22.771 197.029 116.097 -22.377 153.006 132.194 -20.805 262.738 372.604 -18.311 171.208 153.583 -21.236 150.958 179.818 -21.482 211.830 380.912 -20.031 217.071 320.221 -20.481 226.106 143.293 -22.712 249.163 329.549 -20.174 132.759 133.390 -21.050 194.377 136.058 -22.619 166.471 111.474 -21.773 219.701 354.132 -21.049 192.537 351.149 -22.280 178.767 111.887 -22.267 125.808 126.509 -21.316 160.199 108.775 -21.761 169.307 98.802 -22.662 217.890 147.497 -23.090 182.273 358.936 -22.005 131.446 88.949 -22.971 156.578 185.974 -21.999 259.140 371.834 -19.093 179.832 85.799 -25.866 171.802 144.176 -21.098 129.861 120.232 -21.926 220.541 166.569 -20.502 221.830 363.826 -19.725 144.159 98.794 -23.573 204.886 341.865 -21.365 143.084 65.143 -24.465 171.679 107.473 -22.331 187.347 184.203 -19.779 231.468 159.408 -21.392 215.372 167.900 -20.086 183.452 106.975 -22.889 133.644 119.908 -22.255 164.484 105.710 -21.633 175.424 123.723 -21.791 164.355 105.993 -22.171 172.088 108.833 -21.592 192.570 339.402 -20.868 231.465 379.725 -20.475 173.137 343.388 -20.905 196.253 143.800 -22.011 203.692 99.379 -25.685 219.721 377.935 -20.588 160.391 103.622 -22.128 263.442 355.318 -18.722 170.061 197.156 -20.029 188.390 356.215 -21.989 244.276 380.006 -19.061 168.768 104.895 -21.987 193.211 335.827 -20.247 128.815 115.616 -22.288 145.958 94.588 -22.338 153.848 125.507 -21.642 180.503 154.599 -21.728 209.611 135.811 -22.893 194.138 165.420 -21.649 200.551 325.947 -20.128 158.721 103.602 -22.241 217.309 182.758 -20.338 174.738 109.259 -20.381 161.029 106.333 -21.755 211.889 348.194 -20.270 171.696 133.975 -21.480 139.113 112.478 -23.103 253.320 341.903 -20.668 227.101 343.213 -20.418 142.572 118.639 -21.426 233.619 375.619 -20.489 194.510 116.248 -21.988 167.848 126.501 -22.452 179.680 143.765 -21.584 215.866 359.064 -20.534 189.382 85.945 -24.807 267.613 351.111 -19.684 221.650 362.110 -20.281 229.182 352.732 -20.282 189.823 349.948 -21.409 228.153 375.380 -19.682 217.686 156.133 -21.030
</DataArray>
</Points>
<PointData>
<DataArray type="Int32" Name="region" format="ascii">
0 0 0 0 0 0 0 0 0 0 0 0 0 0 0 0 0 0 0 0 0 0 0 0 0 0 0 0 0 0 0 0 0 0 0 0 0 0 0 0 0 0 0 0 0 0 0 0 0 0 0 0 0 0 0 0 0 0 0 0 0 0 0 0 0 0 0 0 0 0 0 0 0 0 0 0 0 0 0 0 0 0 0 0 0 0 0 0 0 0 0 0 0 0 0 0 0 0 0 0 0 0 0 0 0 0 0 0 0 0 0 0 0 0 0 0 0 0 0 0 0 0 0 0 0 0 0 0 0 0 0 0 0 0 0 0 0 0 0 0 0 0 0 0 0 0 0 0 0 0 0 0 0 0 0 0 0 0 0 0 0 0 0 0 0 0 0 0 0 0 0 0 0 0 0 0 0 0 0 0 0 0 0 0 0 0 0 0 0 0 0 0 0 0 0 0 0 0 0 0 0 0 0 0 0 0 0 0 0 0 0 0 0 0 0 0 0 0 0 0 0 0 0 0 0 0 0 0 0 0 0 0 0 0 0 0 0 0 0 0 0 0 0 0 0 0 0 0 0 0 0 0 0 0 0 0 0 0 0 0 0 0 0 0 0 0 0 0 0 0 0 0 0 0 0 0 0 0 0 0 0 0 0 0 0 0 0 0 0 0 0 0 0 0 0 0 0 0 0 0 0 0 0 0 0 0 0 0 0 0 0 0 0 0 0 0 0 0 0 0 0 0 0 0 0 0 0 0 0 0 0 0 0 0 0 0 0 0 0 0 0 0 0 0 0 0 0 0 0 0 0 0 0 0 0 0 0 0 0 0 0 0 0 0 0 0 0 0 0 0 0 0 0 0 0 0 0 0 0 0 0 0 0 0 0 0 0 0 0 0 0 0 0 0 0 0 0 0 0 0 0 0 0 0 0 0 0 0 0 0 0 0 0 0 0 0 0 0 0 0 0 0 0 0 0 0 0 0 0 0 0 0 0 0 0 0 0 0 0 0 0 0 0 0 0 0 0 0 0 0 0 0 0 0 0 0 0 0 0 0 0 0 0 0 0 0 0 0 0 0 0 0 0 0 0 0 0 0 0 0 0 0 0 0 0 0 0 0 0 0 0 0 0 0 0 0 0 0 0 0 0 0 0 0 0 0 0 0 0 0 0 0 0 0 0 0 0 0 0 0 0 0 0 0 0 0 0 0 0 0 0 0 0 0 0 0 0 0 0 0 0 0 0 0 0 0 0 0 0 0 0 0 0 0 0 0 0 0 0 0 0 0 0 0 0 0 0 0 0 0 0 0 0 0 0 0 0 0 0 0 0 0 0 0 0 0 0 0 0 0 0 0 0 0 0 0 0 0 0 0 0 0 0 0 0 0 0 0 0 0 0 0 0 0 0 0 0 0 0 0 0 0 0 0 0 0 0 0 0 0 0 0 0 0 0 0 0 0 0 0 0 0 0 0 0 0 0 0 0 0 0 0 0 0 0 0 0 0 0 0 0 0 0 0 0 0 0 0 0 0 0 0 0 0 0 0 0 0 0 0 0 0 0 0 0 0 0 0 0 0 0 0 0 0 0 0 0 0 0 0 0 0 0 0 0 0 0 0 0 0 0 0 0 0 0 0 0 0 0 0 0 0 0 0 0 0 0 0 0 0 0 0 0 0 0 0 0 0 0 0 0 0 0 0 0 0 0 0 0
</DataArray>
<DataArray type="Float32" Name="order_param" format="ascii">
0.7741 0.7316 0.6798 0.8421 0.5875 0.6517 0.6659 0.8768 0.6329 0.7695 0.6753 0.8413 0.7846 0.8021 0.8482 0.8638 0.6285 0.7876 0.7609 0.7544 0.8253 0.7741 0.8369 0.8333 0.8141 0.6933 0.6968 0.8404 0.8556 0.8116 0.7395 0.7574 0.6380 0.5504 0.6690 0.8010 0.6307 0.6828 0.7877 0.7223 0.8340 0.7420 0.7558 0.7697 0.5826 0.7882 0.6258 0.8289 0.7930 0.8530 0.8013 0.8159 0.7532 0.7973 0.7830 0.7627 0.7910 0.6932 0.7929 0.8462 0.7554 0.8133 0.8647 0.7947 0.7964 0.8314 0.7409 0.6043 0.7859 0.6424 0.8512 0.8102 0.7453 0.6753 0.6873 0.8421 0.7437 0.8260 0.6344 0.5892 0.8178 0.6700 0.6058 0.7405 0.6678 0.7558 0.8367 0.5986 0.8633 0.5604 0.7633 0.7854 0.7478 0.7473 0.8335 0.7558 0.5933 0.7741 0.7817 0.7940 0.8440 0.7060 0.8078 0.7068 0.8423 0.7559 0.8539 0.7942 0.8211 0.6216 0.6728 0.6877 0.7894 0.8423 0.7662 0.8271 0.7018 0.8548 0.8546 0.7701 0.6589 0.8311 0.7545 0.6724 0.8351 0.6412 0.7627 0.8489 0.7974 0.8552 0.6995 0.7284 0.8538 0.7465 0.7049 0.6017 0.7907 0.8082 0.8015 0.7506 0.7382 0.7894 0.8153 0.6316 0.7214 0.8416 0.6281 0.7990 0.7778 0.8383 0.8577 0.7004 0.8653 0.8482 0.6195 0.7805 0.8184 0.8441 0.7646 0.7959 0.8516 0.7580 0.8380 0.7433 0.5537 0.7789 0.5576 0.7970 0.6261 0.8187 0.7876 0.6293 0.6874 0.8626 0.6246 0.7244 0.7544 0.8398 0.7114 0.7870 0.8455 0.7611 0.8372 0.7464 0.8097 0.8192 0.7061 0.8131 0.7162 0.6939 0.7657 0.7837 0.5993 0.6048 0.7836 0.7943 0.8010 0.7949 0.7876 0.6024 0.6660 0.7998 0.7958 0.5366 0.6855 0.5981 0.7751 0.7465 0.8346 0.8070 0.6666 0.7298 0.8280 0.7936 0.8499 0.9137 0.7970 0.5727 0.7040 0.8253 0.5760 0.7023 0.8185 0.6479 0.7747 0.6876 0.7053 0.7118 0.6448 0.6158 0.7906 0.8098 0.6928 0.6288 0.7957 0.6606 0.8019 0.7323 0.7584 0.6625 0.8216 0.7696 0.8377 0.8144 0.8421 0.7299 0.7932 0.7312 0.7995 0.8055 0.7548 0.7105 0.5754 0.7747 0.6443 0.6582 0.8151 0.7193 0.8147 0.8834 0.6257 0.6487 0.8516 0.8314 0.7397 0.6542 0.7575 0.8271 0.8535 0.7504 0.7727 0.7356 0.8296 0.6472 0.7798 0.6520 0.7917 0.8239 0.7963 0.7896 0.6442 0.7559 0.6108 0.6644 0.8518 0.7536 0.8044 0.7466 0.8595 0.8195 0.8335 0.7747 0.7221 0.8113 0.7313 0.8174 0.8177 0.8321 0.7554 0.8103 0.6913 0.6611 0.7868 0.6629 0.8078 0.8186 0.8309 0.8018 0.7895 0.8224 0.8280 0.7345 0.7894 0.7906 0.6567 0.7898 0.7371 0.8513 0.6034 0.7925 0.7482 0.8283 0.7628 0.7102 0.7892 0.8414 0.8673 0.7593 0.7943 0.7265 0.7786 0.7475 0.7379 0.8493 0.7597 0.8258 0.6473 0.7739 0.7080 0.7374 0.6963 0.6776 0.5113 0.7822 0.6768 0.8128 0.7831 0.8628 0.7822 0.7743 0.6931 0.7532 0.7942 0.7978 0.7958 0.8422 0.8574 0.8625 0.8327 0.7524 0.8450 0.8160 0.6825 0.6239 0.6392 0.8127 0.8093 0.8571 0.7017 0.7536 0.6846 0.7268 0.7972 0.8261 0.8670 0.8535 0.5964 0.6487 0.6689 0.6248 0.7515 0.8441 0.8573 0.6462 0.6496 0.6986 0.6651 0.6677 0.7751 0.8046 0.7925 0.7282 0.7636 0.7833 0.6739 0.7399 0.5774 0.7367 0.8190 0.8376 0.5981 0.6774 0.6338 0.7769 0.7758 0.8328 0.7881 0.7885 0.7045 0.6676 0.8246 0.6906 0.7148 0.7669 0.8112 0.6858 0.7658 0.6100 0.6698 0.8050 0.6714 0.8068 0.7070 0.7095 0.7364 0.7424 0.8448 0.7812 0.7987 0.7596 0.7609 0.6551 0.8320 0.6719 0.6825 0.8143 0.8295 0.6898 0.7868 0.7432 0.7949 0.8243 0.6370 0.8011 0.5926 0.7504 0.8289 0.7106 0.7150 0.8153 0.8019 0.7981 0.6041 0.8457 0.7154 0.6505 0.7973 0.7832 0.7879 0.8399 0.8602 0.6684 0.7452 0.7131 0.7910 0.7458 0.5804 0.8215 0.7033 0.6633 0.8535 0.7266 0.6663 0.7790 0.6271 0.6016 0.6715 0.5816 0.7112 0.6460 0.8207 0.7867 0.7659 0.7583 0.8465 0.8672 0.8101 0.8209 0.8173 0.8127 0.8385 0.7318 0.8366 0.8106 0.8202 0.7252 0.7254 0.7230 0.6942 0.6458 0.8181 0.6465 0.7437 0.8458 0.6719 0.6300 0.5583 0.6248 0.8343 0.7921 0.6930 0.7268 0.8511 0.6901 0.6671 0.7583 0.8325 0.8280 0.6812 0.5536 0.7662 0.7760 0.8553 0.5606 0.7572 0.7366 0.8451 0.6912 0.6664 0.6022 0.7614 0.6154 0.7511 0.8256 0.7166 0.8217 0.7731 0.6873 0.8490 0.6673 0.6893 0.8107 0.7697 0.8184 0.8543 0.6812 0.7186 0.7965 0.6861 0.7412 0.7914 0.7652 0.5428 0.8050 0.7665 0.8132 0.5756 0.6391 0.7874 0.6454 0.7173 0.8074 0.7493 0.7263 0.6966 0.7214 0.8496 0.7555 0.8433 0.8082 0.7281 0.7810 0.8125 0.8477 0.6214 0.7776 0.7830 0.7204 0.7850 0.8104 0.6792 0.7737 0.6640 0.6426 0.8722 0.7637 0.8374 0.7790 0.6137 0.7860 0.6638 0.6780 0.7146 0.7977 0.6008 0.8191 0.7982 0.6715 0.7957 0.7929 0.7532 0.8212 0.7460 0.7963 0.5071 0.7402 0.8833 0.7378 0.7644 0.8158 0.6875 0.7625 0.6298 0.7610 0.7844 0.7242 0.6777 0.6254 0.7288 0.6349 0.8033 0.7873 0.8224 0.6275 0.7764 0.8772 0.8208 0.7608 0.7921 0.8612 0.7940 0.7111 0.8154 0.8165 0.7888 0.8226 0.8640 0.6781 0.7506 0.6669 0.8343 0.7148 0.8399 0.8232 0.8763 0.7870 0.7713 0.6631 0.7787 0.5085 0.7342 0.8648 0.7432 0.6223 0.6999 0.7929 0.7018 0.6460 0.6839 0.7086 0.7857 0.7471 0.8098 0.8517 0.8498 0.7291 0.7044 0.7319 0.8329 0.8036 0.8148 0.7478 0.6304 0.8084 0.8122 0.6426 0.7830 0.7859 0.6521 0.7973 0.6079 0.6822 0.6872 0.6973 0.5932 0.7444 0.7135 0.7158 0.8144 0.8495 0.8303 0.8745 0.7490 0.6462 0.6692 0.7500 0.7096 0.6755 0.6865 0.7874 0.6727 0.8634 0.7987 0.7018 0.7237 0.8256 0.8469 0.7207 0.8315 0.6423 0.6347 0.6828 0.5853 0.8157 0.8125 0.7549 0.7806 0.5975 0.5451 0.5908 0.8334 0.7370 0.8296 0.8614 0.8459 0.8608 0.6493 0.7569 0.7780 0.6922 0.5796 0.7171 0.8472 0.8313 0.7964 0.8079 0.6882 0.7872 0.6842 0.8713 0.5707 0.7971 0.7778 0.8343 0.7402 0.6139 0.7495 0.7856 0.7956
</DataArray>
<DataArray type="Int32" Name="in_raft" format="ascii">
0 0 0 0 0 0 0 0 0 0 0 0 0 0 0 0 0 0 0 0 0 0 0 0 0 0 0 0 0 0 0 0 0 0 0 0 0 0 0 0 0 0 0 0 0 0 0 0 0 0 0 0 0 0 0 0 0 0 0 0 0 0 0 0 0 0 0 0 0 0 0 0 0 0 0 0 0 0 0 0 0 0 0 0 0 0 0 0 0 0 0 0 0 0 0 0 0 0 0 0 0 0 0 0 0 0 0 0 0 0 0 0 0 0 0 0 0 0 0 0 0 0 0 0 0 0 0 0 0 0 0 0 0 0 0 0 0 0 0 0 0 0 0 0 0 0 0 0 0 0 0 0 0 0 0 0 0 0 0 0 0 0 0 0 0 0 0 0 0 0 0 0 0 0 0 0 0 0 0 0 0 0 0 0 0 0 0 0 0 0 0 0 0 0 0 0 0 0 0 0 0 0 0 0 0 0 0 0 0 0 0 0 0 0 0 0 0 0 0 0 0 0 0 0 0 0 0 0 0 0 0 0 0 0 0 0 0 0 0 0 0 0 0 0 0 0 0 0 0 0 0 0 0 0 0 0 0 0 0 0 0 0 0 0 0 0 0 0 0 0 0 0 0 0 0 0 0 0 0 0 0 0 0 0 0 0 0 0 0 0 0 0 0 0 0 0 0 0 0 0 0 0 0 0 0 0 0 0 0 0 0 0 0 0 0 0 0 0 0 0 0 0 0 0 0 0 0 0 0 0 0 0 0 0 0 0 0 0 0 0 0 0 0 0 0 0 0 0 0 0 0 0 0 0 0 0 0 0 0 0 0 0 0 0 0 0 0 0 0 0 0 0 0 0 0 0 0 0 0 0 0 0 0 0 0 0 0 0 0 0 0 0 0 0 0 0 0 0 0 0 0 0 0 0 0 0 0 0 0 0 0 0 0 0 0 0 0 0 0 0 0 0 0 0 0 0 0 0 0 0 0 0 0 0 0 0 0 0 0 0 0 0 0 0 0 0 0 0 0 0 0 0 0 0 0 0 0 0 0 0 0 0 0 0 0 0 0 0 0 0 0 0 0 0 0 0 0 0 0 0 0 0 0 0 0 0 0 0 0 0 0 0 0 0 0 0 0 0 0 0 0 0 0 0 0 0 0 0 0 0 0 0 0 0 0 0 0 0 0 0 0 0 0 0 0 0 0 0 0 0 0 0 0 0 0 0 0 0 0 0 0 0 0 0 0 0 0 0 0 0 0 0 0 0 0 0 0 0 0 0 0 0 0 0 0 0 0 0 0 0 0 0 0 0 0 0 0 0 0 0 0 0 0 0 0 0 0 0 0 0 0 0 0 0 0 0 0 0 0 0 0 0 0 0 0 0 0 0 0 0 0 0 0 0 0 0 0 0 0 0 0 0 0 0 0 0 0 0 0 0 0 0 0 0 0 0 0 0 0 0 0 0 0 0 0 0 0 0 0 0 0 0 0 0 0 0 0 0 0 0 0 0 0 0 0 0 0 0 0 0 0 0 0 0 0 0 0 0 0 0 0 0 0 0 0 0 0 0 0 0 0 0 0 0 0 0 0 0 0 0 0 0 0 0 0 0 0 0 0 0 0 0 0 0 0 0 0 0 0 0 0 0 0 0 0 0 0 0 0 0 0 0 0 0 0 0 0 0 0 0 0 0 0 0 0 0 0 0 0
</DataArray>
<DataArray type="Int32" Name="is_pip" format="ascii">
1 1 1 1 1 1 1 1 1 1 1 1 1 1 1 1 1 1 1 1 1 1 1 1 1 1 1 1 1 1 1 1 1 1 1 1 1 1 1 1 1 1 1 1 1 1 1 1 1 1 1 1 1 1 1 1 1 1 1 1 1 1 1 1 1 1 1 1 1 1 1 1 1 1 1 1 1 1 1 1 1 1 1 1 1 1 1 1 1 1 1 1 1 1 1 1 1 1 1 1 1 1 1 1 1 1 1 1 1 1 1 1 1 1 1 1 1 1 1 1 1 1 1 1 1 1 1 1 1 1 1 1 1 1 1 1 1 1 1 1 1 1 1 1 1 1 1 1 1 1 1 1 1 1 1 1 1 1 1 1 1 1 1 1 1 1 1 1 1 1 1 1 1 1 1 1 1 1 1 1 1 1 1 1 1 1 1 1 1 1 1 1 1 1 1 1 1 1 1 1 1 1 1 1 1 1 1 1 1 1 1 1 1 1 1 1 1 1 1 1 1 1 1 1 1 1 1 1 1 1 1 1 1 1 1 1 1 1 1 1 1 1 1 1 1 1 1 1 1 1 1 1 1 1 1 1 1 1 1 1 1 1 1 1 1 1 1 1 1 1 1 1 1 1 1 1 1 1 1 1 1 1 1 1 1 1 1 1 1 1 1 1 1 1 1 1 1 1 1 1 1 1 1 1 1 1 1 1 1 1 1 1 1 1 1 1 1 1 1 1 1 1 1 1 1 1 1 1 1 1 1 1 1 1 1 1 1 1 1 1 1 1 1 1 1 1 1 1 1 1 1 1 1 1 1 1 1 1 1 1 1 1 1 1 1 1 1 1 1 1 1 1 1 1 1 1 1 1 1 1 1 1 1 1 1 1 1 1 1 1 1 1 1 1 1 1 1 1 1 1 1 1 1 1 1 1 1 1 1 1 1 1 1 1 1 1 1 1 1 1 1 1 1 1 1 1 1 1 1 1 1 1 1 1 1 1 1 1 1 1 1 1 1 1 1 1 1 1 1 1 1 1 1 1 1 1 1 1 1 1 1 1 1 1 1 1 1 1 1 1 1 1 1 1 1 1 1 1 1 1 1 1 1 1 1 1 1 1 1 1 1 1 1 1 1 1 1 1 1 1 1 1 1 1 1 1 1 1 1 1 1 1 1 1 1 1 1 1 1 1 1 1 1 1 1 1 1 1 1 1 1 1 1 1 1 1 1 1 1 1 1 1 1 1 1 1 1 1 1 1 1 1 1 1 1 1 1 1 1 1 1 1 1 1 1 1 1 1 1 1 1 1 1 1 1 1 1 1 1 1 1 1 1 1 1 1 1 1 1 1 1 1 1 1 1 1 1 1 1 1 1 1 1 1 1 1 1 1 1 1 1 1 1 1 1 1 1 1 1 1 1 1 1 1 1 1 1 1 1 1 1 1 1 1 1 1 1 1 1 1 1 1 1 1 1 1 1 1 1 1 1 1 1 1 1 1 1 1 1 1 1 1 1 1 1 1 1 1 1 1 1 1 1 1 1 1 1 1 1 1 1 1 1 1 1 1 1 1 1 1 1 1 1 1 1 1 1 1 1 1 1 1 1 1 1 1 1 1 1 1 1 1 1 1 1 1 1 1 1 1 1 1 1 1 1 1 1 1 1 1 1 1 1 1 1 1 1 1 1 1 1 1 1 1 1 1 1 1 1
</DataArray>
<DataArray type="Int32" Name="pip_head" format="ascii">
1 1 1 1 1 1 1 1 1 1 1 1 1 1 1 1 1 1 1 1 1 1 1 1 1 1 1 1 1 1 1 1 1 1 1 1 1 1 1 1 1 1 1 1 1 1 1 1 1 1 1 1 1 1 1 1 1 1 1 1 1 1 1 1 1 1 1 1 1 1 1 1 1 1 1 1 1 1 1 1 1 1 1 1 1 1 1 1 1 1 1 1 1 1 1 1 1 1 1 1 1 1 1 1 1 1 1 1 1 1 1 1 1 1 1 1 1 1 1 1 1 1 1 1 1 1 1 1 1 1 1 1 1 1 1 1 1 1 1 1 1 1 1 1 1 1 1 1 1 1 1 1 1 1 1 1 1 1 1 1 1 1 1 1 1 1 1 1 1 1 1 1 1 1 1 1 1 1 1 1 1 1 1 1 1 1 1 1 1 1 1 1 1 1 1 1 1 1 1 1 1 1 1 1 1 1 1 1 1 1 1 1 1 1 1 1 1 1 1 1 1 1 1 1 1 1 1 1 1 1 1 1 1 1 1 1 1 1 1 1 1 1 1 1 1 1 1 1 1 1 1 1 1 1 1 1 1 1 1 1 1 1 1 1 1 1 1 1 1 1 1 1 1 1 1 1 1 1 1 1 1 1 1 1 1 1 1 1 1 1 1 1 1 1 1 1 1 1 1 1 1 1 1 1 1 1 1 1 1 1 1 1 1 1 1 1 1 1 1 1 1 1 1 1 1 1 1 1 1 1 1 1 1 1 1 1 1 1 1 1 1 1 1 1 1 1 1 1 1 1 1 1 1 1 1 1 1 1 1 1 1 1 1 1 1 1 1 1 1 1 1 1 1 1 1 1 1 1 1 1 1 1 1 1 1 1 1 1 1 1 1 1 1 1 1 1 1 1 1 1 1 1 1 1 1 1 1 1 1 1 1 1 1 1 1 1 1 1 1 1 1 1 1 1 1 1 1 1 1 1 1 1 1 1 1 1 1 1 1 1 1 1 1 1 1 1 1 1 1 1 1 1 1 1 1 1 1 1 1 1 1 1 1 1 1 1 1 1 1 1 1 1 1 1 1 1 1 1 1 1 1 1 1 1 1 1 1 1 1 1 1 1 1 1 1 1 1 1 1 1 1 1 1 1 1 1 1 1 1 1 1 1 1 1 1 1 1 1 1 1 1 1 1 1 1 1 1 1 1 1 1 1 1 1 1 1 1 1 1 1 1 1 1 1 1 1 1 1 1 1 1 1 1 1 1 1 1 1 1 1 1 1 1 1 1 1 1 1 1 1 1 1 1 1 1 1 1 1 1 1 1 1 1 1 1 1 1 1 1 1 1 1 1 1 1 1 1 1 1 1 1 1 1 1 1 1 1 1 1 1 1 1 1 1 1 1 1 1 1 1 1 1 1 1 1 1 1 1 1 1 1 1 1 1 1 1 1 1 1 1 1 1 1 1 1 1 1 1 1 1 1 1 1 1 1 1 1 1 1 1 1 1 1 1 1 1 1 1 1 1 1 1 1 1 1 1 1 1 1 1 1 1 1 1 1 1 1 1 1 1 1 1 1 1 1 1 1 1 1 1 1 1 1 1 1 1 1 1 1 1 1 1 1 1 1 1 1 1 1 1 1 1 1 1 1 1 1 1 1 1 1 1 1 1 1 1 1 1 1 1 1 1 1 1 1 1 1 1 1
</DataArray>
<DataArray type="Float32" Name="electron_density" format="ascii">
0.4900 0.4900 0.4900 0.4900 0.4900 0.4900 0.4900 0.4900 0.4900 0.4900 0.4900 0.4900 0.4900 0.4900 0.4900 0.4900 0.4900 0.4900 0.4900 0.4900 0.4900 0.4900 0.4900 0.4900 0.4900 0.4900 0.4900 0.4900 0.4900 0.4900 0.4900 0.4900 0.4900 0.4900 0.4900 0.4900 0.4900 0.4900 0.4900 0.4900 0.4900 0.4900 0.4900 0.4900 0.4900 0.4900 0.4900 0.4900 0.4900 0.4900 0.4900 0.4900 0.4900 0.4900 0.4900 0.4900 0.4900 0.4900 0.4900 0.4900 0.4900 0.4900 0.4900 0.4900 0.4900 0.4900 0.4900 0.4900 0.4900 0.4900 0.4900 0.4900 0.4900 0.4900 0.4900 0.4900 0.4900 0.4900 0.4900 0.4900 0.4900 0.4900 0.4900 0.4900 0.4900 0.4900 0.4900 0.4900 0.4900 0.4900 0.4900 0.4900 0.4900 0.4900 0.4900 0.4900 0.4900 0.4900 0.4900 0.4900 0.4900 0.4900 0.4900 0.4900 0.4900 0.4900 0.4900 0.4900 0.4900 0.4900 0.4900 0.4900 0.4900 0.4900 0.4900 0.4900 0.4900 0.4900 0.4900 0.4900 0.4900 0.4900 0.4900 0.4900 0.4900 0.4900 0.4900 0.4900 0.4900 0.4900 0.4900 0.4900 0.4900 0.4900 0.4900 0.4900 0.4900 0.4900 0.4900 0.4900 0.4900 0.4900 0.4900 0.4900 0.4900 0.4900 0.4900 0.4900 0.4900 0.4900 0.4900 0.4900 0.4900 0.4900 0.4900 0.4900 0.4900 0.4900 0.4900 0.4900 0.4900 0.4900 0.4900 0.4900 0.4900 0.4900 0.4900 0.4900 0.4900 0.4900 0.4900 0.4900 0.4900 0.4900 0.4900 0.4900 0.4900 0.4900 0.4900 0.4900 0.4900 0.4900 0.4900 0.4900 0.4900 0.4900 0.4900 0.4900 0.4900 0.4900 0.4900 0.4900 0.4900 0.4900 0.4900 0.4900 0.4900 0.4900 0.4900 0.4900 0.4900 0.4900 0.4900 0.4900 0.4900 0.4900 0.4900 0.4900 0.4900 0.4900 0.4900 0.4900 0.4900 0.4900 0.4900 0.4900 0.4900 0.4900 0.4900 0.4900 0.4900 0.4900 0.4900 0.4900 0.4900 0.4900 0.4900 0.4900 0.4900 0.4900 0.4900 0.4900 0.4900 0.4900 0.4900 0.4900 0.4900 0.4900 0.4900 0.4900 0.4900 0.4900 0.4900 0.4900 0.4900 0.4900 0.4900 0.4900 0.4900 0.4900 0.4900 0.4900 0.4900 0.4900 0.4900 0.4900 0.4900 0.4900 0.4900 0.4900 0.4900 0.4900 0.4900 0.4900 0.4900 0.4900 0.4900 0.4900 0.4900 0.4900 0.4900 0.4900 0.4900 0.4900 0.4900 0.4900 0.4900 0.4900 0.4900 0.4900 0.4900 0.4900 0.4900 0.4900 0.4900 0.4900 0.4900 0.4900 0.4900 0.4900 0.4900 0.4900 0.4900 0.4900 0.4900 0.4900 0.4900 0.4900 0.4900 0.4900 0.4900 0.4900 0.4900 0.4900 0.4900 0.4900 0.4900 0.4900 0.4900 0.4680 0.4680 0.4680 0.4680 0.4680 0.4680 0.4680 0.4680 0.4680 0.4680 0.4680 0.4680 0.4680 0.4680 0.4680 0.4680 0.4680 0.4680 0.4680 0.4680 0.4680 0.4680 0.4680 0.4680 0.4680 0.4680 0.4680 0.4680 0.4680 0.4680 0.4680 0.4680 0.4680 0.4680 0.4680 0.4680 0.4680 0.4680 0.4680 0.4680 0.4680 0.4680 0.4680 0.4680 0.4680 0.4680 0.4680 0.4680 0.4680 0.4680 0.4680 0.4680 0.4680 0.4680 0.4680 0.4680 0.4680 0.4680 0.4680 0.4680 0.4680 0.4680 0.4680 0.4680 0.4680 0.4680 0.4680 0.4680 0.4680 0.4680 0.4680 0.4680 0.4680 0.4680 0.4680 0.4680 0.4680 0.4680 0.4680 0.4680 0.4680 0.4680 0.4680 0.4680 0.4680 0.4680 0.4680 0.4680 0.4680 0.4680 0.4680 0.4680 0.4680 0.4680 0.4680 0.4680 0.4680 0.4680 0.4680 0.4680 0.4680 0.4680 0.4680 0.4680 0.4680 0.4680 0.4680 0.4680 0.4680 0.4680 0.4680 0.4680 0.4680 0.4680 0.4680 0.4680 0.4680 0.4680 0.4680 0.4680 0.4680 0.4680 0.4680 0.4680 0.4680 0.4680 0.4680 0.4680 0.4680 0.4680 0.4680 0.4680 0.4680 0.4680 0.4680 0.4680 0.4680 0.4680 0.4680 0.4680 0.4680 0.4680 0.4680 0.4680 0.4680 0.4680 0.4680 0.4680 0.4680 0.4680 0.4680 0.4680 0.4680 0.4680 0.4680 0.4680 0.4680 0.4680 0.4680 0.4680 0.4680 0.4680 0.4680 0.4680 0.4680 0.4680 0.4750 0.4750 0.4750 0.4750 0.4750 0.4750 0.4750 0.4750 0.4750 0.4750 0.4750 0.4750 0.4750 0.4750 0.4750 0.4750 0.4750 0.4750 0.4750 0.4750 0.4750 0.4750 0.4750 0.4750 0.4750 0.4750 0.4750 0.4750 0.4750 0.4750 0.4750 0.4750 0.4750 0.4750 0.4750 0.4750 0.4750 0.4750 0.4750 0.4750 0.4750 0.4750 0.4750 0.4750 0.4750 0.4750 0.4750 0.4750 0.4750 0.4750 0.4750 0.4750 0.4750 0.4750 0.4750 0.4750 0.4750 0.4750 0.4750 0.4750 0.4750 0.4750 0.4750 0.4750 0.4750 0.4750 0.4750 0.4750 0.4750 0.4750 0.4750 0.4750 0.4750 0.4750 0.4750 0.4750 0.4750 0.4750 0.4750 0.4750 0.4750 0.4750 0.4750 0.4750 0.4750 0.4750 0.4750 0.4750 0.4750 0.4750 0.4750 0.4750 0.4750 0.4750 0.4750 0.4750 0.4750 0.4750 0.4750 0.4750 0.4750 0.4750 0.4750 0.4750 0.4750 0.4750 0.4750 0.4750 0.4750 0.4750 0.4750 0.4750 0.4750 0.4750 0.4750 0.4750 0.4750 0.4750 0.4750 0.4750 0.4750 0.4750 0.4750 0.4750 0.4750 0.4750 0.4750 0.4750 0.4750 0.4750 0.4750 0.4750 0.4750 0.4750 0.4750 0.4750 0.4750 0.4750 0.4750 0.4750 0.4750 0.4750 0.4750 0.4750 0.4750 0.4750 0.4750 0.4760 0.4760 0.4760 0.4760 0.4760 0.4760 0.4760 0.4760 0.4760 0.4760 0.4760 0.4760 0.4760 0.4760 0.4760 0.4760 0.4760 0.4760 0.4760 0.4760 0.4760 0.4760 0.4760 0.4760 0.4760 0.4760 0.4760 0.4760 0.4760 0.4760 0.4760 0.4760 0.4760 0.4760 0.4760 0.4760 0.4760 0.4760 0.4760 0.4760 0.4760 0.4760 0.4760 0.4760 0.4760 0.4760 0.4760 0.4760 0.4760 0.4760 0.4760 0.4760 0.4760 0.4760 0.4760 0.4760 0.4760 0.4760 0.4760 0.4760 0.4760 0.4760 0.4760 0.4760 0.4760 0.4760 0.4760 0.4760 0.4760 0.4760 0.4760 0.4760 0.4760 0.4760 0.4760 0.4760 0.4760 0.4760 0.4760 0.4760 0.4760 0.4760 0.4760 0.4760 0.4760 0.4760 0.4760 0.4760 0.4760 0.4760 0.4760 0.4760 0.4760 0.4760 0.4760 0.4760 0.4760 0.4760 0.4760 0.4760 0.4760 0.4760 0.4760 0.4760 0.4760 0.4760 0.4760 0.4760 0.4760 0.4760 0.4760 0.4760 0.4760 0.4760 0.4760 0.4760 0.4760 0.4760 0.4760 0.4760 0.4760 0.4760 0.4760 0.4760 0.4760 0.4760 0.4760
</DataArray>
<DataArray type="Int32" Name="lipid_id" format="ascii">
8 8 8 8 8 8 8 8 8 8 8 8 8 8 8 8 8 8 8 8 8 8 8 8 8 8 8 8 8 8 8 8 8 8 8 8 8 8 8 8 8 8 8 8 8 8 8 8 8 8 8 8 8 8 8 8 8 8 8 8 8 8 8 8 8 8 8 8 8 8 8 8 8 8 8 8 8 8 8 8 8 8 8 8 8 8 8 8 8 8 8 8 8 8 8 8 8 8 8 8 8 8 8 8 8 8 8 8 8 8 8 8 8 8 8 8 8 8 8 8 8 8 8 8 8 8 8 8 8 8 8 8 8 8 8 8 8 8 8 8 8 8 8 8 8 8 8 8 8 8 8 8 8 8 8 8 8 8 8 8 8 8 8 8 8 8 8 8 8 8 8 8 8 8 8 8 8 8 8 8 8 8 8 8 8 8 8 8 8 8 8 8 8 8 8 8 8 8 8 8 8 8 8 8 8 8 8 8 8 8 8 8 8 8 8 8 8 8 8 8 8 8 8 8 8 8 8 8 8 8 8 8 8 8 8 8 8 8 8 8 8 8 8 8 8 8 8 8 8 8 8 8 8 8 8 8 8 8 8 8 8 8 8 8 8 8 8 8 8 8 8 8 8 8 8 8 8 8 8 8 8 8 8 8 8 8 8 8 8 8 8 8 8 8 8 8 8 8 8 8 8 8 8 8 8 8 8 8 8 3 3 3 3 3 3 3 3 3 3 3 3 3 3 3 3 3 3 3 3 3 3 3 3 3 3 3 3 3 3 3 3 3 3 3 3 3 3 3 3 3 3 3 3 3 3 3 3 3 3 3 3 3 3 3 3 3 3 3 3 3 3 3 3 3 3 3 3 3 3 3 3 3 3 3 3 3 3 3 3 3 3 3 3 3 3 3 3 3 3 3 3 3 3 3 3 3 3 3 3 3 3 3 3 3 3 3 3 3 3 3 3 3 3 3 3 3 3 3 3 3 3 3 3 3 3 3 3 3 3 3 3 3 3 3 3 3 3 3 3 3 3 3 3 3 3 3 3 3 3 3 3 3 3 3 3 3 3 3 3 3 3 3 3 3 3 4 4 4 4 4 4 4 4 4 4 4 4 4 4 4 4 4 4 4 4 4 4 4 4 4 4 4 4 4 4 4 4 4 4 4 4 4 4 4 4 4 4 4 4 4 4 4 4 4 4 4 4 4 4 4 4 4 4 4 4 4 4 4 4 4 4 4 4 4 4 4 4 4 4 4 4 4 4 4 4 4 4 4 4 4 4 4 4 4 4 4 4 4 4 4 4 4 4 4 4 4 4 4 4 4 4 4 4 4 4 4 4 4 4 4 4 4 4 4 4 4 4 4 4 4 4 4 4 4 4 4 4 4 4 4 4 4 4 4 4 4 4 4 4 4 4 4 5 5 5 5 5 5 5 5 5 5 5 5 5 5 5 5 5 5 5 5 5 5 5 5 5 5 5 5 5 5 5 5 5 5 5 5 5 5 5 5 5 5 5 5 5 5 5 5 5 5 5 5 5 5 5 5 5 5 5 5 5 5 5 5 5 5 5 5 5 5 5 5 5 5 5 5 5 5 5 5 5 5 5 5 5 5 5 5 5 5 5 5 5 5 5 5 5 5 5 5 5 5 5 5 5 5 5 5 5 5 5 5 5 5 5 5 5 5 5 5 5 5 5 5 5 5 5
</DataArray>
<DataArray type="Int32" Name="leaflet" format="ascii">
1 1 1 1 1 1 1 1 1 1 1 1 1 1 1 1 1 1 1 1 1 1 1 1 1 1 1 1 1 1 1 1 1 1 1 1 1 1 1 1 1 1 1 1 1 1 1 1 1 1 1 1 1 1 1 1 1 1 1 1 1 1 1 1 1 1 1 1 1 1 1 1 1 1 1 1 1 1 1 1 1 1 1 1 1 1 1 1 1 1 1 1 1 1 1 1 1 1 1 1 1 1 1 1 1 1 1 1 1 1 1 1 1 1 1 1 1 1 1 1 1 1 1 1 1 1 1 1 1 1 1 1 1 1 1 1 1 1 1 1 1 1 1 1 1 1 1 1 1 1 1 1 1 1 1 1 1 1 1 1 1 1 1 1 1 1 1 1 1 1 1 1 1 1 1 1 1 1 1 1 1 1 1 1 1 1 1 1 1 1 1 1 1 1 1 1 1 1 1 1 1 1 1 1 1 1 1 1 1 1 1 1 1 1 1 1 1 1 1 1 1 1 1 1 1 1 1 1 1 1 1 1 1 1 1 1 1 1 1 1 1 1 1 1 1 1 1 1 1 1 1 1 1 1 1 1 1 1 1 1 1 1 1 1 1 1 1 1 1 1 1 1 1 1 1 1 1 1 1 1 1 1 1 1 1 1 1 1 1 1 1 1 1 1 1 1 1 1 1 1 1 1 1 1 1 1 1 1 1 1 1 1 1 1 1 1 1 1 1 1 1 1 1 1 1 1 1 1 1 1 1 1 1 1 1 1 1 1 1 1 1 1 1 1 1 1 1 1 1 1 1 1 1 1 1 1 1 1 1 1 1 1 1 1 1 1 1 1 1 1 1 1 1 1 1 1 1 1 1 1 1 1 1 1 1 1 1 1 1 1 1 1 1 1 1 1 1 1 1 1 1 1 1 1 1 1 1 1 1 1 1 1 1 1 1 1 1 1 1 1 1 1 1 1 1 1 1 1 1 1 1 1 1 1 1 1 1 1 1 1 1 1 1 1 1 1 1 1 1 1 1 1 1 1 1 1 1 1 1 1 1 1 1 1 1 1 1 1 1 1 1 1 1 1 1 1 1 1 1 1 1 1 1 1 1 1 1 1 1 1 1 1 1 1 1 1 1 1 1 1 1 1 1 1 1 1 1 1 1 1 1 1 1 1 1 1 1 1 1 1 1 1 1 1 1 1 1 1 1 1 1 1 1 1 1 1 1 1 1 1 1 1 1 1 1 1 1 1 1 1 1 1 1 1 1 1 1 1 1 1 1 1 1 1 1 1 1 1 1 1 1 1 1 1 1 1 1 1 1 1 1 1 1 1 1 1 1 1 1 1 1 1 1 1 1 1 1 1 1 1 1 1 1 1 1 1 1 1 1 1 1 1 1 1 1 1 1 1 1 1 1 1 1 1 1 1 1 1 1 1 1 1 1 1 1 1 1 1 1 1 1 1 1 1 1 1 1 1 1 1 1 1 1 1 1 1 1 1 1 1 1 1 1 1 1 1 1 1 1 1 1 1 1 1 1 1 1 1 1 1 1 1 1 1 1 1 1 1 1 1 1 1 1 1 1 1 1 1 1 1 1 1 1 1 1 1 1 1 1 1 1 1 1 1 1 1 1 1 1 1 1 1 1 1 1 1 1 1 1 1 1 1 1 1 1 1 1 1 1 1 1 1 1 1 1 1 1 1 1
</DataArray>
<DataArray type="Int32" Name="phase" format="ascii">
1 1 1 1 1 1 1 1 1 1 1 1 1 1 1 1 1 1 1 1 1 1 1 1 1 1 1 1 1 1 1 1 1 1 1 1 1 1 1 1 1 1 1 1 1 1 1 1 1 1 1 1 1 1 1 1 1 1 1 1 1 1 1 1 1 1 1 1 1 1 1 1 1 1 1 1 1 1 1 1 1 1 1 1 1 1 1 1 1 1 1 1 1 1 1 1 1 1 1 1 1 1 1 1 1 1 1 1 1 1 1 1 1 1 1 1 1 1 1 1 1 1 1 1 1 1 1 1 1 1 1 1 1 1 1 1 1 1 1 1 1 1 1 1 1 1 1 1 1 1 1 1 1 1 1 1 1 1 1 1 1 1 1 1 1 1 1 1 1 1 1 1 1 1 1 1 1 1 1 1 1 1 1 1 1 1 1 1 1 1 1 1 1 1 1 1 1 1 1 1 1 1 1 1 1 1 1 1 1 1 1 1 1 1 1 1 1 1 1 1 1 1 1 1 1 1 1 1 1 1 1 1 1 1 1 1 1 1 1 1 1 1 1 1 1 1 1 1 1 1 1 1 1 1 1 1 1 1 1 1 1 1 1 1 1 1 1 1 1 1 1 1 1 1 1 1 1 1 1 1 1 1 1 1 1 1 1 1 1 1 1 1 1 1 1 1 1 1 1 1 1 1 1 1 1 1 1 1 1 1 1 1 1 1 1 1 1 1 1 1 1 1 1 1 1 1 1 1 1 1 1 1 1 1 1 1 1 1 1 1 1 1 1 1 1 1 1 1 1 1 1 1 1 1 1 1 1 1 1 1 1 1 1 1 1 1 1 1 1 1 1 1 1 1 1 1 1 1 1 1 1 1 1 1 1 1 1 1 1 1 1 1 1 1 1 1 1 1 1 1 1 1 1 1 1 1 1 1 1 1 1 1 1 1 1 1 1 1 1 1 1 1 1 1 1 1 1 1 1 1 1 1 1 1 1 1 1 1 1 1 1 1 1 1 1 1 1 1 1 1 1 1 1 1 1 1 1 1 1 1 1 1 1 1 1 1 1 1 1 1 1 1 1 1 1 1 1 1 1 1 1 1 1 1 1 1 1 1 1 1 1 1 1 1 1 1 1 1 1 1 1 1 1 1 1 1 1 1 1 1 1 1 1 1 1 1 1 1 1 1 1 1 1 1 1 1 1 1 1 1 1 1 1 1 1 1 1 1 1 1 1 1 1 1 1 1 1 1 1 1 1 1 1 1 1 1 1 1 1 1 1 1 1 1 1 1 1 1 1 1 1 1 1 1 1 1 1 1 1 1 1 1 1 1 1 1 1 1 1 1 1 1 1 1 1 1 1 1 1 1 1 1 1 1 1 1 1 1 1 1 1 1 1 1 1 1 1 1 1 1 1 1 1 1 1 1 1 1 1 1 1 1 1 1 1 1 1 1 1 1 1 1 1 1 1 1 1 1 1 1 1 1 1 1 1 1 1 1 1 1 1 1 1 1 1 1 1 1 1 1 1 1 1 1 1 1 1 1 1 1 1 1 1 1 1 1 1 1 1 1 1 1 1 1 1 1 1 1 1 1 1 1 1 1 1 1 1 1 1 1 1 1 1 1 1 1 1 1 1 1 1 1 1 1 1 1 1 1 1 1 1 1 1 1 1 1 1 1 1 1 1 1 1 1 1 1 1 1 1
</DataArray>
<DataArray type="Int32" Name="n_doublebonds" format="ascii">
4 4 4 4 4 4 4 4 4 4 4 4 4 4 4 4 4 4 4 4 4 4 4 4 4 4 4 4 4 4 4 4 4 4 4 4 4 4 4 4 4 4 4 4 4 4 4 4 4 4 4 4 4 4 4 4 4 4 4 4 4 4 4 4 4 4 4 4 4 4 4 4 4 4 4 4 4 4 4 4 4 4 4 4 4 4 4 4 4 4 4 4 4 4 4 4 4 4 4 4 4 4 4 4 4 4 4 4 4 4 4 4 4 4 4 4 4 4 4 4 4 4 4 4 4 4 4 4 4 4 4 4 4 4 4 4 4 4 4 4 4 4 4 4 4 4 4 4 4 4 4 4 4 4 4 4 4 4 4 4 4 4 4 4 4 4 4 4 4 4 4 4 4 4 4 4 4 4 4 4 4 4 4 4 4 4 4 4 4 4 4 4 4 4 4 4 4 4 4 4 4 4 4 4 4 4 4 4 4 4 4 4 4 4 4 4 4 4 4 4 4 4 4 4 4 4 4 4 4 4 4 4 4 4 4 4 4 4 4 4 4 4 4 4 4 4 4 4 4 4 4 4 4 4 4 4 4 4 4 4 4 4 4 4 4 4 4 4 4 4 4 4 4 4 4 4 4 4 4 4 4 4 4 4 4 4 4 4 4 4 4 4 4 4 4 4 4 4 4 4 4 4 4 4 4 4 4 4 4 4 4 4 4 4 4 4 4 4 4 4 4 4 4 4 4 4 4 4 4 4 4 4 4 4 4 4 4 4 4 4 4 4 4 4 4 4 4 4 4 4 4 4 4 4 4 4 4 4 4 4 4 4 4 4 4 4 4 4 4 4 4 4 4 4 4 4 4 4 4 4 4 4 4 4 4 4 4 4 4 4 4 4 4 4 4 4 4 4 4 4 4 4 4 4 4 4 4 4 4 4 4 4 4 4 4 4 4 4 4 4 4 4 4 4 4 4 4 4 4 4 4 4 4 4 4 4 4 4 4 4 4 4 4 4 4 4 4 4 4 4 4 4 4 4 4 4 4 4 4 4 4 4 4 4 4 4 4 4 4 4 4 4 4 4 4 4 4 4 4 4 4 4 4 4 4 4 4 4 4 4 4 4 4 4 4 4 4 4 4 4 4 4 4 4 4 4 4 4 4 4 4 4 4 4 4 4 4 4 4 4 4 4 4 4 4 4 4 4 4 4 4 4 4 4 4 4 4 4 4 4 4 4 4 4 4 4 4 4 4 4 4 4 4 4 4 4 4 4 4 4 4 4 4 4 4 4 4 4 4 4 4 4 4 4 4 4 4 4 4 4 4 4 4 4 4 4 4 4 4 4 4 4 4 4 4 4 4 4 4 4 4 4 4 4 4 4 4 4 4 4 4 4 4 4 4 4 4 4 4 4 4 4 4 4 4 4 4 4 4 4 4 4 4 4 4 4 4 4 4 4 4 4 4 4 4 4 4 4 4 4 4 4 4 4 4 4 4 4 4 4 4 4 4 4 4 4 4 4 4 4 4 4 4 4 4 4 4 4 4 4 4 4 4 4 4 4 4 4 4 4 4 4 4 4 4 4 4 4 4 4 4 4 4 4 4 4 4 4 4 4 4 4 4 4 4 4 4 4 4 4 4 4 4 4 4 4 4 4 4 4 4 4 4 4 4 4 4 4 4 4 4 4 4 4 4 4 4 4 4
</DataArray>
</PointData>
</Piece>
</PolyData>
</VTKFile>
