<?xml version="1.0"?>
<VTKFile type="PolyData" version="0.1" byte_order="LittleEndian">
<PolyData>
<Piece NumberOfPoints="523" NumberOfVerts="0" NumberOfLines="0" NumberOfStrips="0" NumberOfPolys="0">
<Points>
<DataArray type="Float32" NumberOfComponents="3" format="ascii">
348.492 131.717 -23.231 349.946 140.902 -24.484 94.258 385.704 -23.997 349.349 143.424 -24.700 100.996 401.603 -22.968 355.089 167.314 -23.565 327.710 155.431 -23.258 88.223 380.639 -25.213 375.727 166.670 -24.577 369.893 133.585 -25.982 172.421 340.644 -21.469 151.079 335.264 -20.372 156.992 333.006 -21.694 349.123 107.355 -25.579 187.323 335.981 -20.455 171.967 347.822 -20.460 83.586 376.704 -26.107 197.299 363.661 -17.776 114.221 401.012 -23.110 93.630 379.268 -24.815 363.323 148.920 -24.305 354.001 143.555 -24.665 349.604 177.103 -23.377 172.037 309.574 -18.847 356.301 143.878 -24.051 175.365 336.450 -21.680 355.818 159.378 -23.483 93.612 354.833 -22.674 353.319 139.639 -24.318 355.086 141.663 -24.852 115.406 399.879 -22.898 346.652 136.230 -23.494 72.545 377.373 -26.217 60.028 398.281 -25.936 152.645 312.240 -19.760 336.499 134.988 -24.246 204.403 348.958 -18.063 359.392 138.758 -25.546 86.572 385.492 -24.670 78.873 381.172 -26.084 370.601 105.091 -26.036 191.770 334.425 -19.791 355.353 138.656 -24.659 94.885 346.056 -22.406 343.871 148.454 -25.647 373.420 151.354 -25.922 355.535 142.108 -24.010 366.365 143.862 -25.284 367.353 151.692 -26.570 351.412 159.359 -23.501 191.866 347.669 -19.153 75.651 379.193 -26.347 180.578 347.325 -20.045 368.787 172.599 -24.917 110.409 360.399 -23.176 322.583 134.245 -22.145 180.098 327.963 -20.847 82.104 360.281 -23.867 107.885 356.812 -23.363 82.525 375.600 -25.514 78.748 397.766 -25.292 175.335 330.715 -21.503 120.864 390.493 -23.478 184.399 351.467 -20.804 326.042 142.999 -22.666 155.587 315.557 -20.953 351.750 142.733 -23.701 333.084 150.125 -23.336 56.072 396.206 -25.005 219.083 345.436 -17.234 167.177 362.690 -21.335 87.330 412.602 -23.151 365.538 131.755 -25.037 96.359 352.836 -22.992 95.047 392.370 -23.407 188.309 372.087 -19.536 395.196 130.801 -26.360 356.846 130.559 -24.013 355.804 156.897 -24.034 76.484 381.461 -26.853 63.822 388.594 -26.539 156.281 351.590 -21.407 333.956 165.470 -22.785 78.950 351.382 -22.834 156.770 351.232 -21.380 178.526 343.574 -20.825 392.055 155.320 -24.510 92.699 405.780 -24.057 358.423 141.987 -25.020 103.759 371.596 -23.565 159.118 360.612 -21.438 70.240 348.795 -23.799 353.947 148.006 -24.896 100.271 356.705 -22.803 183.120 343.578 -20.606 343.921 112.222 -24.844 79.474 364.094 -23.959 182.262 330.359 -20.678 336.672 123.765 -23.273 89.070 371.496 -26.039 62.974 341.868 -23.111 81.968 392.657 -25.428 350.224 103.728 -25.045 58.276 368.370 -26.469 340.073 150.072 -23.022 327.016 142.210 -23.032 355.304 138.906 -24.600 345.982 148.921 -23.723 110.433 401.683 -23.499 104.120 368.500 -23.682 179.236 331.968 -20.626 153.123 348.068 -21.209 180.215 340.499 -20.052 79.571 375.877 -26.171 376.315 142.481 -25.219 175.344 358.700 -19.771 85.920 342.036 -22.187 196.891 377.353 -17.212 354.801 167.059 -24.548 315.191 151.625 -23.250 69.990 337.084 -23.508 352.310 157.940 -24.639 178.887 348.413 -20.860 49.336 363.814 -24.893 169.781 361.950 -21.651 178.330 343.457 -20.999 344.691 157.584 -23.974 87.856 349.700 -22.169 82.167 384.649 -25.398 177.738 343.810 -21.185 60.416 404.943 -25.514 357.192 145.661 -23.937 349.990 122.983 -24.427 203.963 345.818 -18.605 67.114 355.702 -24.243 358.464 136.989 -24.252 171.854 345.085 -21.740 84.755 378.035 -25.363 166.318 368.014 -22.281 181.401 347.333 -20.763 112.716 397.944 -22.898 69.240 355.073 -25.095 166.710 315.110 -20.509 356.397 142.274 -25.250 383.124 143.621 -25.320 148.617 329.093 -20.436 99.302 364.343 -23.823 177.189 344.655 -20.368 360.744 143.703 -24.919 78.087 375.329 -26.558 90.765 390.636 -24.532 84.309 374.074 -24.812 78.892 382.539 -26.124 319.531 137.791 -21.634 183.438 346.160 -20.954 182.606 339.899 -20.791 351.405 127.891 -24.795 77.808 361.282 -24.914 111.219 356.042 -22.422 356.400 142.754 -24.689 345.843 142.843 -23.691 146.189 340.887 -21.042 383.969 136.613 -26.398 174.587 314.346 -19.821 374.880 154.267 -24.157 387.561 128.589 -25.791 180.312 330.637 -20.802 65.480 404.456 -25.425 183.612 338.726 -21.585 373.159 158.605 -24.967 111.621 370.105 -23.548 214.577 351.615 -18.039 80.510 363.881 -23.691 181.705 366.138 -21.020 342.555 133.817 -24.179 350.725 145.433 -24.147 198.421 357.072 -17.889 92.990 371.813 -25.081 373.808 132.212 -25.038 358.820 150.197 -25.225 351.404 140.236 -24.349 167.208 334.161 -21.438 78.148 364.505 -24.170 350.362 175.611 -22.569 166.277 311.971 -20.745 179.384 353.110 -19.608 358.161 143.010 -24.985 114.952 398.782 -23.334 71.296 343.710 -22.314 72.835 372.437 -26.518 352.213 143.617 -23.879 370.689 106.960 -26.808 88.340 389.108 -24.905 345.963 133.908 -23.387 370.406 156.023 -25.519 186.298 302.153 -17.334 97.607 353.367 -23.614 64.352 407.376 -24.360 165.451 344.375 -21.340 83.955 363.605 -24.309 109.628 351.086 -23.019 174.645 334.246 -20.948 358.351 144.345 -25.026 180.492 357.531 -19.606 83.838 376.088 -26.065 329.001 135.366 -22.605 366.952 138.121 -24.883 110.949 394.448 -23.176 91.725 383.833 -24.548 81.149 390.019 -25.194 320.741 146.186 -22.234 82.129 399.911 -25.666 52.169 388.620 -25.815 351.995 148.751 -24.393 177.850 326.558 -21.153 80.007 406.933 -24.400 61.278 386.593 -27.099 115.450 390.020 -24.396 158.491 351.947 -21.357 386.728 124.872 -25.657 177.635 351.560 -21.979 58.708 343.696 -23.644 344.881 103.749 -23.268 323.301 133.254 -20.592 324.877 114.297 -22.812 88.620 361.238 -24.592 156.275 323.769 -20.348 199.262 336.826 -19.353 82.545 373.766 -24.837 193.335 348.975 -20.098 66.799 367.560 -25.380 181.532 362.663 -20.717 97.174 394.167 -24.043 354.458 136.182 -24.626 168.988 363.216 -21.090 390.611 127.506 -25.666 197.040 364.147 -17.847 170.671 352.340 -20.722 84.568 378.849 -25.254 63.717 378.183 -26.726 339.371 164.352 -23.999 195.845 350.389 -18.884 116.190 381.828 -23.345 175.665 373.083 -20.600 351.074 175.691 -23.763 184.423 315.885 -18.808 68.496 402.046 -26.208 108.131 379.150 -24.125 217.784 342.521 -19.684 352.091 133.336 -24.065 81.918 389.937 -26.613 359.609 137.622 -24.073 321.189 147.924 -22.913 84.013 372.405 -25.356 367.017 106.106 -25.948 78.767 366.640 -23.782 178.270 342.632 -21.629 386.846 147.129 -25.979 374.740 115.721 -26.493 377.062 149.258 -24.859 170.088 362.883 -20.929 69.504 402.470 -26.931 143.865 358.359 -21.825 142.803 362.438 -22.632 348.985 142.390 -24.671 201.831 326.895 -19.569 178.101 377.185 -20.824 92.849 348.277 -21.667 357.938 104.457 -25.579 86.023 377.361 -26.012 64.785 364.935 -25.183 67.632 411.900 -24.818 60.763 349.539 -24.053 114.792 380.662 -23.600 99.141 369.452 -24.403 363.649 181.541 -24.344 169.613 337.279 -21.160 384.358 134.795 -26.365 364.998 152.330 -23.790 389.740 158.567 -24.638 173.997 324.884 -19.726 103.314 373.507 -23.716 185.812 371.493 -20.946 89.283 368.634 -24.846 73.404 387.334 -25.794 324.731 147.003 -23.115 212.273 331.217 -19.526 207.650 313.080 -19.229 349.547 105.318 -24.903 189.331 350.143 -19.672 104.579 388.264 -24.800 353.281 142.534 -24.934 72.594 394.776 -26.188 182.815 311.650 -17.957 180.289 344.359 -20.778 174.044 338.319 -20.288 185.599 350.778 -20.598 338.236 173.482 -23.516 93.185 341.330 -22.463 180.383 339.242 -20.972 351.261 167.643 -23.748 351.268 126.196 -25.468 90.442 354.767 -22.551 180.494 341.933 -20.964 154.273 339.448 -21.136 364.046 147.656 -25.498 197.811 343.982 -19.490 83.413 381.971 -25.967 94.447 350.225 -22.312 350.854 136.458 -23.833 81.234 355.847 -23.651 88.284 368.883 -25.178 167.127 324.904 -20.882 325.917 128.269 -23.275 351.909 123.668 -24.123 167.026 316.276 -20.451 70.785 355.376 -24.026 215.600 335.291 -18.811 205.314 331.163 -19.480 79.669 382.963 -26.184 170.109 351.783 -21.303 354.437 130.190 -24.116 62.886 365.936 -26.374 84.133 364.208 -24.009 353.907 141.747 -24.588 79.767 372.517 -25.360 175.650 309.750 -20.223 366.311 145.800 -25.297 315.974 143.398 -22.924 119.247 395.557 -23.390 170.224 357.149 -19.593 156.116 360.859 -22.375 351.316 179.320 -23.072 356.499 140.939 -24.579 217.105 349.881 -19.204 314.846 36.082 -19.646 272.651 65.327 -19.156 65.724 318.343 -20.218 29.033 380.005 -25.419 337.360 430.566 -16.988 405.309 375.239 -18.603 387.589 438.332 -19.613 216.239 297.792 -19.552 126.506 75.360 -16.069 426.514 156.262 -24.370 304.604 220.220 -21.772 0.635 486.848 -22.808 186.761 325.558 -19.816 97.796 346.377 -23.173 112.112 145.528 -18.891 469.312 181.022 -24.594 175.935 231.287 -22.755 25.581 287.531 -19.874 247.988 325.081 -19.726 420.993 6.063 -23.287 270.863 260.811 -23.291 331.838 118.223 -22.646 289.444 50.257 -19.199 473.067 14.107 -24.036 459.352 104.302 -28.483 240.892 159.851 -19.948 5.258 338.528 -22.228 419.933 44.820 -25.164 126.516 100.165 -16.446 423.471 274.490 -20.236 351.981 329.915 -18.651 408.159 254.022 -21.117 376.572 458.313 -18.282 330.239 375.573 -15.795 61.056 44.754 -19.503 109.586 338.702 -22.946 257.126 216.208 -22.323 347.713 339.014 -18.601 498.691 273.160 -16.516 310.861 262.901 -22.906 217.983 143.851 -19.038 452.734 216.401 -20.173 117.034 6.582 -19.655 365.308 121.242 -25.045 95.153 329.918 -22.062 286.263 382.027 -17.311 109.967 331.941 -21.697 407.389 323.633 -19.636 268.592 444.417 -18.721 163.664 92.879 -15.781 405.363 313.028 -19.697 251.117 225.319 -20.339 372.026 427.766 -18.714 497.785 6.121 -23.321 191.454 216.277 -25.299 430.333 476.338 -22.060 201.173 249.499 -20.187 210.883 105.397 -16.739 39.802 5.516 -21.595 152.542 62.790 -16.542 47.978 143.967 -22.936 40.813 129.293 -24.197 143.969 193.204 -23.476 499.176 359.510 -22.064 292.864 63.626 -19.812 107.656 149.615 -19.911 7.811 160.988 -22.393 300.228 144.414 -20.895 324.623 333.069 -19.338 381.671 76.946 -27.293 150.746 448.136 -18.483 302.756 26.676 -20.325 17.906 434.512 -23.546 123.447 418.761 -21.405 182.680 325.786 -19.839 189.557 327.128 -18.190 90.988 355.214 -22.831 326.040 138.557 -22.787 374.168 127.467 -24.811 361.921 181.811 -24.485 94.347 345.559 -22.306 147.912 319.521 -20.155 343.623 120.825 -23.542 355.434 140.480 -24.770 165.282 355.077 -21.715 79.678 371.643 -24.907 102.226 371.517 -24.851 60.750 373.863 -27.477 103.442 346.545 -22.381 351.771 179.831 -24.269 169.539 346.856 -21.861 83.365 344.702 -22.242 357.359 150.921 -24.464 363.247 100.482 -24.481 63.643 389.000 -25.408 50.455 353.008 -25.480 350.587 127.368 -24.248 62.076 402.660 -24.907 169.861 375.078 -21.357 368.821 123.657 -25.806 90.413 403.136 -23.115 354.299 139.138 -24.050 86.661 376.009 -25.139 82.841 377.842 -25.510 80.503 372.353 -24.845 347.683 165.096 -23.818 53.395 387.731 -26.241 175.567 343.059 -21.008 207.422 334.422 -19.354 355.205 144.240 -24.641 201.102 344.582 -19.000 95.345 392.982 -23.636 361.456 118.076 -24.517 44.238 369.637 -26.215 387.121 157.476 -24.503 61.707 351.313 -23.325 67.511 386.775 -26.078 172.669 354.869 -20.925 77.713 388.665 -26.571 64.032 389.076 -25.823 79.765 411.280 -24.266 104.388 355.104 -23.432 335.611 163.256 -24.231 174.678 336.281 -21.186 60.815 359.536 -25.731 372.776 141.261 -25.207 103.113 410.993 -21.331 344.179 143.473 -24.824 73.694 358.029 -23.933 183.810 358.002 -20.035 362.972 136.691 -25.191 154.246 340.678 -20.583 83.079 375.668 -25.438 150.868 359.599 -20.901 208.204 367.078 -16.810 347.930 161.262 -23.995 93.871 351.580 -23.053 345.130 152.062 -24.998 356.067 142.388 -25.000 173.904 370.697 -20.303 381.427 161.982 -24.850 354.603 149.514 -24.434 156.347 367.088 -22.380 166.643 347.897 -20.990 86.112 377.879 -25.459 361.470 148.813 -24.969 82.282 402.490 -25.104 354.731 122.605 -23.766 89.323 394.677 -24.716 340.044 128.144 -23.901 374.434 114.729 -26.595 361.990 141.321 -25.183 353.634 181.006 -23.327 349.125 138.593 -25.008 147.689 331.798 -20.509 347.856 148.457 -24.568 74.909 336.173 -22.502 171.412 374.192 -21.568 358.261 143.817 -25.062 70.036 387.236 -26.080 389.040 156.493 -24.411 358.316 125.248 -25.377 343.224 146.546 -23.180 342.996 152.241 -24.212 343.315 159.593 -24.537 376.094 127.842 -26.799 97.448 375.225 -24.647 54.798 364.526 -26.213 163.938 327.360 -19.984 172.625 358.108 -20.505 157.946 352.353 -21.978 177.793 346.810 -21.105 342.750 146.160 -23.483 188.293 343.690 -20.559 185.908 345.372 -20.554 188.845 336.538 -20.630 84.116 376.537 -25.670 207.683 350.485 -18.684 54.100 393.592 -25.217 325.958 135.331 -23.604 351.446 145.497 -24.152 356.050 127.807 -24.118 169.081 311.443 -20.682 65.100 351.619 -25.194 167.087 338.965 -20.898 58.864 403.469 -25.182 181.854 338.620 -20.898 210.931 358.431 -18.057
</DataArray>
</Points>
<PointData>
<DataArray type="Int32" Name="region" format="ascii">
0 0 0 0 0 0 0 0 0 0 0 0 0 0 0 0 0 0 0 0 0 0 0 0 0 0 0 0 0 0 0 0 0 0 0 0 0 0 0 0 0 0 0 0 0 0 0 0 0 0 0 0 0 0 0 0 0 0 0 0 0 0 0 0 0 0 0 0 0 0 0 0 0 0 0 0 0 0 0 0 0 0 0 0 0 0 0 0 0 0 0 0 0 0 0 0 0 0 0 0 0 0 0 0 0 0 0 0 0 0 0 0 0 0 0 0 0 0 0 0 0 0 0 0 0 0 0 0 0 0 0 0 0 0 0 0 0 0 0 0 0 0 0 0 0 0 0 0 0 0 0 0 0 0 0 0 0 0 0 0 0 0 0 0 0 0 0 0 0 0 0 0 0 0 0 0 0 0 0 0 0 0 0 0 0 0 0 0 0 0 0 0 0 0 0 0 0 0 0 0 0 0 0 0 0 0 0 0 0 0 0 0 0 0 0 0 0 0 0 0 0 0 0 0 0 0 0 0 0 0 0 0 0 0 0 0 0 0 0 0 0 0 0 0 0 0 0 0 0 0 0 0 0 0 0 0 0 0 0 0 0 0 0 0 0 0 0 0 0 0 0 0 0 0 0 0 0 0 0 0 0 0 0 0 0 0 0 0 0 0 0 0 0 0 0 0 0 0 0 0 0 0 0 0 0 0 0 0 0 0 0 0 0 0 0 0 0 0 0 0 0 0 0 0 0 0 0 0 0 0 0 0 0 0 0 0 0 0 0 0 0 0 0 0 0 0 0 0 0 0 0 0 0 0 0 0 0 0 0 0 0 0 0 0 0 0 0 0 0 0 0 0 0 0 0 0 0 0 0 0 0 0 0 0 0 0 0 0 0 0 0 0 0 0 0 0 0 0 0 0 0 0 0 0 0 0 0 0 0 0 0 0 0 0 0 0 0 0 0 0 0 0 0 0 0 0 0 0 0 0 0 0 0 0 0 0 0 0 0 0 0 0 0 0 0 0 0 0 0 0 0 0 0 0 0 0 0 0 0 0 0 0 0 0 0 0 0 0 0 0 0 0 0 0 0 0 0 0 0 0 0 0 0 0 0 0 0 0 0 0 0 0 0 0 0 0 0 0 0 0 0 0 0 0 0 0 0 0 0 0 0 0 0 0 0 0 0 0 0 0 0 0 0
</DataArray>
<DataArray type="Float32" Name="order_param" format="ascii">
0.7328 0.8382 0.8403 0.7642 0.7466 0.7109 0.8794 0.8878 0.8234 0.7801 0.7792 0.8332 0.8401 0.7848 0.8062 0.7413 0.5731 0.8168 0.7663 0.6771 0.8296 0.7618 0.7958 0.6982 0.7950 0.7463 0.8750 0.7379 0.8287 0.6448 0.8225 0.8970 0.7620 0.7992 0.7801 0.8593 0.8626 0.8095 0.8366 0.7869 0.6511 0.7768 0.7804 0.8241 0.5900 0.8097 0.8414 0.8275 0.7616 0.8266 0.8635 0.6684 0.8113 0.7810 0.6557 0.7974 0.7418 0.8067 0.7549 0.8090 0.7781 0.8355 0.7130 0.6965 0.8239 0.8086 0.7053 0.7580 0.8274 0.7731 0.7626 0.7399 0.7528 0.8387 0.6044 0.5550 0.6179 0.6534 0.8044 0.8186 0.6914 0.6181 0.8639 0.7342 0.8543 0.7363 0.7162 0.7201 0.8185 0.8061 0.7861 0.6943 0.8020 0.7182 0.8036 0.6212 0.7320 0.6516 0.6963 0.6816 0.6338 0.7385 0.8292 0.7309 0.8467 0.7344 0.6413 0.7232 0.7915 0.7873 0.8475 0.8615 0.5839 0.8307 0.7629 0.8445 0.7224 0.7176 0.7275 0.7768 0.6474 0.8222 0.6324 0.6552 0.7932 0.8066 0.6371 0.8077 0.7350 0.5867 0.5776 0.6944 0.7903 0.6834 0.7913 0.6855 0.6111 0.7458 0.7423 0.6623 0.7064 0.7011 0.7888 0.7374 0.7849 0.6679 0.8190 0.7828 0.6336 0.8079 0.8092 0.8172 0.6326 0.6997 0.8319 0.7752 0.5699 0.7264 0.6608 0.6683 0.6991 0.8247 0.6742 0.7859 0.7419 0.7934 0.7664 0.8248 0.6798 0.8102 0.8313 0.7981 0.6857 0.8272 0.8060 0.8036 0.7433 0.8336 0.6817 0.6336 0.7107 0.8440 0.7798 0.6247 0.8159 0.8402 0.8080 0.7017 0.7081 0.7909 0.7862 0.5656 0.8364 0.8207 0.6908 0.8016 0.7763 0.7827 0.8506 0.6827 0.7842 0.6272 0.6965 0.8226 0.6872 0.7751 0.5834 0.6779 0.6677 0.7149 0.7273 0.7398 0.9000 0.8008 0.6873 0.8336 0.7576 0.5770 0.8235 0.7485 0.7816 0.8015 0.7942 0.7274 0.7973 0.6368 0.7945 0.8313 0.6810 0.7489 0.7835 0.7056 0.7964 0.7146 0.7641 0.6822 0.8513 0.6152 0.7270 0.8257 0.6025 0.6500 0.6916 0.7966 0.8145 0.8920 0.7149 0.6781 0.7526 0.6991 0.6357 0.7554 0.6788 0.7256 0.5917 0.8051 0.6182 0.7528 0.7985 0.7495 0.8208 0.7148 0.6738 0.8295 0.7959 0.7758 0.8308 0.7233 0.6764 0.6653 0.5944 0.8395 0.6503 0.7381 0.7485 0.6135 0.7465 0.8247 0.7763 0.7190 0.6475 0.6625 0.6226 0.7888 0.6809 0.6864 0.6305 0.6012 0.5723 0.6767 0.7140 0.7842 0.8620 0.6413 0.7158 0.7022 0.6747 0.7803 0.7090 0.7145 0.8229 0.8357 0.6452 0.6080 0.6964 0.8355 0.8204 0.8353 0.8499 0.6013 0.7264 0.6042 0.8537 0.7989 0.7674 0.7345 0.8002 0.7507 0.7254 0.5685 0.7815 0.8661 0.8431 0.6487 0.8599 0.7709 0.8533 0.8209 0.8484 0.8004 0.7598 0.6434 0.5816 0.6771 0.7682 0.7382 0.8014 0.6987 0.8299 0.8231 0.7023 0.7371 0.7451 0.7282 0.5443 0.6973 0.6773 0.7359 0.6419 0.7417 0.6491 0.8093 0.7221 0.7559 0.6258 0.8191 0.5950 0.7960 0.5930 0.7480 0.7134 0.6907 0.6909 0.8524 0.8017 0.7506 0.8503 0.6291 0.7396 0.7953 0.6451 0.7193 0.8016 0.8044 0.8250 0.5563 0.7042 0.6715 0.8316 0.7791 0.8209 0.8081 0.7982 0.6379 0.7487 0.7494 0.8060 0.6318 0.6264 0.7089 0.6305 0.6531 0.8230 0.6766 0.7244 0.7820 0.7987 0.8165 0.7549 0.8222 0.6866 0.7987 0.8274 0.8432 0.6778 0.8499 0.7800 0.7555 0.8588 0.6198 0.7272 0.7171 0.7766 0.8330 0.8340 0.8224 0.6114 0.8569 0.7285 0.6366 0.6345 0.7573 0.8292 0.7463 0.7616 0.7969 0.8680 0.6850 0.7536 0.8309 0.7951 0.6304 0.8552 0.6824 0.7019 0.7820 0.6491 0.6506 0.6336 0.8174 0.6710 0.7995 0.6416 0.6569 0.6886 0.5887 0.6499 0.8237 0.6022 0.7545 0.7043 0.8413 0.8443 0.7469 0.7545 0.8254 0.7536 0.8528 0.8535 0.6496 0.6352 0.7709 0.7480 0.7536 0.6330 0.5691 0.8306 0.8685 0.8363 0.6316 0.7913 0.7451 0.8971 0.8167 0.8322 0.7645 0.6751 0.7259 0.6021 0.7875 0.8063 0.6681 0.7633 0.7181 0.8464 0.6654 0.5633 0.8457 0.7777 0.8225 0.8325 0.8148 0.7464 0.6534 0.6218 0.7286 0.6772 0.8193 0.6345 0.6260 0.6330 0.7891 0.5654 0.8518 0.7577 0.6733 0.8275 0.7999 0.8297 0.5955 0.7919 0.7066 0.5906 0.8130 0.8440 0.6414 0.7621 0.6598 0.8530 0.6352 0.8315 0.8376 0.7289
</DataArray>
<DataArray type="Int32" Name="in_raft" format="ascii">
0 0 0 0 0 0 0 0 0 0 0 0 0 0 0 0 0 0 0 0 0 0 0 0 0 0 0 0 0 0 0 0 0 0 0 0 0 0 0 0 0 0 0 0 0 0 0 0 0 0 0 0 0 0 0 0 0 0 0 0 0 0 0 0 0 0 0 0 0 0 0 0 0 0 0 0 0 0 0 0 0 0 0 0 0 0 0 0 0 0 0 0 0 0 0 0 0 0 0 0 0 0 0 0 0 0 0 0 0 0 0 0 0 0 0 0 0 0 0 0 0 0 0 0 0 0 0 0 0 0 0 0 0 0 0 0 0 0 0 0 0 0 0 0 0 0 0 0 0 0 0 0 0 0 0 0 0 0 0 0 0 0 0 0 0 0 0 0 0 0 0 0 0 0 0 0 0 0 0 0 0 0 0 0 0 0 0 0 0 0 0 0 0 0 0 0 0 0 0 0 0 0 0 0 0 0 0 0 0 0 0 0 0 0 0 0 0 0 0 0 0 0 0 0 0 0 0 0 0 0 0 0 0 0 0 0 0 0 0 0 0 0 0 0 0 0 0 0 0 0 0 0 0 0 0 0 0 0 0 0 0 0 0 0 0 0 0 0 0 0 0 0 0 0 0 0 0 0 0 0 0 0 0 0 0 0 0 0 0 0 0 0 0 0 0 0 0 0 0 0 0 0 0 0 0 0 0 0 0 0 0 0 0 0 0 0 0 0 0 0 0 0 0 0 0 0 0 0 0 0 0 0 0 0 0 0 0 0 0 0 0 0 0 0 0 0 0 0 0 0 0 0 0 0 0 0 0 0 0 0 0 0 0 0 0 0 0 0 0 0 0 0 0 0 0 0 0 0 0 0 0 0 0 0 0 0 0 0 0 0 0 0 0 0 0 0 0 0 0 0 0 0 0 0 0 0 0 0 0 0 0 0 0 0 0 0 0 0 0 0 0 0 0 0 0 0 0 0 0 0 0 0 0 0 0 0 0 0 0 0 0 0 0 0 0 0 0 0 0 0 0 0 0 0 0 0 0 0 0 0 0 0 0 0 0 0 0 0 0 0 0 0 0 0 0 0 0 0 0 0 0 0 0 0 0 0 0 0 0 0 0 0 0 0 0 0 0 0 0 0 0 0 0 0 0 0 0 0 0 0 0 0 0 0 0 0 0 0 0 0 0 0 0
</DataArray>
<DataArray type="Int32" Name="is_pip" format="ascii">
1 1 1 1 1 1 1 1 1 1 1 1 1 1 1 1 1 1 1 1 1 1 1 1 1 1 1 1 1 1 1 1 1 1 1 1 1 1 1 1 1 1 1 1 1 1 1 1 1 1 1 1 1 1 1 1 1 1 1 1 1 1 1 1 1 1 1 1 1 1 1 1 1 1 1 1 1 1 1 1 1 1 1 1 1 1 1 1 1 1 1 1 1 1 1 1 1 1 1 1 1 1 1 1 1 1 1 1 1 1 1 1 1 1 1 1 1 1 1 1 1 1 1 1 1 1 1 1 1 1 1 1 1 1 1 1 1 1 1 1 1 1 1 1 1 1 1 1 1 1 1 1 1 1 1 1 1 1 1 1 1 1 1 1 1 1 1 1 1 1 1 1 1 1 1 1 1 1 1 1 1 1 1 1 1 1 1 1 1 1 1 1 1 1 1 1 1 1 1 1 1 1 1 1 1 1 1 1 1 1 1 1 1 1 1 1 1 1 1 1 1 1 1 1 1 1 1 1 1 1 1 1 1 1 1 1 1 1 1 1 1 1 1 1 1 1 1 1 1 1 1 1 1 1 1 1 1 1 1 1 1 1 1 1 1 1 1 1 1 1 1 1 1 1 1 1 1 1 1 1 1 1 1 1 1 1 1 1 1 1 1 1 1 1 1 1 1 1 1 1 1 1 1 1 1 1 1 1 1 1 1 1 1 1 1 1 1 1 1 1 1 1 1 1 1 1 1 1 1 1 1 1 1 1 1 1 1 1 1 1 1 1 1 1 1 1 1 1 1 1 1 1 1 1 1 1 1 1 1 1 1 1 1 1 1 1 1 1 1 1 1 1 1 1 1 1 1 1 1 1 1 1 1 1 1 1 1 1 1 1 1 1 1 1 1 1 1 1 1 1 1 1 1 1 1 1 1 1 1 1 1 1 1 1 1 1 1 1 1 1 1 1 1 1 1 1 1 1 1 1 1 1 1 1 1 1 1 1 1 1 1 1 1 1 1 1 1 1 1 1 1 1 1 1 1 1 1 1 1 1 1 1 1 1 1 1 1 1 1 1 1 1 1 1 1 1 1 1 1 1 1 1 1 1 1 1 1 1 1 1 1 1 1 1 1 1 1 1 1 1 1 1 1 1 1 1 1 1 1 1 1 1 1 1 1 1 1 1 1 1 1 1 1
</DataArray>
<DataArray type="Int32" Name="pip_head" format="ascii">
1 1 1 1 1 1 1 1 1 1 1 1 1 1 1 1 1 1 1 1 1 1 1 1 1 1 1 1 1 1 1 1 1 1 1 1 1 1 1 1 1 1 1 1 1 1 1 1 1 1 1 1 1 1 1 1 1 1 1 1 1 1 1 1 1 1 1 1 1 1 1 1 1 1 1 1 1 1 1 1 1 1 1 1 1 1 1 1 1 1 1 1 1 1 1 1 1 1 1 1 1 1 1 1 1 1 1 1 1 1 1 1 1 1 1 1 1 1 1 1 1 1 1 1 1 1 1 1 1 1 1 1 1 1 1 1 1 1 1 1 1 1 1 1 1 1 1 1 1 1 1 1 1 1 1 1 1 1 1 1 1 1 1 1 1 1 1 1 1 1 1 1 1 1 1 1 1 1 1 1 1 1 1 1 1 1 1 1 1 1 1 1 1 1 1 1 1 1 1 1 1 1 1 1 1 1 1 1 1 1 1 1 1 1 1 1 1 1 1 1 1 1 1 1 1 1 1 1 1 1 1 1 1 1 1 1 1 1 1 1 1 1 1 1 1 1 1 1 1 1 1 1 1 1 1 1 1 1 1 1 1 1 1 1 1 1 1 1 1 1 1 1 1 1 1 1 1 1 1 1 1 1 1 1 1 1 1 1 1 1 1 1 1 1 1 1 1 1 1 1 1 1 1 1 1 1 1 1 1 1 1 1 1 1 1 1 1 1 1 1 1 1 1 1 1 1 1 1 1 1 1 1 1 1 1 1 1 1 1 1 1 1 1 1 1 1 1 1 1 1 1 1 1 1 1 1 1 1 1 1 1 1 1 1 1 1 1 1 1 1 1 1 1 1 1 1 1 1 1 1 1 1 1 1 1 1 1 1 1 1 1 1 1 1 1 1 1 1 1 1 1 1 1 1 1 1 1 1 1 1 1 1 1 1 1 1 1 1 1 1 1 1 1 1 1 1 1 1 1 1 1 1 1 1 1 1 1 1 1 1 1 1 1 1 1 1 1 1 1 1 1 1 1 1 1 1 1 1 1 1 1 1 1 1 1 1 1 1 1 1 1 1 1 1 1 1 1 1 1 1 1 1 1 1 1 1 1 1 1 1 1 1 1 1 1 1 1 1 1 1 1 1 1 1 1 1 1 1 1 1 1 1 1 1 1 1 1 1 1 1 1 1 1
</DataArray>
<DataArray type="Float32" Name="electron_density" format="ascii">
0.4900 0.4900 0.4900 0.4900 0.4900 0.4900 0.4900 0.4900 0.4900 0.4900 0.4900 0.4900 0.4900 0.4900 0.4900 0.4900 0.4900 0.4900 0.4900 0.4900 0.4900 0.4900 0.4900 0.4900 0.4900 0.4900 0.4900 0.4900 0.4900 0.4900 0.4900 0.4900 0.4900 0.4900 0.4900 0.4900 0.4900 0.4900 0.4900 0.4900 0.4900 0.4900 0.4900 0.4900 0.4900 0.4900 0.4900 0.4900 0.4900 0.4900 0.4900 0.4900 0.4900 0.4900 0.4900 0.4900 0.4900 0.4900 0.4900 0.4900 0.4900 0.4900 0.4900 0.4900 0.4900 0.4900 0.4900 0.4900 0.4900 0.4900 0.4900 0.4900 0.4900 0.4900 0.4900 0.4900 0.4900 0.4900 0.4900 0.4900 0.4900 0.4900 0.4900 0.4900 0.4900 0.4900 0.4900 0.4900 0.4900 0.4900 0.4900 0.4900 0.4900 0.4900 0.4900 0.4900 0.4900 0.4900 0.4900 0.4900 0.4900 0.4900 0.4900 0.4900 0.4900 0.4900 0.4900 0.4900 0.4900 0.4900 0.4900 0.4900 0.4900 0.4900 0.4900 0.4900 0.4900 0.4900 0.4900 0.4900 0.4900 0.4900 0.4900 0.4900 0.4900 0.4900 0.4900 0.4900 0.4900 0.4900 0.4900 0.4900 0.4900 0.4900 0.4900 0.4900 0.4900 0.4900 0.4900 0.4900 0.4900 0.4900 0.4900 0.4900 0.4900 0.4900 0.4900 0.4900 0.4900 0.4900 0.4900 0.4750 0.4750 0.4750 0.4750 0.4750 0.4750 0.4750 0.4750 0.4750 0.4750 0.4750 0.4750 0.4750 0.4750 0.4750 0.4750 0.4750 0.4750 0.4750 0.4750 0.4750 0.4750 0.4750 0.4750 0.4750 0.4750 0.4750 0.4750 0.4750 0.4750 0.4750 0.4750 0.4750 0.4750 0.4750 0.4750 0.4750 0.4750 0.4750 0.4750 0.4750 0.4750 0.4750 0.4750 0.4750 0.4750 0.4750 0.4750 0.4750 0.4750 0.4750 0.4750 0.4750 0.4750 0.4750 0.4750 0.4750 0.4750 0.4750 0.4750 0.4750 0.4750 0.4750 0.4750 0.4750 0.4750 0.4750 0.4750 0.4750 0.4750 0.4750 0.4750 0.4750 0.4750 0.4750 0.4750 0.4750 0.4750 0.4750 0.4750 0.4750 0.4750 0.4750 0.4750 0.4750 0.4750 0.4750 0.4750 0.4750 0.4750 0.4750 0.4750 0.4750 0.4750 0.4750 0.4750 0.4750 0.4750 0.4750 0.4750 0.4750 0.4750 0.4750 0.4750 0.4750 0.4760 0.4760 0.4760 0.4760 0.4760 0.4760 0.4760 0.4760 0.4760 0.4760 0.4760 0.4760 0.4760 0.4760 0.4760 0.4760 0.4760 0.4760 0.4760 0.4760 0.4760 0.4760 0.4760 0.4760 0.4760 0.4760 0.4760 0.4760 0.4760 0.4760 0.4760 0.4760 0.4760 0.4760 0.4760 0.4760 0.4760 0.4760 0.4760 0.4760 0.4760 0.4760 0.4760 0.4760 0.4760 0.4760 0.4760 0.4760 0.4760 0.4760 0.4760 0.4760 0.4760 0.4760 0.4760 0.4760 0.4760 0.4760 0.4760 0.4760 0.4760 0.4760 0.4760 0.4760 0.4760 0.4760 0.4760 0.4760 0.4760 0.4760 0.4760 0.4760 0.4760 0.4760 0.4760 0.4760 0.4760 0.4760 0.4760 0.4680 0.4680 0.4680 0.4680 0.4680 0.4680 0.4680 0.4680 0.4680 0.4680 0.4680 0.4680 0.4680 0.4680 0.4680 0.4680 0.4680 0.4680 0.4680 0.4680 0.4680 0.4680 0.4680 0.4680 0.4680 0.4680 0.4680 0.4680 0.4680 0.4680 0.4680 0.4680 0.4680 0.4680 0.4680 0.4680 0.4680 0.4680 0.4680 0.4680 0.4680 0.4680 0.4680 0.4680 0.4680 0.4680 0.4680 0.4680 0.4680 0.4680 0.4680 0.4680 0.4680 0.4680 0.4680 0.4680 0.4680 0.4680 0.4680 0.4680 0.4680 0.4680 0.4680 0.4680 0.4680 0.4680 0.4680 0.4680 0.4680 0.4680 0.4680 0.4680 0.4680 0.4680 0.4980 0.4980 0.4980 0.4980 0.4980 0.4980 0.4980 0.4980 0.4980 0.4980 0.4980 0.4980 0.4980 0.4980 0.4980 0.4980 0.4980 0.4980 0.4980 0.4980 0.4980 0.4980 0.4980 0.4980 0.4980 0.4980 0.4980 0.4980 0.4980 0.4980 0.4980 0.4980 0.4980 0.4980 0.4980 0.4980 0.4980 0.4980 0.4980 0.4980 0.4980 0.4980 0.4980 0.4980 0.4980 0.4980 0.4980 0.4980 0.4980 0.4980 0.4980 0.4980 0.4980 0.4980 0.4980 0.4980 0.4980 0.4980 0.4980 0.4980 0.4980 0.4980 0.4980 0.4980 0.4980 0.4980 0.4980 0.4980 0.4980 0.4980 0.4980 0.4980 0.4980 0.4980 0.4980 0.4980 0.4980 0.4980 0.4980 0.4980 0.4980 0.4980 0.4980 0.4980 0.4980 0.4980 0.4980 0.4980 0.4980 0.4980 0.4980 0.4980 0.4980 0.4980 0.4980 0.4980 0.4980 0.4980 0.4980 0.4980 0.4980 0.4980 0.4980 0.4980 0.4980 0.4980 0.4980 0.4980 0.4980 0.4980 0.4980 0.4980 0.4980 0.4980
</DataArray>
<DataArray type="Int32" Name="lipid_id" format="ascii">
8 8 8 8 8 8 8 8 8 8 8 8 8 8 8 8 8 8 8 8 8 8 8 8 8 8 8 8 8 8 8 8 8 8 8 8 8 8 8 8 8 8 8 8 8 8 8 8 8 8 8 8 8 8 8 8 8 8 8 8 8 8 8 8 8 8 8 8 8 8 8 8 8 8 8 8 8 8 8 8 8 8 8 8 8 8 8 8 8 8 8 8 8 8 8 8 8 8 8 8 8 8 8 8 8 8 8 8 8 8 8 8 8 8 8 8 8 8 8 8 8 8 8 8 8 8 8 8 8 8 8 8 8 8 8 8 8 8 8 8 8 8 8 8 8 8 8 8 8 8 8 4 4 4 4 4 4 4 4 4 4 4 4 4 4 4 4 4 4 4 4 4 4 4 4 4 4 4 4 4 4 4 4 4 4 4 4 4 4 4 4 4 4 4 4 4 4 4 4 4 4 4 4 4 4 4 4 4 4 4 4 4 4 4 4 4 4 4 4 4 4 4 4 4 4 4 4 4 4 4 4 4 4 4 4 4 4 4 4 4 4 4 4 4 4 4 4 4 4 4 4 4 4 4 4 4 5 5 5 5 5 5 5 5 5 5 5 5 5 5 5 5 5 5 5 5 5 5 5 5 5 5 5 5 5 5 5 5 5 5 5 5 5 5 5 5 5 5 5 5 5 5 5 5 5 5 5 5 5 5 5 5 5 5 5 5 5 5 5 5 5 5 5 5 5 5 5 5 5 5 5 5 5 5 5 3 3 3 3 3 3 3 3 3 3 3 3 3 3 3 3 3 3 3 3 3 3 3 3 3 3 3 3 3 3 3 3 3 3 3 3 3 3 3 3 3 3 3 3 3 3 3 3 3 3 3 3 3 3 3 3 3 3 3 3 3 3 3 3 3 3 3 3 3 3 3 3 3 3 9 9 9 9 9 9 9 9 9 9 9 9 9 9 9 9 9 9 9 9 9 9 9 9 9 9 9 9 9 9 9 9 9 9 9 9 9 9 9 9 9 9 9 9 9 9 9 9 9 9 9 9 9 9 9 9 9 9 9 9 9 9 9 9 9 9 9 9 9 9 9 9 9 9 9 9 9 9 9 9 9 9 9 9 9 9 9 9 9 9 9 9 9 9 9 9 9 9 9 9 9 9 9 9 9 9 9 9 9 9 9 9 9 9
</DataArray>
<DataArray type="Int32" Name="leaflet" format="ascii">
1 1 1 1 1 1 1 1 1 1 1 1 1 1 1 1 1 1 1 1 1 1 1 1 1 1 1 1 1 1 1 1 1 1 1 1 1 1 1 1 1 1 1 1 1 1 1 1 1 1 1 1 1 1 1 1 1 1 1 1 1 1 1 1 1 1 1 1 1 1 1 1 1 1 1 1 1 1 1 1 1 1 1 1 1 1 1 1 1 1 1 1 1 1 1 1 1 1 1 1 1 1 1 1 1 1 1 1 1 1 1 1 1 1 1 1 1 1 1 1 1 1 1 1 1 1 1 1 1 1 1 1 1 1 1 1 1 1 1 1 1 1 1 1 1 1 1 1 1 1 1 1 1 1 1 1 1 1 1 1 1 1 1 1 1 1 1 1 1 1 1 1 1 1 1 1 1 1 1 1 1 1 1 1 1 1 1 1 1 1 1 1 1 1 1 1 1 1 1 1 1 1 1 1 1 1 1 1 1 1 1 1 1 1 1 1 1 1 1 1 1 1 1 1 1 1 1 1 1 1 1 1 1 1 1 1 1 1 1 1 1 1 1 1 1 1 1 1 1 1 1 1 1 1 1 1 1 1 1 1 1 1 1 1 1 1 1 1 1 1 1 1 1 1 1 1 1 1 1 1 1 1 1 1 1 1 1 1 1 1 1 1 1 1 1 1 1 1 1 1 1 1 1 1 1 1 1 1 1 1 1 1 1 1 1 1 1 1 1 1 1 1 1 1 1 1 1 1 1 1 1 1 1 1 1 1 1 1 1 1 1 1 1 1 1 1 1 1 1 1 1 1 1 1 1 1 1 1 1 1 1 1 1 1 1 1 1 1 1 1 1 1 1 1 1 1 1 1 1 1 1 1 1 1 1 1 1 1 1 1 1 1 1 1 1 1 1 1 1 1 1 1 1 1 1 1 1 1 1 1 1 1 1 1 1 1 1 1 1 1 1 1 1 1 1 1 1 1 1 1 1 1 1 1 1 1 1 1 1 1 1 1 1 1 1 1 1 1 1 1 1 1 1 1 1 1 1 1 1 1 1 1 1 1 1 1 1 1 1 1 1 1 1 1 1 1 1 1 1 1 1 1 1 1 1 1 1 1 1 1 1 1 1 1 1 1 1 1 1 1 1 1 1 1 1 1 1 1 1 1 1 1 1 1 1 1 1 1 1 1 1 1 1
</DataArray>
<DataArray type="Int32" Name="phase" format="ascii">
1 1 1 1 1 1 1 1 1 1 1 1 1 1 1 1 1 1 1 1 1 1 1 1 1 1 1 1 1 1 1 1 1 1 1 1 1 1 1 1 1 1 1 1 1 1 1 1 1 1 1 1 1 1 1 1 1 1 1 1 1 1 1 1 1 1 1 1 1 1 1 1 1 1 1 1 1 1 1 1 1 1 1 1 1 1 1 1 1 1 1 1 1 1 1 1 1 1 1 1 1 1 1 1 1 1 1 1 1 1 1 1 1 1 1 1 1 1 1 1 1 1 1 1 1 1 1 1 1 1 1 1 1 1 1 1 1 1 1 1 1 1 1 1 1 1 1 1 1 1 1 1 1 1 1 1 1 1 1 1 1 1 1 1 1 1 1 1 1 1 1 1 1 1 1 1 1 1 1 1 1 1 1 1 1 1 1 1 1 1 1 1 1 1 1 1 1 1 1 1 1 1 1 1 1 1 1 1 1 1 1 1 1 1 1 1 1 1 1 1 1 1 1 1 1 1 1 1 1 1 1 1 1 1 1 1 1 1 1 1 1 1 1 1 1 1 1 1 1 1 1 1 1 1 1 1 1 1 1 1 1 1 1 1 1 1 1 1 1 1 1 1 1 1 1 1 1 1 1 1 1 1 1 1 1 1 1 1 1 1 1 1 1 1 1 1 1 1 1 1 1 1 1 1 1 1 1 1 1 1 1 1 1 1 1 1 1 1 1 1 1 1 1 1 1 1 1 1 1 1 1 1 1 1 1 1 1 1 1 1 1 1 1 1 1 1 1 1 1 1 1 1 1 1 1 1 1 1 1 1 1 1 1 1 1 1 1 1 1 1 1 1 1 1 1 1 1 1 1 1 1 1 1 1 1 1 1 1 1 1 1 1 1 1 1 1 1 1 1 1 1 1 1 1 1 1 1 1 1 1 1 1 1 1 1 1 1 1 1 1 1 1 1 1 1 1 1 1 1 1 1 1 1 1 1 1 1 1 1 1 1 1 1 1 1 1 1 1 1 1 1 1 1 1 1 1 1 1 1 1 1 1 1 1 1 1 1 1 1 1 1 1 1 1 1 1 1 1 1 1 1 1 1 1 1 1 1 1 1 1 1 1 1 1 1 1 1 1 1 1 1 1 1 1 1 1 1 1 1 1 1 1 1 1 1 1 1 1 1 1 1 1 1
</DataArray>
<DataArray type="Int32" Name="n_doublebonds" format="ascii">
4 4 4 4 4 4 4 4 4 4 4 4 4 4 4 4 4 4 4 4 4 4 4 4 4 4 4 4 4 4 4 4 4 4 4 4 4 4 4 4 4 4 4 4 4 4 4 4 4 4 4 4 4 4 4 4 4 4 4 4 4 4 4 4 4 4 4 4 4 4 4 4 4 4 4 4 4 4 4 4 4 4 4 4 4 4 4 4 4 4 4 4 4 4 4 4 4 4 4 4 4 4 4 4 4 4 4 4 4 4 4 4 4 4 4 4 4 4 4 4 4 4 4 4 4 4 4 4 4 4 4 4 4 4 4 4 4 4 4 4 4 4 4 4 4 4 4 4 4 4 4 4 4 4 4 4 4 4 4 4 4 4 4 4 4 4 4 4 4 4 4 4 4 4 4 4 4 4 4 4 4 4 4 4 4 4 4 4 4 4 4 4 4 4 4 4 4 4 4 4 4 4 4 4 4 4 4 4 4 4 4 4 4 4 4 4 4 4 4 4 4 4 4 4 4 4 4 4 4 4 4 4 4 4 4 4 4 4 4 4 4 4 4 4 4 4 4 4 4 4 4 4 4 4 4 4 4 4 4 4 4 4 4 4 4 4 4 4 4 4 4 4 4 4 4 4 4 4 4 4 4 4 4 4 4 4 4 4 4 4 4 4 4 4 4 4 4 4 4 4 4 4 4 4 4 4 4 4 4 4 4 4 4 4 4 4 4 4 4 4 4 4 4 4 4 4 4 4 4 4 4 4 4 4 4 4 4 4 4 4 4 4 4 4 4 4 4 4 4 4 4 4 4 4 4 4 4 4 4 4 4 4 4 4 4 4 4 4 4 4 4 4 4 4 4 4 4 4 4 4 4 4 4 4 4 4 4 4 4 4 4 4 4 4 4 4 4 4 4 4 4 4 4 4 4 4 4 4 4 4 4 4 4 4 4 4 4 4 4 4 4 4 4 4 4 4 4 4 4 4 4 4 4 4 4 4 4 4 4 4 4 4 4 4 4 4 4 4 4 4 4 4 4 4 4 4 4 4 4 4 4 4 4 4 4 4 4 4 4 4 4 4 4 4 4 4 4 4 4 4 4 4 4 4 4 4 4 4 4 4 4 4 4 4 4 4 4 4 4 4 4 4 4 4 4 4 4 4 4 4 4 4 4 4 4 4 4 4 4 4 4 4 4
</DataArray>
</PointData>
</Piece>
</PolyData>
</VTKFile>
