<?xml version="1.0"?>
<VTKFile type="PolyData" version="0.1" byte_order="LittleEndian">
<PolyData>
<Piece NumberOfPoints="418" NumberOfVerts="0" NumberOfLines="0" NumberOfStrips="0" NumberOfPolys="0">
<Points>
<DataArray type="Float32" NumberOfComponents="3" format="ascii">
331.848 212.329 -24.247 321.828 191.588 -24.250 319.808 188.399 -23.148 330.101 238.166 -21.664 339.619 220.243 -22.825 183.437 343.574 -17.002 332.338 184.662 -22.349 338.882 171.249 -23.426 329.883 202.109 -23.975 215.758 328.199 -18.182 216.409 389.878 -15.722 364.639 161.975 -20.975 357.649 193.694 -24.177 365.271 188.509 -24.556 195.089 363.884 -15.341 360.354 187.364 -22.643 350.431 204.234 -24.086 351.763 201.644 -23.159 391.037 193.481 -24.211 200.649 353.457 -16.649 364.742 190.871 -24.051 354.002 225.330 -24.110 341.258 238.056 -22.196 175.556 363.780 -16.292 354.055 217.025 -24.652 335.512 234.486 -21.746 377.183 197.783 -25.041 348.696 206.357 -23.881 325.751 202.058 -24.086 205.463 341.377 -18.705 202.178 355.276 -16.309 359.388 237.573 -23.251 326.507 193.057 -23.946 374.447 198.253 -24.438 351.827 196.559 -23.624 219.289 359.310 -16.765 347.793 193.070 -24.161 210.964 333.759 -19.372 333.554 190.896 -23.897 189.199 360.812 -15.705 371.309 183.093 -24.050 314.201 200.651 -23.841 326.987 220.181 -23.333 354.630 228.023 -23.144 319.224 202.439 -22.834 371.635 238.722 -23.932 355.411 200.783 -23.882 375.931 198.225 -24.372 177.169 343.784 -16.193 228.148 337.555 -17.871 213.833 350.061 -16.894 349.162 203.477 -24.135 355.584 207.555 -23.853 366.919 202.401 -23.869 204.589 353.620 -16.984 198.797 366.586 -15.675 374.872 181.476 -23.935 227.744 350.573 -17.167 238.139 365.332 -15.998 341.050 163.044 -22.320 202.303 355.486 -16.372 373.715 221.721 -24.041 192.238 355.749 -15.712 200.069 371.188 -14.234 348.798 225.109 -23.895 179.912 354.587 -15.808 374.486 229.912 -23.068 317.532 199.639 -24.020 372.313 214.290 -24.260 373.915 203.346 -24.660 190.669 361.547 -15.663 349.908 205.407 -23.715 336.248 176.874 -23.088 331.378 165.385 -20.719 347.704 210.118 -23.303 219.978 340.029 -17.824 369.865 188.468 -24.070 356.327 207.635 -23.241 330.566 184.239 -23.222 202.579 350.495 -17.133 327.699 203.479 -23.947 211.228 329.947 -18.553 336.059 162.251 -20.332 325.291 185.512 -22.777 343.296 218.901 -23.089 343.370 244.617 -21.166 368.201 208.338 -24.223 198.264 353.250 -16.754 351.460 199.087 -24.229 242.547 341.526 -19.207 166.516 365.724 -14.698 381.003 206.069 -23.708 350.653 207.868 -23.033 178.953 376.809 -15.230 338.676 218.546 -23.095 372.974 186.532 -24.205 361.570 207.502 -23.827 192.855 352.827 -16.649 344.627 174.425 -21.847 346.933 192.723 -24.022 355.529 189.349 -24.066 315.746 205.355 -22.985 202.607 352.017 -16.212 197.802 347.144 -17.408 347.876 215.199 -22.890 379.898 229.518 -24.567 372.910 183.368 -24.218 369.870 216.304 -24.658 195.419 355.710 -17.199 373.185 184.894 -24.702 359.261 203.604 -24.245 357.245 219.954 -23.425 352.442 176.278 -21.955 351.540 202.421 -23.923 205.900 318.465 -17.375 321.261 188.264 -22.492 198.839 333.669 -18.233 338.377 177.962 -22.265 186.542 326.735 -16.954 349.847 215.319 -23.377 184.126 357.029 -15.654 354.831 185.782 -22.222 225.713 375.325 -14.865 197.803 350.133 -17.504 333.164 226.407 -22.683 329.950 205.169 -23.911 323.500 231.107 -22.567 357.214 208.154 -23.041 321.484 181.761 -21.739 214.987 349.903 -18.044 219.550 349.631 -15.875 356.379 207.071 -23.690 360.762 181.645 -23.237 364.723 207.777 -24.242 313.958 205.825 -23.119 355.324 211.988 -23.745 338.431 209.252 -23.060 375.421 184.816 -24.145 215.316 315.617 -18.657 354.345 208.935 -23.946 369.936 190.873 -24.590 382.203 209.100 -24.461 324.538 220.138 -22.555 355.314 213.645 -24.201 334.159 175.012 -22.881 362.494 180.382 -23.872 324.694 181.682 -23.817 223.512 385.275 -15.230 351.983 201.080 -24.006 363.283 234.680 -23.733 195.314 366.558 -15.964 314.943 196.698 -21.961 175.942 345.681 -15.455 237.981 339.765 -18.450 355.994 195.676 -23.003 353.472 170.177 -22.186 335.396 234.383 -21.799 326.942 207.337 -24.032 355.130 205.540 -23.948 353.653 199.762 -23.058 220.808 363.520 -16.077 351.485 202.788 -23.932 169.222 344.254 -16.561 181.083 347.711 -15.203 384.355 187.453 -24.180 381.432 190.875 -24.390 352.128 222.839 -23.536 334.895 174.887 -21.627 238.010 365.796 -16.662 342.711 213.219 -23.102 351.935 203.070 -24.099 195.723 347.625 -17.241 377.126 208.555 -24.326 180.092 326.687 -17.039 364.600 213.588 -24.973 194.396 347.339 -17.534 178.529 382.011 -15.369 377.144 211.079 -24.034 203.534 351.478 -17.436 314.229 214.436 -22.749 328.571 200.019 -24.677 319.620 176.381 -21.586 359.544 178.915 -23.853 371.490 201.077 -24.909 356.188 215.228 -24.211 374.328 192.661 -24.086 209.978 365.784 -17.171 363.785 173.445 -22.493 206.307 348.581 -17.128 354.688 208.640 -24.429 186.033 329.200 -17.162 321.367 191.555 -22.097 353.941 193.764 -22.364 359.415 202.556 -23.658 205.946 354.054 -16.040 324.848 208.636 -24.229 374.219 191.026 -24.000 329.531 170.706 -21.442 363.535 169.117 -21.787 202.521 356.663 -16.533 207.599 353.204 -16.085 354.494 185.997 -22.525 374.225 191.173 -23.819 337.204 232.166 -23.279 320.138 227.806 -21.922 347.815 213.515 -22.853 357.675 210.329 -24.281 358.668 209.674 -24.407 371.290 207.876 -25.382 210.735 356.924 -17.063 313.764 221.171 -22.406 186.015 352.387 -16.230 205.925 355.887 -18.079 203.704 344.736 -16.207 207.141 349.917 -18.264 321.700 177.387 -22.519 337.897 216.489 -22.545 361.425 237.583 -22.388 201.516 351.161 -16.967 169.472 340.343 -17.782 193.538 349.893 -17.289 356.299 206.109 -23.783 194.822 346.744 -17.330 328.810 195.921 -23.095 347.813 212.299 -23.582 361.310 218.870 -23.682 197.214 328.356 -17.193 356.646 216.546 -24.081 358.908 185.999 -23.812 365.999 192.968 -24.147 357.125 237.182 -22.860 364.162 190.571 -24.102 210.391 334.329 -17.910 205.184 311.945 -17.493 201.931 343.333 -18.224 366.624 171.908 -23.670 200.049 344.616 -17.819 318.838 208.463 -24.058 360.705 165.544 -21.908 338.825 224.972 -22.124 352.269 202.858 -24.605 195.711 353.134 -16.878 232.204 380.695 -14.790 383.045 202.726 -24.589 322.135 211.985 -23.740 210.878 362.895 -16.624 344.473 216.935 -23.406 361.354 207.815 -24.476 393.198 203.557 -26.207 333.386 205.996 -23.038 206.408 354.005 -16.395 351.784 180.036 -21.958 360.544 172.508 -22.254 170.737 353.534 -15.444 210.921 350.734 -17.468 201.147 313.132 -17.652 214.249 341.806 -17.277 365.937 219.912 -23.851 358.136 191.737 -23.197 383.844 187.898 -24.736 324.855 206.326 -24.577 313.735 208.366 -23.334 345.335 195.764 -23.034 369.558 208.233 -23.789 323.991 208.469 -23.576 354.900 195.612 -23.148 375.507 217.925 -23.777 369.029 210.036 -24.084 226.472 347.427 -16.873 324.032 214.061 -23.771 348.586 225.860 -23.855 212.278 387.214 -14.845 223.497 324.931 -18.649 200.427 353.464 -15.790 343.087 216.804 -23.462 192.214 331.758 -16.851 381.097 192.203 -23.560 199.484 350.406 -16.763 357.277 207.974 -23.768 349.578 214.858 -23.614 197.665 347.761 -17.247 352.801 206.618 -24.257 206.165 357.016 -16.465 176.147 328.966 -17.790 368.429 221.727 -24.434 371.759 211.328 -24.335 334.988 208.888 -23.071 200.642 329.141 -18.266 360.379 213.433 -24.234 326.747 202.103 -22.971 389.924 214.797 -25.289 356.992 186.774 -23.379 359.976 206.053 -24.547 323.552 213.710 -23.677 360.052 188.740 -23.305 348.930 218.195 -23.692 212.208 348.489 -17.489 363.704 194.268 -23.510 209.950 383.172 -14.481 214.045 355.800 -16.228 187.666 360.313 -15.987 343.371 228.562 -22.192 360.894 188.328 -23.813 362.790 206.291 -24.080 173.376 346.095 -16.890 240.432 346.766 -16.549 212.195 332.329 -18.106 330.069 188.300 -23.232 319.572 194.915 -23.268 232.168 356.467 -15.289 360.624 198.826 -24.105 190.952 385.450 -15.660 206.229 370.708 -15.165 214.427 350.145 -18.121 202.653 340.879 -17.767 363.299 177.298 -23.708 332.227 173.803 -22.240 202.762 378.084 -14.439 349.620 217.039 -22.965 204.981 352.468 -16.221 196.418 347.306 -16.885 203.018 371.931 -15.348 365.960 213.145 -23.070 361.136 210.575 -23.965 369.806 211.354 -24.746 362.122 210.270 -24.211 308.043 199.700 -23.053 339.489 177.067 -22.729 319.159 217.161 -22.996 189.430 324.957 -18.138 184.788 364.569 -16.184 358.888 208.554 -23.392 237.741 369.918 -14.664 389.813 205.070 -26.006 226.435 361.552 -15.647 357.509 204.821 -23.938 208.173 355.036 -17.249 362.504 220.659 -23.577 354.766 193.194 -22.777 318.190 207.457 -24.213 358.133 247.485 -21.958 378.889 178.090 -23.521 356.770 185.920 -23.546 219.840 350.975 -15.896 344.951 170.943 -22.113 212.958 356.384 -16.273 325.532 217.915 -23.316 352.280 194.212 -23.447 202.991 355.629 -15.721 328.960 189.341 -23.041 324.590 214.335 -24.216 346.239 209.894 -24.173 368.567 203.993 -23.868 377.952 232.654 -24.573 351.737 207.674 -22.761 221.163 317.795 -18.180 224.719 361.447 -15.811 351.401 246.449 -23.315 233.921 376.020 -15.088 218.005 347.899 -17.095 374.084 207.807 -24.801 342.631 235.128 -22.240 202.399 316.040 -18.022 209.351 358.358 -16.898 369.567 176.480 -23.736 348.481 205.330 -24.302 188.445 351.944 -16.191 351.927 213.639 -23.162 326.722 209.778 -23.735 372.851 207.486 -24.441 181.555 341.366 -16.825 332.569 183.556 -23.090 213.944 352.181 -17.165 363.853 217.562 -24.697 356.015 207.069 -23.821 232.927 374.582 -15.687 336.310 237.906 -23.262 202.823 373.413 -15.588 339.036 219.462 -23.766 356.096 207.365 -24.553 345.142 208.337 -22.480 202.575 364.404 -15.706 203.408 359.562 -16.037 233.770 348.581 -16.100 202.037 354.791 -16.618 204.983 353.344 -16.808 347.800 209.177 -22.743 204.282 346.635 -18.254 354.422 211.333 -23.398 355.254 233.704 -23.054 343.966 211.266 -23.906 187.340 353.546 -15.850 328.748 201.398 -24.069 346.839 205.133 -23.733 332.820 236.802 -21.102 355.947 228.236 -22.860 355.319 213.748 -23.988 354.512 212.301 -23.519 215.781 366.864 -16.538 379.843 202.306 -25.070 220.353 339.150 -17.666 233.141 364.470 -15.690 322.189 206.072 -24.383 205.495 352.253 -18.418 313.318 216.628 -24.463 313.824 192.282 -23.517 356.398 199.994 -24.621 184.036 322.771 -17.925 218.045 349.799 -17.518 377.403 205.687 -24.623 346.943 215.998 -23.439 327.155 191.288 -23.573 343.042 226.870 -23.041 336.579 210.206 -23.362 319.140 203.087 -23.198 223.237 322.313 -17.314 193.111 349.955 -16.405 379.003 177.577 -23.369
</DataArray>
</Points>
<PointData>
<DataArray type="Int32" Name="region" format="ascii">
0 0 0 0 0 0 0 0 0 0 0 0 0 0 0 0 0 0 0 0 0 0 0 0 0 0 0 0 0 0 0 0 0 0 0 0 0 0 0 0 0 0 0 0 0 0 0 0 0 0 0 0 0 0 0 0 0 0 0 0 0 0 0 0 0 0 0 0 0 0 0 0 0 0 0 0 0 0 0 0 0 0 0 0 0 0 0 0 0 0 0 0 0 0 0 0 0 0 0 0 0 0 0 0 0 0 0 0 0 0 0 0 0 0 0 0 0 0 0 0 0 0 0 0 0 0 0 0 0 0 0 0 0 0 0 0 0 0 0 0 0 0 0 0 0 0 0 0 0 0 0 0 0 0 0 0 0 0 0 0 0 0 0 0 0 0 0 0 0 0 0 0 0 0 0 0 0 0 0 0 0 0 0 0 0 0 0 0 0 0 0 0 0 0 0 0 0 0 0 0 0 0 0 0 0 0 0 0 0 0 0 0 0 0 0 0 0 0 0 0 0 0 0 0 0 0 0 0 0 0 0 0 0 0 0 0 0 0 0 0 0 0 0 0 0 0 0 0 0 0 0 0 0 0 0 0 0 0 0 0 0 0 0 0 0 0 0 0 0 0 0 0 0 0 0 0 0 0 0 0 0 0 0 0 0 0 0 0 0 0 0 0 0 0 0 0 0 0 0 0 0 0 0 0 0 0 0 0 0 0 0 0 0 0 0 0 0 0 0 0 0 0 0 0 0 0 0 0 0 0 0 0 0 0 0 0 0 0 0 0 0 0 0 0 0 0 0 0 0 0 0 0 0 0 0 0 0 0 0 0 0 0 0 0 0 0 0 0 0 0 0 0 0 0 0 0 0 0 0 0 0 0 0 0 0 0 0 0 0 0 0 0 0 0 0 0 0 0 0 0 0 0 0 0 0 0 0 0 0 0 0 0 0 0 0 0 0 0
</DataArray>
<DataArray type="Float32" Name="order_param" format="ascii">
0.8012 0.7081 0.7714 0.7938 0.7111 0.8098 0.6349 0.8077 0.8206 0.6209 0.7686 0.6237 0.7754 0.6506 0.8178 0.5558 0.8595 0.7029 0.8228 0.7920 0.6625 0.6518 0.7906 0.8401 0.8086 0.7982 0.8064 0.8469 0.5805 0.8482 0.6270 0.6090 0.7939 0.6726 0.7269 0.8690 0.6889 0.7931 0.5948 0.5929 0.7867 0.8216 0.6792 0.6996 0.7264 0.7684 0.8260 0.8020 0.8127 0.6277 0.7781 0.7725 0.6499 0.7387 0.6147 0.8147 0.8349 0.8160 0.5541 0.7242 0.6469 0.8356 0.8527 0.6447 0.6817 0.8767 0.8164 0.6593 0.7695 0.6803 0.7608 0.8616 0.7765 0.6705 0.7520 0.6042 0.6348 0.7166 0.8066 0.7978 0.6174 0.8472 0.7793 0.6433 0.7431 0.7104 0.7838 0.7812 0.8328 0.6456 0.5787 0.7241 0.8021 0.8582 0.6874 0.7432 0.7098 0.8036 0.7727 0.7776 0.8409 0.7877 0.7464 0.8350 0.5971 0.7031 0.7097 0.7644 0.7983 0.7353 0.6729 0.6773 0.7692 0.7805 0.8303 0.8203 0.6295 0.5419 0.6538 0.6138 0.8173 0.8206 0.8373 0.8120 0.8338 0.7655 0.7771 0.6849 0.8690 0.7574 0.6908 0.6894 0.6594 0.7755 0.7833 0.7313 0.7805 0.7908 0.6165 0.7544 0.8003 0.8441 0.7762 0.6904 0.7945 0.6914 0.7203 0.7563 0.7759 0.7911 0.7959 0.6795 0.6745 0.7590 0.7373 0.8036 0.8409 0.6993 0.6777 0.7750 0.6751 0.7903 0.8355 0.6643 0.6466 0.7892 0.7056 0.6541 0.7499 0.6411 0.8571 0.8740 0.6978 0.7969 0.6844 0.6729 0.8243 0.6076 0.6992 0.7935 0.6606 0.7484 0.6324 0.8238 0.8335 0.8304 0.8489 0.8682 0.6645 0.8373 0.6972 0.7066 0.7868 0.5942 0.6407 0.8498 0.8390 0.6252 0.8101 0.6045 0.7998 0.7078 0.7153 0.7160 0.5954 0.8655 0.8097 0.8234 0.8178 0.8540 0.6844 0.8043 0.8185 0.8199 0.7567 0.8465 0.8826 0.6558 0.8388 0.6955 0.7345 0.7103 0.7022 0.5681 0.8761 0.6680 0.7600 0.6618 0.7741 0.7669 0.8240 0.7565 0.7299 0.8518 0.6951 0.8496 0.7378 0.8272 0.8615 0.7168 0.7019 0.8560 0.6368 0.7849 0.8571 0.8260 0.7875 0.7718 0.6446 0.8136 0.7008 0.8444 0.6241 0.7991 0.8180 0.8554 0.7749 0.6806 0.8567 0.7281 0.8118 0.7659 0.8374 0.7975 0.6702 0.7269 0.5055 0.8475 0.8421 0.7111 0.6305 0.7913 0.6891 0.7876 0.7339 0.5505 0.8251 0.7016 0.7974 0.8418 0.6318 0.8076 0.5682 0.8150 0.7762 0.7462 0.8351 0.8180 0.8807 0.6812 0.6708 0.8219 0.7553 0.8556 0.7815 0.7180 0.7835 0.8652 0.8452 0.8293 0.6655 0.6137 0.8130 0.7936 0.8121 0.7560 0.7731 0.7861 0.6658 0.7464 0.6927 0.7879 0.8310 0.8660 0.6345 0.8285 0.7002 0.6095 0.6963 0.5983 0.7625 0.8424 0.7452 0.8150 0.6558 0.8359 0.6957 0.5006 0.8507 0.6733 0.8377 0.8446 0.7781 0.8161 0.7491 0.7849 0.8521 0.8062 0.7967 0.6670 0.6337 0.6339 0.8416 0.7838 0.5822 0.8423 0.7724 0.7075 0.6288 0.7921 0.7115 0.7963 0.8145 0.8240 0.6980 0.8777 0.7689 0.7007 0.5265 0.7929 0.6311 0.8043 0.6681 0.5834 0.7875 0.7486 0.7924 0.5996 0.8052 0.6525 0.6650 0.7356 0.6927 0.8261 0.7604 0.8150 0.7849 0.6791 0.8288 0.5843 0.8339 0.7941 0.8287 0.6012 0.6752 0.6840 0.8310 0.6008 0.6717 0.8265 0.7522 0.8318 0.8028 0.6134 0.5969 0.7487 0.6234 0.8098 0.6514 0.8146 0.7520 0.8491 0.5699 0.7968 0.7100 0.7225 0.5702 0.7503 0.7763 0.7560 0.6015 0.6554 0.7265 0.7955 0.8402 0.7068 0.7279 0.6305
</DataArray>
<DataArray type="Int32" Name="in_raft" format="ascii">
0 0 0 0 0 0 0 0 0 0 0 0 0 0 0 0 0 0 0 0 0 0 0 0 0 0 0 0 0 0 0 0 0 0 0 0 0 0 0 0 0 0 0 0 0 0 0 0 0 0 0 0 0 0 0 0 0 0 0 0 0 0 0 0 0 0 0 0 0 0 0 0 0 0 0 0 0 0 0 0 0 0 0 0 0 0 0 0 0 0 0 0 0 0 0 0 0 0 0 0 0 0 0 0 0 0 0 0 0 0 0 0 0 0 0 0 0 0 0 0 0 0 0 0 0 0 0 0 0 0 0 0 0 0 0 0 0 0 0 0 0 0 0 0 0 0 0 0 0 0 0 0 0 0 0 0 0 0 0 0 0 0 0 0 0 0 0 0 0 0 0 0 0 0 0 0 0 0 0 0 0 0 0 0 0 0 0 0 0 0 0 0 0 0 0 0 0 0 0 0 0 0 0 0 0 0 0 0 0 0 0 0 0 0 0 0 0 0 0 0 0 0 0 0 0 0 0 0 0 0 0 0 0 0 0 0 0 0 0 0 0 0 0 0 0 0 0 0 0 0 0 0 0 0 0 0 0 0 0 0 0 0 0 0 0 0 0 0 0 0 0 0 0 0 0 0 0 0 0 0 0 0 0 0 0 0 0 0 0 0 0 0 0 0 0 0 0 0 0 0 0 0 0 0 0 0 0 0 0 0 0 0 0 0 0 0 0 0 0 0 0 0 0 0 0 0 0 0 0 0 0 0 0 0 0 0 0 0 0 0 0 0 0 0 0 0 0 0 0 0 0 0 0 0 0 0 0 0 0 0 0 0 0 0 0 0 0 0 0 0 0 0 0 0 0 0 0 0 0 0 0 0 0 0 0 0 0 0 0 0 0 0 0 0 0 0 0 0 0 0 0 0 0 0 0 0 0 0 0 0 0 0 0 0 0 0 0 0
</DataArray>
<DataArray type="Int32" Name="is_pip" format="ascii">
1 1 1 1 1 1 1 1 1 1 1 1 1 1 1 1 1 1 1 1 1 1 1 1 1 1 1 1 1 1 1 1 1 1 1 1 1 1 1 1 1 1 1 1 1 1 1 1 1 1 1 1 1 1 1 1 1 1 1 1 1 1 1 1 1 1 1 1 1 1 1 1 1 1 1 1 1 1 1 1 1 1 1 1 1 1 1 1 1 1 1 1 1 1 1 1 1 1 1 1 1 1 1 1 1 1 1 1 1 1 1 1 1 1 1 1 1 1 1 1 1 1 1 1 1 1 1 1 1 1 1 1 1 1 1 1 1 1 1 1 1 1 1 1 1 1 1 1 1 1 1 1 1 1 1 1 1 1 1 1 1 1 1 1 1 1 1 1 1 1 1 1 1 1 1 1 1 1 1 1 1 1 1 1 1 1 1 1 1 1 1 1 1 1 1 1 1 1 1 1 1 1 1 1 1 1 1 1 1 1 1 1 1 1 1 1 1 1 1 1 1 1 1 1 1 1 1 1 1 1 1 1 1 1 1 1 1 1 1 1 1 1 1 1 1 1 1 1 1 1 1 1 1 1 1 1 1 1 1 1 1 1 1 1 1 1 1 1 1 1 1 1 1 1 1 1 1 1 1 1 1 1 1 1 1 1 1 1 1 1 1 1 1 1 1 1 1 1 1 1 1 1 1 1 1 1 1 1 1 1 1 1 1 1 1 1 1 1 1 1 1 1 1 1 1 1 1 1 1 1 1 1 1 1 1 1 1 1 1 1 1 1 1 1 1 1 1 1 1 1 1 1 1 1 1 1 1 1 1 1 1 1 1 1 1 1 1 1 1 1 1 1 1 1 1 1 1 1 1 1 1 1 1 1 1 1 1 1 1 1 1 1 1 1 1 1 1 1 1 1 1 1 1 1 1 1 1 1 1 1 1 1 1 1 1 1 1 1
</DataArray>
<DataArray type="Int32" Name="pip_head" format="ascii">
1 1 1 1 1 1 1 1 1 1 1 1 1 1 1 1 1 1 1 1 1 1 1 1 1 1 1 1 1 1 1 1 1 1 1 1 1 1 1 1 1 1 1 1 1 1 1 1 1 1 1 1 1 1 1 1 1 1 1 1 1 1 1 1 1 1 1 1 1 1 1 1 1 1 1 1 1 1 1 1 1 1 1 1 1 1 1 1 1 1 1 1 1 1 1 1 1 1 1 1 1 1 1 1 1 1 1 1 1 1 1 1 1 1 1 1 1 1 1 1 1 1 1 1 1 1 1 1 1 1 1 1 1 1 1 1 1 1 1 1 1 1 1 1 1 1 1 1 1 1 1 1 1 1 1 1 1 1 1 1 1 1 1 1 1 1 1 1 1 1 1 1 1 1 1 1 1 1 1 1 1 1 1 1 1 1 1 1 1 1 1 1 1 1 1 1 1 1 1 1 1 1 1 1 1 1 1 1 1 1 1 1 1 1 1 1 1 1 1 1 1 1 1 1 1 1 1 1 1 1 1 1 1 1 1 1 1 1 1 1 1 1 1 1 1 1 1 1 1 1 1 1 1 1 1 1 1 1 1 1 1 1 1 1 1 1 1 1 1 1 1 1 1 1 1 1 1 1 1 1 1 1 1 1 1 1 1 1 1 1 1 1 1 1 1 1 1 1 1 1 1 1 1 1 1 1 1 1 1 1 1 1 1 1 1 1 1 1 1 1 1 1 1 1 1 1 1 1 1 1 1 1 1 1 1 1 1 1 1 1 1 1 1 1 1 1 1 1 1 1 1 1 1 1 1 1 1 1 1 1 1 1 1 1 1 1 1 1 1 1 1 1 1 1 1 1 1 1 1 1 1 1 1 1 1 1 1 1 1 1 1 1 1 1 1 1 1 1 1 1 1 1 1 1 1 1 1 1 1 1 1 1 1 1 1 1 1 1
</DataArray>
<DataArray type="Float32" Name="electron_density" format="ascii">
0.4900 0.4900 0.4900 0.4900 0.4900 0.4900 0.4900 0.4900 0.4900 0.4900 0.4900 0.4900 0.4900 0.4900 0.4900 0.4900 0.4900 0.4900 0.4900 0.4900 0.4900 0.4900 0.4900 0.4900 0.4900 0.4900 0.4900 0.4900 0.4900 0.4900 0.4900 0.4900 0.4900 0.4900 0.4900 0.4900 0.4900 0.4900 0.4900 0.4900 0.4900 0.4900 0.4900 0.4900 0.4900 0.4900 0.4900 0.4900 0.4900 0.4900 0.4900 0.4900 0.4900 0.4900 0.4900 0.4900 0.4900 0.4900 0.4900 0.4900 0.4900 0.4900 0.4900 0.4900 0.4900 0.4900 0.4900 0.4900 0.4900 0.4900 0.4900 0.4900 0.4900 0.4900 0.4900 0.4900 0.4900 0.4900 0.4900 0.4900 0.4900 0.4900 0.4900 0.4900 0.4900 0.4900 0.4900 0.4900 0.4900 0.4900 0.4900 0.4900 0.4900 0.4900 0.4900 0.4900 0.4900 0.4900 0.4900 0.4900 0.4900 0.4900 0.4900 0.4900 0.4900 0.4900 0.4900 0.4900 0.4900 0.4900 0.4900 0.4900 0.4900 0.4900 0.4900 0.4900 0.4900 0.4900 0.4900 0.4900 0.4900 0.4900 0.4900 0.4900 0.4900 0.4900 0.4900 0.4900 0.4900 0.4900 0.4900 0.4900 0.4900 0.4900 0.4900 0.4900 0.4900 0.4900 0.4900 0.4900 0.4900 0.4900 0.4900 0.4900 0.4900 0.4900 0.4900 0.4900 0.4900 0.4900 0.4900 0.4900 0.4900 0.4900 0.4900 0.4900 0.4900 0.4900 0.4900 0.4900 0.4900 0.4900 0.4900 0.4900 0.4900 0.4900 0.4900 0.4900 0.4900 0.4900 0.4900 0.4900 0.4900 0.4900 0.4900 0.4900 0.4900 0.4900 0.4900 0.4900 0.4900 0.4900 0.4900 0.4900 0.4900 0.4900 0.4900 0.4900 0.4900 0.4900 0.4900 0.4900 0.4900 0.4900 0.4900 0.4900 0.4900 0.4900 0.4900 0.4900 0.4900 0.4900 0.4900 0.4900 0.4900 0.4900 0.4900 0.4900 0.4900 0.4900 0.4900 0.4900 0.4900 0.4900 0.4900 0.4900 0.4900 0.4900 0.4900 0.4900 0.4900 0.4900 0.4900 0.4900 0.4900 0.4900 0.4900 0.4900 0.4900 0.4900 0.4900 0.4900 0.4900 0.4900 0.4900 0.4900 0.4900 0.4900 0.4900 0.4900 0.4900 0.4900 0.4900 0.4900 0.4900 0.4900 0.4900 0.4900 0.4900 0.4900 0.4900 0.4900 0.4900 0.4900 0.4900 0.4900 0.4900 0.4900 0.4900 0.4900 0.4900 0.4900 0.4900 0.4900 0.4900 0.4900 0.4900 0.4900 0.4900 0.4900 0.4900 0.4900 0.4900 0.4900 0.4900 0.4900 0.4900 0.4900 0.4900 0.4900 0.4900 0.4900 0.4900 0.4900 0.4900 0.4900 0.4900 0.4900 0.4900 0.4900 0.4900 0.4900 0.4900 0.4900 0.4900 0.4900 0.4900 0.4900 0.4900 0.4900 0.4900 0.4900 0.4900 0.4900 0.4900 0.4900 0.4900 0.4900 0.4900 0.4900 0.4900 0.4900 0.4900 0.4900 0.4900 0.4900 0.4900 0.4900 0.4900 0.4900 0.4900 0.4900 0.4900 0.4900 0.4900 0.4900 0.4900 0.4900 0.4900 0.4900 0.4900 0.4900 0.4900 0.4900 0.4900 0.4900 0.4900 0.4900 0.4900 0.4900 0.4900 0.4900 0.4900 0.4900 0.4900 0.4900 0.4900 0.4900 0.4900 0.4900 0.4900 0.4900 0.4900 0.4900 0.4900 0.4900 0.4900 0.4900 0.4900 0.4900 0.4900 0.4900 0.4900 0.4900 0.4900 0.4900 0.4900 0.4900 0.4900 0.4900 0.4900 0.4900 0.4900 0.4900 0.4900 0.4900 0.4900 0.4900 0.4900 0.4900 0.4900 0.4900 0.4900 0.4900 0.4900 0.4900 0.4900 0.4900 0.4900 0.4900 0.4900 0.4900 0.4900 0.4900 0.4900 0.4900 0.4900 0.4900 0.4900 0.4900 0.4900 0.4900 0.4900 0.4900 0.4900 0.4900 0.4900 0.4900 0.4900 0.4900 0.4900 0.4900 0.4900 0.4900 0.4900 0.4900 0.4900 0.4900
</DataArray>
<DataArray type="Float32" Name="ed_tail_norm" format="ascii">
0.0000 0.0000 0.0000 0.0000 0.0000 0.0000 0.0000 0.0000 0.0000 0.0000 0.0000 0.0000 0.0000 0.0000 0.0000 0.0000 0.0000 0.0000 0.0000 0.0000 0.0000 0.0000 0.0000 0.0000 0.0000 0.0000 0.0000 0.0000 0.0000 0.0000 0.0000 0.0000 0.0000 0.0000 0.0000 0.0000 0.0000 0.0000 0.0000 0.0000 0.0000 0.0000 0.0000 0.0000 0.0000 0.0000 0.0000 0.0000 0.0000 0.0000 0.0000 0.0000 0.0000 0.0000 0.0000 0.0000 0.0000 0.0000 0.0000 0.0000 0.0000 0.0000 0.0000 0.0000 0.0000 0.0000 0.0000 0.0000 0.0000 0.0000 0.0000 0.0000 0.0000 0.0000 0.0000 0.0000 0.0000 0.0000 0.0000 0.0000 0.0000 0.0000 0.0000 0.0000 0.0000 0.0000 0.0000 0.0000 0.0000 0.0000 0.0000 0.0000 0.0000 0.0000 0.0000 0.0000 0.0000 0.0000 0.0000 0.0000 0.0000 0.0000 0.0000 0.0000 0.0000 0.0000 0.0000 0.0000 0.0000 0.0000 0.0000 0.0000 0.0000 0.0000 0.0000 0.0000 0.0000 0.0000 0.0000 0.0000 0.0000 0.0000 0.0000 0.0000 0.0000 0.0000 0.0000 0.0000 0.0000 0.0000 0.0000 0.0000 0.0000 0.0000 0.0000 0.0000 0.0000 0.0000 0.0000 0.0000 0.0000 0.0000 0.0000 0.0000 0.0000 0.0000 0.0000 0.0000 0.0000 0.0000 0.0000 0.0000 0.0000 0.0000 0.0000 0.0000 0.0000 0.0000 0.0000 0.0000 0.0000 0.0000 0.0000 0.0000 0.0000 0.0000 0.0000 0.0000 0.0000 0.0000 0.0000 0.0000 0.0000 0.0000 0.0000 0.0000 0.0000 0.0000 0.0000 0.0000 0.0000 0.0000 0.0000 0.0000 0.0000 0.0000 0.0000 0.0000 0.0000 0.0000 0.0000 0.0000 0.0000 0.0000 0.0000 0.0000 0.0000 0.0000 0.0000 0.0000 0.0000 0.0000 0.0000 0.0000 0.0000 0.0000 0.0000 0.0000 0.0000 0.0000 0.0000 0.0000 0.0000 0.0000 0.0000 0.0000 0.0000 0.0000 0.0000 0.0000 0.0000 0.0000 0.0000 0.0000 0.0000 0.0000 0.0000 0.0000 0.0000 0.0000 0.0000 0.0000 0.0000 0.0000 0.0000 0.0000 0.0000 0.0000 0.0000 0.0000 0.0000 0.0000 0.0000 0.0000 0.0000 0.0000 0.0000 0.0000 0.0000 0.0000 0.0000 0.0000 0.0000 0.0000 0.0000 0.0000 0.0000 0.0000 0.0000 0.0000 0.0000 0.0000 0.0000 0.0000 0.0000 0.0000 0.0000 0.0000 0.0000 0.0000 0.0000 0.0000 0.0000 0.0000 0.0000 0.0000 0.0000 0.0000 0.0000 0.0000 0.0000 0.0000 0.0000 0.0000 0.0000 0.0000 0.0000 0.0000 0.0000 0.0000 0.0000 0.0000 0.0000 0.0000 0.0000 0.0000 0.0000 0.0000 0.0000 0.0000 0.0000 0.0000 0.0000 0.0000 0.0000 0.0000 0.0000 0.0000 0.0000 0.0000 0.0000 0.0000 0.0000 0.0000 0.0000 0.0000 0.0000 0.0000 0.0000 0.0000 0.0000 0.0000 0.0000 0.0000 0.0000 0.0000 0.0000 0.0000 0.0000 0.0000 0.0000 0.0000 0.0000 0.0000 0.0000 0.0000 0.0000 0.0000 0.0000 0.0000 0.0000 0.0000 0.0000 0.0000 0.0000 0.0000 0.0000 0.0000 0.0000 0.0000 0.0000 0.0000 0.0000 0.0000 0.0000 0.0000 0.0000 0.0000 0.0000 0.0000 0.0000 0.0000 0.0000 0.0000 0.0000 0.0000 0.0000 0.0000 0.0000 0.0000 0.0000 0.0000 0.0000 0.0000 0.0000 0.0000 0.0000 0.0000 0.0000 0.0000 0.0000 0.0000 0.0000 0.0000 0.0000 0.0000 0.0000 0.0000 0.0000 0.0000 0.0000 0.0000 0.0000 0.0000 0.0000 0.0000 0.0000 0.0000 0.0000 0.0000 0.0000 0.0000 0.0000 0.0000 0.0000 0.0000 0.0000 0.0000 0.0000 0.0000 0.0000 0.0000 0.0000 0.0000 0.0000 0.0000 0.0000 0.0000
</DataArray>
<DataArray type="Float32" Name="ed_raft_score" format="ascii">
0.0000 0.0000 0.0000 0.0000 0.0000 0.0000 0.0000 0.0000 0.0000 0.0000 0.0000 0.0000 0.0000 0.0000 0.0000 0.0000 0.0000 0.0000 0.0000 0.0000 0.0000 0.0000 0.0000 0.0000 0.0000 0.0000 0.0000 0.0000 0.0000 0.0000 0.0000 0.0000 0.0000 0.0000 0.0000 0.0000 0.0000 0.0000 0.0000 0.0000 0.0000 0.0000 0.0000 0.0000 0.0000 0.0000 0.0000 0.0000 0.0000 0.0000 0.0000 0.0000 0.0000 0.0000 0.0000 0.0000 0.0000 0.0000 0.0000 0.0000 0.0000 0.0000 0.0000 0.0000 0.0000 0.0000 0.0000 0.0000 0.0000 0.0000 0.0000 0.0000 0.0000 0.0000 0.0000 0.0000 0.0000 0.0000 0.0000 0.0000 0.0000 0.0000 0.0000 0.0000 0.0000 0.0000 0.0000 0.0000 0.0000 0.0000 0.0000 0.0000 0.0000 0.0000 0.0000 0.0000 0.0000 0.0000 0.0000 0.0000 0.0000 0.0000 0.0000 0.0000 0.0000 0.0000 0.0000 0.0000 0.0000 0.0000 0.0000 0.0000 0.0000 0.0000 0.0000 0.0000 0.0000 0.0000 0.0000 0.0000 0.0000 0.0000 0.0000 0.0000 0.0000 0.0000 0.0000 0.0000 0.0000 0.0000 0.0000 0.0000 0.0000 0.0000 0.0000 0.0000 0.0000 0.0000 0.0000 0.0000 0.0000 0.0000 0.0000 0.0000 0.0000 0.0000 0.0000 0.0000 0.0000 0.0000 0.0000 0.0000 0.0000 0.0000 0.0000 0.0000 0.0000 0.0000 0.0000 0.0000 0.0000 0.0000 0.0000 0.0000 0.0000 0.0000 0.0000 0.0000 0.0000 0.0000 0.0000 0.0000 0.0000 0.0000 0.0000 0.0000 0.0000 0.0000 0.0000 0.0000 0.0000 0.0000 0.0000 0.0000 0.0000 0.0000 0.0000 0.0000 0.0000 0.0000 0.0000 0.0000 0.0000 0.0000 0.0000 0.0000 0.0000 0.0000 0.0000 0.0000 0.0000 0.0000 0.0000 0.0000 0.0000 0.0000 0.0000 0.0000 0.0000 0.0000 0.0000 0.0000 0.0000 0.0000 0.0000 0.0000 0.0000 0.0000 0.0000 0.0000 0.0000 0.0000 0.0000 0.0000 0.0000 0.0000 0.0000 0.0000 0.0000 0.0000 0.0000 0.0000 0.0000 0.0000 0.0000 0.0000 0.0000 0.0000 0.0000 0.0000 0.0000 0.0000 0.0000 0.0000 0.0000 0.0000 0.0000 0.0000 0.0000 0.0000 0.0000 0.0000 0.0000 0.0000 0.0000 0.0000 0.0000 0.0000 0.0000 0.0000 0.0000 0.0000 0.0000 0.0000 0.0000 0.0000 0.0000 0.0000 0.0000 0.0000 0.0000 0.0000 0.0000 0.0000 0.0000 0.0000 0.0000 0.0000 0.0000 0.0000 0.0000 0.0000 0.0000 0.0000 0.0000 0.0000 0.0000 0.0000 0.0000 0.0000 0.0000 0.0000 0.0000 0.0000 0.0000 0.0000 0.0000 0.0000 0.0000 0.0000 0.0000 0.0000 0.0000 0.0000 0.0000 0.0000 0.0000 0.0000 0.0000 0.0000 0.0000 0.0000 0.0000 0.0000 0.0000 0.0000 0.0000 0.0000 0.0000 0.0000 0.0000 0.0000 0.0000 0.0000 0.0000 0.0000 0.0000 0.0000 0.0000 0.0000 0.0000 0.0000 0.0000 0.0000 0.0000 0.0000 0.0000 0.0000 0.0000 0.0000 0.0000 0.0000 0.0000 0.0000 0.0000 0.0000 0.0000 0.0000 0.0000 0.0000 0.0000 0.0000 0.0000 0.0000 0.0000 0.0000 0.0000 0.0000 0.0000 0.0000 0.0000 0.0000 0.0000 0.0000 0.0000 0.0000 0.0000 0.0000 0.0000 0.0000 0.0000 0.0000 0.0000 0.0000 0.0000 0.0000 0.0000 0.0000 0.0000 0.0000 0.0000 0.0000 0.0000 0.0000 0.0000 0.0000 0.0000 0.0000 0.0000 0.0000 0.0000 0.0000 0.0000 0.0000 0.0000 0.0000 0.0000 0.0000 0.0000 0.0000 0.0000 0.0000 0.0000 0.0000 0.0000 0.0000 0.0000 0.0000 0.0000 0.0000 0.0000 0.0000 0.0000 0.0000 0.0000 0.0000 0.0000 0.0000
</DataArray>
<DataArray type="Int32" Name="lipid_id" format="ascii">
8 8 8 8 8 8 8 8 8 8 8 8 8 8 8 8 8 8 8 8 8 8 8 8 8 8 8 8 8 8 8 8 8 8 8 8 8 8 8 8 8 8 8 8 8 8 8 8 8 8 8 8 8 8 8 8 8 8 8 8 8 8 8 8 8 8 8 8 8 8 8 8 8 8 8 8 8 8 8 8 8 8 8 8 8 8 8 8 8 8 8 8 8 8 8 8 8 8 8 8 8 8 8 8 8 8 8 8 8 8 8 8 8 8 8 8 8 8 8 8 8 8 8 8 8 8 8 8 8 8 8 8 8 8 8 8 8 8 8 8 8 8 8 8 8 8 8 8 8 8 8 8 8 8 8 8 8 8 8 8 8 8 8 8 8 8 8 8 8 8 8 8 8 8 8 8 8 8 8 8 8 8 8 8 8 8 8 8 8 8 8 8 8 8 8 8 8 8 8 8 8 8 8 8 8 8 8 8 8 8 8 8 8 8 8 8 8 8 8 8 8 8 8 8 8 8 8 8 8 8 8 8 8 8 8 8 8 8 8 8 8 8 8 8 8 8 8 8 8 8 8 8 8 8 8 8 8 8 8 8 8 8 8 8 8 8 8 8 8 8 8 8 8 8 8 8 8 8 8 8 8 8 8 8 8 8 8 8 8 8 8 8 8 8 8 8 8 8 8 8 8 8 8 8 8 8 8 8 8 8 8 8 8 8 8 8 8 8 8 8 8 8 8 8 8 8 8 8 8 8 8 8 8 8 8 8 8 8 8 8 8 8 8 8 8 8 8 8 8 8 8 8 8 8 8 8 8 8 8 8 8 8 8 8 8 8 8 8 8 8 8 8 8 8 8 8 8 8 8 8 8 8 8 8 8 8 8 8 8 8 8 8 8 8 8 8 8 8 8 8 8 8 8 8 8 8 8 8 8 8 8 8 8 8 8 8 8 8
</DataArray>
<DataArray type="Int32" Name="leaflet" format="ascii">
1 1 1 1 1 1 1 1 1 1 1 1 1 1 1 1 1 1 1 1 1 1 1 1 1 1 1 1 1 1 1 1 1 1 1 1 1 1 1 1 1 1 1 1 1 1 1 1 1 1 1 1 1 1 1 1 1 1 1 1 1 1 1 1 1 1 1 1 1 1 1 1 1 1 1 1 1 1 1 1 1 1 1 1 1 1 1 1 1 1 1 1 1 1 1 1 1 1 1 1 1 1 1 1 1 1 1 1 1 1 1 1 1 1 1 1 1 1 1 1 1 1 1 1 1 1 1 1 1 1 1 1 1 1 1 1 1 1 1 1 1 1 1 1 1 1 1 1 1 1 1 1 1 1 1 1 1 1 1 1 1 1 1 1 1 1 1 1 1 1 1 1 1 1 1 1 1 1 1 1 1 1 1 1 1 1 1 1 1 1 1 1 1 1 1 1 1 1 1 1 1 1 1 1 1 1 1 1 1 1 1 1 1 1 1 1 1 1 1 1 1 1 1 1 1 1 1 1 1 1 1 1 1 1 1 1 1 1 1 1 1 1 1 1 1 1 1 1 1 1 1 1 1 1 1 1 1 1 1 1 1 1 1 1 1 1 1 1 1 1 1 1 1 1 1 1 1 1 1 1 1 1 1 1 1 1 1 1 1 1 1 1 1 1 1 1 1 1 1 1 1 1 1 1 1 1 1 1 1 1 1 1 1 1 1 1 1 1 1 1 1 1 1 1 1 1 1 1 1 1 1 1 1 1 1 1 1 1 1 1 1 1 1 1 1 1 1 1 1 1 1 1 1 1 1 1 1 1 1 1 1 1 1 1 1 1 1 1 1 1 1 1 1 1 1 1 1 1 1 1 1 1 1 1 1 1 1 1 1 1 1 1 1 1 1 1 1 1 1 1 1 1 1 1 1 1 1 1 1 1 1 1 1 1 1 1 1 1
</DataArray>
<DataArray type="Int32" Name="phase" format="ascii">
1 1 1 1 1 1 1 1 1 1 1 1 1 1 1 1 1 1 1 1 1 1 1 1 1 1 1 1 1 1 1 1 1 1 1 1 1 1 1 1 1 1 1 1 1 1 1 1 1 1 1 1 1 1 1 1 1 1 1 1 1 1 1 1 1 1 1 1 1 1 1 1 1 1 1 1 1 1 1 1 1 1 1 1 1 1 1 1 1 1 1 1 1 1 1 1 1 1 1 1 1 1 1 1 1 1 1 1 1 1 1 1 1 1 1 1 1 1 1 1 1 1 1 1 1 1 1 1 1 1 1 1 1 1 1 1 1 1 1 1 1 1 1 1 1 1 1 1 1 1 1 1 1 1 1 1 1 1 1 1 1 1 1 1 1 1 1 1 1 1 1 1 1 1 1 1 1 1 1 1 1 1 1 1 1 1 1 1 1 1 1 1 1 1 1 1 1 1 1 1 1 1 1 1 1 1 1 1 1 1 1 1 1 1 1 1 1 1 1 1 1 1 1 1 1 1 1 1 1 1 1 1 1 1 1 1 1 1 1 1 1 1 1 1 1 1 1 1 1 1 1 1 1 1 1 1 1 1 1 1 1 1 1 1 1 1 1 1 1 1 1 1 1 1 1 1 1 1 1 1 1 1 1 1 1 1 1 1 1 1 1 1 1 1 1 1 1 1 1 1 1 1 1 1 1 1 1 1 1 1 1 1 1 1 1 1 1 1 1 1 1 1 1 1 1 1 1 1 1 1 1 1 1 1 1 1 1 1 1 1 1 1 1 1 1 1 1 1 1 1 1 1 1 1 1 1 1 1 1 1 1 1 1 1 1 1 1 1 1 1 1 1 1 1 1 1 1 1 1 1 1 1 1 1 1 1 1 1 1 1 1 1 1 1 1 1 1 1 1 1 1 1 1 1 1 1 1 1 1 1 1 1 1 1 1 1 1 1
</DataArray>
<DataArray type="Int32" Name="n_doublebonds" format="ascii">
4 4 4 4 4 4 4 4 4 4 4 4 4 4 4 4 4 4 4 4 4 4 4 4 4 4 4 4 4 4 4 4 4 4 4 4 4 4 4 4 4 4 4 4 4 4 4 4 4 4 4 4 4 4 4 4 4 4 4 4 4 4 4 4 4 4 4 4 4 4 4 4 4 4 4 4 4 4 4 4 4 4 4 4 4 4 4 4 4 4 4 4 4 4 4 4 4 4 4 4 4 4 4 4 4 4 4 4 4 4 4 4 4 4 4 4 4 4 4 4 4 4 4 4 4 4 4 4 4 4 4 4 4 4 4 4 4 4 4 4 4 4 4 4 4 4 4 4 4 4 4 4 4 4 4 4 4 4 4 4 4 4 4 4 4 4 4 4 4 4 4 4 4 4 4 4 4 4 4 4 4 4 4 4 4 4 4 4 4 4 4 4 4 4 4 4 4 4 4 4 4 4 4 4 4 4 4 4 4 4 4 4 4 4 4 4 4 4 4 4 4 4 4 4 4 4 4 4 4 4 4 4 4 4 4 4 4 4 4 4 4 4 4 4 4 4 4 4 4 4 4 4 4 4 4 4 4 4 4 4 4 4 4 4 4 4 4 4 4 4 4 4 4 4 4 4 4 4 4 4 4 4 4 4 4 4 4 4 4 4 4 4 4 4 4 4 4 4 4 4 4 4 4 4 4 4 4 4 4 4 4 4 4 4 4 4 4 4 4 4 4 4 4 4 4 4 4 4 4 4 4 4 4 4 4 4 4 4 4 4 4 4 4 4 4 4 4 4 4 4 4 4 4 4 4 4 4 4 4 4 4 4 4 4 4 4 4 4 4 4 4 4 4 4 4 4 4 4 4 4 4 4 4 4 4 4 4 4 4 4 4 4 4 4 4 4 4 4 4 4 4 4 4 4 4 4 4 4 4 4 4 4 4 4 4 4 4 4
</DataArray>
</PointData>
</Piece>
</PolyData>
</VTKFile>
