<?xml version="1.0"?>
<VTKFile type="PolyData" version="0.1" byte_order="LittleEndian">
<PolyData>
<Piece NumberOfPoints="319" NumberOfVerts="0" NumberOfLines="0" NumberOfStrips="0" NumberOfPolys="0">
<Points>
<DataArray type="Float32" NumberOfComponents="3" format="ascii">
393.398 337.437 -20.605 398.518 330.180 -21.223 401.910 290.775 -20.521 386.947 292.994 -19.316 233.418 63.362 -25.699 205.729 253.168 -21.870 222.944 36.765 -23.992 385.531 313.458 -19.842 201.164 220.459 -22.202 392.390 319.082 -19.231 400.650 303.116 -19.752 197.414 249.214 -23.000 395.985 312.632 -19.518 225.215 81.906 -25.955 386.385 299.353 -19.643 216.617 50.268 -24.020 389.155 321.451 -19.308 233.128 48.264 -25.340 195.072 65.068 -24.715 226.458 63.605 -25.382 412.247 296.457 -20.738 374.911 323.562 -18.461 207.809 247.151 -21.822 212.312 240.828 -21.337 393.869 320.902 -21.134 410.858 305.377 -22.190 229.980 53.485 -24.888 207.299 235.010 -22.435 223.215 54.838 -24.889 199.659 70.608 -24.112 233.436 33.604 -24.207 221.436 58.459 -26.356 199.784 237.040 -22.782 229.377 65.223 -26.820 224.694 73.001 -25.800 205.054 240.784 -22.261 228.698 78.877 -25.767 397.635 309.684 -20.217 382.163 319.555 -19.642 394.354 316.135 -20.987 223.478 30.252 -24.146 390.226 289.348 -18.436 250.426 40.963 -26.088 186.707 217.194 -22.566 195.351 260.379 -22.327 199.601 48.247 -23.182 400.518 324.883 -21.073 250.793 63.009 -26.654 376.467 324.302 -19.180 393.448 315.123 -20.351 207.491 240.132 -21.462 202.463 223.567 -22.591 393.641 283.910 -19.802 211.434 213.171 -21.178 217.980 238.473 -21.447 216.337 238.834 -21.734 418.658 320.492 -21.482 217.338 67.643 -26.322 207.731 235.698 -21.642 226.216 266.363 -20.089 401.947 316.298 -20.808 197.053 46.659 -23.721 194.758 219.523 -23.996 192.063 253.998 -22.301 210.616 244.526 -21.324 215.260 40.914 -24.235 248.235 62.110 -26.309 382.611 315.665 -18.925 224.862 60.969 -26.002 375.124 324.379 -19.117 215.160 65.885 -25.710 210.507 239.675 -22.578 202.745 43.106 -23.327 393.725 318.448 -20.491 194.880 267.593 -22.522 225.985 32.791 -23.985 251.777 54.395 -26.182 208.098 32.507 -22.606 253.454 60.752 -26.843 249.021 65.618 -27.320 236.071 78.433 -26.390 206.036 254.437 -22.141 222.086 59.177 -24.488 396.481 320.363 -20.663 209.371 251.690 -22.149 221.352 233.944 -20.023 211.844 220.804 -21.319 227.142 56.950 -25.519 238.661 85.590 -26.522 196.895 66.939 -25.175 368.256 321.456 -18.453 206.960 254.344 -22.512 216.698 71.608 -24.925 191.338 264.333 -23.625 197.758 212.943 -22.753 401.187 338.109 -21.287 218.035 64.913 -26.102 224.602 60.787 -24.980 228.696 58.488 -25.488 184.679 243.818 -23.879 393.021 322.261 -21.477 393.221 315.233 -19.928 237.203 61.616 -25.878 392.568 321.535 -20.569 385.147 330.106 -20.234 403.266 313.616 -21.460 207.933 241.034 -21.301 401.329 316.031 -20.785 218.481 217.936 -20.487 207.503 72.640 -25.310 227.873 231.085 -20.726 233.264 69.337 -25.835 187.935 255.635 -23.024 382.037 297.596 -20.051 221.391 259.425 -20.948 389.027 287.641 -18.712 209.149 238.412 -22.787 408.414 316.308 -21.296 385.215 322.408 -20.034 214.543 43.467 -23.949 385.305 329.349 -19.688 202.496 261.670 -22.419 390.030 304.257 -19.924 201.204 266.027 -23.271 223.299 235.500 -21.507 213.823 42.546 -23.426 236.318 48.473 -25.944 395.791 312.068 -20.906 385.293 333.851 -19.310 394.987 303.827 -20.328 229.353 250.370 -19.522 403.122 311.339 -20.664 201.829 71.803 -24.589 213.935 239.312 -20.743 221.477 58.943 -25.327 239.435 70.067 -26.974 210.781 236.627 -23.130 209.980 75.842 -25.105 382.953 301.987 -19.434 194.283 215.840 -23.455 397.704 302.071 -20.626 392.434 316.650 -19.968 189.043 224.605 -22.177 381.692 339.565 -19.095 214.015 248.963 -19.800 396.015 313.385 -20.337 216.496 246.173 -21.361 419.229 313.606 -22.186 229.300 235.590 -19.946 391.355 316.312 -19.764 199.409 250.552 -21.203 218.181 262.229 -22.070 379.480 338.321 -19.902 391.982 314.745 -18.743 226.739 56.445 -25.896 223.079 56.610 -25.469 207.250 241.219 -22.530 211.846 219.135 -21.844 225.306 249.332 -20.276 221.747 249.225 -21.669 390.482 301.941 -19.234 398.044 336.380 -20.234 388.375 319.063 -19.854 384.274 288.754 -19.632 211.078 50.076 -25.045 217.640 215.660 -21.274 209.495 250.747 -22.631 205.515 50.748 -23.595 389.527 289.724 -18.995 226.007 53.412 -26.066 203.374 211.424 -21.978 193.891 47.429 -23.079 188.769 254.193 -23.168 227.137 48.876 -25.105 202.502 59.163 -22.683 418.290 303.573 -20.956 208.985 241.597 -21.643 201.401 243.955 -22.057 405.850 309.888 -19.790 202.576 67.273 -23.728 389.753 323.360 -20.160 226.779 245.483 -20.099 227.830 27.112 -23.058 411.378 320.238 -21.300 237.289 64.421 -27.450 399.716 321.286 -21.841 415.940 303.280 -21.610 189.887 250.518 -23.103 194.194 259.102 -23.636 209.441 43.513 -22.990 222.148 60.214 -25.349 204.797 248.713 -22.225 217.800 228.133 -21.579 194.894 235.414 -22.398 226.154 54.504 -24.812 191.080 227.179 -22.793 213.421 236.853 -21.377 420.031 320.689 -22.207 224.950 250.933 -21.468 207.534 239.892 -21.795 412.480 300.991 -20.317 233.878 65.601 -26.772 252.302 52.968 -26.423 201.342 252.021 -21.856 220.583 47.295 -24.286 209.847 58.922 -23.451 205.990 239.592 -21.818 389.945 312.072 -19.623 231.350 62.629 -26.490 389.276 325.969 -19.431 184.221 229.569 -23.687 228.224 257.276 -19.625 393.688 322.033 -20.355 400.280 323.666 -20.467 217.598 57.364 -25.677 391.944 331.403 -20.492 203.893 68.675 -24.305 208.862 241.069 -22.127 192.233 238.879 -22.330 218.811 261.491 -21.542 226.222 240.248 -21.096 395.166 296.829 -20.412 420.961 312.292 -20.845 198.114 270.666 -22.781 420.853 298.564 -20.888 254.408 52.500 -26.130 183.100 244.086 -23.313 394.403 345.392 -20.967 211.718 238.861 -21.840 216.609 225.897 -20.900 235.441 45.266 -24.413 388.712 291.143 -19.952 414.799 303.986 -21.235 224.820 66.354 -25.121 183.367 221.200 -23.218 254.299 61.643 -25.977 191.454 249.832 -22.354 210.283 237.001 -21.541 211.843 210.129 -21.319 208.803 237.031 -21.091 399.462 322.888 -20.794 218.472 265.411 -21.465 242.197 81.522 -26.757 236.343 51.369 -25.433 230.030 221.297 -21.406 207.763 239.531 -21.689 213.905 249.889 -21.381 194.650 226.821 -23.418 241.930 34.492 -23.523 249.530 65.624 -26.396 233.971 254.298 -19.222 363.835 300.048 -18.367 396.817 308.053 -20.019 392.591 319.007 -20.172 369.297 311.209 -18.406 214.462 253.561 -21.845 205.005 253.916 -22.568 215.891 269.004 -22.760 199.325 227.945 -21.730 411.577 324.289 -20.920 235.814 234.419 -19.536 389.711 293.731 -18.617 196.068 242.181 -22.796 209.223 236.393 -22.060 394.302 331.616 -21.836 222.479 241.169 -20.862 207.042 240.674 -21.637 197.053 75.974 -24.620 233.862 230.793 -19.319 222.480 233.296 -20.850 391.687 323.842 -20.722 209.721 250.462 -23.268 413.947 304.091 -21.055 222.179 54.933 -25.824 412.890 308.087 -20.648 223.677 32.142 -24.024 227.650 222.271 -21.274 207.061 55.300 -23.972 216.436 256.781 -22.179 375.606 326.477 -19.298 220.834 41.707 -24.902 384.071 326.320 -19.979 211.214 243.238 -21.316 365.182 302.725 -18.139 412.132 330.237 -22.239 207.455 231.298 -21.939 217.280 58.276 -25.165 231.832 55.287 -26.075 235.146 34.685 -23.819 222.566 239.517 -21.297 218.113 210.724 -21.204 219.003 61.901 -25.600 214.323 243.104 -21.170 215.057 245.469 -20.722 418.936 328.090 -21.575 390.513 311.666 -20.850 414.729 292.244 -21.115 201.711 215.665 -22.002 215.338 218.479 -21.873 226.043 54.320 -25.066 178.579 250.804 -24.143 211.941 29.734 -22.366 199.798 46.081 -23.083 386.914 313.129 -19.539 206.597 243.345 -21.413 193.595 59.779 -23.879 405.592 340.180 -22.029 214.807 56.302 -25.140 224.198 63.354 -25.077 232.636 67.138 -26.253 398.895 328.474 -20.742 228.983 221.296 -21.134 211.925 208.974 -20.692 211.991 228.446 -21.694 229.003 226.307 -20.446 202.104 267.826 -23.446 395.839 312.606 -20.147 365.657 330.300 -19.666 210.302 233.160 -22.690
</DataArray>
</Points>
<PointData>
<DataArray type="Int32" Name="region" format="ascii">
0 0 0 0 0 0 0 0 0 0 0 0 0 0 0 0 0 0 0 0 0 0 0 0 0 0 0 0 0 0 0 0 0 0 0 0 0 0 0 0 0 0 0 0 0 0 0 0 0 0 0 0 0 0 0 0 0 0 0 0 0 0 0 0 0 0 0 0 0 0 0 0 0 0 0 0 0 0 0 0 0 0 0 0 0 0 0 0 0 0 0 0 0 0 0 0 0 0 0 0 0 0 0 0 0 0 0 0 0 0 0 0 0 0 0 0 0 0 0 0 0 0 0 0 0 0 0 0 0 0 0 0 0 0 0 0 0 0 0 0 0 0 0 0 0 0 0 0 0 0 0 0 0 0 0 0 0 0 0 0 0 0 0 0 0 0 0 0 0 0 0 0 0 0 0 0 0 0 0 0 0 0 0 0 0 0 0 0 0 0 0 0 0 0 0 0 0 0 0 0 0 0 0 0 0 0 0 0 0 0 0 0 0 0 0 0 0 0 0 0 0 0 0 0 0 0 0 0 0 0 0 0 0 0 0 0 0 0 0 0 0 0 0 0 0 0 0 0 0 0 0 0 0 0 0 0 0 0 0 0 0 0 0 0 0 0 0 0 0 0 0 0 0 0 0 0 0 0 0 0 0 0 0 0 0 0 0 0 0 0 0 0 0 0 0 0 0 0 0 0 0 0 0 0 0 0 0 0 0 0 0 0 0 0 0 0 0 0 0
</DataArray>
<DataArray type="Float32" Name="order_param" format="ascii">
0.8192 0.8484 0.8466 0.6067 0.6515 0.7442 0.8318 0.7077 0.8159 0.7371 0.8128 0.7917 0.8475 0.8391 0.7753 0.8688 0.7910 0.8433 0.6475 0.5762 0.6999 0.7515 0.5579 0.8509 0.6856 0.8340 0.6709 0.6093 0.6426 0.7591 0.8575 0.7096 0.8411 0.8360 0.8096 0.7406 0.8411 0.5485 0.7200 0.8244 0.6623 0.8168 0.8674 0.7753 0.8495 0.7246 0.6309 0.7920 0.7620 0.7620 0.7967 0.8266 0.5802 0.7753 0.8040 0.6565 0.7238 0.6883 0.7886 0.7686 0.5593 0.8250 0.7922 0.8426 0.7283 0.5678 0.7127 0.7247 0.8583 0.8059 0.6179 0.6940 0.8104 0.8142 0.7573 0.7675 0.8587 0.8186 0.7760 0.7045 0.7887 0.7431 0.6954 0.6672 0.7447 0.7967 0.8423 0.6178 0.7952 0.7530 0.6963 0.6400 0.5596 0.7316 0.8020 0.8006 0.6545 0.7397 0.8738 0.6155 0.8260 0.7897 0.8025 0.7884 0.7721 0.7533 0.7257 0.8130 0.6591 0.7594 0.6560 0.6692 0.6878 0.7842 0.7453 0.6574 0.6046 0.8256 0.8255 0.8854 0.8520 0.7156 0.7300 0.6181 0.8008 0.7926 0.6457 0.6867 0.6740 0.7875 0.7165 0.6475 0.8569 0.6629 0.8247 0.7278 0.7677 0.8089 0.6206 0.6812 0.7697 0.8026 0.5900 0.5377 0.8133 0.6365 0.7810 0.5318 0.7154 0.8581 0.6412 0.8101 0.6514 0.7044 0.8509 0.8381 0.8134 0.8210 0.7972 0.8269 0.5985 0.8224 0.7575 0.7368 0.7657 0.6194 0.6636 0.7258 0.7493 0.6631 0.6050 0.8522 0.8220 0.7814 0.5754 0.7647 0.8366 0.6932 0.8059 0.8422 0.7894 0.8281 0.8357 0.7706 0.8559 0.7117 0.6704 0.6194 0.7711 0.8596 0.7880 0.8347 0.7327 0.8083 0.7758 0.7029 0.8357 0.8080 0.8379 0.7705 0.7163 0.7508 0.7011 0.7519 0.6864 0.6170 0.5733 0.7910 0.6709 0.6070 0.7366 0.7106 0.7905 0.8352 0.6277 0.6026 0.5746 0.8207 0.6695 0.7326 0.6549 0.7088 0.6390 0.6567 0.8130 0.7434 0.7550 0.6286 0.7858 0.6109 0.7685 0.8439 0.6823 0.6510 0.7172 0.7486 0.8017 0.5991 0.7816 0.7113 0.7276 0.7580 0.7694 0.6058 0.7525 0.6437 0.8284 0.8346 0.7947 0.8051 0.8289 0.7159 0.7938 0.8453 0.8794 0.6648 0.8335 0.8418 0.4916 0.5485 0.7362 0.7252 0.7308 0.7956 0.7153 0.8866 0.6117 0.7687 0.7048 0.8367 0.6241 0.7713 0.8571 0.8335 0.7811 0.7400 0.5743 0.7724 0.8220 0.8324 0.7748 0.7638 0.6133 0.8269 0.8400 0.8046 0.8600 0.6392 0.6744 0.7479 0.8584 0.8841 0.8377 0.8128 0.8352 0.6447 0.7753 0.8281 0.7692 0.7427 0.8007 0.7846 0.8407 0.5446 0.7416 0.6477 0.6950 0.7757 0.7708 0.6240 0.7371 0.7888 0.8624 0.7445 0.5701 0.7131 0.7994 0.5901 0.8207
</DataArray>
<DataArray type="Int32" Name="in_raft" format="ascii">
0 0 0 0 0 0 0 0 0 0 0 0 0 0 0 0 0 0 0 0 0 0 0 0 0 0 0 0 0 0 0 0 0 0 0 0 0 0 0 0 0 0 0 0 0 0 0 0 0 0 0 0 0 0 0 0 0 0 0 0 0 0 0 0 0 0 0 0 0 0 0 0 0 0 0 0 0 0 0 0 0 0 0 0 0 0 0 0 0 0 0 0 0 0 0 0 0 0 0 0 0 0 0 0 0 0 0 0 0 0 0 0 0 0 0 0 0 0 0 0 0 0 0 0 0 0 0 0 0 0 0 0 0 0 0 0 0 0 0 0 0 0 0 0 0 0 0 0 0 0 0 0 0 0 0 0 0 0 0 0 0 0 0 0 0 0 0 0 0 0 0 0 0 0 0 0 0 0 0 0 0 0 0 0 0 0 0 0 0 0 0 0 0 0 0 0 0 0 0 0 0 0 0 0 0 0 0 0 0 0 0 0 0 0 0 0 0 0 0 0 0 0 0 0 0 0 0 0 0 0 0 0 0 0 0 0 0 0 0 0 0 0 0 0 0 0 0 0 0 0 0 0 0 0 0 0 0 0 0 0 0 0 0 0 0 0 0 0 0 0 0 0 0 0 0 0 0 0 0 0 0 0 0 0 0 0 0 0 0 0 0 0 0 0 0 0 0 0 0 0 0 0 0 0 0 0 0 0 0 0 0 0 0 0 0 0 0 0 0
</DataArray>
<DataArray type="Int32" Name="is_pip" format="ascii">
1 1 1 1 1 1 1 1 1 1 1 1 1 1 1 1 1 1 1 1 1 1 1 1 1 1 1 1 1 1 1 1 1 1 1 1 1 1 1 1 1 1 1 1 1 1 1 1 1 1 1 1 1 1 1 1 1 1 1 1 1 1 1 1 1 1 1 1 1 1 1 1 1 1 1 1 1 1 1 1 1 1 1 1 1 1 1 1 1 1 1 1 1 1 1 1 1 1 1 1 1 1 1 1 1 1 1 1 1 1 1 1 1 1 1 1 1 1 1 1 1 1 1 1 1 1 1 1 1 1 1 1 1 1 1 1 1 1 1 1 1 1 1 1 1 1 1 1 1 1 1 1 1 1 1 1 1 1 1 1 1 1 1 1 1 1 1 1 1 1 1 1 1 1 1 1 1 1 1 1 1 1 1 1 1 1 1 1 1 1 1 1 1 1 1 1 1 1 1 1 1 1 1 1 1 1 1 1 1 1 1 1 1 1 1 1 1 1 1 1 1 1 1 1 1 1 1 1 1 1 1 1 1 1 1 1 1 1 1 1 1 1 1 1 1 1 1 1 1 1 1 1 1 1 1 1 1 1 1 1 1 1 1 1 1 1 1 1 1 1 1 1 1 1 1 1 1 1 1 1 1 1 1 1 1 1 1 1 1 1 1 1 1 1 1 1 1 1 1 1 1 1 1 1 1 1 1 1 1 1 1 1 1 1 1 1 1 1 1
</DataArray>
<DataArray type="Int32" Name="pip_head" format="ascii">
1 1 1 1 1 1 1 1 1 1 1 1 1 1 1 1 1 1 1 1 1 1 1 1 1 1 1 1 1 1 1 1 1 1 1 1 1 1 1 1 1 1 1 1 1 1 1 1 1 1 1 1 1 1 1 1 1 1 1 1 1 1 1 1 1 1 1 1 1 1 1 1 1 1 1 1 1 1 1 1 1 1 1 1 1 1 1 1 1 1 1 1 1 1 1 1 1 1 1 1 1 1 1 1 1 1 1 1 1 1 1 1 1 1 1 1 1 1 1 1 1 1 1 1 1 1 1 1 1 1 1 1 1 1 1 1 1 1 1 1 1 1 1 1 1 1 1 1 1 1 1 1 1 1 1 1 1 1 1 1 1 1 1 1 1 1 1 1 1 1 1 1 1 1 1 1 1 1 1 1 1 1 1 1 1 1 1 1 1 1 1 1 1 1 1 1 1 1 1 1 1 1 1 1 1 1 1 1 1 1 1 1 1 1 1 1 1 1 1 1 1 1 1 1 1 1 1 1 1 1 1 1 1 1 1 1 1 1 1 1 1 1 1 1 1 1 1 1 1 1 1 1 1 1 1 1 1 1 1 1 1 1 1 1 1 1 1 1 1 1 1 1 1 1 1 1 1 1 1 1 1 1 1 1 1 1 1 1 1 1 1 1 1 1 1 1 1 1 1 1 1 1 1 1 1 1 1 1 1 1 1 1 1 1 1 1 1 1 1
</DataArray>
<DataArray type="Float32" Name="electron_density" format="ascii">
0.4750 0.4750 0.4750 0.4750 0.4750 0.4750 0.4750 0.4750 0.4750 0.4750 0.4750 0.4750 0.4750 0.4750 0.4750 0.4750 0.4750 0.4750 0.4750 0.4750 0.4750 0.4750 0.4750 0.4750 0.4750 0.4750 0.4750 0.4750 0.4750 0.4750 0.4750 0.4750 0.4750 0.4750 0.4750 0.4750 0.4750 0.4750 0.4750 0.4750 0.4750 0.4750 0.4750 0.4750 0.4750 0.4750 0.4750 0.4750 0.4750 0.4750 0.4750 0.4750 0.4750 0.4750 0.4750 0.4750 0.4750 0.4750 0.4750 0.4750 0.4750 0.4750 0.4750 0.4750 0.4750 0.4750 0.4750 0.4750 0.4750 0.4750 0.4750 0.4750 0.4750 0.4750 0.4750 0.4750 0.4750 0.4750 0.4750 0.4750 0.4750 0.4750 0.4750 0.4750 0.4750 0.4750 0.4750 0.4750 0.4750 0.4750 0.4750 0.4750 0.4750 0.4750 0.4750 0.4750 0.4750 0.4750 0.4750 0.4750 0.4750 0.4750 0.4750 0.4750 0.4750 0.4750 0.4750 0.4750 0.4750 0.4750 0.4750 0.4750 0.4980 0.4980 0.4980 0.4980 0.4980 0.4980 0.4980 0.4980 0.4980 0.4980 0.4980 0.4980 0.4980 0.4980 0.4980 0.4980 0.4980 0.4980 0.4980 0.4980 0.4980 0.4980 0.4980 0.4980 0.4980 0.4980 0.4980 0.4980 0.4980 0.4980 0.4980 0.4980 0.4980 0.4980 0.4980 0.4980 0.4980 0.4980 0.4980 0.4980 0.4980 0.4980 0.4980 0.4980 0.4980 0.4980 0.4980 0.4980 0.4980 0.4980 0.4980 0.4980 0.4980 0.4980 0.4980 0.4980 0.4980 0.4980 0.4980 0.4980 0.4980 0.4980 0.4980 0.4980 0.4980 0.4980 0.4980 0.4980 0.4980 0.4980 0.4980 0.4980 0.4980 0.4760 0.4760 0.4760 0.4760 0.4760 0.4760 0.4760 0.4760 0.4760 0.4760 0.4760 0.4760 0.4760 0.4760 0.4760 0.4760 0.4760 0.4760 0.4760 0.4760 0.4760 0.4760 0.4760 0.4760 0.4760 0.4760 0.4760 0.4760 0.4760 0.4760 0.4760 0.4760 0.4760 0.4760 0.4760 0.4760 0.4760 0.4760 0.4760 0.4760 0.4760 0.4760 0.4760 0.4760 0.4760 0.4760 0.4760 0.4760 0.4760 0.4760 0.4760 0.4760 0.4760 0.4760 0.4760 0.4760 0.4760 0.4760 0.4760 0.4760 0.4760 0.4760 0.4760 0.4760 0.4760 0.4760 0.4760 0.4760 0.4760 0.4760 0.4760 0.4760 0.4760 0.4760 0.4760 0.4760 0.4760 0.4760 0.4760 0.4760 0.4760 0.4760 0.4760 0.4760 0.4760 0.4760 0.4760 0.4760 0.4760 0.4760 0.4760 0.4760 0.4760 0.4760 0.4760 0.4760 0.4760 0.4760 0.4760 0.4760 0.4760 0.4760 0.4760 0.4760 0.4760 0.4760 0.4760 0.4760 0.4760 0.4760 0.4760 0.4760 0.4760 0.4760 0.4760 0.4760 0.4760 0.4760 0.4760 0.4760 0.4760 0.4760 0.4760 0.4760 0.4760 0.4760 0.4760 0.4760 0.4760 0.4760 0.4760 0.4760 0.4760 0.4760
</DataArray>
<DataArray type="Float32" Name="ed_tail_norm" format="ascii">
0.0000 0.0000 0.0000 0.0000 0.0000 0.0000 0.0000 0.0000 0.0000 0.0000 0.0000 0.0000 0.0000 0.0000 0.0000 0.0000 0.0000 0.0000 0.0000 0.0000 0.0000 0.0000 0.0000 0.0000 0.0000 0.0000 0.0000 0.0000 0.0000 0.0000 0.0000 0.0000 0.0000 0.0000 0.0000 0.0000 0.0000 0.0000 0.0000 0.0000 0.0000 0.0000 0.0000 0.0000 0.0000 0.0000 0.0000 0.0000 0.0000 0.0000 0.0000 0.0000 0.0000 0.0000 0.0000 0.0000 0.0000 0.0000 0.0000 0.0000 0.0000 0.0000 0.0000 0.0000 0.0000 0.0000 0.0000 0.0000 0.0000 0.0000 0.0000 0.0000 0.0000 0.0000 0.0000 0.0000 0.0000 0.0000 0.0000 0.0000 0.0000 0.0000 0.0000 0.0000 0.0000 0.0000 0.0000 0.0000 0.0000 0.0000 0.0000 0.0000 0.0000 0.0000 0.0000 0.0000 0.0000 0.0000 0.0000 0.0000 0.0000 0.0000 0.0000 0.0000 0.0000 0.0000 0.0000 0.0000 0.0000 0.0000 0.0000 0.0000 0.0000 0.0000 0.0000 0.0000 0.0000 0.0000 0.0000 0.0000 0.0000 0.0000 0.0000 0.0000 0.0000 0.0000 0.0000 0.0000 0.0000 0.0000 0.0000 0.0000 0.0000 0.0000 0.0000 0.0000 0.0000 0.0000 0.0000 0.0000 0.0000 0.0000 0.0000 0.0000 0.0000 0.0000 0.0000 0.0000 0.0000 0.0000 0.0000 0.0000 0.0000 0.0000 0.0000 0.0000 0.0000 0.0000 0.0000 0.0000 0.0000 0.0000 0.0000 0.0000 0.0000 0.0000 0.0000 0.0000 0.0000 0.0000 0.0000 0.0000 0.0000 0.0000 0.0000 0.0000 0.0000 0.0000 0.0000 0.0000 0.0000 0.0000 0.0000 0.0000 0.0000 0.0000 0.0000 0.0000 0.0000 0.0000 0.0000 0.0000 0.0000 0.0000 0.0000 0.0000 0.0000 0.0000 0.0000 0.0000 0.0000 0.0000 0.0000 0.0000 0.0000 0.0000 0.0000 0.0000 0.0000 0.0000 0.0000 0.0000 0.0000 0.0000 0.0000 0.0000 0.0000 0.0000 0.0000 0.0000 0.0000 0.0000 0.0000 0.0000 0.0000 0.0000 0.0000 0.0000 0.0000 0.0000 0.0000 0.0000 0.0000 0.0000 0.0000 0.0000 0.0000 0.0000 0.0000 0.0000 0.0000 0.0000 0.0000 0.0000 0.0000 0.0000 0.0000 0.0000 0.0000 0.0000 0.0000 0.0000 0.0000 0.0000 0.0000 0.0000 0.0000 0.0000 0.0000 0.0000 0.0000 0.0000 0.0000 0.0000 0.0000 0.0000 0.0000 0.0000 0.0000 0.0000 0.0000 0.0000 0.0000 0.0000 0.0000 0.0000 0.0000 0.0000 0.0000 0.0000 0.0000 0.0000 0.0000 0.0000 0.0000 0.0000 0.0000 0.0000 0.0000 0.0000 0.0000 0.0000 0.0000 0.0000 0.0000 0.0000 0.0000 0.0000 0.0000 0.0000 0.0000 0.0000 0.0000 0.0000 0.0000 0.0000 0.0000 0.0000 0.0000 0.0000 0.0000 0.0000 0.0000 0.0000 0.0000 0.0000 0.0000 0.0000 0.0000
</DataArray>
<DataArray type="Float32" Name="ed_raft_score" format="ascii">
0.0000 0.0000 0.0000 0.0000 0.0000 0.0000 0.0000 0.0000 0.0000 0.0000 0.0000 0.0000 0.0000 0.0000 0.0000 0.0000 0.0000 0.0000 0.0000 0.0000 0.0000 0.0000 0.0000 0.0000 0.0000 0.0000 0.0000 0.0000 0.0000 0.0000 0.0000 0.0000 0.0000 0.0000 0.0000 0.0000 0.0000 0.0000 0.0000 0.0000 0.0000 0.0000 0.0000 0.0000 0.0000 0.0000 0.0000 0.0000 0.0000 0.0000 0.0000 0.0000 0.0000 0.0000 0.0000 0.0000 0.0000 0.0000 0.0000 0.0000 0.0000 0.0000 0.0000 0.0000 0.0000 0.0000 0.0000 0.0000 0.0000 0.0000 0.0000 0.0000 0.0000 0.0000 0.0000 0.0000 0.0000 0.0000 0.0000 0.0000 0.0000 0.0000 0.0000 0.0000 0.0000 0.0000 0.0000 0.0000 0.0000 0.0000 0.0000 0.0000 0.0000 0.0000 0.0000 0.0000 0.0000 0.0000 0.0000 0.0000 0.0000 0.0000 0.0000 0.0000 0.0000 0.0000 0.0000 0.0000 0.0000 0.0000 0.0000 0.0000 0.0000 0.0000 0.0000 0.0000 0.0000 0.0000 0.0000 0.0000 0.0000 0.0000 0.0000 0.0000 0.0000 0.0000 0.0000 0.0000 0.0000 0.0000 0.0000 0.0000 0.0000 0.0000 0.0000 0.0000 0.0000 0.0000 0.0000 0.0000 0.0000 0.0000 0.0000 0.0000 0.0000 0.0000 0.0000 0.0000 0.0000 0.0000 0.0000 0.0000 0.0000 0.0000 0.0000 0.0000 0.0000 0.0000 0.0000 0.0000 0.0000 0.0000 0.0000 0.0000 0.0000 0.0000 0.0000 0.0000 0.0000 0.0000 0.0000 0.0000 0.0000 0.0000 0.0000 0.0000 0.0000 0.0000 0.0000 0.0000 0.0000 0.0000 0.0000 0.0000 0.0000 0.0000 0.0000 0.0000 0.0000 0.0000 0.0000 0.0000 0.0000 0.0000 0.0000 0.0000 0.0000 0.0000 0.0000 0.0000 0.0000 0.0000 0.0000 0.0000 0.0000 0.0000 0.0000 0.0000 0.0000 0.0000 0.0000 0.0000 0.0000 0.0000 0.0000 0.0000 0.0000 0.0000 0.0000 0.0000 0.0000 0.0000 0.0000 0.0000 0.0000 0.0000 0.0000 0.0000 0.0000 0.0000 0.0000 0.0000 0.0000 0.0000 0.0000 0.0000 0.0000 0.0000 0.0000 0.0000 0.0000 0.0000 0.0000 0.0000 0.0000 0.0000 0.0000 0.0000 0.0000 0.0000 0.0000 0.0000 0.0000 0.0000 0.0000 0.0000 0.0000 0.0000 0.0000 0.0000 0.0000 0.0000 0.0000 0.0000 0.0000 0.0000 0.0000 0.0000 0.0000 0.0000 0.0000 0.0000 0.0000 0.0000 0.0000 0.0000 0.0000 0.0000 0.0000 0.0000 0.0000 0.0000 0.0000 0.0000 0.0000 0.0000 0.0000 0.0000 0.0000 0.0000 0.0000 0.0000 0.0000 0.0000 0.0000 0.0000 0.0000 0.0000 0.0000 0.0000 0.0000 0.0000 0.0000 0.0000 0.0000 0.0000 0.0000 0.0000 0.0000 0.0000 0.0000 0.0000 0.0000 0.0000 0.0000 0.0000 0.0000 0.0000 0.0000
</DataArray>
<DataArray type="Int32" Name="lipid_id" format="ascii">
4 4 4 4 4 4 4 4 4 4 4 4 4 4 4 4 4 4 4 4 4 4 4 4 4 4 4 4 4 4 4 4 4 4 4 4 4 4 4 4 4 4 4 4 4 4 4 4 4 4 4 4 4 4 4 4 4 4 4 4 4 4 4 4 4 4 4 4 4 4 4 4 4 4 4 4 4 4 4 4 4 4 4 4 4 4 4 4 4 4 4 4 4 4 4 4 4 4 4 4 4 4 4 4 4 4 4 4 4 4 4 4 9 9 9 9 9 9 9 9 9 9 9 9 9 9 9 9 9 9 9 9 9 9 9 9 9 9 9 9 9 9 9 9 9 9 9 9 9 9 9 9 9 9 9 9 9 9 9 9 9 9 9 9 9 9 9 9 9 9 9 9 9 9 9 9 9 9 9 9 9 9 9 9 9 5 5 5 5 5 5 5 5 5 5 5 5 5 5 5 5 5 5 5 5 5 5 5 5 5 5 5 5 5 5 5 5 5 5 5 5 5 5 5 5 5 5 5 5 5 5 5 5 5 5 5 5 5 5 5 5 5 5 5 5 5 5 5 5 5 5 5 5 5 5 5 5 5 5 5 5 5 5 5 5 5 5 5 5 5 5 5 5 5 5 5 5 5 5 5 5 5 5 5 5 5 5 5 5 5 5 5 5 5 5 5 5 5 5 5 5 5 5 5 5 5 5 5 5 5 5 5 5 5 5 5 5 5 5
</DataArray>
<DataArray type="Int32" Name="leaflet" format="ascii">
1 1 1 1 1 1 1 1 1 1 1 1 1 1 1 1 1 1 1 1 1 1 1 1 1 1 1 1 1 1 1 1 1 1 1 1 1 1 1 1 1 1 1 1 1 1 1 1 1 1 1 1 1 1 1 1 1 1 1 1 1 1 1 1 1 1 1 1 1 1 1 1 1 1 1 1 1 1 1 1 1 1 1 1 1 1 1 1 1 1 1 1 1 1 1 1 1 1 1 1 1 1 1 1 1 1 1 1 1 1 1 1 1 1 1 1 1 1 1 1 1 1 1 1 1 1 1 1 1 1 1 1 1 1 1 1 1 1 1 1 1 1 1 1 1 1 1 1 1 1 1 1 1 1 1 1 1 1 1 1 1 1 1 1 1 1 1 1 1 1 1 1 1 1 1 1 1 1 1 1 1 1 1 1 1 1 1 1 1 1 1 1 1 1 1 1 1 1 1 1 1 1 1 1 1 1 1 1 1 1 1 1 1 1 1 1 1 1 1 1 1 1 1 1 1 1 1 1 1 1 1 1 1 1 1 1 1 1 1 1 1 1 1 1 1 1 1 1 1 1 1 1 1 1 1 1 1 1 1 1 1 1 1 1 1 1 1 1 1 1 1 1 1 1 1 1 1 1 1 1 1 1 1 1 1 1 1 1 1 1 1 1 1 1 1 1 1 1 1 1 1 1 1 1 1 1 1 1 1 1 1 1 1 1 1 1 1 1 1
</DataArray>
<DataArray type="Int32" Name="phase" format="ascii">
1 1 1 1 1 1 1 1 1 1 1 1 1 1 1 1 1 1 1 1 1 1 1 1 1 1 1 1 1 1 1 1 1 1 1 1 1 1 1 1 1 1 1 1 1 1 1 1 1 1 1 1 1 1 1 1 1 1 1 1 1 1 1 1 1 1 1 1 1 1 1 1 1 1 1 1 1 1 1 1 1 1 1 1 1 1 1 1 1 1 1 1 1 1 1 1 1 1 1 1 1 1 1 1 1 1 1 1 1 1 1 1 1 1 1 1 1 1 1 1 1 1 1 1 1 1 1 1 1 1 1 1 1 1 1 1 1 1 1 1 1 1 1 1 1 1 1 1 1 1 1 1 1 1 1 1 1 1 1 1 1 1 1 1 1 1 1 1 1 1 1 1 1 1 1 1 1 1 1 1 1 1 1 1 1 1 1 1 1 1 1 1 1 1 1 1 1 1 1 1 1 1 1 1 1 1 1 1 1 1 1 1 1 1 1 1 1 1 1 1 1 1 1 1 1 1 1 1 1 1 1 1 1 1 1 1 1 1 1 1 1 1 1 1 1 1 1 1 1 1 1 1 1 1 1 1 1 1 1 1 1 1 1 1 1 1 1 1 1 1 1 1 1 1 1 1 1 1 1 1 1 1 1 1 1 1 1 1 1 1 1 1 1 1 1 1 1 1 1 1 1 1 1 1 1 1 1 1 1 1 1 1 1 1 1 1 1 1 1
</DataArray>
<DataArray type="Int32" Name="n_doublebonds" format="ascii">
4 4 4 4 4 4 4 4 4 4 4 4 4 4 4 4 4 4 4 4 4 4 4 4 4 4 4 4 4 4 4 4 4 4 4 4 4 4 4 4 4 4 4 4 4 4 4 4 4 4 4 4 4 4 4 4 4 4 4 4 4 4 4 4 4 4 4 4 4 4 4 4 4 4 4 4 4 4 4 4 4 4 4 4 4 4 4 4 4 4 4 4 4 4 4 4 4 4 4 4 4 4 4 4 4 4 4 4 4 4 4 4 4 4 4 4 4 4 4 4 4 4 4 4 4 4 4 4 4 4 4 4 4 4 4 4 4 4 4 4 4 4 4 4 4 4 4 4 4 4 4 4 4 4 4 4 4 4 4 4 4 4 4 4 4 4 4 4 4 4 4 4 4 4 4 4 4 4 4 4 4 4 4 4 4 4 4 4 4 4 4 4 4 4 4 4 4 4 4 4 4 4 4 4 4 4 4 4 4 4 4 4 4 4 4 4 4 4 4 4 4 4 4 4 4 4 4 4 4 4 4 4 4 4 4 4 4 4 4 4 4 4 4 4 4 4 4 4 4 4 4 4 4 4 4 4 4 4 4 4 4 4 4 4 4 4 4 4 4 4 4 4 4 4 4 4 4 4 4 4 4 4 4 4 4 4 4 4 4 4 4 4 4 4 4 4 4 4 4 4 4 4 4 4 4 4 4 4 4 4 4 4 4 4 4 4 4 4 4
</DataArray>
</PointData>
</Piece>
</PolyData>
</VTKFile>
